<?xml version="1.0" encoding="UTF-8" standalone="no"?>
<!DOCTYPE svg PUBLIC "-//W3C//DTD SVG 1.1//EN"
 "http://www.w3.org/Graphics/SVG/1.1/DTD/svg11.dtd">
<!-- Generated by graphviz version 2.43.0 (0)
 -->
<!-- Title: buf.h Pages: 1 -->
<svg width="120pt" height="84pt"
 viewBox="0.00 0.00 120.00 84.00" xmlns="http://www.w3.org/2000/svg" xmlns:xlink="http://www.w3.org/1999/xlink">
<g id="graph0" class="graph" transform="scale(1 1) rotate(0) translate(4 80)">
<title>buf.h</title>
<polygon fill="white" stroke="transparent" points="-4,4 -4,-80 116,-80 116,4 -4,4"/>
<!-- Node1 -->
<g id="node1" class="node">
<title>Node1</title>
<g id="a_node1"><a xlink:title="Buffers that map between stdio file streams and librsync streams.">
<polygon fill="#bfbfbf" stroke="black" points="31.5,-56.5 31.5,-75.5 72.5,-75.5 72.5,-56.5 31.5,-56.5"/>
<text text-anchor="middle" x="52" y="-63.5" font-family="Helvetica,sans-Serif" font-size="10.00">buf.h</text>
</a>
</g>
</g>
<!-- Node2 -->
<g id="node2" class="node">
<title>Node2</title>
<g id="a_node2"><a xlink:href="buf_8c_source.html" target="_top" xlink:title=" ">
<polygon fill="white" stroke="black" points="0,-0.5 0,-19.5 40,-19.5 40,-0.5 0,-0.5"/>
<text text-anchor="middle" x="20" y="-7.5" font-family="Helvetica,sans-Serif" font-size="10.00">buf.c</text>
</a>
</g>
</g>
<!-- Node1&#45;&gt;Node2 -->
<g id="edge1" class="edge">
<title>Node1&#45;&gt;Node2</title>
<path fill="none" stroke="midnightblue" d="M41.5,-47.27C36.03,-38.05 29.58,-27.17 25.19,-19.75"/>
<polygon fill="midnightblue" stroke="midnightblue" points="38.61,-49.26 46.72,-56.08 44.63,-45.7 38.61,-49.26"/>
</g>
<!-- Node3 -->
<g id="node3" class="node">
<title>Node3</title>
<g id="a_node3"><a xlink:href="whole_8c_source.html" target="_top" xlink:title=" ">
<polygon fill="white" stroke="black" points="58,-0.5 58,-19.5 112,-19.5 112,-0.5 58,-0.5"/>
<text text-anchor="middle" x="85" y="-7.5" font-family="Helvetica,sans-Serif" font-size="10.00">whole.c</text>
</a>
</g>
</g>
<!-- Node1&#45;&gt;Node3 -->
<g id="edge2" class="edge">
<title>Node1&#45;&gt;Node3</title>
<path fill="none" stroke="midnightblue" d="M62.83,-47.27C68.47,-38.05 75.12,-27.17 79.65,-19.75"/>
<polygon fill="midnightblue" stroke="midnightblue" points="59.68,-45.73 57.45,-56.08 65.65,-49.38 59.68,-45.73"/>
</g>
</g>
</svg>
