<?xml version="1.0" encoding="UTF-8" standalone="no"?>
<!DOCTYPE svg PUBLIC "-//W3C//DTD SVG 1.1//EN"
 "http://www.w3.org/Graphics/SVG/1.1/DTD/svg11.dtd">
<!-- Generated by graphviz version 2.43.0 (0)
 -->
<!-- Title: checksum.h Pages: 1 -->
<svg width="576pt" height="140pt"
 viewBox="0.00 0.00 575.50 140.00" xmlns="http://www.w3.org/2000/svg" xmlns:xlink="http://www.w3.org/1999/xlink">
<g id="graph0" class="graph" transform="scale(1 1) rotate(0) translate(4 136)">
<title>checksum.h</title>
<polygon fill="white" stroke="transparent" points="-4,4 -4,-136 571.5,-136 571.5,4 -4,4"/>
<!-- Node1 -->
<g id="node1" class="node">
<title>Node1</title>
<g id="a_node1"><a xlink:title="Abstract wrappers around different weaksum and strongsum implementations.">
<polygon fill="#bfbfbf" stroke="black" points="149.5,-112.5 149.5,-131.5 224.5,-131.5 224.5,-112.5 149.5,-112.5"/>
<text text-anchor="middle" x="187" y="-119.5" font-family="Helvetica,sans-Serif" font-size="10.00">checksum.h</text>
</a>
</g>
</g>
<!-- Node2 -->
<g id="node2" class="node">
<title>Node2</title>
<g id="a_node2"><a xlink:title=" ">
<polygon fill="white" stroke="#bfbfbf" points="0,-0.5 0,-19.5 56,-19.5 56,-0.5 0,-0.5"/>
<text text-anchor="middle" x="28" y="-7.5" font-family="Helvetica,sans-Serif" font-size="10.00">assert.h</text>
</a>
</g>
</g>
<!-- Node1&#45;&gt;Node2 -->
<g id="edge1" class="edge">
<title>Node1&#45;&gt;Node2</title>
<path fill="none" stroke="midnightblue" d="M149.24,-118.44C117.77,-114.31 73.89,-103.62 47,-76 35.09,-63.77 30.58,-44.51 28.9,-30.12"/>
<polygon fill="midnightblue" stroke="midnightblue" points="32.37,-29.54 28.08,-19.85 25.39,-30.1 32.37,-29.54"/>
</g>
<!-- Node3 -->
<g id="node3" class="node">
<title>Node3</title>
<g id="a_node3"><a xlink:title=" ">
<polygon fill="white" stroke="#bfbfbf" points="171,-0.5 171,-19.5 227,-19.5 227,-0.5 171,-0.5"/>
<text text-anchor="middle" x="199" y="-7.5" font-family="Helvetica,sans-Serif" font-size="10.00">stddef.h</text>
</a>
</g>
</g>
<!-- Node1&#45;&gt;Node3 -->
<g id="edge2" class="edge">
<title>Node1&#45;&gt;Node3</title>
<path fill="none" stroke="midnightblue" d="M183.5,-112.09C179.04,-99.49 172.42,-75.8 177,-56 179.23,-46.36 183.82,-36.41 188.24,-28.31"/>
<polygon fill="midnightblue" stroke="midnightblue" points="191.35,-29.92 193.36,-19.52 185.3,-26.4 191.35,-29.92"/>
</g>
<!-- Node4 -->
<g id="node4" class="node">
<title>Node4</title>
<g id="a_node4"><a xlink:href="librsync_8h.html" target="_top" xlink:title="Public header for librsync.">
<polygon fill="white" stroke="black" points="356,-56.5 356,-75.5 420,-75.5 420,-56.5 356,-56.5"/>
<text text-anchor="middle" x="388" y="-63.5" font-family="Helvetica,sans-Serif" font-size="10.00">librsync.h</text>
</a>
</g>
</g>
<!-- Node1&#45;&gt;Node4 -->
<g id="edge3" class="edge">
<title>Node1&#45;&gt;Node4</title>
<path fill="none" stroke="midnightblue" d="M218.85,-112.44C253.4,-103.16 308.68,-88.31 346.58,-78.13"/>
<polygon fill="midnightblue" stroke="midnightblue" points="347.55,-81.49 356.3,-75.52 345.73,-74.73 347.55,-81.49"/>
</g>
<!-- Node9 -->
<g id="node9" class="node">
<title>Node9</title>
<g id="a_node9"><a xlink:href="rollsum_8h.html" target="_top" xlink:title="The Rollsum class implementation of the original rsync rollsum.">
<polygon fill="white" stroke="black" points="186,-56.5 186,-75.5 248,-75.5 248,-56.5 186,-56.5"/>
<text text-anchor="middle" x="217" y="-63.5" font-family="Helvetica,sans-Serif" font-size="10.00">rollsum.h</text>
</a>
</g>
</g>
<!-- Node1&#45;&gt;Node9 -->
<g id="edge8" class="edge">
<title>Node1&#45;&gt;Node9</title>
<path fill="none" stroke="midnightblue" d="M191.95,-112.08C196.1,-104.61 202.15,-93.72 207.27,-84.52"/>
<polygon fill="midnightblue" stroke="midnightblue" points="210.34,-86.19 212.14,-75.75 204.22,-82.79 210.34,-86.19"/>
</g>
<!-- Node10 -->
<g id="node10" class="node">
<title>Node10</title>
<g id="a_node10"><a xlink:href="rabinkarp_8h.html" target="_top" xlink:title="The rabinkarp class implementation of the RabinKarp rollsum.">
<polygon fill="white" stroke="black" points="266,-56.5 266,-75.5 338,-75.5 338,-56.5 266,-56.5"/>
<text text-anchor="middle" x="302" y="-63.5" font-family="Helvetica,sans-Serif" font-size="10.00">rabinkarp.h</text>
</a>
</g>
</g>
<!-- Node1&#45;&gt;Node10 -->
<g id="edge11" class="edge">
<title>Node1&#45;&gt;Node10</title>
<path fill="none" stroke="midnightblue" d="M205.22,-112.44C223.9,-103.68 253.16,-89.94 274.62,-79.86"/>
<polygon fill="midnightblue" stroke="midnightblue" points="276.3,-82.93 283.86,-75.52 273.32,-76.6 276.3,-82.93"/>
</g>
<!-- Node11 -->
<g id="node11" class="node">
<title>Node11</title>
<g id="a_node11"><a xlink:href="hashtable_8h.html" target="_top" xlink:title="A generic open addressing hashtable.">
<polygon fill="white" stroke="black" points="56,-56.5 56,-75.5 130,-75.5 130,-56.5 56,-56.5"/>
<text text-anchor="middle" x="93" y="-63.5" font-family="Helvetica,sans-Serif" font-size="10.00">hashtable.h</text>
</a>
</g>
</g>
<!-- Node1&#45;&gt;Node11 -->
<g id="edge14" class="edge">
<title>Node1&#45;&gt;Node11</title>
<path fill="none" stroke="midnightblue" d="M171.9,-112.32C157.1,-103.82 134.31,-90.73 117.02,-80.8"/>
<polygon fill="midnightblue" stroke="midnightblue" points="118.48,-77.6 108.07,-75.65 114.99,-83.67 118.48,-77.6"/>
</g>
<!-- Node5 -->
<g id="node5" class="node">
<title>Node5</title>
<g id="a_node5"><a xlink:title=" ">
<polygon fill="white" stroke="#bfbfbf" points="332,-0.5 332,-19.5 382,-19.5 382,-0.5 332,-0.5"/>
<text text-anchor="middle" x="357" y="-7.5" font-family="Helvetica,sans-Serif" font-size="10.00">stdio.h</text>
</a>
</g>
</g>
<!-- Node4&#45;&gt;Node5 -->
<g id="edge4" class="edge">
<title>Node4&#45;&gt;Node5</title>
<path fill="none" stroke="midnightblue" d="M382.88,-56.08C378.59,-48.61 372.34,-37.72 367.06,-28.52"/>
<polygon fill="midnightblue" stroke="midnightblue" points="370.04,-26.68 362.02,-19.75 363.97,-30.17 370.04,-26.68"/>
</g>
<!-- Node6 -->
<g id="node6" class="node">
<title>Node6</title>
<g id="a_node6"><a xlink:title=" ">
<polygon fill="white" stroke="#bfbfbf" points="260.5,-0.5 260.5,-19.5 313.5,-19.5 313.5,-0.5 260.5,-0.5"/>
<text text-anchor="middle" x="287" y="-7.5" font-family="Helvetica,sans-Serif" font-size="10.00">stdint.h</text>
</a>
</g>
</g>
<!-- Node4&#45;&gt;Node6 -->
<g id="edge5" class="edge">
<title>Node4&#45;&gt;Node6</title>
<path fill="none" stroke="midnightblue" d="M371.77,-56.32C355.65,-47.7 330.7,-34.36 312.04,-24.39"/>
<polygon fill="midnightblue" stroke="midnightblue" points="313.66,-21.28 303.19,-19.65 310.36,-27.46 313.66,-21.28"/>
</g>
<!-- Node7 -->
<g id="node7" class="node">
<title>Node7</title>
<g id="a_node7"><a xlink:title=" ">
<polygon fill="white" stroke="#bfbfbf" points="400,-0.5 400,-19.5 448,-19.5 448,-0.5 400,-0.5"/>
<text text-anchor="middle" x="424" y="-7.5" font-family="Helvetica,sans-Serif" font-size="10.00">time.h</text>
</a>
</g>
</g>
<!-- Node4&#45;&gt;Node7 -->
<g id="edge6" class="edge">
<title>Node4&#45;&gt;Node7</title>
<path fill="none" stroke="midnightblue" d="M393.94,-56.08C398.98,-48.53 406.34,-37.49 412.51,-28.23"/>
<polygon fill="midnightblue" stroke="midnightblue" points="415.53,-30.01 418.17,-19.75 409.71,-26.13 415.53,-30.01"/>
</g>
<!-- Node8 -->
<g id="node8" class="node">
<title>Node8</title>
<g id="a_node8"><a xlink:href="librsync__export_8h_source.html" target="_top" xlink:title=" ">
<polygon fill="white" stroke="black" points="466.5,-0.5 466.5,-19.5 567.5,-19.5 567.5,-0.5 466.5,-0.5"/>
<text text-anchor="middle" x="517" y="-7.5" font-family="Helvetica,sans-Serif" font-size="10.00">librsync_export.h</text>
</a>
</g>
</g>
<!-- Node4&#45;&gt;Node8 -->
<g id="edge7" class="edge">
<title>Node4&#45;&gt;Node8</title>
<path fill="none" stroke="midnightblue" d="M408.44,-56.44C429.67,-47.56 463.1,-33.56 487.25,-23.45"/>
<polygon fill="midnightblue" stroke="midnightblue" points="488.78,-26.61 496.66,-19.52 486.08,-20.15 488.78,-26.61"/>
</g>
<!-- Node9&#45;&gt;Node3 -->
<g id="edge9" class="edge">
<title>Node9&#45;&gt;Node3</title>
<path fill="none" stroke="midnightblue" d="M214.03,-56.08C211.62,-48.85 208.14,-38.41 205.13,-29.4"/>
<polygon fill="midnightblue" stroke="midnightblue" points="208.4,-28.13 201.92,-19.75 201.76,-30.34 208.4,-28.13"/>
</g>
<!-- Node9&#45;&gt;Node6 -->
<g id="edge10" class="edge">
<title>Node9&#45;&gt;Node6</title>
<path fill="none" stroke="midnightblue" d="M228.25,-56.32C238.8,-48.18 254.8,-35.84 267.44,-26.09"/>
<polygon fill="midnightblue" stroke="midnightblue" points="269.77,-28.71 275.55,-19.83 265.49,-23.17 269.77,-28.71"/>
</g>
<!-- Node10&#45;&gt;Node3 -->
<g id="edge12" class="edge">
<title>Node10&#45;&gt;Node3</title>
<path fill="none" stroke="midnightblue" d="M285.45,-56.32C269.01,-47.7 243.57,-34.36 224.53,-24.39"/>
<polygon fill="midnightblue" stroke="midnightblue" points="225.99,-21.2 215.51,-19.65 222.74,-27.4 225.99,-21.2"/>
</g>
<!-- Node10&#45;&gt;Node6 -->
<g id="edge13" class="edge">
<title>Node10&#45;&gt;Node6</title>
<path fill="none" stroke="midnightblue" d="M299.52,-56.08C297.51,-48.85 294.61,-38.41 292.11,-29.4"/>
<polygon fill="midnightblue" stroke="midnightblue" points="295.48,-28.45 289.43,-19.75 288.74,-30.32 295.48,-28.45"/>
</g>
<!-- Node11&#45;&gt;Node2 -->
<g id="edge16" class="edge">
<title>Node11&#45;&gt;Node2</title>
<path fill="none" stroke="midnightblue" d="M82.56,-56.32C72.85,-48.26 58.18,-36.08 46.5,-26.37"/>
<polygon fill="midnightblue" stroke="midnightblue" points="48.56,-23.53 38.63,-19.83 44.09,-28.92 48.56,-23.53"/>
</g>
<!-- Node11&#45;&gt;Node3 -->
<g id="edge17" class="edge">
<title>Node11&#45;&gt;Node3</title>
<path fill="none" stroke="midnightblue" d="M110.03,-56.32C127.03,-47.66 153.38,-34.24 172.99,-24.25"/>
<polygon fill="midnightblue" stroke="midnightblue" points="174.69,-27.31 182.01,-19.65 171.51,-21.08 174.69,-27.31"/>
</g>
<!-- Node12 -->
<g id="node12" class="node">
<title>Node12</title>
<g id="a_node12"><a xlink:title=" ">
<polygon fill="white" stroke="#bfbfbf" points="74,-0.5 74,-19.5 136,-19.5 136,-0.5 74,-0.5"/>
<text text-anchor="middle" x="105" y="-7.5" font-family="Helvetica,sans-Serif" font-size="10.00">stdbool.h</text>
</a>
</g>
</g>
<!-- Node11&#45;&gt;Node12 -->
<g id="edge15" class="edge">
<title>Node11&#45;&gt;Node12</title>
<path fill="none" stroke="midnightblue" d="M94.98,-56.08C96.57,-48.93 98.86,-38.64 100.85,-29.69"/>
<polygon fill="midnightblue" stroke="midnightblue" points="104.3,-30.27 103.06,-19.75 97.47,-28.75 104.3,-30.27"/>
</g>
</g>
</svg>
