<?xml version="1.0" encoding="UTF-8" standalone="no"?>
<!DOCTYPE svg PUBLIC "-//W3C//DTD SVG 1.1//EN"
 "http://www.w3.org/Graphics/SVG/1.1/DTD/svg11.dtd">
<!-- Generated by graphviz version 2.43.0 (0)
 -->
<!-- Title: command.h Pages: 1 -->
<svg width="280pt" height="140pt"
 viewBox="0.00 0.00 280.00 140.00" xmlns="http://www.w3.org/2000/svg" xmlns:xlink="http://www.w3.org/1999/xlink">
<g id="graph0" class="graph" transform="scale(1 1) rotate(0) translate(4 136)">
<title>command.h</title>
<polygon fill="white" stroke="transparent" points="-4,4 -4,-136 276,-136 276,4 -4,4"/>
<!-- Node1 -->
<g id="node1" class="node">
<title>Node1</title>
<g id="a_node1"><a xlink:title="Types of commands present in the encoding stream.">
<polygon fill="#bfbfbf" stroke="black" points="96,-112.5 96,-131.5 170,-131.5 170,-112.5 96,-112.5"/>
<text text-anchor="middle" x="133" y="-119.5" font-family="Helvetica,sans-Serif" font-size="10.00">command.h</text>
</a>
</g>
</g>
<!-- Node2 -->
<g id="node2" class="node">
<title>Node2</title>
<g id="a_node2"><a xlink:href="command_8c_source.html" target="_top" xlink:title=" ">
<polygon fill="white" stroke="black" points="0,-56.5 0,-75.5 74,-75.5 74,-56.5 0,-56.5"/>
<text text-anchor="middle" x="37" y="-63.5" font-family="Helvetica,sans-Serif" font-size="10.00">command.c</text>
</a>
</g>
</g>
<!-- Node1&#45;&gt;Node2 -->
<g id="edge1" class="edge">
<title>Node1&#45;&gt;Node2</title>
<path fill="none" stroke="midnightblue" d="M108.43,-107.18C90.76,-97.24 67.49,-84.15 52.39,-75.65"/>
<polygon fill="midnightblue" stroke="midnightblue" points="107.14,-110.47 117.58,-112.32 110.58,-104.37 107.14,-110.47"/>
</g>
<!-- Node3 -->
<g id="node3" class="node">
<title>Node3</title>
<g id="a_node3"><a xlink:href="patch_8c.html" target="_top" xlink:title="Apply a delta to an old file to generate a new file.">
<polygon fill="white" stroke="black" points="70,-0.5 70,-19.5 122,-19.5 122,-0.5 70,-0.5"/>
<text text-anchor="middle" x="96" y="-7.5" font-family="Helvetica,sans-Serif" font-size="10.00">patch.c</text>
</a>
</g>
</g>
<!-- Node1&#45;&gt;Node3 -->
<g id="edge2" class="edge">
<title>Node1&#45;&gt;Node3</title>
<path fill="none" stroke="midnightblue" d="M126.84,-102.67C118.75,-78.62 104.88,-37.39 98.89,-19.59"/>
<polygon fill="midnightblue" stroke="midnightblue" points="123.59,-104.01 130.1,-112.37 130.23,-101.77 123.59,-104.01"/>
</g>
<!-- Node4 -->
<g id="node4" class="node">
<title>Node4</title>
<g id="a_node4"><a xlink:href="prototab_8c_source.html" target="_top" xlink:title=" ">
<polygon fill="white" stroke="black" points="206,-0.5 206,-19.5 272,-19.5 272,-0.5 206,-0.5"/>
<text text-anchor="middle" x="239" y="-7.5" font-family="Helvetica,sans-Serif" font-size="10.00">prototab.c</text>
</a>
</g>
</g>
<!-- Node1&#45;&gt;Node4 -->
<g id="edge3" class="edge">
<title>Node1&#45;&gt;Node4</title>
<path fill="none" stroke="midnightblue" d="M162.64,-107.93C177.4,-100.28 194.68,-89.47 207,-76 222.45,-59.11 232.11,-33.38 236.4,-19.92"/>
<polygon fill="midnightblue" stroke="midnightblue" points="160.8,-104.94 153.38,-112.5 163.9,-111.21 160.8,-104.94"/>
</g>
<!-- Node5 -->
<g id="node5" class="node">
<title>Node5</title>
<g id="a_node5"><a xlink:href="prototab_8h.html" target="_top" xlink:title="Delta file commands.">
<polygon fill="white" stroke="black" points="130.5,-56.5 130.5,-75.5 197.5,-75.5 197.5,-56.5 130.5,-56.5"/>
<text text-anchor="middle" x="164" y="-63.5" font-family="Helvetica,sans-Serif" font-size="10.00">prototab.h</text>
</a>
</g>
</g>
<!-- Node1&#45;&gt;Node5 -->
<g id="edge4" class="edge">
<title>Node1&#45;&gt;Node5</title>
<path fill="none" stroke="midnightblue" d="M143.18,-103.27C148.47,-94.05 154.72,-83.17 158.98,-75.75"/>
<polygon fill="midnightblue" stroke="midnightblue" points="140.06,-101.67 138.12,-112.08 146.13,-105.15 140.06,-101.67"/>
</g>
<!-- Node5&#45;&gt;Node3 -->
<g id="edge6" class="edge">
<title>Node5&#45;&gt;Node3</title>
<path fill="none" stroke="midnightblue" d="M145.24,-50.1C133,-40.38 117.44,-28.03 107.12,-19.83"/>
<polygon fill="midnightblue" stroke="midnightblue" points="143.07,-52.85 153.07,-56.32 147.42,-47.36 143.07,-52.85"/>
</g>
<!-- Node5&#45;&gt;Node4 -->
<g id="edge7" class="edge">
<title>Node5&#45;&gt;Node4</title>
<path fill="none" stroke="midnightblue" d="M184.31,-50.38C197.86,-40.62 215.24,-28.11 226.73,-19.83"/>
<polygon fill="midnightblue" stroke="midnightblue" points="182.12,-47.64 176.05,-56.32 186.21,-53.32 182.12,-47.64"/>
</g>
<!-- Node6 -->
<g id="node6" class="node">
<title>Node6</title>
<g id="a_node6"><a xlink:href="emit_8c_source.html" target="_top" xlink:title=" ">
<polygon fill="white" stroke="black" points="140.5,-0.5 140.5,-19.5 187.5,-19.5 187.5,-0.5 140.5,-0.5"/>
<text text-anchor="middle" x="164" y="-7.5" font-family="Helvetica,sans-Serif" font-size="10.00">emit.c</text>
</a>
</g>
</g>
<!-- Node5&#45;&gt;Node6 -->
<g id="edge5" class="edge">
<title>Node5&#45;&gt;Node6</title>
<path fill="none" stroke="midnightblue" d="M164,-45.8C164,-36.91 164,-26.78 164,-19.75"/>
<polygon fill="midnightblue" stroke="midnightblue" points="160.5,-46.08 164,-56.08 167.5,-46.08 160.5,-46.08"/>
</g>
</g>
</svg>
