<?xml version="1.0" encoding="UTF-8" standalone="no"?>
<!DOCTYPE svg PUBLIC "-//W3C//DTD SVG 1.1//EN"
 "http://www.w3.org/Graphics/SVG/1.1/DTD/svg11.dtd">
<!-- Generated by graphviz version 2.43.0 (0)
 -->
<!-- Title: delta.c Pages: 1 -->
<svg width="996pt" height="308pt"
 viewBox="0.00 0.00 995.50 308.00" xmlns="http://www.w3.org/2000/svg" xmlns:xlink="http://www.w3.org/1999/xlink">
<g id="graph0" class="graph" transform="scale(1 1) rotate(0) translate(4 304)">
<title>delta.c</title>
<polygon fill="white" stroke="transparent" points="-4,4 -4,-304 991.5,-304 991.5,4 -4,4"/>
<!-- Node1 -->
<g id="node1" class="node">
<title>Node1</title>
<g id="a_node1"><a xlink:title="Generate in streaming mode an rsync delta given a set of signatures, and a new file.">
<polygon fill="#bfbfbf" stroke="black" points="566,-280.5 566,-299.5 616,-299.5 616,-280.5 566,-280.5"/>
<text text-anchor="middle" x="591" y="-287.5" font-family="Helvetica,sans-Serif" font-size="10.00">delta.c</text>
</a>
</g>
</g>
<!-- Node2 -->
<g id="node2" class="node">
<title>Node2</title>
<g id="a_node2"><a xlink:href="config_8h_source.html" target="_top" xlink:title=" ">
<polygon fill="white" stroke="black" points="0,-168.5 0,-187.5 56,-187.5 56,-168.5 0,-168.5"/>
<text text-anchor="middle" x="28" y="-175.5" font-family="Helvetica,sans-Serif" font-size="10.00">config.h</text>
</a>
</g>
</g>
<!-- Node1&#45;&gt;Node2 -->
<g id="edge1" class="edge">
<title>Node1&#45;&gt;Node2</title>
<path fill="none" stroke="midnightblue" d="M565.7,-288.06C467.63,-284.24 115.94,-268.93 73,-244 54.87,-233.47 42.35,-212.37 35.21,-197.05"/>
<polygon fill="midnightblue" stroke="midnightblue" points="38.29,-195.37 31.11,-187.58 31.87,-198.15 38.29,-195.37"/>
</g>
<!-- Node3 -->
<g id="node3" class="node">
<title>Node3</title>
<g id="a_node3"><a xlink:title=" ">
<polygon fill="white" stroke="#bfbfbf" points="532,-0.5 532,-19.5 588,-19.5 588,-0.5 532,-0.5"/>
<text text-anchor="middle" x="560" y="-7.5" font-family="Helvetica,sans-Serif" font-size="10.00">assert.h</text>
</a>
</g>
</g>
<!-- Node1&#45;&gt;Node3 -->
<g id="edge2" class="edge">
<title>Node1&#45;&gt;Node3</title>
<path fill="none" stroke="midnightblue" d="M593.23,-280.45C595.46,-271.45 598.73,-256.84 600,-244 600.88,-235.15 600.82,-232.85 600,-224 593.24,-151.34 573.76,-66.53 564.72,-29.68"/>
<polygon fill="midnightblue" stroke="midnightblue" points="568.09,-28.7 562.27,-19.84 561.29,-30.39 568.09,-28.7"/>
</g>
<!-- Node4 -->
<g id="node4" class="node">
<title>Node4</title>
<g id="a_node4"><a xlink:title=" ">
<polygon fill="white" stroke="#bfbfbf" points="934.5,-224.5 934.5,-243.5 987.5,-243.5 987.5,-224.5 934.5,-224.5"/>
<text text-anchor="middle" x="961" y="-231.5" font-family="Helvetica,sans-Serif" font-size="10.00">stdlib.h</text>
</a>
</g>
</g>
<!-- Node1&#45;&gt;Node4 -->
<g id="edge3" class="edge">
<title>Node1&#45;&gt;Node4</title>
<path fill="none" stroke="midnightblue" d="M616.29,-286.24C671.58,-280.06 807.33,-264.04 920,-244 921.29,-243.77 922.6,-243.53 923.93,-243.28"/>
<polygon fill="midnightblue" stroke="midnightblue" points="925.04,-246.62 934.16,-241.22 923.66,-239.76 925.04,-246.62"/>
</g>
<!-- Node5 -->
<g id="node5" class="node">
<title>Node5</title>
<g id="a_node5"><a xlink:href="librsync_8h.html" target="_top" xlink:title="Public header for librsync.">
<polygon fill="white" stroke="black" points="770,-56.5 770,-75.5 834,-75.5 834,-56.5 770,-56.5"/>
<text text-anchor="middle" x="802" y="-63.5" font-family="Helvetica,sans-Serif" font-size="10.00">librsync.h</text>
</a>
</g>
</g>
<!-- Node1&#45;&gt;Node5 -->
<g id="edge4" class="edge">
<title>Node1&#45;&gt;Node5</title>
<path fill="none" stroke="midnightblue" d="M609.8,-280.48C650.57,-260.9 746.81,-208.43 789,-132 796.91,-117.67 800.04,-99.21 801.27,-85.62"/>
<polygon fill="midnightblue" stroke="midnightblue" points="804.76,-85.76 801.91,-75.56 797.78,-85.31 804.76,-85.76"/>
</g>
<!-- Node10 -->
<g id="node10" class="node">
<title>Node10</title>
<g id="a_node10"><a xlink:href="job_8h.html" target="_top" xlink:title="Generic state&#45;machine interface.">
<polygon fill="white" stroke="black" points="442.5,-168.5 442.5,-187.5 483.5,-187.5 483.5,-168.5 442.5,-168.5"/>
<text text-anchor="middle" x="463" y="-175.5" font-family="Helvetica,sans-Serif" font-size="10.00">job.h</text>
</a>
</g>
</g>
<!-- Node1&#45;&gt;Node10 -->
<g id="edge9" class="edge">
<title>Node1&#45;&gt;Node10</title>
<path fill="none" stroke="midnightblue" d="M565.81,-282.32C544.68,-275.62 514.84,-263.46 495,-244 481.83,-231.08 473.25,-211.64 468.32,-197.38"/>
<polygon fill="midnightblue" stroke="midnightblue" points="471.61,-196.16 465.25,-187.69 464.93,-198.28 471.61,-196.16"/>
</g>
<!-- Node13 -->
<g id="node13" class="node">
<title>Node13</title>
<g id="a_node13"><a xlink:href="checksum_8h.html" target="_top" xlink:title="Abstract wrappers around different weaksum and strongsum implementations.">
<polygon fill="white" stroke="black" points="494.5,-112.5 494.5,-131.5 569.5,-131.5 569.5,-112.5 494.5,-112.5"/>
<text text-anchor="middle" x="532" y="-119.5" font-family="Helvetica,sans-Serif" font-size="10.00">checksum.h</text>
</a>
</g>
</g>
<!-- Node1&#45;&gt;Node13 -->
<g id="edge35" class="edge">
<title>Node1&#45;&gt;Node13</title>
<path fill="none" stroke="midnightblue" d="M570.15,-280.43C555.42,-273.13 536.8,-261.09 528,-244 511.07,-211.1 519.31,-166.23 526.12,-141.41"/>
<polygon fill="midnightblue" stroke="midnightblue" points="529.56,-142.12 529.05,-131.53 522.85,-140.13 529.56,-142.12"/>
</g>
<!-- Node18 -->
<g id="node18" class="node">
<title>Node18</title>
<g id="a_node18"><a xlink:href="sumset_8h.html" target="_top" xlink:title="The rs_signature class implementation of a file signature.">
<polygon fill="white" stroke="black" points="626,-168.5 626,-187.5 688,-187.5 688,-168.5 626,-168.5"/>
<text text-anchor="middle" x="657" y="-175.5" font-family="Helvetica,sans-Serif" font-size="10.00">sumset.h</text>
</a>
</g>
</g>
<!-- Node1&#45;&gt;Node18 -->
<g id="edge29" class="edge">
<title>Node1&#45;&gt;Node18</title>
<path fill="none" stroke="midnightblue" d="M601.22,-280.26C610.57,-271.8 624.25,-258.19 633,-244 641.88,-229.6 648.24,-211.41 652.18,-197.93"/>
<polygon fill="midnightblue" stroke="midnightblue" points="655.66,-198.48 654.91,-187.91 648.9,-196.64 655.66,-198.48"/>
</g>
<!-- Node19 -->
<g id="node19" class="node">
<title>Node19</title>
<g id="a_node19"><a xlink:href="scoop_8h.html" target="_top" xlink:title="Manage librsync streams of IO.">
<polygon fill="white" stroke="black" points="537,-224.5 537,-243.5 591,-243.5 591,-224.5 537,-224.5"/>
<text text-anchor="middle" x="564" y="-231.5" font-family="Helvetica,sans-Serif" font-size="10.00">scoop.h</text>
</a>
</g>
</g>
<!-- Node1&#45;&gt;Node19 -->
<g id="edge36" class="edge">
<title>Node1&#45;&gt;Node19</title>
<path fill="none" stroke="midnightblue" d="M586.54,-280.08C582.85,-272.69 577.48,-261.95 572.91,-252.81"/>
<polygon fill="midnightblue" stroke="midnightblue" points="575.98,-251.13 568.38,-243.75 569.72,-254.26 575.98,-251.13"/>
</g>
<!-- Node20 -->
<g id="node20" class="node">
<title>Node20</title>
<g id="a_node20"><a xlink:href="emit_8h.html" target="_top" xlink:title="encoding output routines.">
<polygon fill="white" stroke="black" points="896,-112.5 896,-131.5 944,-131.5 944,-112.5 896,-112.5"/>
<text text-anchor="middle" x="920" y="-119.5" font-family="Helvetica,sans-Serif" font-size="10.00">emit.h</text>
</a>
</g>
</g>
<!-- Node1&#45;&gt;Node20 -->
<g id="edge41" class="edge">
<title>Node1&#45;&gt;Node20</title>
<path fill="none" stroke="midnightblue" d="M616.29,-287.1C672.73,-282.44 806.91,-268.99 844,-244 881.41,-218.79 904.02,-168.33 913.98,-141.22"/>
<polygon fill="midnightblue" stroke="midnightblue" points="917.29,-142.37 917.28,-131.78 910.68,-140.06 917.29,-142.37"/>
</g>
<!-- Node21 -->
<g id="node21" class="node">
<title>Node21</title>
<g id="a_node21"><a xlink:href="trace_8h.html" target="_top" xlink:title="logging functions.">
<polygon fill="white" stroke="black" points="82,-224.5 82,-243.5 132,-243.5 132,-224.5 82,-224.5"/>
<text text-anchor="middle" x="107" y="-231.5" font-family="Helvetica,sans-Serif" font-size="10.00">trace.h</text>
</a>
</g>
</g>
<!-- Node1&#45;&gt;Node21 -->
<g id="edge43" class="edge">
<title>Node1&#45;&gt;Node21</title>
<path fill="none" stroke="midnightblue" d="M566,-286.21C485.85,-277.27 235.16,-249.3 142.17,-238.92"/>
<polygon fill="midnightblue" stroke="midnightblue" points="142.47,-235.44 132.14,-237.81 141.69,-242.39 142.47,-235.44"/>
</g>
<!-- Node6 -->
<g id="node6" class="node">
<title>Node6</title>
<g id="a_node6"><a xlink:title=" ">
<polygon fill="white" stroke="#bfbfbf" points="872,-0.5 872,-19.5 922,-19.5 922,-0.5 872,-0.5"/>
<text text-anchor="middle" x="897" y="-7.5" font-family="Helvetica,sans-Serif" font-size="10.00">stdio.h</text>
</a>
</g>
</g>
<!-- Node5&#45;&gt;Node6 -->
<g id="edge5" class="edge">
<title>Node5&#45;&gt;Node6</title>
<path fill="none" stroke="midnightblue" d="M817.26,-56.32C832.22,-47.82 855.25,-34.73 872.73,-24.8"/>
<polygon fill="midnightblue" stroke="midnightblue" points="874.81,-27.64 881.77,-19.65 871.35,-21.55 874.81,-27.64"/>
</g>
<!-- Node7 -->
<g id="node7" class="node">
<title>Node7</title>
<g id="a_node7"><a xlink:title=" ">
<polygon fill="white" stroke="#bfbfbf" points="393.5,-0.5 393.5,-19.5 446.5,-19.5 446.5,-0.5 393.5,-0.5"/>
<text text-anchor="middle" x="420" y="-7.5" font-family="Helvetica,sans-Serif" font-size="10.00">stdint.h</text>
</a>
</g>
</g>
<!-- Node5&#45;&gt;Node7 -->
<g id="edge6" class="edge">
<title>Node5&#45;&gt;Node7</title>
<path fill="none" stroke="midnightblue" d="M769.76,-60.44C699.21,-50.47 531.51,-26.76 456.89,-16.22"/>
<polygon fill="midnightblue" stroke="midnightblue" points="456.97,-12.69 446.58,-14.76 455.99,-19.62 456.97,-12.69"/>
</g>
<!-- Node8 -->
<g id="node8" class="node">
<title>Node8</title>
<g id="a_node8"><a xlink:title=" ">
<polygon fill="white" stroke="#bfbfbf" points="686,-0.5 686,-19.5 734,-19.5 734,-0.5 686,-0.5"/>
<text text-anchor="middle" x="710" y="-7.5" font-family="Helvetica,sans-Serif" font-size="10.00">time.h</text>
</a>
</g>
</g>
<!-- Node5&#45;&gt;Node8 -->
<g id="edge7" class="edge">
<title>Node5&#45;&gt;Node8</title>
<path fill="none" stroke="midnightblue" d="M787.22,-56.32C772.73,-47.82 750.43,-34.73 733.51,-24.8"/>
<polygon fill="midnightblue" stroke="midnightblue" points="735.14,-21.7 724.74,-19.65 731.6,-27.74 735.14,-21.7"/>
</g>
<!-- Node9 -->
<g id="node9" class="node">
<title>Node9</title>
<g id="a_node9"><a xlink:href="librsync__export_8h_source.html" target="_top" xlink:title=" ">
<polygon fill="white" stroke="black" points="752.5,-0.5 752.5,-19.5 853.5,-19.5 853.5,-0.5 752.5,-0.5"/>
<text text-anchor="middle" x="803" y="-7.5" font-family="Helvetica,sans-Serif" font-size="10.00">librsync_export.h</text>
</a>
</g>
</g>
<!-- Node5&#45;&gt;Node9 -->
<g id="edge8" class="edge">
<title>Node5&#45;&gt;Node9</title>
<path fill="none" stroke="midnightblue" d="M802.17,-56.08C802.3,-49.01 802.48,-38.86 802.65,-29.99"/>
<polygon fill="midnightblue" stroke="midnightblue" points="806.15,-29.81 802.84,-19.75 799.15,-29.68 806.15,-29.81"/>
</g>
<!-- Node10&#45;&gt;Node3 -->
<g id="edge10" class="edge">
<title>Node10&#45;&gt;Node3</title>
<path fill="none" stroke="midnightblue" d="M465.03,-168.24C468.22,-155.41 475.05,-131 485,-112 501.96,-79.62 528.8,-46.41 545.35,-27.29"/>
<polygon fill="midnightblue" stroke="midnightblue" points="548.18,-29.38 552.16,-19.56 542.93,-24.75 548.18,-29.38"/>
</g>
<!-- Node10&#45;&gt;Node5 -->
<g id="edge28" class="edge">
<title>Node10&#45;&gt;Node5</title>
<path fill="none" stroke="midnightblue" d="M483.7,-170.28C539.73,-152.1 694.96,-101.73 765.85,-78.73"/>
<polygon fill="midnightblue" stroke="midnightblue" points="767.24,-81.96 775.68,-75.54 765.08,-75.3 767.24,-81.96"/>
</g>
<!-- Node11 -->
<g id="node11" class="node">
<title>Node11</title>
<g id="a_node11"><a xlink:title=" ">
<polygon fill="white" stroke="#bfbfbf" points="216,-0.5 216,-19.5 272,-19.5 272,-0.5 216,-0.5"/>
<text text-anchor="middle" x="244" y="-7.5" font-family="Helvetica,sans-Serif" font-size="10.00">stddef.h</text>
</a>
</g>
</g>
<!-- Node10&#45;&gt;Node11 -->
<g id="edge11" class="edge">
<title>Node10&#45;&gt;Node11</title>
<path fill="none" stroke="midnightblue" d="M442.21,-176.85C384.46,-175.95 224.23,-170.02 192,-132 170.16,-106.23 177.96,-86.72 192,-56 197.78,-43.36 209.05,-32.91 219.63,-25.27"/>
<polygon fill="midnightblue" stroke="midnightblue" points="221.85,-28 228.22,-19.53 217.96,-22.18 221.85,-28"/>
</g>
<!-- Node12 -->
<g id="node12" class="node">
<title>Node12</title>
<g id="a_node12"><a xlink:href="mdfour_8h.html" target="_top" xlink:title="MD4 message digest algorithm.">
<polygon fill="white" stroke="black" points="376.5,-112.5 376.5,-131.5 437.5,-131.5 437.5,-112.5 376.5,-112.5"/>
<text text-anchor="middle" x="407" y="-119.5" font-family="Helvetica,sans-Serif" font-size="10.00">mdfour.h</text>
</a>
</g>
</g>
<!-- Node10&#45;&gt;Node12 -->
<g id="edge12" class="edge">
<title>Node10&#45;&gt;Node12</title>
<path fill="none" stroke="midnightblue" d="M454,-168.32C445.81,-160.42 433.49,-148.55 423.53,-138.94"/>
<polygon fill="midnightblue" stroke="midnightblue" points="425.79,-136.26 416.16,-131.83 420.93,-141.29 425.79,-136.26"/>
</g>
<!-- Node10&#45;&gt;Node13 -->
<g id="edge14" class="edge">
<title>Node10&#45;&gt;Node13</title>
<path fill="none" stroke="midnightblue" d="M474.09,-168.32C484.49,-160.18 500.26,-147.84 512.72,-138.09"/>
<polygon fill="midnightblue" stroke="midnightblue" points="514.99,-140.75 520.71,-131.83 510.68,-135.24 514.99,-140.75"/>
</g>
<!-- Node12&#45;&gt;Node7 -->
<g id="edge13" class="edge">
<title>Node12&#45;&gt;Node7</title>
<path fill="none" stroke="midnightblue" d="M413.89,-112.32C420.27,-103.68 429.31,-89.77 433,-76 437.19,-60.39 432.87,-42.34 428.11,-29.23"/>
<polygon fill="midnightblue" stroke="midnightblue" points="431.34,-27.88 424.36,-19.92 424.85,-30.5 431.34,-27.88"/>
</g>
<!-- Node13&#45;&gt;Node3 -->
<g id="edge15" class="edge">
<title>Node13&#45;&gt;Node3</title>
<path fill="none" stroke="midnightblue" d="M534.2,-112.37C538.72,-94.62 549.14,-53.67 555.27,-29.6"/>
<polygon fill="midnightblue" stroke="midnightblue" points="558.74,-30.15 557.81,-19.59 551.95,-28.42 558.74,-30.15"/>
</g>
<!-- Node13&#45;&gt;Node5 -->
<g id="edge17" class="edge">
<title>Node13&#45;&gt;Node5</title>
<path fill="none" stroke="midnightblue" d="M569.54,-113.49C619.53,-103.49 707.7,-85.86 759.9,-75.42"/>
<polygon fill="midnightblue" stroke="midnightblue" points="760.71,-78.83 769.83,-73.43 759.34,-71.96 760.71,-78.83"/>
</g>
<!-- Node13&#45;&gt;Node11 -->
<g id="edge16" class="edge">
<title>Node13&#45;&gt;Node11</title>
<path fill="none" stroke="midnightblue" d="M494.25,-116.92C424.3,-109.04 280.08,-91.17 263,-76 249.97,-64.43 245.66,-44.47 244.34,-29.71"/>
<polygon fill="midnightblue" stroke="midnightblue" points="247.83,-29.47 243.82,-19.67 240.84,-29.83 247.83,-29.47"/>
</g>
<!-- Node14 -->
<g id="node14" class="node">
<title>Node14</title>
<g id="a_node14"><a xlink:href="rollsum_8h.html" target="_top" xlink:title="The Rollsum class implementation of the original rsync rollsum.">
<polygon fill="white" stroke="black" points="272,-56.5 272,-75.5 334,-75.5 334,-56.5 272,-56.5"/>
<text text-anchor="middle" x="303" y="-63.5" font-family="Helvetica,sans-Serif" font-size="10.00">rollsum.h</text>
</a>
</g>
</g>
<!-- Node13&#45;&gt;Node14 -->
<g id="edge18" class="edge">
<title>Node13&#45;&gt;Node14</title>
<path fill="none" stroke="midnightblue" d="M495.71,-112.44C454.5,-102.72 387.39,-86.9 344.23,-76.72"/>
<polygon fill="midnightblue" stroke="midnightblue" points="344.87,-73.28 334.33,-74.39 343.26,-80.09 344.87,-73.28"/>
</g>
<!-- Node15 -->
<g id="node15" class="node">
<title>Node15</title>
<g id="a_node15"><a xlink:href="rabinkarp_8h.html" target="_top" xlink:title="The rabinkarp class implementation of the RabinKarp rollsum.">
<polygon fill="white" stroke="black" points="352,-56.5 352,-75.5 424,-75.5 424,-56.5 352,-56.5"/>
<text text-anchor="middle" x="388" y="-63.5" font-family="Helvetica,sans-Serif" font-size="10.00">rabinkarp.h</text>
</a>
</g>
</g>
<!-- Node13&#45;&gt;Node15 -->
<g id="edge21" class="edge">
<title>Node13&#45;&gt;Node15</title>
<path fill="none" stroke="midnightblue" d="M509.18,-112.44C485.17,-103.44 447.17,-89.19 420.13,-79.05"/>
<polygon fill="midnightblue" stroke="midnightblue" points="421.3,-75.75 410.71,-75.52 418.84,-82.3 421.3,-75.75"/>
</g>
<!-- Node16 -->
<g id="node16" class="node">
<title>Node16</title>
<g id="a_node16"><a xlink:href="hashtable_8h.html" target="_top" xlink:title="A generic open addressing hashtable.">
<polygon fill="white" stroke="black" points="594,-56.5 594,-75.5 668,-75.5 668,-56.5 594,-56.5"/>
<text text-anchor="middle" x="631" y="-63.5" font-family="Helvetica,sans-Serif" font-size="10.00">hashtable.h</text>
</a>
</g>
</g>
<!-- Node13&#45;&gt;Node16 -->
<g id="edge24" class="edge">
<title>Node13&#45;&gt;Node16</title>
<path fill="none" stroke="midnightblue" d="M547.91,-112.32C563.64,-103.74 587.94,-90.49 606.21,-80.52"/>
<polygon fill="midnightblue" stroke="midnightblue" points="608.03,-83.52 615.13,-75.65 604.68,-77.37 608.03,-83.52"/>
</g>
<!-- Node14&#45;&gt;Node7 -->
<g id="edge20" class="edge">
<title>Node14&#45;&gt;Node7</title>
<path fill="none" stroke="midnightblue" d="M321.54,-56.44C340.62,-47.64 370.57,-33.81 392.44,-23.72"/>
<polygon fill="midnightblue" stroke="midnightblue" points="393.93,-26.88 401.55,-19.52 391,-20.53 393.93,-26.88"/>
</g>
<!-- Node14&#45;&gt;Node11 -->
<g id="edge19" class="edge">
<title>Node14&#45;&gt;Node11</title>
<path fill="none" stroke="midnightblue" d="M293.52,-56.32C284.8,-48.34 271.66,-36.31 261.1,-26.65"/>
<polygon fill="midnightblue" stroke="midnightblue" points="263.39,-24 253.65,-19.83 258.67,-29.17 263.39,-24"/>
</g>
<!-- Node15&#45;&gt;Node7 -->
<g id="edge23" class="edge">
<title>Node15&#45;&gt;Node7</title>
<path fill="none" stroke="midnightblue" d="M393.28,-56.08C397.71,-48.61 404.16,-37.72 409.62,-28.52"/>
<polygon fill="midnightblue" stroke="midnightblue" points="412.73,-30.14 414.81,-19.75 406.71,-26.57 412.73,-30.14"/>
</g>
<!-- Node15&#45;&gt;Node11 -->
<g id="edge22" class="edge">
<title>Node15&#45;&gt;Node11</title>
<path fill="none" stroke="midnightblue" d="M365.18,-56.44C341.17,-47.44 303.17,-33.19 276.13,-23.05"/>
<polygon fill="midnightblue" stroke="midnightblue" points="277.3,-19.75 266.71,-19.52 274.84,-26.3 277.3,-19.75"/>
</g>
<!-- Node16&#45;&gt;Node3 -->
<g id="edge26" class="edge">
<title>Node16&#45;&gt;Node3</title>
<path fill="none" stroke="midnightblue" d="M619.59,-56.32C608.89,-48.18 592.66,-35.84 579.84,-26.09"/>
<polygon fill="midnightblue" stroke="midnightblue" points="581.69,-23.1 571.61,-19.83 577.46,-28.67 581.69,-23.1"/>
</g>
<!-- Node16&#45;&gt;Node11 -->
<g id="edge27" class="edge">
<title>Node16&#45;&gt;Node11</title>
<path fill="none" stroke="midnightblue" d="M593.89,-59.82C520.41,-49.57 357.07,-26.78 282.48,-16.37"/>
<polygon fill="midnightblue" stroke="midnightblue" points="282.53,-12.84 272.14,-14.93 281.56,-19.78 282.53,-12.84"/>
</g>
<!-- Node17 -->
<g id="node17" class="node">
<title>Node17</title>
<g id="a_node17"><a xlink:title=" ">
<polygon fill="white" stroke="#bfbfbf" points="606,-0.5 606,-19.5 668,-19.5 668,-0.5 606,-0.5"/>
<text text-anchor="middle" x="637" y="-7.5" font-family="Helvetica,sans-Serif" font-size="10.00">stdbool.h</text>
</a>
</g>
</g>
<!-- Node16&#45;&gt;Node17 -->
<g id="edge25" class="edge">
<title>Node16&#45;&gt;Node17</title>
<path fill="none" stroke="midnightblue" d="M631.99,-56.08C632.79,-48.93 633.93,-38.64 634.92,-29.69"/>
<polygon fill="midnightblue" stroke="midnightblue" points="638.4,-30.08 636.03,-19.75 631.44,-29.3 638.4,-30.08"/>
</g>
<!-- Node18&#45;&gt;Node3 -->
<g id="edge30" class="edge">
<title>Node18&#45;&gt;Node3</title>
<path fill="none" stroke="midnightblue" d="M662.18,-168.48C674.29,-147.38 701.59,-91.8 677,-56 667.67,-42.42 628.46,-29.17 597.97,-20.6"/>
<polygon fill="midnightblue" stroke="midnightblue" points="598.59,-17.14 588.02,-17.88 596.75,-23.89 598.59,-17.14"/>
</g>
<!-- Node18&#45;&gt;Node5 -->
<g id="edge34" class="edge">
<title>Node18&#45;&gt;Node5</title>
<path fill="none" stroke="midnightblue" d="M688.42,-170.52C712.58,-164.17 745.52,-152.4 768,-132 781.83,-119.45 790.97,-99.95 796.26,-85.58"/>
<polygon fill="midnightblue" stroke="midnightblue" points="799.68,-86.39 799.56,-75.8 793.05,-84.15 799.68,-86.39"/>
</g>
<!-- Node18&#45;&gt;Node11 -->
<g id="edge31" class="edge">
<title>Node18&#45;&gt;Node11</title>
<path fill="none" stroke="midnightblue" d="M625.88,-175.06C572.08,-171.08 458.64,-159.87 367,-132 310.69,-114.87 279.75,-124.9 247,-76 237.97,-62.52 238.13,-43.71 240.01,-29.79"/>
<polygon fill="midnightblue" stroke="midnightblue" points="243.47,-30.32 241.74,-19.87 236.57,-29.12 243.47,-30.32"/>
</g>
<!-- Node18&#45;&gt;Node13 -->
<g id="edge33" class="edge">
<title>Node18&#45;&gt;Node13</title>
<path fill="none" stroke="midnightblue" d="M637.19,-168.44C616.71,-159.6 584.52,-145.69 561.14,-135.59"/>
<polygon fill="midnightblue" stroke="midnightblue" points="562.28,-132.27 551.71,-131.52 559.51,-138.7 562.28,-132.27"/>
</g>
<!-- Node18&#45;&gt;Node16 -->
<g id="edge32" class="edge">
<title>Node18&#45;&gt;Node16</title>
<path fill="none" stroke="midnightblue" d="M654.96,-168.37C650.76,-150.62 641.08,-109.67 635.4,-85.6"/>
<polygon fill="midnightblue" stroke="midnightblue" points="638.74,-84.52 633.03,-75.59 631.92,-86.13 638.74,-84.52"/>
</g>
<!-- Node19&#45;&gt;Node5 -->
<g id="edge40" class="edge">
<title>Node19&#45;&gt;Node5</title>
<path fill="none" stroke="midnightblue" d="M591.13,-229.82C625.34,-224.89 685.1,-213.24 730,-188 761.52,-170.29 771.53,-163.65 789,-132 796.91,-117.67 800.04,-99.21 801.27,-85.62"/>
<polygon fill="midnightblue" stroke="midnightblue" points="804.76,-85.76 801.91,-75.56 797.78,-85.31 804.76,-85.76"/>
</g>
<!-- Node19&#45;&gt;Node10 -->
<g id="edge39" class="edge">
<title>Node19&#45;&gt;Node10</title>
<path fill="none" stroke="midnightblue" d="M547.77,-224.32C531.65,-215.7 506.7,-202.36 488.04,-192.39"/>
<polygon fill="midnightblue" stroke="midnightblue" points="489.66,-189.28 479.19,-187.65 486.36,-195.46 489.66,-189.28"/>
</g>
<!-- Node19&#45;&gt;Node11 -->
<g id="edge38" class="edge">
<title>Node19&#45;&gt;Node11</title>
<path fill="none" stroke="midnightblue" d="M536.87,-228.04C484.38,-217.46 366.88,-188.84 285,-132 257.83,-113.14 247.63,-106.96 236,-76 230.38,-61.03 233.34,-42.9 237.16,-29.59"/>
<polygon fill="midnightblue" stroke="midnightblue" points="240.61,-30.31 240.4,-19.72 233.96,-28.13 240.61,-30.31"/>
</g>
<!-- Node19&#45;&gt;Node17 -->
<g id="edge37" class="edge">
<title>Node19&#45;&gt;Node17</title>
<path fill="none" stroke="midnightblue" d="M591.04,-232.56C622.42,-230.42 672.92,-221.57 697,-188 711.36,-167.99 774.99,-213.81 696,-56 689.34,-42.69 676.67,-32.23 664.78,-24.75"/>
<polygon fill="midnightblue" stroke="midnightblue" points="666.35,-21.62 655.94,-19.62 662.83,-27.67 666.35,-21.62"/>
</g>
<!-- Node20&#45;&gt;Node5 -->
<g id="edge42" class="edge">
<title>Node20&#45;&gt;Node5</title>
<path fill="none" stroke="midnightblue" d="M901.3,-112.44C882.06,-103.64 851.85,-89.81 829.8,-79.72"/>
<polygon fill="midnightblue" stroke="midnightblue" points="831.16,-76.5 820.61,-75.52 828.25,-82.86 831.16,-76.5"/>
</g>
<!-- Node21&#45;&gt;Node2 -->
<g id="edge45" class="edge">
<title>Node21&#45;&gt;Node2</title>
<path fill="none" stroke="midnightblue" d="M94.31,-224.32C82.1,-215.98 63.42,-203.21 49,-193.35"/>
<polygon fill="midnightblue" stroke="midnightblue" points="50.89,-190.41 40.66,-187.65 46.94,-196.19 50.89,-190.41"/>
</g>
<!-- Node22 -->
<g id="node22" class="node">
<title>Node22</title>
<g id="a_node22"><a xlink:title=" ">
<polygon fill="white" stroke="#bfbfbf" points="74.5,-168.5 74.5,-187.5 139.5,-187.5 139.5,-168.5 74.5,-168.5"/>
<text text-anchor="middle" x="107" y="-175.5" font-family="Helvetica,sans-Serif" font-size="10.00">inttypes.h</text>
</a>
</g>
</g>
<!-- Node21&#45;&gt;Node22 -->
<g id="edge44" class="edge">
<title>Node21&#45;&gt;Node22</title>
<path fill="none" stroke="midnightblue" d="M107,-224.08C107,-217.01 107,-206.86 107,-197.99"/>
<polygon fill="midnightblue" stroke="midnightblue" points="110.5,-197.75 107,-187.75 103.5,-197.75 110.5,-197.75"/>
</g>
</g>
</svg>
