<?xml version="1.0" encoding="UTF-8" standalone="no"?>
<!DOCTYPE svg PUBLIC "-//W3C//DTD SVG 1.1//EN"
 "http://www.w3.org/Graphics/SVG/1.1/DTD/svg11.dtd">
<!-- Generated by graphviz version 2.43.0 (0)
 -->
<!-- Title: delta.c Pages: 1 -->
<svg width="957pt" height="308pt"
 viewBox="0.00 0.00 956.53 308.00" xmlns="http://www.w3.org/2000/svg" xmlns:xlink="http://www.w3.org/1999/xlink">
<g id="graph0" class="graph" transform="scale(1 1) rotate(0) translate(4 304)">
<title>delta.c</title>
<polygon fill="white" stroke="transparent" points="-4,4 -4,-304 952.53,-304 952.53,4 -4,4"/>
<!-- Node1 -->
<g id="node1" class="node">
<title>Node1</title>
<g id="a_node1"><a xlink:title="Generate in streaming mode an rsync delta given a set of signatures, and a new file.">
<polygon fill="#bfbfbf" stroke="black" points="486.03,-280.5 486.03,-299.5 536.03,-299.5 536.03,-280.5 486.03,-280.5"/>
<text text-anchor="middle" x="511.03" y="-287.5" font-family="Helvetica,sans-Serif" font-size="10.00">delta.c</text>
</a>
</g>
</g>
<!-- Node2 -->
<g id="node2" class="node">
<title>Node2</title>
<g id="a_node2"><a xlink:title=" ">
<polygon fill="white" stroke="#bfbfbf" points="360.03,-0.5 360.03,-19.5 416.03,-19.5 416.03,-0.5 360.03,-0.5"/>
<text text-anchor="middle" x="388.03" y="-7.5" font-family="Helvetica,sans-Serif" font-size="10.00">assert.h</text>
</a>
</g>
</g>
<!-- Node1&#45;&gt;Node2 -->
<g id="edge1" class="edge">
<title>Node1&#45;&gt;Node2</title>
<path fill="none" stroke="midnightblue" d="M506,-280.36C489.67,-251.97 437.4,-158.66 407.03,-76 401.33,-60.48 396.16,-42.4 392.66,-29.25"/>
<polygon fill="midnightblue" stroke="midnightblue" points="396.03,-28.33 390.13,-19.53 389.26,-30.09 396.03,-28.33"/>
</g>
<!-- Node3 -->
<g id="node3" class="node">
<title>Node3</title>
<g id="a_node3"><a xlink:title=" ">
<polygon fill="white" stroke="#bfbfbf" points="774.53,-224.5 774.53,-243.5 827.53,-243.5 827.53,-224.5 774.53,-224.5"/>
<text text-anchor="middle" x="801.03" y="-231.5" font-family="Helvetica,sans-Serif" font-size="10.00">stdlib.h</text>
</a>
</g>
</g>
<!-- Node1&#45;&gt;Node3 -->
<g id="edge2" class="edge">
<title>Node1&#45;&gt;Node3</title>
<path fill="none" stroke="midnightblue" d="M536.18,-284.77C581.18,-277.14 678.4,-260.33 760.03,-244 761.32,-243.74 762.63,-243.48 763.95,-243.21"/>
<polygon fill="midnightblue" stroke="midnightblue" points="765.09,-246.54 774.16,-241.05 763.65,-239.69 765.09,-246.54"/>
</g>
<!-- Node4 -->
<g id="node4" class="node">
<title>Node4</title>
<g id="a_node4"><a xlink:href="librsync_8h.html" target="_top" xlink:title="Public header for librsync.">
<polygon fill="white" stroke="black" points="600.03,-56.5 600.03,-75.5 664.03,-75.5 664.03,-56.5 600.03,-56.5"/>
<text text-anchor="middle" x="632.03" y="-63.5" font-family="Helvetica,sans-Serif" font-size="10.00">librsync.h</text>
</a>
</g>
</g>
<!-- Node1&#45;&gt;Node4 -->
<g id="edge3" class="edge">
<title>Node1&#45;&gt;Node4</title>
<path fill="none" stroke="midnightblue" d="M520.74,-280.3C544.53,-258.29 605.49,-197.45 629.03,-132 634.35,-117.2 634.78,-99.27 634.05,-86"/>
<polygon fill="midnightblue" stroke="midnightblue" points="637.52,-85.41 633.22,-75.73 630.54,-85.98 637.52,-85.41"/>
</g>
<!-- Node9 -->
<g id="node9" class="node">
<title>Node9</title>
<g id="a_node9"><a xlink:href="job_8h.html" target="_top" xlink:title="Generic state&#45;machine interface.">
<polygon fill="white" stroke="black" points="293.53,-168.5 293.53,-187.5 334.53,-187.5 334.53,-168.5 293.53,-168.5"/>
<text text-anchor="middle" x="314.03" y="-175.5" font-family="Helvetica,sans-Serif" font-size="10.00">job.h</text>
</a>
</g>
</g>
<!-- Node1&#45;&gt;Node9 -->
<g id="edge8" class="edge">
<title>Node1&#45;&gt;Node9</title>
<path fill="none" stroke="midnightblue" d="M485.8,-288C451.39,-285.41 389.4,-276.24 349.03,-244 334.04,-232.03 324.62,-211.84 319.37,-197.13"/>
<polygon fill="midnightblue" stroke="midnightblue" points="322.69,-196.02 316.27,-187.59 316.03,-198.18 322.69,-196.02"/>
</g>
<!-- Node12 -->
<g id="node12" class="node">
<title>Node12</title>
<g id="a_node12"><a xlink:href="checksum_8h.html" target="_top" xlink:title="Abstract wrappers around different weaksum and strongsum implementations.">
<polygon fill="white" stroke="black" points="334.53,-112.5 334.53,-131.5 409.53,-131.5 409.53,-112.5 334.53,-112.5"/>
<text text-anchor="middle" x="372.03" y="-119.5" font-family="Helvetica,sans-Serif" font-size="10.00">checksum.h</text>
</a>
</g>
</g>
<!-- Node1&#45;&gt;Node12 -->
<g id="edge34" class="edge">
<title>Node1&#45;&gt;Node12</title>
<path fill="none" stroke="midnightblue" d="M486.02,-288.02C456.08,-285.38 406.86,-276.07 382.03,-244 359.1,-214.38 363.19,-167.58 367.83,-141.72"/>
<polygon fill="midnightblue" stroke="midnightblue" points="371.3,-142.24 369.84,-131.74 364.44,-140.85 371.3,-142.24"/>
</g>
<!-- Node17 -->
<g id="node17" class="node">
<title>Node17</title>
<g id="a_node17"><a xlink:href="sumset_8h.html" target="_top" xlink:title="The rs_signature class implementation of a file signature.">
<polygon fill="white" stroke="black" points="466.03,-168.5 466.03,-187.5 528.03,-187.5 528.03,-168.5 466.03,-168.5"/>
<text text-anchor="middle" x="497.03" y="-175.5" font-family="Helvetica,sans-Serif" font-size="10.00">sumset.h</text>
</a>
</g>
</g>
<!-- Node1&#45;&gt;Node17 -->
<g id="edge28" class="edge">
<title>Node1&#45;&gt;Node17</title>
<path fill="none" stroke="midnightblue" d="M509.93,-280.37C507.67,-262.62 502.46,-221.67 499.4,-197.6"/>
<polygon fill="midnightblue" stroke="midnightblue" points="502.86,-197.07 498.12,-187.59 495.92,-197.95 502.86,-197.07"/>
</g>
<!-- Node18 -->
<g id="node18" class="node">
<title>Node18</title>
<g id="a_node18"><a xlink:href="scoop_8h.html" target="_top" xlink:title="Manage librsync streams of IO.">
<polygon fill="white" stroke="black" points="391.03,-224.5 391.03,-243.5 445.03,-243.5 445.03,-224.5 391.03,-224.5"/>
<text text-anchor="middle" x="418.03" y="-231.5" font-family="Helvetica,sans-Serif" font-size="10.00">scoop.h</text>
</a>
</g>
</g>
<!-- Node1&#45;&gt;Node18 -->
<g id="edge35" class="edge">
<title>Node1&#45;&gt;Node18</title>
<path fill="none" stroke="midnightblue" d="M496.09,-280.32C481.45,-271.82 458.9,-258.73 441.79,-248.8"/>
<polygon fill="midnightblue" stroke="midnightblue" points="443.34,-245.65 432.94,-243.65 439.83,-251.7 443.34,-245.65"/>
</g>
<!-- Node19 -->
<g id="node19" class="node">
<title>Node19</title>
<g id="a_node19"><a xlink:href="emit_8h.html" target="_top" xlink:title="encoding output routines.">
<polygon fill="white" stroke="black" points="736.03,-112.5 736.03,-131.5 784.03,-131.5 784.03,-112.5 736.03,-112.5"/>
<text text-anchor="middle" x="760.03" y="-119.5" font-family="Helvetica,sans-Serif" font-size="10.00">emit.h</text>
</a>
</g>
</g>
<!-- Node1&#45;&gt;Node19 -->
<g id="edge40" class="edge">
<title>Node1&#45;&gt;Node19</title>
<path fill="none" stroke="midnightblue" d="M536.11,-288.17C572.12,-285.8 639.09,-276.92 684.03,-244 720.26,-217.46 743.26,-167.94 753.62,-141.21"/>
<polygon fill="midnightblue" stroke="midnightblue" points="756.99,-142.18 757.18,-131.59 750.43,-139.75 756.99,-142.18"/>
</g>
<!-- Node20 -->
<g id="node20" class="node">
<title>Node20</title>
<g id="a_node20"><a xlink:href="trace_8h.html" target="_top" xlink:title="logging functions.">
<polygon fill="white" stroke="black" points="846.03,-224.5 846.03,-243.5 896.03,-243.5 896.03,-224.5 846.03,-224.5"/>
<text text-anchor="middle" x="871.03" y="-231.5" font-family="Helvetica,sans-Serif" font-size="10.00">trace.h</text>
</a>
</g>
</g>
<!-- Node1&#45;&gt;Node20 -->
<g id="edge42" class="edge">
<title>Node1&#45;&gt;Node20</title>
<path fill="none" stroke="midnightblue" d="M536.06,-286.52C590.8,-280.88 725.1,-265.87 836.03,-244 836.13,-243.98 836.23,-243.96 836.33,-243.94"/>
<polygon fill="midnightblue" stroke="midnightblue" points="836.86,-247.41 845.87,-241.83 835.36,-240.57 836.86,-247.41"/>
</g>
<!-- Node5 -->
<g id="node5" class="node">
<title>Node5</title>
<g id="a_node5"><a xlink:title=" ">
<polygon fill="white" stroke="#bfbfbf" points="701.03,-0.5 701.03,-19.5 751.03,-19.5 751.03,-0.5 701.03,-0.5"/>
<text text-anchor="middle" x="726.03" y="-7.5" font-family="Helvetica,sans-Serif" font-size="10.00">stdio.h</text>
</a>
</g>
</g>
<!-- Node4&#45;&gt;Node5 -->
<g id="edge4" class="edge">
<title>Node4&#45;&gt;Node5</title>
<path fill="none" stroke="midnightblue" d="M647.13,-56.32C661.93,-47.82 684.73,-34.73 702.01,-24.8"/>
<polygon fill="midnightblue" stroke="midnightblue" points="704.04,-27.67 710.97,-19.65 700.55,-21.6 704.04,-27.67"/>
</g>
<!-- Node6 -->
<g id="node6" class="node">
<title>Node6</title>
<g id="a_node6"><a xlink:title=" ">
<polygon fill="white" stroke="#bfbfbf" points="215.53,-0.5 215.53,-19.5 268.53,-19.5 268.53,-0.5 215.53,-0.5"/>
<text text-anchor="middle" x="242.03" y="-7.5" font-family="Helvetica,sans-Serif" font-size="10.00">stdint.h</text>
</a>
</g>
</g>
<!-- Node4&#45;&gt;Node6 -->
<g id="edge5" class="edge">
<title>Node4&#45;&gt;Node6</title>
<path fill="none" stroke="midnightblue" d="M599.78,-60.54C527.8,-50.57 354.39,-26.56 278.56,-16.06"/>
<polygon fill="midnightblue" stroke="midnightblue" points="278.92,-12.57 268.53,-14.67 277.96,-19.51 278.92,-12.57"/>
</g>
<!-- Node7 -->
<g id="node7" class="node">
<title>Node7</title>
<g id="a_node7"><a xlink:title=" ">
<polygon fill="white" stroke="#bfbfbf" points="515.03,-0.5 515.03,-19.5 563.03,-19.5 563.03,-0.5 515.03,-0.5"/>
<text text-anchor="middle" x="539.03" y="-7.5" font-family="Helvetica,sans-Serif" font-size="10.00">time.h</text>
</a>
</g>
</g>
<!-- Node4&#45;&gt;Node7 -->
<g id="edge6" class="edge">
<title>Node4&#45;&gt;Node7</title>
<path fill="none" stroke="midnightblue" d="M617.09,-56.32C602.45,-47.82 579.9,-34.73 562.79,-24.8"/>
<polygon fill="midnightblue" stroke="midnightblue" points="564.34,-21.65 553.94,-19.65 560.83,-27.7 564.34,-21.65"/>
</g>
<!-- Node8 -->
<g id="node8" class="node">
<title>Node8</title>
<g id="a_node8"><a xlink:href="librsync__export_8h_source.html" target="_top" xlink:title=" ">
<polygon fill="white" stroke="black" points="581.53,-0.5 581.53,-19.5 682.53,-19.5 682.53,-0.5 581.53,-0.5"/>
<text text-anchor="middle" x="632.03" y="-7.5" font-family="Helvetica,sans-Serif" font-size="10.00">librsync_export.h</text>
</a>
</g>
</g>
<!-- Node4&#45;&gt;Node8 -->
<g id="edge7" class="edge">
<title>Node4&#45;&gt;Node8</title>
<path fill="none" stroke="midnightblue" d="M632.03,-56.08C632.03,-49.01 632.03,-38.86 632.03,-29.99"/>
<polygon fill="midnightblue" stroke="midnightblue" points="635.53,-29.75 632.03,-19.75 628.53,-29.75 635.53,-29.75"/>
</g>
<!-- Node9&#45;&gt;Node2 -->
<g id="edge9" class="edge">
<title>Node9&#45;&gt;Node2</title>
<path fill="none" stroke="midnightblue" d="M314.43,-168.31C315.25,-155.57 317.72,-131.26 325.03,-112 337.25,-79.81 360.25,-46.74 374.82,-27.57"/>
<polygon fill="midnightblue" stroke="midnightblue" points="377.67,-29.61 381.03,-19.56 372.14,-25.32 377.67,-29.61"/>
</g>
<!-- Node9&#45;&gt;Node4 -->
<g id="edge27" class="edge">
<title>Node9&#45;&gt;Node4</title>
<path fill="none" stroke="midnightblue" d="M334.9,-169.78C388.52,-151.23 531.56,-101.75 597.66,-78.89"/>
<polygon fill="midnightblue" stroke="midnightblue" points="598.9,-82.16 607.21,-75.59 596.62,-75.55 598.9,-82.16"/>
</g>
<!-- Node10 -->
<g id="node10" class="node">
<title>Node10</title>
<g id="a_node10"><a xlink:title=" ">
<polygon fill="white" stroke="#bfbfbf" points="38.03,-0.5 38.03,-19.5 94.03,-19.5 94.03,-0.5 38.03,-0.5"/>
<text text-anchor="middle" x="66.03" y="-7.5" font-family="Helvetica,sans-Serif" font-size="10.00">stddef.h</text>
</a>
</g>
</g>
<!-- Node9&#45;&gt;Node10 -->
<g id="edge10" class="edge">
<title>Node9&#45;&gt;Node10</title>
<path fill="none" stroke="midnightblue" d="M293.28,-177.22C231.43,-177.39 50.38,-174.2 14.03,-132 -8.01,-106.41 -0.01,-86.72 14.03,-56 19.81,-43.36 31.08,-32.91 41.66,-25.27"/>
<polygon fill="midnightblue" stroke="midnightblue" points="43.88,-28 50.25,-19.53 39.99,-22.18 43.88,-28"/>
</g>
<!-- Node11 -->
<g id="node11" class="node">
<title>Node11</title>
<g id="a_node11"><a xlink:href="mdfour_8h.html" target="_top" xlink:title="MD4 message digest algorithm.">
<polygon fill="white" stroke="black" points="216.53,-112.5 216.53,-131.5 277.53,-131.5 277.53,-112.5 216.53,-112.5"/>
<text text-anchor="middle" x="247.03" y="-119.5" font-family="Helvetica,sans-Serif" font-size="10.00">mdfour.h</text>
</a>
</g>
</g>
<!-- Node9&#45;&gt;Node11 -->
<g id="edge11" class="edge">
<title>Node9&#45;&gt;Node11</title>
<path fill="none" stroke="midnightblue" d="M303.27,-168.32C293.27,-160.26 278.14,-148.08 266.1,-138.37"/>
<polygon fill="midnightblue" stroke="midnightblue" points="267.97,-135.38 257.99,-131.83 263.58,-140.83 267.97,-135.38"/>
</g>
<!-- Node9&#45;&gt;Node12 -->
<g id="edge13" class="edge">
<title>Node9&#45;&gt;Node12</title>
<path fill="none" stroke="midnightblue" d="M323.35,-168.32C331.92,-160.34 344.84,-148.31 355.22,-138.65"/>
<polygon fill="midnightblue" stroke="midnightblue" points="357.61,-141.21 362.54,-131.83 352.84,-136.09 357.61,-141.21"/>
</g>
<!-- Node11&#45;&gt;Node6 -->
<g id="edge12" class="edge">
<title>Node11&#45;&gt;Node6</title>
<path fill="none" stroke="midnightblue" d="M249.6,-112.16C252.89,-99.64 257.87,-76.04 255.03,-56 253.76,-47.04 251.14,-37.37 248.58,-29.3"/>
<polygon fill="midnightblue" stroke="midnightblue" points="251.89,-28.16 245.38,-19.8 245.26,-30.4 251.89,-28.16"/>
</g>
<!-- Node12&#45;&gt;Node2 -->
<g id="edge14" class="edge">
<title>Node12&#45;&gt;Node2</title>
<path fill="none" stroke="midnightblue" d="M371.55,-112.09C371.04,-99.5 370.71,-75.82 374.03,-56 375.54,-47.02 378.38,-37.35 381.11,-29.28"/>
<polygon fill="midnightblue" stroke="midnightblue" points="384.43,-30.39 384.52,-19.79 377.84,-28.02 384.43,-30.39"/>
</g>
<!-- Node12&#45;&gt;Node4 -->
<g id="edge16" class="edge">
<title>Node12&#45;&gt;Node4</title>
<path fill="none" stroke="midnightblue" d="M409.56,-113.21C457.45,-103.26 540.05,-86.1 590.01,-75.73"/>
<polygon fill="midnightblue" stroke="midnightblue" points="590.76,-79.15 599.84,-73.69 589.34,-72.29 590.76,-79.15"/>
</g>
<!-- Node12&#45;&gt;Node10 -->
<g id="edge15" class="edge">
<title>Node12&#45;&gt;Node10</title>
<path fill="none" stroke="midnightblue" d="M334.52,-116.2C258.87,-106.37 94.35,-84.19 85.03,-76 71.94,-64.5 67.64,-44.52 66.34,-29.75"/>
<polygon fill="midnightblue" stroke="midnightblue" points="69.83,-29.5 65.83,-19.68 62.84,-29.85 69.83,-29.5"/>
</g>
<!-- Node13 -->
<g id="node13" class="node">
<title>Node13</title>
<g id="a_node13"><a xlink:href="rollsum_8h.html" target="_top" xlink:title="The Rollsum class implementation of the original rsync rollsum.">
<polygon fill="white" stroke="black" points="94.03,-56.5 94.03,-75.5 156.03,-75.5 156.03,-56.5 94.03,-56.5"/>
<text text-anchor="middle" x="125.03" y="-63.5" font-family="Helvetica,sans-Serif" font-size="10.00">rollsum.h</text>
</a>
</g>
</g>
<!-- Node12&#45;&gt;Node13 -->
<g id="edge17" class="edge">
<title>Node12&#45;&gt;Node13</title>
<path fill="none" stroke="midnightblue" d="M334.24,-112.87C294.76,-104.36 230.74,-90.5 166.01,-76.2"/>
<polygon fill="midnightblue" stroke="midnightblue" points="166.56,-72.74 156.04,-74 165.04,-79.58 166.56,-72.74"/>
</g>
<!-- Node14 -->
<g id="node14" class="node">
<title>Node14</title>
<g id="a_node14"><a xlink:href="rabinkarp_8h.html" target="_top" xlink:title="The rabinkarp class implementation of the RabinKarp rollsum.">
<polygon fill="white" stroke="black" points="174.03,-56.5 174.03,-75.5 246.03,-75.5 246.03,-56.5 174.03,-56.5"/>
<text text-anchor="middle" x="210.03" y="-63.5" font-family="Helvetica,sans-Serif" font-size="10.00">rabinkarp.h</text>
</a>
</g>
</g>
<!-- Node12&#45;&gt;Node14 -->
<g id="edge20" class="edge">
<title>Node12&#45;&gt;Node14</title>
<path fill="none" stroke="midnightblue" d="M346.36,-112.44C319.11,-103.36 275.85,-88.94 245.38,-78.78"/>
<polygon fill="midnightblue" stroke="midnightblue" points="246.17,-75.36 235.58,-75.52 243.96,-82 246.17,-75.36"/>
</g>
<!-- Node15 -->
<g id="node15" class="node">
<title>Node15</title>
<g id="a_node15"><a xlink:href="hashtable_8h.html" target="_top" xlink:title="A generic open addressing hashtable.">
<polygon fill="white" stroke="black" points="416.03,-56.5 416.03,-75.5 490.03,-75.5 490.03,-56.5 416.03,-56.5"/>
<text text-anchor="middle" x="453.03" y="-63.5" font-family="Helvetica,sans-Serif" font-size="10.00">hashtable.h</text>
</a>
</g>
</g>
<!-- Node12&#45;&gt;Node15 -->
<g id="edge23" class="edge">
<title>Node12&#45;&gt;Node15</title>
<path fill="none" stroke="midnightblue" d="M385.05,-112.32C397.56,-103.98 416.71,-91.21 431.5,-81.35"/>
<polygon fill="midnightblue" stroke="midnightblue" points="433.67,-84.11 440.05,-75.65 429.79,-78.29 433.67,-84.11"/>
</g>
<!-- Node13&#45;&gt;Node6 -->
<g id="edge19" class="edge">
<title>Node13&#45;&gt;Node6</title>
<path fill="none" stroke="midnightblue" d="M143.57,-56.44C162.65,-47.64 192.61,-33.81 214.47,-23.72"/>
<polygon fill="midnightblue" stroke="midnightblue" points="215.97,-26.88 223.58,-19.52 213.03,-20.53 215.97,-26.88"/>
</g>
<!-- Node13&#45;&gt;Node10 -->
<g id="edge18" class="edge">
<title>Node13&#45;&gt;Node10</title>
<path fill="none" stroke="midnightblue" d="M115.55,-56.32C106.83,-48.34 93.69,-36.31 83.13,-26.65"/>
<polygon fill="midnightblue" stroke="midnightblue" points="85.42,-24 75.68,-19.83 80.7,-29.17 85.42,-24"/>
</g>
<!-- Node14&#45;&gt;Node6 -->
<g id="edge22" class="edge">
<title>Node14&#45;&gt;Node6</title>
<path fill="none" stroke="midnightblue" d="M215.32,-56.08C219.74,-48.61 226.19,-37.72 231.65,-28.52"/>
<polygon fill="midnightblue" stroke="midnightblue" points="234.76,-30.14 236.85,-19.75 228.74,-26.57 234.76,-30.14"/>
</g>
<!-- Node14&#45;&gt;Node10 -->
<g id="edge21" class="edge">
<title>Node14&#45;&gt;Node10</title>
<path fill="none" stroke="midnightblue" d="M187.21,-56.44C163.2,-47.44 125.2,-33.19 98.16,-23.05"/>
<polygon fill="midnightblue" stroke="midnightblue" points="99.33,-19.75 88.74,-19.52 96.88,-26.3 99.33,-19.75"/>
</g>
<!-- Node15&#45;&gt;Node2 -->
<g id="edge25" class="edge">
<title>Node15&#45;&gt;Node2</title>
<path fill="none" stroke="midnightblue" d="M442.59,-56.32C432.89,-48.26 418.22,-36.08 406.53,-26.37"/>
<polygon fill="midnightblue" stroke="midnightblue" points="408.59,-23.53 398.66,-19.83 404.12,-28.92 408.59,-23.53"/>
</g>
<!-- Node15&#45;&gt;Node10 -->
<g id="edge26" class="edge">
<title>Node15&#45;&gt;Node10</title>
<path fill="none" stroke="midnightblue" d="M415.92,-59.82C342.44,-49.57 179.1,-26.78 104.51,-16.37"/>
<polygon fill="midnightblue" stroke="midnightblue" points="104.56,-12.84 94.17,-14.93 103.59,-19.78 104.56,-12.84"/>
</g>
<!-- Node16 -->
<g id="node16" class="node">
<title>Node16</title>
<g id="a_node16"><a xlink:title=" ">
<polygon fill="white" stroke="#bfbfbf" points="435.03,-0.5 435.03,-19.5 497.03,-19.5 497.03,-0.5 435.03,-0.5"/>
<text text-anchor="middle" x="466.03" y="-7.5" font-family="Helvetica,sans-Serif" font-size="10.00">stdbool.h</text>
</a>
</g>
</g>
<!-- Node15&#45;&gt;Node16 -->
<g id="edge24" class="edge">
<title>Node15&#45;&gt;Node16</title>
<path fill="none" stroke="midnightblue" d="M455.18,-56.08C456.9,-48.93 459.38,-38.64 461.53,-29.69"/>
<polygon fill="midnightblue" stroke="midnightblue" points="464.99,-30.29 463.92,-19.75 458.18,-28.65 464.99,-30.29"/>
</g>
<!-- Node17&#45;&gt;Node2 -->
<g id="edge29" class="edge">
<title>Node17&#45;&gt;Node2</title>
<path fill="none" stroke="midnightblue" d="M500.21,-168.45C507.49,-147.28 522.98,-91.55 499.03,-56 490.43,-43.23 454.66,-30.18 426.01,-21.45"/>
<polygon fill="midnightblue" stroke="midnightblue" points="426.82,-18.04 416.24,-18.54 424.83,-24.75 426.82,-18.04"/>
</g>
<!-- Node17&#45;&gt;Node4 -->
<g id="edge33" class="edge">
<title>Node17&#45;&gt;Node4</title>
<path fill="none" stroke="midnightblue" d="M528.19,-171.53C552.86,-165.69 586.61,-154.1 608.03,-132 620.19,-119.46 626.27,-100.23 629.27,-85.94"/>
<polygon fill="midnightblue" stroke="midnightblue" points="632.77,-86.22 631.06,-75.76 625.88,-85 632.77,-86.22"/>
</g>
<!-- Node17&#45;&gt;Node10 -->
<g id="edge30" class="edge">
<title>Node17&#45;&gt;Node10</title>
<path fill="none" stroke="midnightblue" d="M465.63,-174.53C411.88,-169.76 299.11,-157.46 207.03,-132 143.23,-114.36 107.26,-130.04 69.03,-76 59.56,-62.61 59.87,-43.5 61.91,-29.47"/>
<polygon fill="midnightblue" stroke="midnightblue" points="65.37,-29.98 63.76,-19.51 58.49,-28.7 65.37,-29.98"/>
</g>
<!-- Node17&#45;&gt;Node12 -->
<g id="edge32" class="edge">
<title>Node17&#45;&gt;Node12</title>
<path fill="none" stroke="midnightblue" d="M477.22,-168.44C456.74,-159.6 424.55,-145.69 401.17,-135.59"/>
<polygon fill="midnightblue" stroke="midnightblue" points="402.31,-132.27 391.75,-131.52 399.54,-138.7 402.31,-132.27"/>
</g>
<!-- Node17&#45;&gt;Node15 -->
<g id="edge31" class="edge">
<title>Node17&#45;&gt;Node15</title>
<path fill="none" stroke="midnightblue" d="M493.58,-168.37C486.41,-150.46 469.8,-108.92 460.21,-84.95"/>
<polygon fill="midnightblue" stroke="midnightblue" points="463.43,-83.58 456.47,-75.59 456.93,-86.18 463.43,-83.58"/>
</g>
<!-- Node18&#45;&gt;Node4 -->
<g id="edge39" class="edge">
<title>Node18&#45;&gt;Node4</title>
<path fill="none" stroke="midnightblue" d="M445.09,-228.95C476.73,-223.34 529.87,-211.19 570.03,-188 601.34,-169.92 614,-164.88 629.03,-132 635.64,-117.55 635.89,-99.36 634.78,-85.9"/>
<polygon fill="midnightblue" stroke="midnightblue" points="638.25,-85.43 633.63,-75.9 631.29,-86.23 638.25,-85.43"/>
</g>
<!-- Node18&#45;&gt;Node9 -->
<g id="edge38" class="edge">
<title>Node18&#45;&gt;Node9</title>
<path fill="none" stroke="midnightblue" d="M401.32,-224.32C384.72,-215.7 359.03,-202.36 339.81,-192.39"/>
<polygon fill="midnightblue" stroke="midnightblue" points="341.19,-189.16 330.7,-187.65 337.96,-195.37 341.19,-189.16"/>
</g>
<!-- Node18&#45;&gt;Node10 -->
<g id="edge37" class="edge">
<title>Node18&#45;&gt;Node10</title>
<path fill="none" stroke="midnightblue" d="M390.81,-228.93C334.38,-219.5 202.16,-192.22 109.03,-132 80.76,-113.72 70.18,-107.39 58.03,-76 52.26,-61.09 55.24,-42.95 59.1,-29.62"/>
<polygon fill="midnightblue" stroke="midnightblue" points="62.56,-30.33 62.38,-19.74 55.91,-28.13 62.56,-30.33"/>
</g>
<!-- Node18&#45;&gt;Node16 -->
<g id="edge36" class="edge">
<title>Node18&#45;&gt;Node16</title>
<path fill="none" stroke="midnightblue" d="M445.11,-231.29C473.39,-227.89 516.44,-217.8 537.03,-188 554.93,-162.09 592.9,-188.98 518.03,-56 511.17,-43.81 499.69,-33.35 489.26,-25.59"/>
<polygon fill="midnightblue" stroke="midnightblue" points="491.08,-22.59 480.88,-19.73 487.07,-28.33 491.08,-22.59"/>
</g>
<!-- Node19&#45;&gt;Node4 -->
<g id="edge41" class="edge">
<title>Node19&#45;&gt;Node4</title>
<path fill="none" stroke="midnightblue" d="M739.75,-112.44C718.68,-103.56 685.51,-89.56 661.55,-79.45"/>
<polygon fill="midnightblue" stroke="midnightblue" points="662.79,-76.18 652.22,-75.52 660.07,-82.63 662.79,-76.18"/>
</g>
<!-- Node21 -->
<g id="node21" class="node">
<title>Node21</title>
<g id="a_node21"><a xlink:title=" ">
<polygon fill="white" stroke="#bfbfbf" points="883.53,-168.5 883.53,-187.5 948.53,-187.5 948.53,-168.5 883.53,-168.5"/>
<text text-anchor="middle" x="916.03" y="-175.5" font-family="Helvetica,sans-Serif" font-size="10.00">inttypes.h</text>
</a>
</g>
</g>
<!-- Node20&#45;&gt;Node21 -->
<g id="edge43" class="edge">
<title>Node20&#45;&gt;Node21</title>
<path fill="none" stroke="midnightblue" d="M878.46,-224.08C884.88,-216.38 894.34,-205.03 902.15,-195.65"/>
<polygon fill="midnightblue" stroke="midnightblue" points="905.03,-197.67 908.74,-187.75 899.65,-193.19 905.03,-197.67"/>
</g>
<!-- Node22 -->
<g id="node22" class="node">
<title>Node22</title>
<g id="a_node22"><a xlink:href="config_8h_source.html" target="_top" xlink:title=" ">
<polygon fill="white" stroke="black" points="809.03,-168.5 809.03,-187.5 865.03,-187.5 865.03,-168.5 809.03,-168.5"/>
<text text-anchor="middle" x="837.03" y="-175.5" font-family="Helvetica,sans-Serif" font-size="10.00">config.h</text>
</a>
</g>
</g>
<!-- Node20&#45;&gt;Node22 -->
<g id="edge44" class="edge">
<title>Node20&#45;&gt;Node22</title>
<path fill="none" stroke="midnightblue" d="M865.42,-224.08C860.66,-216.53 853.71,-205.49 847.88,-196.23"/>
<polygon fill="midnightblue" stroke="midnightblue" points="850.83,-194.35 842.54,-187.75 844.91,-198.08 850.83,-194.35"/>
</g>
</g>
</svg>
