<?xml version="1.0" encoding="UTF-8" standalone="no"?>
<!DOCTYPE svg PUBLIC "-//W3C//DTD SVG 1.1//EN"
 "http://www.w3.org/Graphics/SVG/1.1/DTD/svg11.dtd">
<!-- Generated by graphviz version 2.43.0 (0)
 -->
<!-- Title: emit.h Pages: 1 -->
<svg width="124pt" height="84pt"
 viewBox="0.00 0.00 123.50 84.00" xmlns="http://www.w3.org/2000/svg" xmlns:xlink="http://www.w3.org/1999/xlink">
<g id="graph0" class="graph" transform="scale(1 1) rotate(0) translate(4 80)">
<title>emit.h</title>
<polygon fill="white" stroke="transparent" points="-4,4 -4,-80 119.5,-80 119.5,4 -4,4"/>
<!-- Node1 -->
<g id="node1" class="node">
<title>Node1</title>
<g id="a_node1"><a xlink:title="encoding output routines.">
<polygon fill="#bfbfbf" stroke="black" points="34,-56.5 34,-75.5 82,-75.5 82,-56.5 34,-56.5"/>
<text text-anchor="middle" x="58" y="-63.5" font-family="Helvetica,sans-Serif" font-size="10.00">emit.h</text>
</a>
</g>
</g>
<!-- Node2 -->
<g id="node2" class="node">
<title>Node2</title>
<g id="a_node2"><a xlink:href="delta_8c.html" target="_top" xlink:title="Generate in streaming mode an rsync delta given a set of signatures, and a new file.">
<polygon fill="white" stroke="black" points="0,-0.5 0,-19.5 50,-19.5 50,-0.5 0,-0.5"/>
<text text-anchor="middle" x="25" y="-7.5" font-family="Helvetica,sans-Serif" font-size="10.00">delta.c</text>
</a>
</g>
</g>
<!-- Node1&#45;&gt;Node2 -->
<g id="edge1" class="edge">
<title>Node1&#45;&gt;Node2</title>
<path fill="none" stroke="midnightblue" d="M47.17,-47.27C41.53,-38.05 34.88,-27.17 30.35,-19.75"/>
<polygon fill="midnightblue" stroke="midnightblue" points="44.35,-49.38 52.55,-56.08 50.32,-45.73 44.35,-49.38"/>
</g>
<!-- Node3 -->
<g id="node3" class="node">
<title>Node3</title>
<g id="a_node3"><a xlink:href="emit_8c_source.html" target="_top" xlink:title=" ">
<polygon fill="white" stroke="black" points="68.5,-0.5 68.5,-19.5 115.5,-19.5 115.5,-0.5 68.5,-0.5"/>
<text text-anchor="middle" x="92" y="-7.5" font-family="Helvetica,sans-Serif" font-size="10.00">emit.c</text>
</a>
</g>
</g>
<!-- Node1&#45;&gt;Node3 -->
<g id="edge2" class="edge">
<title>Node1&#45;&gt;Node3</title>
<path fill="none" stroke="midnightblue" d="M68.98,-47.57C74.83,-38.27 81.77,-27.25 86.49,-19.75"/>
<polygon fill="midnightblue" stroke="midnightblue" points="65.98,-45.76 63.61,-56.08 71.9,-49.49 65.98,-45.76"/>
</g>
</g>
</svg>
