<?xml version="1.0" encoding="UTF-8" standalone="no"?>
<!DOCTYPE svg PUBLIC "-//W3C//DTD SVG 1.1//EN"
 "http://www.w3.org/Graphics/SVG/1.1/DTD/svg11.dtd">
<!-- Generated by graphviz version 2.43.0 (0)
 -->
<!-- Title: hashtable.h Pages: 1 -->
<svg width="892pt" height="252pt"
 viewBox="0.00 0.00 891.50 252.00" xmlns="http://www.w3.org/2000/svg" xmlns:xlink="http://www.w3.org/1999/xlink">
<g id="graph0" class="graph" transform="scale(1 1) rotate(0) translate(4 248)">
<title>hashtable.h</title>
<polygon fill="white" stroke="transparent" points="-4,4 -4,-248 887.5,-248 887.5,4 -4,4"/>
<!-- Node1 -->
<g id="node1" class="node">
<title>Node1</title>
<g id="a_node1"><a xlink:title="A generic open addressing hashtable.">
<polygon fill="#bfbfbf" stroke="black" points="719,-224.5 719,-243.5 793,-243.5 793,-224.5 719,-224.5"/>
<text text-anchor="middle" x="756" y="-231.5" font-family="Helvetica,sans-Serif" font-size="10.00">hashtable.h</text>
</a>
</g>
</g>
<!-- Node2 -->
<g id="node2" class="node">
<title>Node2</title>
<g id="a_node2"><a xlink:href="checksum_8h.html" target="_top" xlink:title="Abstract wrappers around different weaksum and strongsum implementations.">
<polygon fill="white" stroke="black" points="626.5,-168.5 626.5,-187.5 701.5,-187.5 701.5,-168.5 626.5,-168.5"/>
<text text-anchor="middle" x="664" y="-175.5" font-family="Helvetica,sans-Serif" font-size="10.00">checksum.h</text>
</a>
</g>
</g>
<!-- Node1&#45;&gt;Node2 -->
<g id="edge1" class="edge">
<title>Node1&#45;&gt;Node2</title>
<path fill="none" stroke="midnightblue" d="M732.45,-219.18C715.52,-209.24 693.22,-196.15 678.74,-187.65"/>
<polygon fill="midnightblue" stroke="midnightblue" points="730.82,-222.28 741.22,-224.32 734.37,-216.24 730.82,-222.28"/>
</g>
<!-- Node17 -->
<g id="node17" class="node">
<title>Node17</title>
<g id="a_node17"><a xlink:href="sumset_8h.html" target="_top" xlink:title="The rs_signature class implementation of a file signature.">
<polygon fill="white" stroke="black" points="692,-112.5 692,-131.5 754,-131.5 754,-112.5 692,-112.5"/>
<text text-anchor="middle" x="723" y="-119.5" font-family="Helvetica,sans-Serif" font-size="10.00">sumset.h</text>
</a>
</g>
</g>
<!-- Node1&#45;&gt;Node17 -->
<g id="edge32" class="edge">
<title>Node1&#45;&gt;Node17</title>
<path fill="none" stroke="midnightblue" d="M750.5,-214.67C743.29,-190.62 730.92,-149.39 725.58,-131.59"/>
<polygon fill="midnightblue" stroke="midnightblue" points="747.18,-215.8 753.41,-224.37 753.89,-213.78 747.18,-215.8"/>
</g>
<!-- Node18 -->
<g id="node18" class="node">
<title>Node18</title>
<g id="a_node18"><a xlink:href="sumset_8c_source.html" target="_top" xlink:title=" ">
<polygon fill="white" stroke="black" points="751.5,-56.5 751.5,-75.5 812.5,-75.5 812.5,-56.5 751.5,-56.5"/>
<text text-anchor="middle" x="782" y="-63.5" font-family="Helvetica,sans-Serif" font-size="10.00">sumset.c</text>
</a>
</g>
</g>
<!-- Node1&#45;&gt;Node18 -->
<g id="edge31" class="edge">
<title>Node1&#45;&gt;Node18</title>
<path fill="none" stroke="midnightblue" d="M758.99,-213.93C764.63,-177.92 776.64,-101.23 780.66,-75.57"/>
<polygon fill="midnightblue" stroke="midnightblue" points="755.49,-213.65 757.4,-224.08 762.4,-214.74 755.49,-213.65"/>
</g>
<!-- Node19 -->
<g id="node19" class="node">
<title>Node19</title>
<g id="a_node19"><a xlink:href="hashtable_8c_source.html" target="_top" xlink:title=" ">
<polygon fill="white" stroke="black" points="810.5,-168.5 810.5,-187.5 883.5,-187.5 883.5,-168.5 810.5,-168.5"/>
<text text-anchor="middle" x="847" y="-175.5" font-family="Helvetica,sans-Serif" font-size="10.00">hashtable.c</text>
</a>
</g>
</g>
<!-- Node1&#45;&gt;Node19 -->
<g id="edge30" class="edge">
<title>Node1&#45;&gt;Node19</title>
<path fill="none" stroke="midnightblue" d="M779.29,-219.18C796.04,-209.24 818.1,-196.15 832.42,-187.65"/>
<polygon fill="midnightblue" stroke="midnightblue" points="777.43,-216.21 770.62,-224.32 781.01,-222.23 777.43,-216.21"/>
</g>
<!-- Node3 -->
<g id="node3" class="node">
<title>Node3</title>
<g id="a_node3"><a xlink:href="checksum_8c_source.html" target="_top" xlink:title=" ">
<polygon fill="white" stroke="black" points="562,-112.5 562,-131.5 636,-131.5 636,-112.5 562,-112.5"/>
<text text-anchor="middle" x="599" y="-119.5" font-family="Helvetica,sans-Serif" font-size="10.00">checksum.c</text>
</a>
</g>
</g>
<!-- Node2&#45;&gt;Node3 -->
<g id="edge2" class="edge">
<title>Node2&#45;&gt;Node3</title>
<path fill="none" stroke="midnightblue" d="M645.73,-161.82C634.08,-152.15 619.4,-139.95 609.63,-131.83"/>
<polygon fill="midnightblue" stroke="midnightblue" points="643.63,-164.63 653.56,-168.32 648.1,-159.24 643.63,-164.63"/>
</g>
<!-- Node4 -->
<g id="node4" class="node">
<title>Node4</title>
<g id="a_node4"><a xlink:href="delta_8c.html" target="_top" xlink:title="Generate in streaming mode an rsync delta given a set of signatures, and a new file.">
<polygon fill="white" stroke="black" points="585,-0.5 585,-19.5 635,-19.5 635,-0.5 585,-0.5"/>
<text text-anchor="middle" x="610" y="-7.5" font-family="Helvetica,sans-Serif" font-size="10.00">delta.c</text>
</a>
</g>
</g>
<!-- Node2&#45;&gt;Node4 -->
<g id="edge3" class="edge">
<title>Node2&#45;&gt;Node4</title>
<path fill="none" stroke="midnightblue" d="M658.84,-158.45C655.15,-145.41 649.97,-127.58 645,-112 634,-77.53 619.45,-36.97 613.14,-19.6"/>
<polygon fill="midnightblue" stroke="midnightblue" points="655.48,-159.44 661.56,-168.13 662.22,-157.55 655.48,-159.44"/>
</g>
<!-- Node5 -->
<g id="node5" class="node">
<title>Node5</title>
<g id="a_node5"><a xlink:href="job_8h.html" target="_top" xlink:title="Generic state&#45;machine interface.">
<polygon fill="white" stroke="black" points="312.5,-112.5 312.5,-131.5 353.5,-131.5 353.5,-112.5 312.5,-112.5"/>
<text text-anchor="middle" x="333" y="-119.5" font-family="Helvetica,sans-Serif" font-size="10.00">job.h</text>
</a>
</g>
</g>
<!-- Node2&#45;&gt;Node5 -->
<g id="edge4" class="edge">
<title>Node2&#45;&gt;Node5</title>
<path fill="none" stroke="midnightblue" d="M616.46,-169.25C543.27,-157.3 405.96,-134.9 353.81,-126.4"/>
<polygon fill="midnightblue" stroke="midnightblue" points="615.92,-172.7 626.35,-170.86 617.05,-165.79 615.92,-172.7"/>
</g>
<!-- Node2&#45;&gt;Node17 -->
<g id="edge24" class="edge">
<title>Node2&#45;&gt;Node17</title>
<path fill="none" stroke="midnightblue" d="M680.89,-161.54C691.41,-151.91 704.57,-139.87 713.35,-131.83"/>
<polygon fill="midnightblue" stroke="midnightblue" points="678.49,-158.99 673.48,-168.32 683.22,-164.15 678.49,-158.99"/>
</g>
<!-- Node5&#45;&gt;Node4 -->
<g id="edge6" class="edge">
<title>Node5&#45;&gt;Node4</title>
<path fill="none" stroke="midnightblue" d="M363.25,-111.06C389.33,-102.33 427.91,-89.01 461,-76 508.54,-57.3 563.34,-32.55 591.37,-19.65"/>
<polygon fill="midnightblue" stroke="midnightblue" points="361.95,-107.81 353.57,-114.29 364.16,-114.45 361.95,-107.81"/>
</g>
<!-- Node6 -->
<g id="node6" class="node">
<title>Node6</title>
<g id="a_node6"><a xlink:href="buf_8c_source.html" target="_top" xlink:title=" ">
<polygon fill="white" stroke="black" points="289,-56.5 289,-75.5 329,-75.5 329,-56.5 289,-56.5"/>
<text text-anchor="middle" x="309" y="-63.5" font-family="Helvetica,sans-Serif" font-size="10.00">buf.c</text>
</a>
</g>
</g>
<!-- Node5&#45;&gt;Node6 -->
<g id="edge5" class="edge">
<title>Node5&#45;&gt;Node6</title>
<path fill="none" stroke="midnightblue" d="M324.86,-102.69C320.82,-93.59 316.12,-83.01 312.89,-75.75"/>
<polygon fill="midnightblue" stroke="midnightblue" points="321.78,-104.37 329.04,-112.08 328.17,-101.52 321.78,-104.37"/>
</g>
<!-- Node7 -->
<g id="node7" class="node">
<title>Node7</title>
<g id="a_node7"><a xlink:href="emit_8c_source.html" target="_top" xlink:title=" ">
<polygon fill="white" stroke="black" points="385.5,-56.5 385.5,-75.5 432.5,-75.5 432.5,-56.5 385.5,-56.5"/>
<text text-anchor="middle" x="409" y="-63.5" font-family="Helvetica,sans-Serif" font-size="10.00">emit.c</text>
</a>
</g>
</g>
<!-- Node5&#45;&gt;Node7 -->
<g id="edge7" class="edge">
<title>Node5&#45;&gt;Node7</title>
<path fill="none" stroke="midnightblue" d="M353.58,-106.38C367.31,-96.62 384.93,-84.11 396.57,-75.83"/>
<polygon fill="midnightblue" stroke="midnightblue" points="351.34,-103.68 345.21,-112.32 355.39,-109.38 351.34,-103.68"/>
</g>
<!-- Node8 -->
<g id="node8" class="node">
<title>Node8</title>
<g id="a_node8"><a xlink:href="job_8c_source.html" target="_top" xlink:title=" ">
<polygon fill="white" stroke="black" points="0,-0.5 0,-19.5 40,-19.5 40,-0.5 0,-0.5"/>
<text text-anchor="middle" x="20" y="-7.5" font-family="Helvetica,sans-Serif" font-size="10.00">job.c</text>
</a>
</g>
</g>
<!-- Node5&#45;&gt;Node8 -->
<g id="edge8" class="edge">
<title>Node5&#45;&gt;Node8</title>
<path fill="none" stroke="midnightblue" d="M302.05,-117.9C260,-112.91 183.06,-101.01 122,-76 85.86,-61.2 48.39,-33.59 30.6,-19.6"/>
<polygon fill="midnightblue" stroke="midnightblue" points="301.88,-121.4 312.21,-119.05 302.66,-114.44 301.88,-121.4"/>
</g>
<!-- Node9 -->
<g id="node9" class="node">
<title>Node9</title>
<g id="a_node9"><a xlink:href="mksum_8c.html" target="_top" xlink:title="Generate file signatures.">
<polygon fill="white" stroke="black" points="430,-0.5 430,-19.5 492,-19.5 492,-0.5 430,-0.5"/>
<text text-anchor="middle" x="461" y="-7.5" font-family="Helvetica,sans-Serif" font-size="10.00">mksum.c</text>
</a>
</g>
</g>
<!-- Node5&#45;&gt;Node9 -->
<g id="edge9" class="edge">
<title>Node5&#45;&gt;Node9</title>
<path fill="none" stroke="midnightblue" d="M363.65,-115.85C388.15,-110.18 421.65,-98.66 442,-76 456.46,-59.91 459.95,-33.37 460.77,-19.71"/>
<polygon fill="midnightblue" stroke="midnightblue" points="362.82,-112.45 353.76,-117.94 364.27,-119.3 362.82,-112.45"/>
</g>
<!-- Node10 -->
<g id="node10" class="node">
<title>Node10</title>
<g id="a_node10"><a xlink:href="patch_8c.html" target="_top" xlink:title="Apply a delta to an old file to generate a new file.">
<polygon fill="white" stroke="black" points="266,-0.5 266,-19.5 318,-19.5 318,-0.5 266,-0.5"/>
<text text-anchor="middle" x="292" y="-7.5" font-family="Helvetica,sans-Serif" font-size="10.00">patch.c</text>
</a>
</g>
</g>
<!-- Node5&#45;&gt;Node10 -->
<g id="edge10" class="edge">
<title>Node5&#45;&gt;Node10</title>
<path fill="none" stroke="midnightblue" d="M308.28,-106.9C297.47,-99.28 285.92,-88.79 280,-76 271.32,-57.25 280.78,-32.73 287.16,-19.83"/>
<polygon fill="midnightblue" stroke="midnightblue" points="306.38,-109.84 316.67,-112.39 310.21,-103.98 306.38,-109.84"/>
</g>
<!-- Node11 -->
<g id="node11" class="node">
<title>Node11</title>
<g id="a_node11"><a xlink:href="readsums_8c.html" target="_top" xlink:title="Load signatures from a file.">
<polygon fill="white" stroke="black" points="336.5,-0.5 336.5,-19.5 409.5,-19.5 409.5,-0.5 336.5,-0.5"/>
<text text-anchor="middle" x="373" y="-7.5" font-family="Helvetica,sans-Serif" font-size="10.00">readsums.c</text>
</a>
</g>
</g>
<!-- Node5&#45;&gt;Node11 -->
<g id="edge11" class="edge">
<title>Node5&#45;&gt;Node11</title>
<path fill="none" stroke="midnightblue" d="M339.66,-102.67C348.41,-78.62 363.4,-37.39 369.88,-19.59"/>
<polygon fill="midnightblue" stroke="midnightblue" points="336.27,-101.77 336.14,-112.37 342.85,-104.17 336.27,-101.77"/>
</g>
<!-- Node12 -->
<g id="node12" class="node">
<title>Node12</title>
<g id="a_node12"><a xlink:href="scoop_8c.html" target="_top" xlink:title="This file deals with readahead from caller&#45;supplied buffers.">
<polygon fill="white" stroke="black" points="58.5,-0.5 58.5,-19.5 111.5,-19.5 111.5,-0.5 58.5,-0.5"/>
<text text-anchor="middle" x="85" y="-7.5" font-family="Helvetica,sans-Serif" font-size="10.00">scoop.c</text>
</a>
</g>
</g>
<!-- Node5&#45;&gt;Node12 -->
<g id="edge12" class="edge">
<title>Node5&#45;&gt;Node12</title>
<path fill="none" stroke="midnightblue" d="M302.28,-118.05C265.19,-113.45 201.84,-102.19 154,-76 127.15,-61.3 102.89,-33.65 91.63,-19.62"/>
<polygon fill="midnightblue" stroke="midnightblue" points="302.12,-121.55 312.45,-119.23 302.92,-114.6 302.12,-121.55"/>
</g>
<!-- Node13 -->
<g id="node13" class="node">
<title>Node13</title>
<g id="a_node13"><a xlink:href="scoop_8h.html" target="_top" xlink:title="Manage librsync streams of IO.">
<polygon fill="white" stroke="black" points="179,-56.5 179,-75.5 233,-75.5 233,-56.5 179,-56.5"/>
<text text-anchor="middle" x="206" y="-63.5" font-family="Helvetica,sans-Serif" font-size="10.00">scoop.h</text>
</a>
</g>
</g>
<!-- Node5&#45;&gt;Node13 -->
<g id="edge13" class="edge">
<title>Node5&#45;&gt;Node13</title>
<path fill="none" stroke="midnightblue" d="M303.61,-108.5C279.8,-98.38 246.89,-84.39 226.03,-75.52"/>
<polygon fill="midnightblue" stroke="midnightblue" points="302.3,-111.75 312.88,-112.44 305.04,-105.31 302.3,-111.75"/>
</g>
<!-- Node15 -->
<g id="node15" class="node">
<title>Node15</title>
<g id="a_node15"><a xlink:href="tube_8c.html" target="_top" xlink:title="A somewhat elastic but fairly small buffer for data passing through a stream.">
<polygon fill="white" stroke="black" points="129.5,-0.5 129.5,-19.5 176.5,-19.5 176.5,-0.5 129.5,-0.5"/>
<text text-anchor="middle" x="153" y="-7.5" font-family="Helvetica,sans-Serif" font-size="10.00">tube.c</text>
</a>
</g>
</g>
<!-- Node5&#45;&gt;Node15 -->
<g id="edge22" class="edge">
<title>Node5&#45;&gt;Node15</title>
<path fill="none" stroke="midnightblue" d="M302.17,-121.21C265.57,-119.73 205.09,-111.57 170,-76 154.93,-60.72 152.74,-33.83 152.7,-19.91"/>
<polygon fill="midnightblue" stroke="midnightblue" points="302.17,-124.71 312.26,-121.47 302.36,-117.71 302.17,-124.71"/>
</g>
<!-- Node16 -->
<g id="node16" class="node">
<title>Node16</title>
<g id="a_node16"><a xlink:href="whole_8c_source.html" target="_top" xlink:title=" ">
<polygon fill="white" stroke="black" points="527,-56.5 527,-75.5 581,-75.5 581,-56.5 527,-56.5"/>
<text text-anchor="middle" x="554" y="-63.5" font-family="Helvetica,sans-Serif" font-size="10.00">whole.c</text>
</a>
</g>
</g>
<!-- Node5&#45;&gt;Node16 -->
<g id="edge23" class="edge">
<title>Node5&#45;&gt;Node16</title>
<path fill="none" stroke="midnightblue" d="M363.77,-113.48C407.18,-102.88 485.69,-83.69 526.97,-73.61"/>
<polygon fill="midnightblue" stroke="midnightblue" points="362.67,-110.15 353.79,-115.92 364.34,-116.95 362.67,-110.15"/>
</g>
<!-- Node13&#45;&gt;Node4 -->
<g id="edge14" class="edge">
<title>Node13&#45;&gt;Node4</title>
<path fill="none" stroke="midnightblue" d="M243.41,-60C324.77,-49.12 516.03,-23.56 584.81,-14.37"/>
<polygon fill="midnightblue" stroke="midnightblue" points="242.58,-56.58 233.13,-61.37 243.51,-63.52 242.58,-56.58"/>
</g>
<!-- Node13&#45;&gt;Node8 -->
<g id="edge15" class="edge">
<title>Node13&#45;&gt;Node8</title>
<path fill="none" stroke="midnightblue" d="M168.94,-54.62C137.08,-45.65 89.94,-32.22 49,-20 46.17,-19.16 43.19,-18.25 40.26,-17.35"/>
<polygon fill="midnightblue" stroke="midnightblue" points="168.15,-58.04 178.72,-57.38 170.04,-51.3 168.15,-58.04"/>
</g>
<!-- Node13&#45;&gt;Node9 -->
<g id="edge16" class="edge">
<title>Node13&#45;&gt;Node9</title>
<path fill="none" stroke="midnightblue" d="M243.14,-57.19C285.65,-48.24 357.36,-33.12 419,-20 422.5,-19.26 426.17,-18.47 429.81,-17.69"/>
<polygon fill="midnightblue" stroke="midnightblue" points="242.3,-53.79 233.24,-59.27 243.75,-60.64 242.3,-53.79"/>
</g>
<!-- Node13&#45;&gt;Node10 -->
<g id="edge18" class="edge">
<title>Node13&#45;&gt;Node10</title>
<path fill="none" stroke="midnightblue" d="M228.45,-50.9C244.22,-41 264.81,-28.07 278.22,-19.65"/>
<polygon fill="midnightblue" stroke="midnightblue" points="226.43,-48.04 219.82,-56.32 230.15,-53.97 226.43,-48.04"/>
</g>
<!-- Node13&#45;&gt;Node11 -->
<g id="edge19" class="edge">
<title>Node13&#45;&gt;Node11</title>
<path fill="none" stroke="midnightblue" d="M242.17,-53.3C273.64,-43.13 318.49,-28.62 346.66,-19.52"/>
<polygon fill="midnightblue" stroke="midnightblue" points="240.9,-50.04 232.46,-56.44 243.05,-56.7 240.9,-50.04"/>
</g>
<!-- Node13&#45;&gt;Node12 -->
<g id="edge20" class="edge">
<title>Node13&#45;&gt;Node12</title>
<path fill="none" stroke="midnightblue" d="M177.69,-52.37C155.03,-42.26 123.87,-28.35 104.08,-19.52"/>
<polygon fill="midnightblue" stroke="midnightblue" points="176.27,-55.56 186.83,-56.44 179.12,-49.17 176.27,-55.56"/>
</g>
<!-- Node14 -->
<g id="node14" class="node">
<title>Node14</title>
<g id="a_node14"><a xlink:href="netint_8c_source.html" target="_top" xlink:title=" ">
<polygon fill="white" stroke="black" points="194.5,-0.5 194.5,-19.5 247.5,-19.5 247.5,-0.5 194.5,-0.5"/>
<text text-anchor="middle" x="221" y="-7.5" font-family="Helvetica,sans-Serif" font-size="10.00">netint.c</text>
</a>
</g>
</g>
<!-- Node13&#45;&gt;Node14 -->
<g id="edge17" class="edge">
<title>Node13&#45;&gt;Node14</title>
<path fill="none" stroke="midnightblue" d="M211.17,-46.4C213.68,-37.36 216.57,-26.94 218.57,-19.75"/>
<polygon fill="midnightblue" stroke="midnightblue" points="207.78,-45.51 208.48,-56.08 214.53,-47.38 207.78,-45.51"/>
</g>
<!-- Node13&#45;&gt;Node15 -->
<g id="edge21" class="edge">
<title>Node13&#45;&gt;Node15</title>
<path fill="none" stroke="midnightblue" d="M190.02,-48.72C180.68,-39.2 169.25,-27.56 161.59,-19.75"/>
<polygon fill="midnightblue" stroke="midnightblue" points="187.75,-51.4 197.25,-56.08 192.74,-46.49 187.75,-51.4"/>
</g>
<!-- Node17&#45;&gt;Node4 -->
<g id="edge25" class="edge">
<title>Node17&#45;&gt;Node4</title>
<path fill="none" stroke="midnightblue" d="M719.94,-102.33C716.78,-88.19 710.62,-69.04 699,-56 681.95,-36.87 654.86,-24.82 635.05,-18.06"/>
<polygon fill="midnightblue" stroke="midnightblue" points="716.54,-103.23 721.87,-112.39 723.42,-101.91 716.54,-103.23"/>
</g>
<!-- Node17&#45;&gt;Node9 -->
<g id="edge26" class="edge">
<title>Node17&#45;&gt;Node9</title>
<path fill="none" stroke="midnightblue" d="M704.26,-106.3C684.88,-91.72 653.28,-69.66 623,-56 579.49,-36.38 525.48,-23.47 492.13,-16.7"/>
<polygon fill="midnightblue" stroke="midnightblue" points="702.18,-109.11 712.25,-112.41 706.43,-103.55 702.18,-109.11"/>
</g>
<!-- Node17&#45;&gt;Node11 -->
<g id="edge27" class="edge">
<title>Node17&#45;&gt;Node11</title>
<path fill="none" stroke="midnightblue" d="M692.69,-108.5C672.62,-99.95 645.88,-88.03 623,-76 607.82,-68.02 605.96,-62.28 590,-56 573.39,-49.47 466.92,-28.78 409.53,-17.87"/>
<polygon fill="midnightblue" stroke="midnightblue" points="691.39,-111.75 701.96,-112.42 694.11,-105.3 691.39,-111.75"/>
</g>
<!-- Node17&#45;&gt;Node16 -->
<g id="edge29" class="edge">
<title>Node17&#45;&gt;Node16</title>
<path fill="none" stroke="midnightblue" d="M686.4,-109.3C654.55,-99.13 609.16,-84.62 580.65,-75.52"/>
<polygon fill="midnightblue" stroke="midnightblue" points="685.63,-112.73 696.22,-112.44 687.76,-106.07 685.63,-112.73"/>
</g>
<!-- Node17&#45;&gt;Node18 -->
<g id="edge28" class="edge">
<title>Node17&#45;&gt;Node18</title>
<path fill="none" stroke="midnightblue" d="M739.89,-105.54C750.41,-95.91 763.57,-83.87 772.35,-75.83"/>
<polygon fill="midnightblue" stroke="midnightblue" points="737.49,-102.99 732.48,-112.32 742.22,-108.15 737.49,-102.99"/>
</g>
</g>
</svg>
