<?xml version="1.0" encoding="UTF-8" standalone="no"?>
<!DOCTYPE svg PUBLIC "-//W3C//DTD SVG 1.1//EN"
 "http://www.w3.org/Graphics/SVG/1.1/DTD/svg11.dtd">
<!-- Generated by graphviz version 2.43.0 (0)
 -->
<!-- Title: job.h Pages: 1 -->
<svg width="640pt" height="196pt"
 viewBox="0.00 0.00 639.50 196.00" xmlns="http://www.w3.org/2000/svg" xmlns:xlink="http://www.w3.org/1999/xlink">
<g id="graph0" class="graph" transform="scale(1 1) rotate(0) translate(4 192)">
<title>job.h</title>
<polygon fill="white" stroke="transparent" points="-4,4 -4,-192 635.5,-192 635.5,4 -4,4"/>
<!-- Node1 -->
<g id="node1" class="node">
<title>Node1</title>
<g id="a_node1"><a xlink:title="Generic state&#45;machine interface.">
<polygon fill="#bfbfbf" stroke="black" points="227.5,-168.5 227.5,-187.5 268.5,-187.5 268.5,-168.5 227.5,-168.5"/>
<text text-anchor="middle" x="248" y="-175.5" font-family="Helvetica,sans-Serif" font-size="10.00">job.h</text>
</a>
</g>
</g>
<!-- Node2 -->
<g id="node2" class="node">
<title>Node2</title>
<g id="a_node2"><a xlink:title=" ">
<polygon fill="white" stroke="#bfbfbf" points="0,-0.5 0,-19.5 56,-19.5 56,-0.5 0,-0.5"/>
<text text-anchor="middle" x="28" y="-7.5" font-family="Helvetica,sans-Serif" font-size="10.00">assert.h</text>
</a>
</g>
</g>
<!-- Node1&#45;&gt;Node2 -->
<g id="edge1" class="edge">
<title>Node1&#45;&gt;Node2</title>
<path fill="none" stroke="midnightblue" d="M227.38,-173.97C183.68,-166.35 81.93,-142.06 35,-76 25.56,-62.71 24.51,-43.88 25.4,-29.9"/>
<polygon fill="midnightblue" stroke="midnightblue" points="28.89,-30.23 26.42,-19.93 21.92,-29.53 28.89,-30.23"/>
</g>
<!-- Node3 -->
<g id="node3" class="node">
<title>Node3</title>
<g id="a_node3"><a xlink:title=" ">
<polygon fill="white" stroke="#bfbfbf" points="174,-0.5 174,-19.5 230,-19.5 230,-0.5 174,-0.5"/>
<text text-anchor="middle" x="202" y="-7.5" font-family="Helvetica,sans-Serif" font-size="10.00">stddef.h</text>
</a>
</g>
</g>
<!-- Node1&#45;&gt;Node3 -->
<g id="edge2" class="edge">
<title>Node1&#45;&gt;Node3</title>
<path fill="none" stroke="midnightblue" d="M234.21,-168.19C223.17,-160.24 208.5,-147.45 202,-132 187.8,-98.23 192.94,-54.32 197.67,-29.76"/>
<polygon fill="midnightblue" stroke="midnightblue" points="201.16,-30.17 199.8,-19.66 194.31,-28.72 201.16,-30.17"/>
</g>
<!-- Node4 -->
<g id="node4" class="node">
<title>Node4</title>
<g id="a_node4"><a xlink:href="mdfour_8h.html" target="_top" xlink:title="MD4 message digest algorithm.">
<polygon fill="white" stroke="black" points="341.5,-112.5 341.5,-131.5 402.5,-131.5 402.5,-112.5 341.5,-112.5"/>
<text text-anchor="middle" x="372" y="-119.5" font-family="Helvetica,sans-Serif" font-size="10.00">mdfour.h</text>
</a>
</g>
</g>
<!-- Node1&#45;&gt;Node4 -->
<g id="edge3" class="edge">
<title>Node1&#45;&gt;Node4</title>
<path fill="none" stroke="midnightblue" d="M267.65,-168.44C287.96,-159.6 319.9,-145.69 343.1,-135.59"/>
<polygon fill="midnightblue" stroke="midnightblue" points="344.67,-138.72 352.44,-131.52 341.88,-132.3 344.67,-138.72"/>
</g>
<!-- Node6 -->
<g id="node6" class="node">
<title>Node6</title>
<g id="a_node6"><a xlink:href="checksum_8h.html" target="_top" xlink:title="Abstract wrappers around different weaksum and strongsum implementations.">
<polygon fill="white" stroke="black" points="210.5,-112.5 210.5,-131.5 285.5,-131.5 285.5,-112.5 210.5,-112.5"/>
<text text-anchor="middle" x="248" y="-119.5" font-family="Helvetica,sans-Serif" font-size="10.00">checksum.h</text>
</a>
</g>
</g>
<!-- Node1&#45;&gt;Node6 -->
<g id="edge5" class="edge">
<title>Node1&#45;&gt;Node6</title>
<path fill="none" stroke="midnightblue" d="M248,-168.08C248,-161.01 248,-150.86 248,-141.99"/>
<polygon fill="midnightblue" stroke="midnightblue" points="251.5,-141.75 248,-131.75 244.5,-141.75 251.5,-141.75"/>
</g>
<!-- Node7 -->
<g id="node7" class="node">
<title>Node7</title>
<g id="a_node7"><a xlink:href="librsync_8h.html" target="_top" xlink:title="Public header for librsync.">
<polygon fill="white" stroke="black" points="438,-56.5 438,-75.5 502,-75.5 502,-56.5 438,-56.5"/>
<text text-anchor="middle" x="470" y="-63.5" font-family="Helvetica,sans-Serif" font-size="10.00">librsync.h</text>
</a>
</g>
</g>
<!-- Node1&#45;&gt;Node7 -->
<g id="edge23" class="edge">
<title>Node1&#45;&gt;Node7</title>
<path fill="none" stroke="midnightblue" d="M268.66,-175.12C301.31,-171.35 365.83,-160.63 412,-132 431.61,-119.84 448.45,-99.09 458.85,-84.3"/>
<polygon fill="midnightblue" stroke="midnightblue" points="462.03,-85.84 464.72,-75.6 456.23,-81.93 462.03,-85.84"/>
</g>
<!-- Node5 -->
<g id="node5" class="node">
<title>Node5</title>
<g id="a_node5"><a xlink:title=" ">
<polygon fill="white" stroke="#bfbfbf" points="324.5,-0.5 324.5,-19.5 377.5,-19.5 377.5,-0.5 324.5,-0.5"/>
<text text-anchor="middle" x="351" y="-7.5" font-family="Helvetica,sans-Serif" font-size="10.00">stdint.h</text>
</a>
</g>
</g>
<!-- Node4&#45;&gt;Node5 -->
<g id="edge4" class="edge">
<title>Node4&#45;&gt;Node5</title>
<path fill="none" stroke="midnightblue" d="M378.02,-112.45C386.07,-99.88 398.52,-75.78 391,-56 386.66,-44.6 377.97,-34.24 369.79,-26.34"/>
<polygon fill="midnightblue" stroke="midnightblue" points="372.04,-23.66 362.27,-19.57 367.36,-28.86 372.04,-23.66"/>
</g>
<!-- Node6&#45;&gt;Node2 -->
<g id="edge6" class="edge">
<title>Node6&#45;&gt;Node2</title>
<path fill="none" stroke="midnightblue" d="M210.38,-116.55C160.55,-109.96 76.21,-96.16 53,-76 39.47,-64.25 33.23,-44.32 30.37,-29.61"/>
<polygon fill="midnightblue" stroke="midnightblue" points="33.81,-28.94 28.78,-19.61 26.89,-30.04 33.81,-28.94"/>
</g>
<!-- Node6&#45;&gt;Node3 -->
<g id="edge7" class="edge">
<title>Node6&#45;&gt;Node3</title>
<path fill="none" stroke="midnightblue" d="M241.92,-112.4C235.93,-103.59 226.84,-89.36 221,-76 214.37,-60.85 209.29,-42.73 206.06,-29.48"/>
<polygon fill="midnightblue" stroke="midnightblue" points="209.45,-28.61 203.79,-19.66 202.63,-30.19 209.45,-28.61"/>
</g>
<!-- Node6&#45;&gt;Node7 -->
<g id="edge8" class="edge">
<title>Node6&#45;&gt;Node7</title>
<path fill="none" stroke="midnightblue" d="M283.18,-112.44C322.48,-102.88 386.09,-87.41 427.98,-77.22"/>
<polygon fill="midnightblue" stroke="midnightblue" points="428.98,-80.58 437.87,-74.82 427.33,-73.78 428.98,-80.58"/>
</g>
<!-- Node11 -->
<g id="node11" class="node">
<title>Node11</title>
<g id="a_node11"><a xlink:href="rollsum_8h.html" target="_top" xlink:title="The Rollsum class implementation of the original rsync rollsum.">
<polygon fill="white" stroke="black" points="320,-56.5 320,-75.5 382,-75.5 382,-56.5 320,-56.5"/>
<text text-anchor="middle" x="351" y="-63.5" font-family="Helvetica,sans-Serif" font-size="10.00">rollsum.h</text>
</a>
</g>
</g>
<!-- Node6&#45;&gt;Node11 -->
<g id="edge13" class="edge">
<title>Node6&#45;&gt;Node11</title>
<path fill="none" stroke="midnightblue" d="M264.55,-112.32C280.99,-103.7 306.43,-90.36 325.47,-80.39"/>
<polygon fill="midnightblue" stroke="midnightblue" points="327.26,-83.4 334.49,-75.65 324.01,-77.2 327.26,-83.4"/>
</g>
<!-- Node12 -->
<g id="node12" class="node">
<title>Node12</title>
<g id="a_node12"><a xlink:href="rabinkarp_8h.html" target="_top" xlink:title="The rabinkarp class implementation of the RabinKarp rollsum.">
<polygon fill="white" stroke="black" points="230,-56.5 230,-75.5 302,-75.5 302,-56.5 230,-56.5"/>
<text text-anchor="middle" x="266" y="-63.5" font-family="Helvetica,sans-Serif" font-size="10.00">rabinkarp.h</text>
</a>
</g>
</g>
<!-- Node6&#45;&gt;Node12 -->
<g id="edge16" class="edge">
<title>Node6&#45;&gt;Node12</title>
<path fill="none" stroke="midnightblue" d="M250.97,-112.08C253.38,-104.85 256.86,-94.41 259.87,-85.4"/>
<polygon fill="midnightblue" stroke="midnightblue" points="263.24,-86.34 263.08,-75.75 256.6,-84.13 263.24,-86.34"/>
</g>
<!-- Node13 -->
<g id="node13" class="node">
<title>Node13</title>
<g id="a_node13"><a xlink:href="hashtable_8h.html" target="_top" xlink:title="A generic open addressing hashtable.">
<polygon fill="white" stroke="black" points="62,-56.5 62,-75.5 136,-75.5 136,-56.5 62,-56.5"/>
<text text-anchor="middle" x="99" y="-63.5" font-family="Helvetica,sans-Serif" font-size="10.00">hashtable.h</text>
</a>
</g>
</g>
<!-- Node6&#45;&gt;Node13 -->
<g id="edge19" class="edge">
<title>Node6&#45;&gt;Node13</title>
<path fill="none" stroke="midnightblue" d="M224.39,-112.44C199.54,-103.44 160.23,-89.19 132.25,-79.05"/>
<polygon fill="midnightblue" stroke="midnightblue" points="133.09,-75.63 122.5,-75.52 130.71,-82.21 133.09,-75.63"/>
</g>
<!-- Node7&#45;&gt;Node5 -->
<g id="edge10" class="edge">
<title>Node7&#45;&gt;Node5</title>
<path fill="none" stroke="midnightblue" d="M451.14,-56.44C431.73,-47.64 401.27,-33.81 379.04,-23.72"/>
<polygon fill="midnightblue" stroke="midnightblue" points="380.32,-20.46 369.77,-19.52 377.43,-26.84 380.32,-20.46"/>
</g>
<!-- Node8 -->
<g id="node8" class="node">
<title>Node8</title>
<g id="a_node8"><a xlink:title=" ">
<polygon fill="white" stroke="#bfbfbf" points="396,-0.5 396,-19.5 446,-19.5 446,-0.5 396,-0.5"/>
<text text-anchor="middle" x="421" y="-7.5" font-family="Helvetica,sans-Serif" font-size="10.00">stdio.h</text>
</a>
</g>
</g>
<!-- Node7&#45;&gt;Node8 -->
<g id="edge9" class="edge">
<title>Node7&#45;&gt;Node8</title>
<path fill="none" stroke="midnightblue" d="M461.91,-56.08C454.84,-48.3 444.41,-36.8 435.85,-27.37"/>
<polygon fill="midnightblue" stroke="midnightblue" points="438.25,-24.8 428.94,-19.75 433.07,-29.51 438.25,-24.8"/>
</g>
<!-- Node9 -->
<g id="node9" class="node">
<title>Node9</title>
<g id="a_node9"><a xlink:title=" ">
<polygon fill="white" stroke="#bfbfbf" points="464,-0.5 464,-19.5 512,-19.5 512,-0.5 464,-0.5"/>
<text text-anchor="middle" x="488" y="-7.5" font-family="Helvetica,sans-Serif" font-size="10.00">time.h</text>
</a>
</g>
</g>
<!-- Node7&#45;&gt;Node9 -->
<g id="edge11" class="edge">
<title>Node7&#45;&gt;Node9</title>
<path fill="none" stroke="midnightblue" d="M472.97,-56.08C475.38,-48.85 478.86,-38.41 481.87,-29.4"/>
<polygon fill="midnightblue" stroke="midnightblue" points="485.24,-30.34 485.08,-19.75 478.6,-28.13 485.24,-30.34"/>
</g>
<!-- Node10 -->
<g id="node10" class="node">
<title>Node10</title>
<g id="a_node10"><a xlink:href="librsync__export_8h_source.html" target="_top" xlink:title=" ">
<polygon fill="white" stroke="black" points="530.5,-0.5 530.5,-19.5 631.5,-19.5 631.5,-0.5 530.5,-0.5"/>
<text text-anchor="middle" x="581" y="-7.5" font-family="Helvetica,sans-Serif" font-size="10.00">librsync_export.h</text>
</a>
</g>
</g>
<!-- Node7&#45;&gt;Node10 -->
<g id="edge12" class="edge">
<title>Node7&#45;&gt;Node10</title>
<path fill="none" stroke="midnightblue" d="M487.83,-56.32C505.72,-47.62 533.48,-34.12 554.05,-24.11"/>
<polygon fill="midnightblue" stroke="midnightblue" points="555.75,-27.18 563.21,-19.65 552.69,-20.88 555.75,-27.18"/>
</g>
<!-- Node11&#45;&gt;Node3 -->
<g id="edge14" class="edge">
<title>Node11&#45;&gt;Node3</title>
<path fill="none" stroke="midnightblue" d="M327.39,-56.44C302.54,-47.44 263.23,-33.19 235.25,-23.05"/>
<polygon fill="midnightblue" stroke="midnightblue" points="236.09,-19.63 225.5,-19.52 233.71,-26.21 236.09,-19.63"/>
</g>
<!-- Node11&#45;&gt;Node5 -->
<g id="edge15" class="edge">
<title>Node11&#45;&gt;Node5</title>
<path fill="none" stroke="midnightblue" d="M351,-56.08C351,-49.01 351,-38.86 351,-29.99"/>
<polygon fill="midnightblue" stroke="midnightblue" points="354.5,-29.75 351,-19.75 347.5,-29.75 354.5,-29.75"/>
</g>
<!-- Node12&#45;&gt;Node3 -->
<g id="edge17" class="edge">
<title>Node12&#45;&gt;Node3</title>
<path fill="none" stroke="midnightblue" d="M255.72,-56.32C246.16,-48.26 231.72,-36.08 220.22,-26.37"/>
<polygon fill="midnightblue" stroke="midnightblue" points="222.37,-23.61 212.47,-19.83 217.86,-28.96 222.37,-23.61"/>
</g>
<!-- Node12&#45;&gt;Node5 -->
<g id="edge18" class="edge">
<title>Node12&#45;&gt;Node5</title>
<path fill="none" stroke="midnightblue" d="M279.66,-56.32C292.92,-47.9 313.27,-34.97 328.85,-25.07"/>
<polygon fill="midnightblue" stroke="midnightblue" points="330.81,-27.97 337.38,-19.65 327.06,-22.06 330.81,-27.97"/>
</g>
<!-- Node13&#45;&gt;Node2 -->
<g id="edge21" class="edge">
<title>Node13&#45;&gt;Node2</title>
<path fill="none" stroke="midnightblue" d="M87.59,-56.32C76.89,-48.18 60.66,-35.84 47.84,-26.09"/>
<polygon fill="midnightblue" stroke="midnightblue" points="49.69,-23.1 39.61,-19.83 45.46,-28.67 49.69,-23.1"/>
</g>
<!-- Node13&#45;&gt;Node3 -->
<g id="edge22" class="edge">
<title>Node13&#45;&gt;Node3</title>
<path fill="none" stroke="midnightblue" d="M115.55,-56.32C131.99,-47.7 157.43,-34.36 176.47,-24.39"/>
<polygon fill="midnightblue" stroke="midnightblue" points="178.26,-27.4 185.49,-19.65 175.01,-21.2 178.26,-27.4"/>
</g>
<!-- Node14 -->
<g id="node14" class="node">
<title>Node14</title>
<g id="a_node14"><a xlink:title=" ">
<polygon fill="white" stroke="#bfbfbf" points="74,-0.5 74,-19.5 136,-19.5 136,-0.5 74,-0.5"/>
<text text-anchor="middle" x="105" y="-7.5" font-family="Helvetica,sans-Serif" font-size="10.00">stdbool.h</text>
</a>
</g>
</g>
<!-- Node13&#45;&gt;Node14 -->
<g id="edge20" class="edge">
<title>Node13&#45;&gt;Node14</title>
<path fill="none" stroke="midnightblue" d="M99.99,-56.08C100.79,-48.93 101.93,-38.64 102.92,-29.69"/>
<polygon fill="midnightblue" stroke="midnightblue" points="106.4,-30.08 104.03,-19.75 99.44,-29.3 106.4,-30.08"/>
</g>
</g>
</svg>
