<?xml version="1.0" encoding="UTF-8" standalone="no"?>
<!DOCTYPE svg PUBLIC "-//W3C//DTD SVG 1.1//EN"
 "http://www.w3.org/Graphics/SVG/1.1/DTD/svg11.dtd">
<!-- Generated by graphviz version 2.43.0 (0)
 -->
<!-- Title: librsync.h Pages: 1 -->
<svg width="1974pt" height="252pt"
 viewBox="0.00 0.00 1973.50 252.00" xmlns="http://www.w3.org/2000/svg" xmlns:xlink="http://www.w3.org/1999/xlink">
<g id="graph0" class="graph" transform="scale(1 1) rotate(0) translate(4 248)">
<title>librsync.h</title>
<polygon fill="white" stroke="transparent" points="-4,4 -4,-248 1969.5,-248 1969.5,4 -4,4"/>
<!-- Node1 -->
<g id="node1" class="node">
<title>Node1</title>
<g id="a_node1"><a xlink:title="Public header for librsync.">
<polygon fill="#bfbfbf" stroke="black" points="974,-224.5 974,-243.5 1038,-243.5 1038,-224.5 974,-224.5"/>
<text text-anchor="middle" x="1006" y="-231.5" font-family="Helvetica,sans-Serif" font-size="10.00">librsync.h</text>
</a>
</g>
</g>
<!-- Node2 -->
<g id="node2" class="node">
<title>Node2</title>
<g id="a_node2"><a xlink:href="base64_8c_source.html" target="_top" xlink:title=" ">
<polygon fill="white" stroke="black" points="0,-168.5 0,-187.5 60,-187.5 60,-168.5 0,-168.5"/>
<text text-anchor="middle" x="30" y="-175.5" font-family="Helvetica,sans-Serif" font-size="10.00">base64.c</text>
</a>
</g>
</g>
<!-- Node1&#45;&gt;Node2 -->
<g id="edge1" class="edge">
<title>Node1&#45;&gt;Node2</title>
<path fill="none" stroke="midnightblue" d="M963.54,-233.26C831.28,-233.59 415.15,-230.87 74,-188 69.51,-187.44 64.8,-186.67 60.2,-185.81"/>
<polygon fill="midnightblue" stroke="midnightblue" points="963.66,-236.76 973.65,-233.23 963.64,-229.76 963.66,-236.76"/>
</g>
<!-- Node3 -->
<g id="node3" class="node">
<title>Node3</title>
<g id="a_node3"><a xlink:href="buf_8c_source.html" target="_top" xlink:title=" ">
<polygon fill="white" stroke="black" points="830,-56.5 830,-75.5 870,-75.5 870,-56.5 830,-56.5"/>
<text text-anchor="middle" x="850" y="-63.5" font-family="Helvetica,sans-Serif" font-size="10.00">buf.c</text>
</a>
</g>
</g>
<!-- Node1&#45;&gt;Node3 -->
<g id="edge2" class="edge">
<title>Node1&#45;&gt;Node3</title>
<path fill="none" stroke="midnightblue" d="M963.64,-227.3C937.29,-221.62 904.62,-210.33 884,-188 853.65,-155.14 850.11,-97.32 849.9,-75.58"/>
<polygon fill="midnightblue" stroke="midnightblue" points="963.27,-230.8 973.75,-229.28 964.61,-223.93 963.27,-230.8"/>
</g>
<!-- Node4 -->
<g id="node4" class="node">
<title>Node4</title>
<g id="a_node4"><a xlink:href="buf_8h.html" target="_top" xlink:title="Buffers that map between stdio file streams and librsync streams.">
<polygon fill="white" stroke="black" points="578.5,-112.5 578.5,-131.5 619.5,-131.5 619.5,-112.5 578.5,-112.5"/>
<text text-anchor="middle" x="599" y="-119.5" font-family="Helvetica,sans-Serif" font-size="10.00">buf.h</text>
</a>
</g>
</g>
<!-- Node1&#45;&gt;Node4 -->
<g id="edge3" class="edge">
<title>Node1&#45;&gt;Node4</title>
<path fill="none" stroke="midnightblue" d="M963.68,-232.68C877.82,-231.26 686.82,-224.03 634,-188 614.31,-174.57 604.75,-146.34 601,-131.91"/>
<polygon fill="midnightblue" stroke="midnightblue" points="963.81,-236.18 973.86,-232.82 963.91,-229.18 963.81,-236.18"/>
</g>
<!-- Node5 -->
<g id="node5" class="node">
<title>Node5</title>
<g id="a_node5"><a xlink:href="whole_8c_source.html" target="_top" xlink:title=" ">
<polygon fill="white" stroke="black" points="192,-56.5 192,-75.5 246,-75.5 246,-56.5 192,-56.5"/>
<text text-anchor="middle" x="219" y="-63.5" font-family="Helvetica,sans-Serif" font-size="10.00">whole.c</text>
</a>
</g>
</g>
<!-- Node1&#45;&gt;Node5 -->
<g id="edge74" class="edge">
<title>Node1&#45;&gt;Node5</title>
<path fill="none" stroke="midnightblue" d="M963.34,-232.73C829.12,-231.51 416.78,-224.79 289,-188 238.93,-173.58 212.63,-176.79 186,-132 174.36,-112.42 195.4,-88.24 208.92,-75.61"/>
<polygon fill="midnightblue" stroke="midnightblue" points="963.59,-236.23 973.62,-232.82 963.65,-229.23 963.59,-236.23"/>
</g>
<!-- Node6 -->
<g id="node6" class="node">
<title>Node6</title>
<g id="a_node6"><a xlink:href="checksum_8h.html" target="_top" xlink:title="Abstract wrappers around different weaksum and strongsum implementations.">
<polygon fill="white" stroke="black" points="347.5,-168.5 347.5,-187.5 422.5,-187.5 422.5,-168.5 347.5,-168.5"/>
<text text-anchor="middle" x="385" y="-175.5" font-family="Helvetica,sans-Serif" font-size="10.00">checksum.h</text>
</a>
</g>
</g>
<!-- Node1&#45;&gt;Node6 -->
<g id="edge6" class="edge">
<title>Node1&#45;&gt;Node6</title>
<path fill="none" stroke="midnightblue" d="M963.78,-231C869.18,-226.22 633.16,-212.68 437,-188 432.36,-187.42 427.51,-186.71 422.71,-185.95"/>
<polygon fill="midnightblue" stroke="midnightblue" points="963.65,-234.5 973.81,-231.5 964,-227.51 963.65,-234.5"/>
</g>
<!-- Node8 -->
<g id="node8" class="node">
<title>Node8</title>
<g id="a_node8"><a xlink:href="delta_8c.html" target="_top" xlink:title="Generate in streaming mode an rsync delta given a set of signatures, and a new file.">
<polygon fill="white" stroke="black" points="268,-0.5 268,-19.5 318,-19.5 318,-0.5 268,-0.5"/>
<text text-anchor="middle" x="293" y="-7.5" font-family="Helvetica,sans-Serif" font-size="10.00">delta.c</text>
</a>
</g>
</g>
<!-- Node1&#45;&gt;Node8 -->
<g id="edge35" class="edge">
<title>Node1&#45;&gt;Node8</title>
<path fill="none" stroke="midnightblue" d="M963.71,-233.1C805.38,-233.15 253.38,-230.27 188,-188 138.5,-155.99 135.15,-99.44 175,-56 199.31,-29.5 240.9,-18.49 267.65,-13.99"/>
<polygon fill="midnightblue" stroke="midnightblue" points="963.99,-236.6 973.99,-233.09 963.98,-229.6 963.99,-236.6"/>
</g>
<!-- Node9 -->
<g id="node9" class="node">
<title>Node9</title>
<g id="a_node9"><a xlink:href="job_8h.html" target="_top" xlink:title="Generic state&#45;machine interface.">
<polygon fill="white" stroke="black" points="519.5,-112.5 519.5,-131.5 560.5,-131.5 560.5,-112.5 519.5,-112.5"/>
<text text-anchor="middle" x="540" y="-119.5" font-family="Helvetica,sans-Serif" font-size="10.00">job.h</text>
</a>
</g>
</g>
<!-- Node1&#45;&gt;Node9 -->
<g id="edge43" class="edge">
<title>Node1&#45;&gt;Node9</title>
<path fill="none" stroke="midnightblue" d="M963.67,-231.42C875.26,-227.59 674.03,-216 612,-188 583.14,-174.97 557.84,-146.02 546.43,-131.56"/>
<polygon fill="midnightblue" stroke="midnightblue" points="963.74,-234.92 973.88,-231.85 964.04,-227.93 963.74,-234.92"/>
</g>
<!-- Node10 -->
<g id="node10" class="node">
<title>Node10</title>
<g id="a_node10"><a xlink:href="emit_8c_source.html" target="_top" xlink:title=" ">
<polygon fill="white" stroke="black" points="1305.5,-0.5 1305.5,-19.5 1352.5,-19.5 1352.5,-0.5 1305.5,-0.5"/>
<text text-anchor="middle" x="1329" y="-7.5" font-family="Helvetica,sans-Serif" font-size="10.00">emit.c</text>
</a>
</g>
</g>
<!-- Node1&#45;&gt;Node10 -->
<g id="edge36" class="edge">
<title>Node1&#45;&gt;Node10</title>
<path fill="none" stroke="midnightblue" d="M1048.25,-233.09C1141.51,-232.56 1361.54,-227.08 1423,-188 1475.31,-154.74 1504.46,-106.13 1468,-56 1454.27,-37.13 1388.47,-22.14 1352.54,-15.2"/>
<polygon fill="midnightblue" stroke="midnightblue" points="1048.04,-229.59 1038.05,-233.13 1048.07,-236.59 1048.04,-229.59"/>
</g>
<!-- Node11 -->
<g id="node11" class="node">
<title>Node11</title>
<g id="a_node11"><a xlink:href="job_8c_source.html" target="_top" xlink:title=" ">
<polygon fill="white" stroke="black" points="982,-0.5 982,-19.5 1022,-19.5 1022,-0.5 982,-0.5"/>
<text text-anchor="middle" x="1002" y="-7.5" font-family="Helvetica,sans-Serif" font-size="10.00">job.c</text>
</a>
</g>
</g>
<!-- Node1&#45;&gt;Node11 -->
<g id="edge42" class="edge">
<title>Node1&#45;&gt;Node11</title>
<path fill="none" stroke="midnightblue" d="M1048.11,-227.35C1157,-211.14 1433.21,-158.9 1343,-56 1321.69,-31.7 1092.54,-16.32 1022.33,-12.15"/>
<polygon fill="midnightblue" stroke="midnightblue" points="1047.51,-223.9 1038.12,-228.81 1048.52,-230.83 1047.51,-223.9"/>
</g>
<!-- Node12 -->
<g id="node12" class="node">
<title>Node12</title>
<g id="a_node12"><a xlink:href="mksum_8c.html" target="_top" xlink:title="Generate file signatures.">
<polygon fill="white" stroke="black" points="513,-0.5 513,-19.5 575,-19.5 575,-0.5 513,-0.5"/>
<text text-anchor="middle" x="544" y="-7.5" font-family="Helvetica,sans-Serif" font-size="10.00">mksum.c</text>
</a>
</g>
</g>
<!-- Node1&#45;&gt;Node12 -->
<g id="edge45" class="edge">
<title>Node1&#45;&gt;Node12</title>
<path fill="none" stroke="midnightblue" d="M963.57,-231.62C869.79,-228.08 647.76,-216.83 579,-188 542.89,-172.86 527.71,-167.41 511,-132 492.23,-92.22 523.63,-39.88 537.71,-19.57"/>
<polygon fill="midnightblue" stroke="midnightblue" points="963.7,-235.13 973.82,-232 963.96,-228.13 963.7,-235.13"/>
</g>
<!-- Node13 -->
<g id="node13" class="node">
<title>Node13</title>
<g id="a_node13"><a xlink:href="patch_8c.html" target="_top" xlink:title="Apply a delta to an old file to generate a new file.">
<polygon fill="white" stroke="black" points="1147,-0.5 1147,-19.5 1199,-19.5 1199,-0.5 1147,-0.5"/>
<text text-anchor="middle" x="1173" y="-7.5" font-family="Helvetica,sans-Serif" font-size="10.00">patch.c</text>
</a>
</g>
</g>
<!-- Node1&#45;&gt;Node13 -->
<g id="edge54" class="edge">
<title>Node1&#45;&gt;Node13</title>
<path fill="none" stroke="midnightblue" d="M1048.18,-233.14C1137.58,-232.65 1342.47,-227.17 1398,-188 1443.32,-156.04 1440.45,-130.02 1453,-76 1455.01,-67.34 1458.77,-62.77 1453,-56 1436.59,-36.75 1266.1,-19.41 1199.47,-13.31"/>
<polygon fill="midnightblue" stroke="midnightblue" points="1048.11,-229.64 1038.12,-233.18 1048.13,-236.64 1048.11,-229.64"/>
</g>
<!-- Node14 -->
<g id="node14" class="node">
<title>Node14</title>
<g id="a_node14"><a xlink:href="readsums_8c.html" target="_top" xlink:title="Load signatures from a file.">
<polygon fill="white" stroke="black" points="600.5,-0.5 600.5,-19.5 673.5,-19.5 673.5,-0.5 600.5,-0.5"/>
<text text-anchor="middle" x="637" y="-7.5" font-family="Helvetica,sans-Serif" font-size="10.00">readsums.c</text>
</a>
</g>
</g>
<!-- Node1&#45;&gt;Node14 -->
<g id="edge56" class="edge">
<title>Node1&#45;&gt;Node14</title>
<path fill="none" stroke="midnightblue" d="M964.19,-223.62C935.54,-216.24 897.22,-204.43 866,-188 770.84,-137.91 674.75,-47.88 645.79,-19.69"/>
<polygon fill="midnightblue" stroke="midnightblue" points="963.34,-227.02 973.89,-226.05 965.04,-220.23 963.34,-227.02"/>
</g>
<!-- Node15 -->
<g id="node15" class="node">
<title>Node15</title>
<g id="a_node15"><a xlink:href="scoop_8c.html" target="_top" xlink:title="This file deals with readahead from caller&#45;supplied buffers.">
<polygon fill="white" stroke="black" points="781.5,-0.5 781.5,-19.5 834.5,-19.5 834.5,-0.5 781.5,-0.5"/>
<text text-anchor="middle" x="808" y="-7.5" font-family="Helvetica,sans-Serif" font-size="10.00">scoop.c</text>
</a>
</g>
</g>
<!-- Node1&#45;&gt;Node15 -->
<g id="edge57" class="edge">
<title>Node1&#45;&gt;Node15</title>
<path fill="none" stroke="midnightblue" d="M996.36,-215.24C977.32,-181.29 932.09,-106.12 879,-56 862.76,-40.67 840.57,-27.59 825.35,-19.55"/>
<polygon fill="midnightblue" stroke="midnightblue" points="993.51,-217.32 1001.41,-224.38 999.64,-213.93 993.51,-217.32"/>
</g>
<!-- Node16 -->
<g id="node16" class="node">
<title>Node16</title>
<g id="a_node16"><a xlink:href="scoop_8h.html" target="_top" xlink:title="Manage librsync streams of IO.">
<polygon fill="white" stroke="black" points="568,-56.5 568,-75.5 622,-75.5 622,-56.5 568,-56.5"/>
<text text-anchor="middle" x="595" y="-63.5" font-family="Helvetica,sans-Serif" font-size="10.00">scoop.h</text>
</a>
</g>
</g>
<!-- Node1&#45;&gt;Node16 -->
<g id="edge58" class="edge">
<title>Node1&#45;&gt;Node16</title>
<path fill="none" stroke="midnightblue" d="M963.87,-231.92C884.99,-229.16 718.78,-219.66 672,-188 639.86,-166.25 650.3,-144.44 629,-112 620.4,-98.9 609.27,-84.6 602.13,-75.71"/>
<polygon fill="midnightblue" stroke="midnightblue" points="963.84,-235.42 973.95,-232.25 964.07,-228.42 963.84,-235.42"/>
</g>
<!-- Node17 -->
<g id="node17" class="node">
<title>Node17</title>
<g id="a_node17"><a xlink:href="netint_8c_source.html" target="_top" xlink:title=" ">
<polygon fill="white" stroke="black" points="1390.5,-0.5 1390.5,-19.5 1443.5,-19.5 1443.5,-0.5 1390.5,-0.5"/>
<text text-anchor="middle" x="1417" y="-7.5" font-family="Helvetica,sans-Serif" font-size="10.00">netint.c</text>
</a>
</g>
</g>
<!-- Node1&#45;&gt;Node17 -->
<g id="edge47" class="edge">
<title>Node1&#45;&gt;Node17</title>
<path fill="none" stroke="midnightblue" d="M1048.16,-232.81C1145.05,-231.72 1380.51,-225.2 1449,-188 1502.65,-158.86 1519.53,-107.66 1487,-56 1476.15,-38.76 1456.01,-26.86 1440.12,-19.65"/>
<polygon fill="midnightblue" stroke="midnightblue" points="1048.1,-229.31 1038.13,-232.91 1048.17,-236.31 1048.1,-229.31"/>
</g>
<!-- Node18 -->
<g id="node18" class="node">
<title>Node18</title>
<g id="a_node18"><a xlink:href="tube_8c.html" target="_top" xlink:title="A somewhat elastic but fairly small buffer for data passing through a stream.">
<polygon fill="white" stroke="black" points="440.5,-0.5 440.5,-19.5 487.5,-19.5 487.5,-0.5 440.5,-0.5"/>
<text text-anchor="middle" x="464" y="-7.5" font-family="Helvetica,sans-Serif" font-size="10.00">tube.c</text>
</a>
</g>
</g>
<!-- Node1&#45;&gt;Node18 -->
<g id="edge63" class="edge">
<title>Node1&#45;&gt;Node18</title>
<path fill="none" stroke="midnightblue" d="M963.88,-232.73C809.91,-231.47 283.26,-224.48 218,-188 165.02,-158.38 142,-100.75 183,-56 200.4,-37.01 375.85,-19.1 440.36,-13.11"/>
<polygon fill="midnightblue" stroke="midnightblue" points="963.86,-236.23 973.89,-232.81 963.92,-229.23 963.86,-236.23"/>
</g>
<!-- Node19 -->
<g id="node19" class="node">
<title>Node19</title>
<g id="a_node19"><a xlink:href="sumset_8h.html" target="_top" xlink:title="The rs_signature class implementation of a file signature.">
<polygon fill="white" stroke="black" points="399,-112.5 399,-131.5 461,-131.5 461,-112.5 399,-112.5"/>
<text text-anchor="middle" x="430" y="-119.5" font-family="Helvetica,sans-Serif" font-size="10.00">sumset.h</text>
</a>
</g>
</g>
<!-- Node1&#45;&gt;Node19 -->
<g id="edge61" class="edge">
<title>Node1&#45;&gt;Node19</title>
<path fill="none" stroke="midnightblue" d="M963.84,-231.48C845.63,-226.95 516.92,-212.27 475,-188 452.67,-175.07 438.87,-146.08 433.11,-131.59"/>
<polygon fill="midnightblue" stroke="midnightblue" points="963.83,-234.99 973.95,-231.87 964.09,-227.99 963.83,-234.99"/>
</g>
<!-- Node20 -->
<g id="node20" class="node">
<title>Node20</title>
<g id="a_node20"><a xlink:href="sumset_8c_source.html" target="_top" xlink:title=" ">
<polygon fill="white" stroke="black" points="926.5,-56.5 926.5,-75.5 987.5,-75.5 987.5,-56.5 926.5,-56.5"/>
<text text-anchor="middle" x="957" y="-63.5" font-family="Helvetica,sans-Serif" font-size="10.00">sumset.c</text>
</a>
</g>
</g>
<!-- Node1&#45;&gt;Node20 -->
<g id="edge60" class="edge">
<title>Node1&#45;&gt;Node20</title>
<path fill="none" stroke="midnightblue" d="M1000.51,-214.39C989.94,-178.59 967.14,-101.34 959.53,-75.57"/>
<polygon fill="midnightblue" stroke="midnightblue" points="997.18,-215.48 1003.37,-224.08 1003.89,-213.49 997.18,-215.48"/>
</g>
<!-- Node21 -->
<g id="node21" class="node">
<title>Node21</title>
<g id="a_node21"><a xlink:href="emit_8h.html" target="_top" xlink:title="encoding output routines.">
<polygon fill="white" stroke="black" points="1286,-56.5 1286,-75.5 1334,-75.5 1334,-56.5 1286,-56.5"/>
<text text-anchor="middle" x="1310" y="-63.5" font-family="Helvetica,sans-Serif" font-size="10.00">emit.h</text>
</a>
</g>
</g>
<!-- Node1&#45;&gt;Node21 -->
<g id="edge37" class="edge">
<title>Node1&#45;&gt;Node21</title>
<path fill="none" stroke="midnightblue" d="M1035.52,-220.37C1055.17,-211.74 1081.42,-199.78 1104,-188 1178.29,-149.25 1263.6,-96.32 1296.29,-75.71"/>
<polygon fill="midnightblue" stroke="midnightblue" points="1033.95,-217.24 1026.18,-224.44 1036.75,-223.66 1033.95,-217.24"/>
</g>
<!-- Node22 -->
<g id="node22" class="node">
<title>Node22</title>
<g id="a_node22"><a xlink:href="fileutil_8c_source.html" target="_top" xlink:title=" ">
<polygon fill="white" stroke="black" points="1576,-168.5 1576,-187.5 1632,-187.5 1632,-168.5 1576,-168.5"/>
<text text-anchor="middle" x="1604" y="-175.5" font-family="Helvetica,sans-Serif" font-size="10.00">fileutil.c</text>
</a>
</g>
</g>
<!-- Node1&#45;&gt;Node22 -->
<g id="edge40" class="edge">
<title>Node1&#45;&gt;Node22</title>
<path fill="none" stroke="midnightblue" d="M1048.29,-231.46C1141.5,-227.65 1371.49,-216 1562,-188 1566.43,-187.35 1571.09,-186.51 1575.62,-185.6"/>
<polygon fill="midnightblue" stroke="midnightblue" points="1047.98,-227.97 1038.13,-231.86 1048.26,-234.96 1047.98,-227.97"/>
</g>
<!-- Node23 -->
<g id="node23" class="node">
<title>Node23</title>
<g id="a_node23"><a xlink:href="hex_8c_source.html" target="_top" xlink:title=" ">
<polygon fill="white" stroke="black" points="1650.5,-168.5 1650.5,-187.5 1693.5,-187.5 1693.5,-168.5 1650.5,-168.5"/>
<text text-anchor="middle" x="1672" y="-175.5" font-family="Helvetica,sans-Serif" font-size="10.00">hex.c</text>
</a>
</g>
</g>
<!-- Node1&#45;&gt;Node23 -->
<g id="edge41" class="edge">
<title>Node1&#45;&gt;Node23</title>
<path fill="none" stroke="midnightblue" d="M1048.25,-233.08C1150.73,-232.61 1420.33,-227.39 1641,-188 1644.09,-187.45 1647.31,-186.71 1650.46,-185.89"/>
<polygon fill="midnightblue" stroke="midnightblue" points="1048,-229.58 1038.01,-233.11 1048.02,-236.58 1048,-229.58"/>
</g>
<!-- Node24 -->
<g id="node24" class="node">
<title>Node24</title>
<g id="a_node24"><a xlink:href="mdfour_8c_source.html" target="_top" xlink:title=" ">
<polygon fill="white" stroke="black" points="1712,-168.5 1712,-187.5 1772,-187.5 1772,-168.5 1712,-168.5"/>
<text text-anchor="middle" x="1742" y="-175.5" font-family="Helvetica,sans-Serif" font-size="10.00">mdfour.c</text>
</a>
</g>
</g>
<!-- Node1&#45;&gt;Node24 -->
<g id="edge44" class="edge">
<title>Node1&#45;&gt;Node24</title>
<path fill="none" stroke="midnightblue" d="M1048.41,-232.65C1157.56,-231.24 1456.85,-224.1 1703,-188 1705.89,-187.58 1708.88,-187.05 1711.86,-186.46"/>
<polygon fill="midnightblue" stroke="midnightblue" points="1048.11,-229.16 1038.15,-232.78 1048.19,-236.16 1048.11,-229.16"/>
</g>
<!-- Node25 -->
<g id="node25" class="node">
<title>Node25</title>
<g id="a_node25"><a xlink:href="msg_8c.html" target="_top" xlink:title="error messages for re_result values.">
<polygon fill="white" stroke="black" points="1790,-168.5 1790,-187.5 1836,-187.5 1836,-168.5 1790,-168.5"/>
<text text-anchor="middle" x="1813" y="-175.5" font-family="Helvetica,sans-Serif" font-size="10.00">msg.c</text>
</a>
</g>
</g>
<!-- Node1&#45;&gt;Node25 -->
<g id="edge46" class="edge">
<title>Node1&#45;&gt;Node25</title>
<path fill="none" stroke="midnightblue" d="M1048.47,-231.74C1189.01,-227.4 1638.18,-211.94 1781,-188 1783.85,-187.52 1786.8,-186.89 1789.71,-186.18"/>
<polygon fill="midnightblue" stroke="midnightblue" points="1048.01,-228.26 1038.12,-232.06 1048.22,-235.25 1048.01,-228.26"/>
</g>
<!-- Node26 -->
<g id="node26" class="node">
<title>Node26</title>
<g id="a_node26"><a xlink:href="netint_8h.html" target="_top" xlink:title="Network&#45;byte&#45;order output to the tube.">
<polygon fill="white" stroke="black" points="1390,-56.5 1390,-75.5 1444,-75.5 1444,-56.5 1390,-56.5"/>
<text text-anchor="middle" x="1417" y="-63.5" font-family="Helvetica,sans-Serif" font-size="10.00">netint.h</text>
</a>
</g>
</g>
<!-- Node1&#45;&gt;Node26 -->
<g id="edge48" class="edge">
<title>Node1&#45;&gt;Node26</title>
<path fill="none" stroke="midnightblue" d="M1048.29,-233.34C1134.5,-233.17 1326.59,-228.16 1376,-188 1411.45,-159.18 1416.4,-98.39 1416.98,-75.75"/>
<polygon fill="midnightblue" stroke="midnightblue" points="1048.08,-229.84 1038.07,-233.34 1048.07,-236.84 1048.08,-229.84"/>
</g>
<!-- Node27 -->
<g id="node27" class="node">
<title>Node27</title>
<g id="a_node27"><a xlink:href="rdiff_8c.html" target="_top" xlink:title="Command&#45;line network&#45;delta tool.">
<polygon fill="white" stroke="black" points="1854,-168.5 1854,-187.5 1898,-187.5 1898,-168.5 1854,-168.5"/>
<text text-anchor="middle" x="1876" y="-175.5" font-family="Helvetica,sans-Serif" font-size="10.00">rdiff.c</text>
</a>
</g>
</g>
<!-- Node1&#45;&gt;Node27 -->
<g id="edge55" class="edge">
<title>Node1&#45;&gt;Node27</title>
<path fill="none" stroke="midnightblue" d="M1048.03,-232.02C1195.54,-228.37 1689.11,-214.45 1845,-188 1847.87,-187.51 1850.86,-186.85 1853.79,-186.11"/>
<polygon fill="midnightblue" stroke="midnightblue" points="1047.93,-228.52 1038.02,-232.26 1048.1,-235.52 1047.93,-228.52"/>
</g>
<!-- Node28 -->
<g id="node28" class="node">
<title>Node28</title>
<g id="a_node28"><a xlink:href="stats_8c.html" target="_top" xlink:title="stats reporting functions.">
<polygon fill="white" stroke="black" points="1916.5,-168.5 1916.5,-187.5 1965.5,-187.5 1965.5,-168.5 1916.5,-168.5"/>
<text text-anchor="middle" x="1941" y="-175.5" font-family="Helvetica,sans-Serif" font-size="10.00">stats.c</text>
</a>
</g>
</g>
<!-- Node1&#45;&gt;Node28 -->
<g id="edge59" class="edge">
<title>Node1&#45;&gt;Node28</title>
<path fill="none" stroke="midnightblue" d="M1048.53,-232.05C1203.6,-228.42 1738.32,-214.24 1907,-188 1910.02,-187.53 1913.15,-186.9 1916.24,-186.19"/>
<polygon fill="midnightblue" stroke="midnightblue" points="1048.37,-228.56 1038.45,-232.29 1048.53,-235.55 1048.37,-228.56"/>
</g>
<!-- Node29 -->
<g id="node29" class="node">
<title>Node29</title>
<g id="a_node29"><a xlink:href="trace_8c_source.html" target="_top" xlink:title=" ">
<polygon fill="white" stroke="black" points="1158,-56.5 1158,-75.5 1208,-75.5 1208,-56.5 1158,-56.5"/>
<text text-anchor="middle" x="1183" y="-63.5" font-family="Helvetica,sans-Serif" font-size="10.00">trace.c</text>
</a>
</g>
</g>
<!-- Node1&#45;&gt;Node29 -->
<g id="edge62" class="edge">
<title>Node1&#45;&gt;Node29</title>
<path fill="none" stroke="midnightblue" d="M1022.97,-217.09C1059.72,-182.62 1145.67,-102.01 1173.86,-75.57"/>
<polygon fill="midnightblue" stroke="midnightblue" points="1020.42,-214.68 1015.52,-224.08 1025.2,-219.79 1020.42,-214.68"/>
</g>
<!-- Node30 -->
<g id="node30" class="node">
<title>Node30</title>
<g id="a_node30"><a xlink:href="util_8c_source.html" target="_top" xlink:title=" ">
<polygon fill="white" stroke="black" points="1226.5,-56.5 1226.5,-75.5 1267.5,-75.5 1267.5,-56.5 1226.5,-56.5"/>
<text text-anchor="middle" x="1247" y="-63.5" font-family="Helvetica,sans-Serif" font-size="10.00">util.c</text>
</a>
</g>
</g>
<!-- Node1&#45;&gt;Node30 -->
<g id="edge64" class="edge">
<title>Node1&#45;&gt;Node30</title>
<path fill="none" stroke="midnightblue" d="M1028.56,-219.13C1042.62,-210.39 1061,-198.75 1077,-188 1137.43,-147.38 1207.77,-95.95 1235.2,-75.73"/>
<polygon fill="midnightblue" stroke="midnightblue" points="1026.68,-216.18 1020.02,-224.42 1030.36,-222.13 1026.68,-216.18"/>
</g>
<!-- Node31 -->
<g id="node31" class="node">
<title>Node31</title>
<g id="a_node31"><a xlink:href="util_8h.html" target="_top" xlink:title="Misc utility functions used by librsync.">
<polygon fill="white" stroke="black" points="1033.5,-112.5 1033.5,-131.5 1074.5,-131.5 1074.5,-112.5 1033.5,-112.5"/>
<text text-anchor="middle" x="1054" y="-119.5" font-family="Helvetica,sans-Serif" font-size="10.00">util.h</text>
</a>
</g>
</g>
<!-- Node1&#45;&gt;Node31 -->
<g id="edge65" class="edge">
<title>Node1&#45;&gt;Node31</title>
<path fill="none" stroke="midnightblue" d="M1013.86,-215C1024.33,-191 1042.45,-149.47 1050.25,-131.59"/>
<polygon fill="midnightblue" stroke="midnightblue" points="1010.56,-213.8 1009.77,-224.37 1016.97,-216.6 1010.56,-213.8"/>
</g>
<!-- Node32 -->
<g id="node32" class="node">
<title>Node32</title>
<g id="a_node32"><a xlink:href="whole_8h.html" target="_top" xlink:title="Whole&#45;file API driver functions.">
<polygon fill="white" stroke="black" points="195.5,-112.5 195.5,-131.5 250.5,-131.5 250.5,-112.5 195.5,-112.5"/>
<text text-anchor="middle" x="223" y="-119.5" font-family="Helvetica,sans-Serif" font-size="10.00">whole.h</text>
</a>
</g>
</g>
<!-- Node1&#45;&gt;Node32 -->
<g id="edge75" class="edge">
<title>Node1&#45;&gt;Node32</title>
<path fill="none" stroke="midnightblue" d="M963.74,-232.57C836.23,-230.9 456.81,-223.03 339,-188 297.4,-175.63 254.34,-146.37 234.4,-131.7"/>
<polygon fill="midnightblue" stroke="midnightblue" points="963.85,-236.07 973.89,-232.7 963.93,-229.07 963.85,-236.07"/>
</g>
<!-- Node4&#45;&gt;Node3 -->
<g id="edge4" class="edge">
<title>Node4&#45;&gt;Node3</title>
<path fill="none" stroke="midnightblue" d="M629.63,-115.19C671.76,-107.08 749.89,-91.59 816,-76 820.52,-74.93 825.35,-73.71 829.91,-72.51"/>
<polygon fill="midnightblue" stroke="midnightblue" points="628.89,-111.77 619.73,-117.09 630.21,-118.65 628.89,-111.77"/>
</g>
<!-- Node4&#45;&gt;Node5 -->
<g id="edge5" class="edge">
<title>Node4&#45;&gt;Node5</title>
<path fill="none" stroke="midnightblue" d="M568.1,-111.89C443.23,-85.41 303.87,-73.18 246.13,-68.87"/>
<polygon fill="midnightblue" stroke="midnightblue" points="567.69,-115.38 578.21,-114.07 569.17,-108.54 567.69,-115.38"/>
</g>
<!-- Node7 -->
<g id="node7" class="node">
<title>Node7</title>
<g id="a_node7"><a xlink:href="checksum_8c_source.html" target="_top" xlink:title=" ">
<polygon fill="white" stroke="black" points="307,-112.5 307,-131.5 381,-131.5 381,-112.5 307,-112.5"/>
<text text-anchor="middle" x="344" y="-119.5" font-family="Helvetica,sans-Serif" font-size="10.00">checksum.c</text>
</a>
</g>
</g>
<!-- Node6&#45;&gt;Node7 -->
<g id="edge7" class="edge">
<title>Node6&#45;&gt;Node7</title>
<path fill="none" stroke="midnightblue" d="M371.98,-159.86C364.88,-150.5 356.4,-139.33 350.64,-131.75"/>
<polygon fill="midnightblue" stroke="midnightblue" points="369.39,-162.24 378.23,-168.08 374.97,-158 369.39,-162.24"/>
</g>
<!-- Node6&#45;&gt;Node8 -->
<g id="edge8" class="edge">
<title>Node6&#45;&gt;Node8</title>
<path fill="none" stroke="midnightblue" d="M359.39,-163.73C325.47,-146.16 268.78,-116.84 259,-112 225.5,-95.43 202.99,-107.58 183,-76 160.94,-41.14 229,-22.62 267.88,-15.1"/>
<polygon fill="midnightblue" stroke="midnightblue" points="357.8,-166.85 368.29,-168.34 361.02,-160.63 357.8,-166.85"/>
</g>
<!-- Node6&#45;&gt;Node9 -->
<g id="edge9" class="edge">
<title>Node6&#45;&gt;Node9</title>
<path fill="none" stroke="midnightblue" d="M419.36,-165.03C449.86,-154.4 493.46,-139.21 519.03,-130.3"/>
<polygon fill="midnightblue" stroke="midnightblue" points="417.85,-161.85 409.56,-168.44 420.16,-168.46 417.85,-161.85"/>
</g>
<!-- Node6&#45;&gt;Node19 -->
<g id="edge29" class="edge">
<title>Node6&#45;&gt;Node19</title>
<path fill="none" stroke="midnightblue" d="M399.05,-160.14C406.89,-150.74 416.33,-139.4 422.71,-131.75"/>
<polygon fill="midnightblue" stroke="midnightblue" points="396.14,-158.16 392.43,-168.08 401.52,-162.64 396.14,-158.16"/>
</g>
<!-- Node9&#45;&gt;Node3 -->
<g id="edge10" class="edge">
<title>Node9&#45;&gt;Node3</title>
<path fill="none" stroke="midnightblue" d="M570.64,-112.18C679.69,-88.63 710.92,-97.52 816,-76 820.55,-75.07 825.39,-73.9 829.95,-72.71"/>
<polygon fill="midnightblue" stroke="midnightblue" points="569.57,-108.83 560.55,-114.4 571.07,-115.67 569.57,-108.83"/>
</g>
<!-- Node9&#45;&gt;Node5 -->
<g id="edge28" class="edge">
<title>Node9&#45;&gt;Node5</title>
<path fill="none" stroke="midnightblue" d="M509.4,-115.85C446.88,-105.33 305.36,-81.53 246,-71.54"/>
<polygon fill="midnightblue" stroke="midnightblue" points="508.99,-119.33 519.43,-117.54 510.15,-112.43 508.99,-119.33"/>
</g>
<!-- Node9&#45;&gt;Node8 -->
<g id="edge11" class="edge">
<title>Node9&#45;&gt;Node8</title>
<path fill="none" stroke="midnightblue" d="M511.18,-108.16C460.21,-85.47 355.49,-38.83 312.29,-19.59"/>
<polygon fill="midnightblue" stroke="midnightblue" points="510.06,-111.5 520.62,-112.37 512.91,-105.1 510.06,-111.5"/>
</g>
<!-- Node9&#45;&gt;Node10 -->
<g id="edge12" class="edge">
<title>Node9&#45;&gt;Node10</title>
<path fill="none" stroke="midnightblue" d="M570.47,-112.17C661.44,-91.48 688.75,-101.3 774,-76 795.76,-69.54 798.98,-61.51 821,-56 844.81,-50.04 1208.53,-20.64 1305.43,-12.88"/>
<polygon fill="midnightblue" stroke="midnightblue" points="569.51,-108.8 560.57,-114.48 571.11,-115.62 569.51,-108.8"/>
</g>
<!-- Node9&#45;&gt;Node11 -->
<g id="edge13" class="edge">
<title>Node9&#45;&gt;Node11</title>
<path fill="none" stroke="midnightblue" d="M570.33,-111.84C606.83,-100.81 665.98,-82.9 688,-76 715.63,-67.34 721.91,-63.01 750,-56 835.17,-34.76 938.91,-19.51 981.88,-13.65"/>
<polygon fill="midnightblue" stroke="midnightblue" points="569.24,-108.52 560.68,-114.76 571.27,-115.22 569.24,-108.52"/>
</g>
<!-- Node9&#45;&gt;Node12 -->
<g id="edge14" class="edge">
<title>Node9&#45;&gt;Node12</title>
<path fill="none" stroke="midnightblue" d="M532,-102.57C527.36,-89.58 522.96,-71.76 526,-56 528.55,-42.78 534.94,-28.51 539.38,-19.66"/>
<polygon fill="midnightblue" stroke="midnightblue" points="528.88,-104.18 535.81,-112.19 535.39,-101.61 528.88,-104.18"/>
</g>
<!-- Node9&#45;&gt;Node13 -->
<g id="edge15" class="edge">
<title>Node9&#45;&gt;Node13</title>
<path fill="none" stroke="midnightblue" d="M570.29,-112.1C643.53,-93.57 664.68,-95.87 733,-76 757.98,-68.74 762.69,-61.99 788,-56 856.76,-39.71 1071.78,-19.87 1146.84,-13.26"/>
<polygon fill="midnightblue" stroke="midnightblue" points="569.41,-108.72 560.6,-114.6 571.16,-115.5 569.41,-108.72"/>
</g>
<!-- Node9&#45;&gt;Node14 -->
<g id="edge16" class="edge">
<title>Node9&#45;&gt;Node14</title>
<path fill="none" stroke="midnightblue" d="M541.74,-102.09C543.86,-88.11 548.57,-69.28 559,-56 572.62,-38.67 594.9,-26.78 612.17,-19.59"/>
<polygon fill="midnightblue" stroke="midnightblue" points="538.26,-101.72 540.53,-112.06 545.21,-102.56 538.26,-101.72"/>
</g>
<!-- Node9&#45;&gt;Node15 -->
<g id="edge17" class="edge">
<title>Node9&#45;&gt;Node15</title>
<path fill="none" stroke="midnightblue" d="M570.09,-108.65C624.9,-86.15 739.71,-39.03 786.98,-19.63"/>
<polygon fill="midnightblue" stroke="midnightblue" points="568.51,-105.52 560.58,-112.55 571.16,-111.99 568.51,-105.52"/>
</g>
<!-- Node9&#45;&gt;Node16 -->
<g id="edge18" class="edge">
<title>Node9&#45;&gt;Node16</title>
<path fill="none" stroke="midnightblue" d="M556.29,-105C566.04,-95.43 578.05,-83.64 586.09,-75.75"/>
<polygon fill="midnightblue" stroke="midnightblue" points="553.77,-102.58 549.08,-112.08 558.67,-107.57 553.77,-102.58"/>
</g>
<!-- Node9&#45;&gt;Node18 -->
<g id="edge27" class="edge">
<title>Node9&#45;&gt;Node18</title>
<path fill="none" stroke="midnightblue" d="M528.22,-103.96C511.75,-80.12 482.45,-37.71 469.94,-19.59"/>
<polygon fill="midnightblue" stroke="midnightblue" points="525.47,-106.13 534.04,-112.37 531.23,-102.15 525.47,-106.13"/>
</g>
<!-- Node16&#45;&gt;Node8 -->
<g id="edge19" class="edge">
<title>Node16&#45;&gt;Node8</title>
<path fill="none" stroke="midnightblue" d="M557.76,-58.34C495.47,-47.2 371.71,-25.07 318.4,-15.54"/>
<polygon fill="midnightblue" stroke="midnightblue" points="557.47,-61.85 567.93,-60.16 558.71,-54.95 557.47,-61.85"/>
</g>
<!-- Node16&#45;&gt;Node11 -->
<g id="edge20" class="edge">
<title>Node16&#45;&gt;Node11</title>
<path fill="none" stroke="midnightblue" d="M632.1,-60.08C715.84,-48.97 917.25,-22.24 981.76,-13.69"/>
<polygon fill="midnightblue" stroke="midnightblue" points="631.47,-56.63 622.02,-61.42 632.39,-63.57 631.47,-56.63"/>
</g>
<!-- Node16&#45;&gt;Node12 -->
<g id="edge21" class="edge">
<title>Node16&#45;&gt;Node12</title>
<path fill="none" stroke="midnightblue" d="M579.62,-48.72C570.63,-39.2 559.64,-27.56 552.26,-19.75"/>
<polygon fill="midnightblue" stroke="midnightblue" points="577.17,-51.22 586.58,-56.08 582.26,-46.41 577.17,-51.22"/>
</g>
<!-- Node16&#45;&gt;Node13 -->
<g id="edge23" class="edge">
<title>Node16&#45;&gt;Node13</title>
<path fill="none" stroke="midnightblue" d="M632.24,-61.52C740.66,-51.39 1054.32,-22.09 1146.95,-13.43"/>
<polygon fill="midnightblue" stroke="midnightblue" points="631.73,-58.05 622.1,-62.47 632.39,-65.02 631.73,-58.05"/>
</g>
<!-- Node16&#45;&gt;Node14 -->
<g id="edge24" class="edge">
<title>Node16&#45;&gt;Node14</title>
<path fill="none" stroke="midnightblue" d="M608.11,-48.14C615.43,-38.74 624.24,-27.4 630.19,-19.75"/>
<polygon fill="midnightblue" stroke="midnightblue" points="605.31,-46.04 601.94,-56.08 610.84,-50.34 605.31,-46.04"/>
</g>
<!-- Node16&#45;&gt;Node15 -->
<g id="edge25" class="edge">
<title>Node16&#45;&gt;Node15</title>
<path fill="none" stroke="midnightblue" d="M632.13,-55.59C674.79,-44.77 743.72,-27.3 781.37,-17.75"/>
<polygon fill="midnightblue" stroke="midnightblue" points="631.24,-52.2 622.41,-58.05 632.96,-58.99 631.24,-52.2"/>
</g>
<!-- Node16&#45;&gt;Node17 -->
<g id="edge22" class="edge">
<title>Node16&#45;&gt;Node17</title>
<path fill="none" stroke="midnightblue" d="M632.29,-63.33C765.55,-57.26 1217.91,-35.97 1362,-20 1371.23,-18.98 1381.27,-17.46 1390.22,-15.95"/>
<polygon fill="midnightblue" stroke="midnightblue" points="632.01,-59.83 622.18,-63.78 632.33,-66.83 632.01,-59.83"/>
</g>
<!-- Node16&#45;&gt;Node18 -->
<g id="edge26" class="edge">
<title>Node16&#45;&gt;Node18</title>
<path fill="none" stroke="midnightblue" d="M564.68,-52.5C540.12,-42.38 506.18,-28.39 484.66,-19.52"/>
<polygon fill="midnightblue" stroke="midnightblue" points="563.66,-55.87 574.24,-56.44 566.33,-49.4 563.66,-55.87"/>
</g>
<!-- Node19&#45;&gt;Node5 -->
<g id="edge34" class="edge">
<title>Node19&#45;&gt;Node5</title>
<path fill="none" stroke="midnightblue" d="M388.93,-110.49C346.8,-99.71 282.45,-83.24 246.23,-73.97"/>
<polygon fill="midnightblue" stroke="midnightblue" points="388.31,-113.94 398.87,-113.03 390.05,-107.16 388.31,-113.94"/>
</g>
<!-- Node19&#45;&gt;Node8 -->
<g id="edge30" class="edge">
<title>Node19&#45;&gt;Node8</title>
<path fill="none" stroke="midnightblue" d="M389.45,-109.61C352.85,-98.95 303.86,-83.56 298,-76 285.24,-59.54 288.24,-33.16 290.94,-19.63"/>
<polygon fill="midnightblue" stroke="midnightblue" points="388.82,-113.08 399.39,-112.49 390.76,-106.35 388.82,-113.08"/>
</g>
<!-- Node19&#45;&gt;Node12 -->
<g id="edge31" class="edge">
<title>Node19&#45;&gt;Node12</title>
<path fill="none" stroke="midnightblue" d="M404.17,-107.19C383.43,-94.28 359.91,-74.3 374,-56 382.54,-44.9 466.18,-26.59 512.87,-17.11"/>
<polygon fill="midnightblue" stroke="midnightblue" points="402.67,-110.37 413.07,-112.43 406.23,-104.34 402.67,-110.37"/>
</g>
<!-- Node19&#45;&gt;Node14 -->
<g id="edge32" class="edge">
<title>Node19&#45;&gt;Node14</title>
<path fill="none" stroke="midnightblue" d="M452.86,-107.36C475.69,-93.88 511.93,-72.88 544,-56 569.4,-42.63 599.38,-28.4 618.29,-19.6"/>
<polygon fill="midnightblue" stroke="midnightblue" points="451.04,-104.37 444.22,-112.48 454.61,-110.39 451.04,-104.37"/>
</g>
<!-- Node19&#45;&gt;Node20 -->
<g id="edge33" class="edge">
<title>Node19&#45;&gt;Node20</title>
<path fill="none" stroke="midnightblue" d="M471.44,-116.29C484.13,-114.88 498.14,-113.34 511,-112 674.45,-94.93 715.59,-93.42 879,-76 894.59,-74.34 911.91,-72.35 926.27,-70.67"/>
<polygon fill="midnightblue" stroke="midnightblue" points="470.69,-112.85 461.15,-117.44 471.47,-119.81 470.69,-112.85"/>
</g>
<!-- Node21&#45;&gt;Node8 -->
<g id="edge38" class="edge">
<title>Node21&#45;&gt;Node8</title>
<path fill="none" stroke="midnightblue" d="M1276.02,-56.23C903.83,1.08 804.06,-39.97 432,-20 392.16,-17.86 345.93,-14.74 318.1,-12.79"/>
<polygon fill="midnightblue" stroke="midnightblue" points="1275.57,-59.71 1285.98,-57.78 1276.64,-52.79 1275.57,-59.71"/>
</g>
<!-- Node21&#45;&gt;Node10 -->
<g id="edge39" class="edge">
<title>Node21&#45;&gt;Node10</title>
<path fill="none" stroke="midnightblue" d="M1316.55,-46.4C1319.72,-37.36 1323.39,-26.94 1325.92,-19.75"/>
<polygon fill="midnightblue" stroke="midnightblue" points="1313.15,-45.49 1313.14,-56.08 1319.76,-47.81 1313.15,-45.49"/>
</g>
<!-- Node26&#45;&gt;Node10 -->
<g id="edge49" class="edge">
<title>Node26&#45;&gt;Node10</title>
<path fill="none" stroke="midnightblue" d="M1394.02,-50.9C1377.89,-41 1356.82,-28.07 1343.1,-19.65"/>
<polygon fill="midnightblue" stroke="midnightblue" points="1392.51,-54.08 1402.86,-56.32 1396.17,-48.11 1392.51,-54.08"/>
</g>
<!-- Node26&#45;&gt;Node12 -->
<g id="edge50" class="edge">
<title>Node26&#45;&gt;Node12</title>
<path fill="none" stroke="midnightblue" d="M1380.01,-59.96C1368.2,-58.5 1355.07,-57.02 1343,-56 1010.03,-27.81 923.89,-58.88 592,-20 586.53,-19.36 580.74,-18.46 575.15,-17.48"/>
<polygon fill="midnightblue" stroke="midnightblue" points="1379.62,-63.44 1389.99,-61.23 1380.51,-56.5 1379.62,-63.44"/>
</g>
<!-- Node26&#45;&gt;Node13 -->
<g id="edge52" class="edge">
<title>Node26&#45;&gt;Node13</title>
<path fill="none" stroke="midnightblue" d="M1379.91,-56.79C1330.01,-45.75 1242.53,-26.39 1199.06,-16.77"/>
<polygon fill="midnightblue" stroke="midnightblue" points="1379.44,-60.27 1389.96,-59.01 1380.95,-53.44 1379.44,-60.27"/>
</g>
<!-- Node26&#45;&gt;Node14 -->
<g id="edge53" class="edge">
<title>Node26&#45;&gt;Node14</title>
<path fill="none" stroke="midnightblue" d="M1380,-60.07C1368.19,-58.62 1355.06,-57.11 1343,-56 1090.24,-32.67 1026.31,-36.38 773,-20 739.35,-17.82 701.02,-15.28 673.65,-13.46"/>
<polygon fill="midnightblue" stroke="midnightblue" points="1379.62,-63.55 1389.98,-61.33 1380.49,-56.61 1379.62,-63.55"/>
</g>
<!-- Node26&#45;&gt;Node17 -->
<g id="edge51" class="edge">
<title>Node26&#45;&gt;Node17</title>
<path fill="none" stroke="midnightblue" d="M1417,-45.8C1417,-36.91 1417,-26.78 1417,-19.75"/>
<polygon fill="midnightblue" stroke="midnightblue" points="1413.5,-46.08 1417,-56.08 1420.5,-46.08 1413.5,-46.08"/>
</g>
<!-- Node31&#45;&gt;Node3 -->
<g id="edge66" class="edge">
<title>Node31&#45;&gt;Node3</title>
<path fill="none" stroke="midnightblue" d="M1023.58,-112.95C981.33,-101.76 906.04,-81.84 870.13,-72.33"/>
<polygon fill="midnightblue" stroke="midnightblue" points="1022.75,-116.35 1033.32,-115.53 1024.55,-109.58 1022.75,-116.35"/>
</g>
<!-- Node31&#45;&gt;Node11 -->
<g id="edge67" class="edge">
<title>Node31&#45;&gt;Node11</title>
<path fill="none" stroke="midnightblue" d="M1078.45,-106.83C1097.25,-94.04 1118.12,-74.46 1106,-56 1087.42,-27.72 1046.86,-17.13 1022.24,-13.22"/>
<polygon fill="midnightblue" stroke="midnightblue" points="1076.34,-104.02 1069.81,-112.36 1080.12,-109.91 1076.34,-104.02"/>
</g>
<!-- Node31&#45;&gt;Node12 -->
<g id="edge68" class="edge">
<title>Node31&#45;&gt;Node12</title>
<path fill="none" stroke="midnightblue" d="M1044.2,-103.75C1034.41,-88.33 1017.84,-66.58 997,-56 916.43,-15.1 681.51,-32.34 592,-20 586.54,-19.25 580.76,-18.3 575.17,-17.3"/>
<polygon fill="midnightblue" stroke="midnightblue" points="1041.24,-105.62 1049.4,-112.38 1047.24,-102.01 1041.24,-105.62"/>
</g>
<!-- Node31&#45;&gt;Node14 -->
<g id="edge69" class="edge">
<title>Node31&#45;&gt;Node14</title>
<path fill="none" stroke="midnightblue" d="M1052.28,-101.99C1049.85,-87.06 1044.02,-67.01 1030,-56 1016.06,-45.05 768.89,-22.49 673.83,-14.17"/>
<polygon fill="midnightblue" stroke="midnightblue" points="1048.84,-102.69 1053.55,-112.18 1055.78,-101.82 1048.84,-102.69"/>
</g>
<!-- Node31&#45;&gt;Node15 -->
<g id="edge70" class="edge">
<title>Node31&#45;&gt;Node15</title>
<path fill="none" stroke="midnightblue" d="M1065.02,-103.47C1072.47,-89.15 1079.11,-69.2 1068,-56 1038.35,-20.78 894.98,-13.12 834.74,-11.46"/>
<polygon fill="midnightblue" stroke="midnightblue" points="1061.88,-101.91 1059.95,-112.32 1067.96,-105.39 1061.88,-101.91"/>
</g>
<!-- Node31&#45;&gt;Node20 -->
<g id="edge71" class="edge">
<title>Node31&#45;&gt;Node20</title>
<path fill="none" stroke="midnightblue" d="M1029.66,-107.45C1011.76,-97.48 987.95,-84.23 972.55,-75.65"/>
<polygon fill="midnightblue" stroke="midnightblue" points="1027.98,-110.52 1038.42,-112.32 1031.38,-104.4 1027.98,-110.52"/>
</g>
<!-- Node31&#45;&gt;Node29 -->
<g id="edge72" class="edge">
<title>Node31&#45;&gt;Node29</title>
<path fill="none" stroke="midnightblue" d="M1083.85,-108.5C1108.04,-98.38 1141.46,-84.39 1162.66,-75.52"/>
<polygon fill="midnightblue" stroke="midnightblue" points="1082.31,-105.35 1074.44,-112.44 1085.02,-111.81 1082.31,-105.35"/>
</g>
<!-- Node31&#45;&gt;Node30 -->
<g id="edge73" class="edge">
<title>Node31&#45;&gt;Node30</title>
<path fill="none" stroke="midnightblue" d="M1084.5,-112.79C1117.3,-103.92 1170.93,-89.27 1217,-76 1220.03,-75.13 1223.23,-74.19 1226.36,-73.26"/>
<polygon fill="midnightblue" stroke="midnightblue" points="1083.37,-109.48 1074.63,-115.46 1085.19,-116.23 1083.37,-109.48"/>
</g>
<!-- Node32&#45;&gt;Node5 -->
<g id="edge76" class="edge">
<title>Node32&#45;&gt;Node5</title>
<path fill="none" stroke="midnightblue" d="M221.6,-102.1C220.94,-93.14 220.17,-82.86 219.65,-75.75"/>
<polygon fill="midnightblue" stroke="midnightblue" points="218.11,-102.37 222.34,-112.08 225.09,-101.85 218.11,-102.37"/>
</g>
</g>
</svg>
