<?xml version="1.0" encoding="UTF-8" standalone="no"?>
<!DOCTYPE svg PUBLIC "-//W3C//DTD SVG 1.1//EN"
 "http://www.w3.org/Graphics/SVG/1.1/DTD/svg11.dtd">
<!-- Generated by graphviz version 2.43.0 (0)
 -->
<!-- Title: mdfour.h Pages: 1 -->
<svg width="574pt" height="196pt"
 viewBox="0.00 0.00 574.00 196.00" xmlns="http://www.w3.org/2000/svg" xmlns:xlink="http://www.w3.org/1999/xlink">
<g id="graph0" class="graph" transform="scale(1 1) rotate(0) translate(4 192)">
<title>mdfour.h</title>
<polygon fill="white" stroke="transparent" points="-4,4 -4,-192 570,-192 570,4 -4,4"/>
<!-- Node1 -->
<g id="node1" class="node">
<title>Node1</title>
<g id="a_node1"><a xlink:title="MD4 message digest algorithm.">
<polygon fill="#bfbfbf" stroke="black" points="290.5,-168.5 290.5,-187.5 351.5,-187.5 351.5,-168.5 290.5,-168.5"/>
<text text-anchor="middle" x="321" y="-175.5" font-family="Helvetica,sans-Serif" font-size="10.00">mdfour.h</text>
</a>
</g>
</g>
<!-- Node2 -->
<g id="node2" class="node">
<title>Node2</title>
<g id="a_node2"><a xlink:href="job_8h.html" target="_top" xlink:title="Generic state&#45;machine interface.">
<polygon fill="white" stroke="black" points="266.5,-112.5 266.5,-131.5 307.5,-131.5 307.5,-112.5 266.5,-112.5"/>
<text text-anchor="middle" x="287" y="-119.5" font-family="Helvetica,sans-Serif" font-size="10.00">job.h</text>
</a>
</g>
</g>
<!-- Node1&#45;&gt;Node2 -->
<g id="edge1" class="edge">
<title>Node1&#45;&gt;Node2</title>
<path fill="none" stroke="midnightblue" d="M310.02,-159.57C304.17,-150.27 297.23,-139.25 292.51,-131.75"/>
<polygon fill="midnightblue" stroke="midnightblue" points="307.1,-161.49 315.39,-168.08 313.02,-157.76 307.1,-161.49"/>
</g>
<!-- Node15 -->
<g id="node15" class="node">
<title>Node15</title>
<g id="a_node15"><a xlink:href="mdfour_8c_source.html" target="_top" xlink:title=" ">
<polygon fill="white" stroke="black" points="326,-112.5 326,-131.5 386,-131.5 386,-112.5 326,-112.5"/>
<text text-anchor="middle" x="356" y="-119.5" font-family="Helvetica,sans-Serif" font-size="10.00">mdfour.c</text>
</a>
</g>
</g>
<!-- Node1&#45;&gt;Node15 -->
<g id="edge21" class="edge">
<title>Node1&#45;&gt;Node15</title>
<path fill="none" stroke="midnightblue" d="M332.3,-159.57C338.32,-150.27 345.47,-139.25 350.33,-131.75"/>
<polygon fill="midnightblue" stroke="midnightblue" points="329.28,-157.79 326.78,-168.08 335.16,-161.6 329.28,-157.79"/>
</g>
<!-- Node3 -->
<g id="node3" class="node">
<title>Node3</title>
<g id="a_node3"><a xlink:href="buf_8c_source.html" target="_top" xlink:title=" ">
<polygon fill="white" stroke="black" points="50,-56.5 50,-75.5 90,-75.5 90,-56.5 50,-56.5"/>
<text text-anchor="middle" x="70" y="-63.5" font-family="Helvetica,sans-Serif" font-size="10.00">buf.c</text>
</a>
</g>
</g>
<!-- Node2&#45;&gt;Node3 -->
<g id="edge2" class="edge">
<title>Node2&#45;&gt;Node3</title>
<path fill="none" stroke="midnightblue" d="M256.41,-113.65C220.04,-104.88 157.52,-89.66 104,-76 99.5,-74.85 94.68,-73.59 90.12,-72.39"/>
<polygon fill="midnightblue" stroke="midnightblue" points="255.85,-117.12 266.39,-116.06 257.49,-110.31 255.85,-117.12"/>
</g>
<!-- Node4 -->
<g id="node4" class="node">
<title>Node4</title>
<g id="a_node4"><a xlink:href="delta_8c.html" target="_top" xlink:title="Generate in streaming mode an rsync delta given a set of signatures, and a new file.">
<polygon fill="white" stroke="black" points="0,-0.5 0,-19.5 50,-19.5 50,-0.5 0,-0.5"/>
<text text-anchor="middle" x="25" y="-7.5" font-family="Helvetica,sans-Serif" font-size="10.00">delta.c</text>
</a>
</g>
</g>
<!-- Node2&#45;&gt;Node4 -->
<g id="edge3" class="edge">
<title>Node2&#45;&gt;Node4</title>
<path fill="none" stroke="midnightblue" d="M256.75,-110.47C232.12,-101.72 196.56,-88.7 166,-76 120.95,-57.27 69.12,-32.53 42.62,-19.65"/>
<polygon fill="midnightblue" stroke="midnightblue" points="255.67,-113.8 266.26,-113.83 258,-107.2 255.67,-113.8"/>
</g>
<!-- Node5 -->
<g id="node5" class="node">
<title>Node5</title>
<g id="a_node5"><a xlink:href="emit_8c_source.html" target="_top" xlink:title=" ">
<polygon fill="white" stroke="black" points="446.5,-56.5 446.5,-75.5 493.5,-75.5 493.5,-56.5 446.5,-56.5"/>
<text text-anchor="middle" x="470" y="-63.5" font-family="Helvetica,sans-Serif" font-size="10.00">emit.c</text>
</a>
</g>
</g>
<!-- Node2&#45;&gt;Node5 -->
<g id="edge4" class="edge">
<title>Node2&#45;&gt;Node5</title>
<path fill="none" stroke="midnightblue" d="M317.32,-111.92C368.98,-96.58 418.1,-82.18 446.4,-73.9"/>
<polygon fill="midnightblue" stroke="midnightblue" points="316.24,-108.59 307.65,-114.79 318.24,-115.3 316.24,-108.59"/>
</g>
<!-- Node6 -->
<g id="node6" class="node">
<title>Node6</title>
<g id="a_node6"><a xlink:href="job_8c_source.html" target="_top" xlink:title=" ">
<polygon fill="white" stroke="black" points="68,-0.5 68,-19.5 108,-19.5 108,-0.5 68,-0.5"/>
<text text-anchor="middle" x="88" y="-7.5" font-family="Helvetica,sans-Serif" font-size="10.00">job.c</text>
</a>
</g>
</g>
<!-- Node2&#45;&gt;Node6 -->
<g id="edge5" class="edge">
<title>Node2&#45;&gt;Node6</title>
<path fill="none" stroke="midnightblue" d="M262.48,-107.45C220.96,-84.5 137.99,-38.63 103.54,-19.59"/>
<polygon fill="midnightblue" stroke="midnightblue" points="260.94,-110.59 271.38,-112.37 264.33,-104.47 260.94,-110.59"/>
</g>
<!-- Node7 -->
<g id="node7" class="node">
<title>Node7</title>
<g id="a_node7"><a xlink:href="mksum_8c.html" target="_top" xlink:title="Generate file signatures.">
<polygon fill="white" stroke="black" points="126,-0.5 126,-19.5 188,-19.5 188,-0.5 126,-0.5"/>
<text text-anchor="middle" x="157" y="-7.5" font-family="Helvetica,sans-Serif" font-size="10.00">mksum.c</text>
</a>
</g>
</g>
<!-- Node2&#45;&gt;Node7 -->
<g id="edge6" class="edge">
<title>Node2&#45;&gt;Node7</title>
<path fill="none" stroke="midnightblue" d="M269.05,-105.82C241.37,-82.39 189.13,-38.19 167.15,-19.59"/>
<polygon fill="midnightblue" stroke="midnightblue" points="266.9,-108.58 276.8,-112.37 271.43,-103.24 266.9,-108.58"/>
</g>
<!-- Node8 -->
<g id="node8" class="node">
<title>Node8</title>
<g id="a_node8"><a xlink:href="patch_8c.html" target="_top" xlink:title="Apply a delta to an old file to generate a new file.">
<polygon fill="white" stroke="black" points="206,-0.5 206,-19.5 258,-19.5 258,-0.5 206,-0.5"/>
<text text-anchor="middle" x="232" y="-7.5" font-family="Helvetica,sans-Serif" font-size="10.00">patch.c</text>
</a>
</g>
</g>
<!-- Node2&#45;&gt;Node8 -->
<g id="edge7" class="edge">
<title>Node2&#45;&gt;Node8</title>
<path fill="none" stroke="midnightblue" d="M271.51,-104.85C264.42,-96.72 256.41,-86.41 251,-76 241.24,-57.22 235.81,-32.72 233.45,-19.82"/>
<polygon fill="midnightblue" stroke="midnightblue" points="269.1,-107.4 278.42,-112.43 274.27,-102.68 269.1,-107.4"/>
</g>
<!-- Node9 -->
<g id="node9" class="node">
<title>Node9</title>
<g id="a_node9"><a xlink:href="readsums_8c.html" target="_top" xlink:title="Load signatures from a file.">
<polygon fill="white" stroke="black" points="347.5,-0.5 347.5,-19.5 420.5,-19.5 420.5,-0.5 347.5,-0.5"/>
<text text-anchor="middle" x="384" y="-7.5" font-family="Helvetica,sans-Serif" font-size="10.00">readsums.c</text>
</a>
</g>
</g>
<!-- Node2&#45;&gt;Node9 -->
<g id="edge8" class="edge">
<title>Node2&#45;&gt;Node9</title>
<path fill="none" stroke="midnightblue" d="M301.47,-104.59C322.39,-80.87 360.31,-37.87 376.42,-19.59"/>
<polygon fill="midnightblue" stroke="midnightblue" points="298.6,-102.55 294.61,-112.37 303.85,-107.18 298.6,-102.55"/>
</g>
<!-- Node10 -->
<g id="node10" class="node">
<title>Node10</title>
<g id="a_node10"><a xlink:href="scoop_8c.html" target="_top" xlink:title="This file deals with readahead from caller&#45;supplied buffers.">
<polygon fill="white" stroke="black" points="438.5,-0.5 438.5,-19.5 491.5,-19.5 491.5,-0.5 438.5,-0.5"/>
<text text-anchor="middle" x="465" y="-7.5" font-family="Helvetica,sans-Serif" font-size="10.00">scoop.c</text>
</a>
</g>
</g>
<!-- Node2&#45;&gt;Node10 -->
<g id="edge9" class="edge">
<title>Node2&#45;&gt;Node10</title>
<path fill="none" stroke="midnightblue" d="M309.64,-107.01C347,-83.92 420.48,-38.51 451.1,-19.59"/>
<polygon fill="midnightblue" stroke="midnightblue" points="307.63,-104.13 300.97,-112.37 311.31,-110.09 307.63,-104.13"/>
</g>
<!-- Node11 -->
<g id="node11" class="node">
<title>Node11</title>
<g id="a_node11"><a xlink:href="scoop_8h.html" target="_top" xlink:title="Manage librsync streams of IO.">
<polygon fill="white" stroke="black" points="260,-56.5 260,-75.5 314,-75.5 314,-56.5 260,-56.5"/>
<text text-anchor="middle" x="287" y="-63.5" font-family="Helvetica,sans-Serif" font-size="10.00">scoop.h</text>
</a>
</g>
</g>
<!-- Node2&#45;&gt;Node11 -->
<g id="edge10" class="edge">
<title>Node2&#45;&gt;Node11</title>
<path fill="none" stroke="midnightblue" d="M287,-101.8C287,-92.91 287,-82.78 287,-75.75"/>
<polygon fill="midnightblue" stroke="midnightblue" points="283.5,-102.08 287,-112.08 290.5,-102.08 283.5,-102.08"/>
</g>
<!-- Node13 -->
<g id="node13" class="node">
<title>Node13</title>
<g id="a_node13"><a xlink:href="tube_8c.html" target="_top" xlink:title="A somewhat elastic but fairly small buffer for data passing through a stream.">
<polygon fill="white" stroke="black" points="509.5,-0.5 509.5,-19.5 556.5,-19.5 556.5,-0.5 509.5,-0.5"/>
<text text-anchor="middle" x="533" y="-7.5" font-family="Helvetica,sans-Serif" font-size="10.00">tube.c</text>
</a>
</g>
</g>
<!-- Node2&#45;&gt;Node13 -->
<g id="edge19" class="edge">
<title>Node2&#45;&gt;Node13</title>
<path fill="none" stroke="midnightblue" d="M316.28,-108.53C337.15,-99.58 365.86,-87.19 391,-76 435.58,-56.15 487.67,-32.08 514.67,-19.54"/>
<polygon fill="midnightblue" stroke="midnightblue" points="314.81,-105.35 306.99,-112.5 317.56,-111.78 314.81,-105.35"/>
</g>
<!-- Node14 -->
<g id="node14" class="node">
<title>Node14</title>
<g id="a_node14"><a xlink:href="whole_8c_source.html" target="_top" xlink:title=" ">
<polygon fill="white" stroke="black" points="512,-56.5 512,-75.5 566,-75.5 566,-56.5 512,-56.5"/>
<text text-anchor="middle" x="539" y="-63.5" font-family="Helvetica,sans-Serif" font-size="10.00">whole.c</text>
</a>
</g>
</g>
<!-- Node2&#45;&gt;Node14 -->
<g id="edge20" class="edge">
<title>Node2&#45;&gt;Node14</title>
<path fill="none" stroke="midnightblue" d="M317.45,-112.11C400.48,-92.02 423.84,-93.54 503,-76 505.89,-75.36 508.91,-74.66 511.91,-73.94"/>
<polygon fill="midnightblue" stroke="midnightblue" points="316.46,-108.75 307.58,-114.53 318.13,-115.55 316.46,-108.75"/>
</g>
<!-- Node11&#45;&gt;Node4 -->
<g id="edge11" class="edge">
<title>Node11&#45;&gt;Node4</title>
<path fill="none" stroke="midnightblue" d="M249.91,-58.43C204.67,-50.25 125.93,-35.45 59,-20 56.14,-19.34 53.16,-18.61 50.21,-17.86"/>
<polygon fill="midnightblue" stroke="midnightblue" points="249.39,-61.9 259.86,-60.22 250.63,-55.01 249.39,-61.9"/>
</g>
<!-- Node11&#45;&gt;Node6 -->
<g id="edge12" class="edge">
<title>Node11&#45;&gt;Node6</title>
<path fill="none" stroke="midnightblue" d="M249.71,-55.61C215.19,-46.8 162.47,-33.07 117,-20 114.16,-19.18 111.18,-18.3 108.25,-17.4"/>
<polygon fill="midnightblue" stroke="midnightblue" points="249.26,-59.11 259.82,-58.18 250.99,-52.32 249.26,-59.11"/>
</g>
<!-- Node11&#45;&gt;Node7 -->
<g id="edge13" class="edge">
<title>Node11&#45;&gt;Node7</title>
<path fill="none" stroke="midnightblue" d="M256.91,-52.5C232.54,-42.38 198.86,-28.39 177.5,-19.52"/>
<polygon fill="midnightblue" stroke="midnightblue" points="255.82,-55.84 266.4,-56.44 258.51,-49.38 255.82,-55.84"/>
</g>
<!-- Node11&#45;&gt;Node8 -->
<g id="edge15" class="edge">
<title>Node11&#45;&gt;Node8</title>
<path fill="none" stroke="midnightblue" d="M270.71,-49C260.96,-39.43 248.95,-27.64 240.91,-19.75"/>
<polygon fill="midnightblue" stroke="midnightblue" points="268.33,-51.57 277.92,-56.08 273.23,-46.58 268.33,-51.57"/>
</g>
<!-- Node11&#45;&gt;Node9 -->
<g id="edge16" class="edge">
<title>Node11&#45;&gt;Node9</title>
<path fill="none" stroke="midnightblue" d="M311.34,-51.45C329.24,-41.48 353.05,-28.23 368.45,-19.65"/>
<polygon fill="midnightblue" stroke="midnightblue" points="309.62,-48.4 302.58,-56.32 313.02,-54.52 309.62,-48.4"/>
</g>
<!-- Node11&#45;&gt;Node10 -->
<g id="edge17" class="edge">
<title>Node11&#45;&gt;Node10</title>
<path fill="none" stroke="midnightblue" d="M323.64,-53.89C357.76,-43.53 407.81,-28.35 438.29,-19.1"/>
<polygon fill="midnightblue" stroke="midnightblue" points="322.59,-50.55 314.03,-56.8 324.62,-57.24 322.59,-50.55"/>
</g>
<!-- Node12 -->
<g id="node12" class="node">
<title>Node12</title>
<g id="a_node12"><a xlink:href="netint_8c_source.html" target="_top" xlink:title=" ">
<polygon fill="white" stroke="black" points="276.5,-0.5 276.5,-19.5 329.5,-19.5 329.5,-0.5 276.5,-0.5"/>
<text text-anchor="middle" x="303" y="-7.5" font-family="Helvetica,sans-Serif" font-size="10.00">netint.c</text>
</a>
</g>
</g>
<!-- Node11&#45;&gt;Node12 -->
<g id="edge14" class="edge">
<title>Node11&#45;&gt;Node12</title>
<path fill="none" stroke="midnightblue" d="M292.51,-46.4C295.19,-37.36 298.28,-26.94 300.41,-19.75"/>
<polygon fill="midnightblue" stroke="midnightblue" points="289.13,-45.5 289.64,-56.08 295.84,-47.49 289.13,-45.5"/>
</g>
<!-- Node11&#45;&gt;Node13 -->
<g id="edge18" class="edge">
<title>Node11&#45;&gt;Node13</title>
<path fill="none" stroke="midnightblue" d="M324.12,-57.98C366.93,-49.7 439.35,-35.13 501,-20 503.69,-19.34 506.5,-18.61 509.28,-17.86"/>
<polygon fill="midnightblue" stroke="midnightblue" points="323.32,-54.57 314.16,-59.89 324.64,-61.44 323.32,-54.57"/>
</g>
</g>
</svg>
