<?xml version="1.0" encoding="UTF-8" standalone="no"?>
<!DOCTYPE svg PUBLIC "-//W3C//DTD SVG 1.1//EN"
 "http://www.w3.org/Graphics/SVG/1.1/DTD/svg11.dtd">
<!-- Generated by graphviz version 2.43.0 (0)
 -->
<!-- Title: mksum.c Pages: 1 -->
<svg width="992pt" height="308pt"
 viewBox="0.00 0.00 992.00 308.00" xmlns="http://www.w3.org/2000/svg" xmlns:xlink="http://www.w3.org/1999/xlink">
<g id="graph0" class="graph" transform="scale(1 1) rotate(0) translate(4 304)">
<title>mksum.c</title>
<polygon fill="white" stroke="transparent" points="-4,4 -4,-304 988,-304 988,4 -4,4"/>
<!-- Node1 -->
<g id="node1" class="node">
<title>Node1</title>
<g id="a_node1"><a xlink:title="Generate file signatures.">
<polygon fill="#bfbfbf" stroke="black" points="213,-280.5 213,-299.5 275,-299.5 275,-280.5 213,-280.5"/>
<text text-anchor="middle" x="244" y="-287.5" font-family="Helvetica,sans-Serif" font-size="10.00">mksum.c</text>
</a>
</g>
</g>
<!-- Node2 -->
<g id="node2" class="node">
<title>Node2</title>
<g id="a_node2"><a xlink:href="config_8h_source.html" target="_top" xlink:title=" ">
<polygon fill="white" stroke="black" points="0,-168.5 0,-187.5 56,-187.5 56,-168.5 0,-168.5"/>
<text text-anchor="middle" x="28" y="-175.5" font-family="Helvetica,sans-Serif" font-size="10.00">config.h</text>
</a>
</g>
</g>
<!-- Node1&#45;&gt;Node2 -->
<g id="edge1" class="edge">
<title>Node1&#45;&gt;Node2</title>
<path fill="none" stroke="midnightblue" d="M212.8,-285.72C163.48,-279.92 70.69,-266.31 47,-244 34.44,-232.17 30.04,-212.54 28.57,-197.94"/>
<polygon fill="midnightblue" stroke="midnightblue" points="32.03,-197.32 27.91,-187.56 25.05,-197.76 32.03,-197.32"/>
</g>
<!-- Node3 -->
<g id="node3" class="node">
<title>Node3</title>
<g id="a_node3"><a xlink:title=" ">
<polygon fill="white" stroke="#bfbfbf" points="124.5,-224.5 124.5,-243.5 177.5,-243.5 177.5,-224.5 124.5,-224.5"/>
<text text-anchor="middle" x="151" y="-231.5" font-family="Helvetica,sans-Serif" font-size="10.00">stdlib.h</text>
</a>
</g>
</g>
<!-- Node1&#45;&gt;Node3 -->
<g id="edge2" class="edge">
<title>Node1&#45;&gt;Node3</title>
<path fill="none" stroke="midnightblue" d="M229.06,-280.32C214.41,-271.82 191.87,-258.73 174.76,-248.8"/>
<polygon fill="midnightblue" stroke="midnightblue" points="176.31,-245.65 165.9,-243.65 172.8,-251.7 176.31,-245.65"/>
</g>
<!-- Node4 -->
<g id="node4" class="node">
<title>Node4</title>
<g id="a_node4"><a xlink:href="librsync_8h.html" target="_top" xlink:title="Public header for librsync.">
<polygon fill="white" stroke="black" points="273,-56.5 273,-75.5 337,-75.5 337,-56.5 273,-56.5"/>
<text text-anchor="middle" x="305" y="-63.5" font-family="Helvetica,sans-Serif" font-size="10.00">librsync.h</text>
</a>
</g>
</g>
<!-- Node1&#45;&gt;Node4 -->
<g id="edge3" class="edge">
<title>Node1&#45;&gt;Node4</title>
<path fill="none" stroke="midnightblue" d="M239.58,-280.12C226.66,-252.83 191.92,-168.56 225,-112 233.86,-96.85 249.91,-86.41 265.31,-79.42"/>
<polygon fill="midnightblue" stroke="midnightblue" points="266.85,-82.57 274.75,-75.51 264.17,-76.11 266.85,-82.57"/>
</g>
<!-- Node9 -->
<g id="node9" class="node">
<title>Node9</title>
<g id="a_node9"><a xlink:href="job_8h.html" target="_top" xlink:title="Generic state&#45;machine interface.">
<polygon fill="white" stroke="black" points="481.5,-168.5 481.5,-187.5 522.5,-187.5 522.5,-168.5 481.5,-168.5"/>
<text text-anchor="middle" x="502" y="-175.5" font-family="Helvetica,sans-Serif" font-size="10.00">job.h</text>
</a>
</g>
</g>
<!-- Node1&#45;&gt;Node9 -->
<g id="edge8" class="edge">
<title>Node1&#45;&gt;Node9</title>
<path fill="none" stroke="midnightblue" d="M264.24,-280.37C309.55,-261.05 419.3,-214.26 472.33,-191.65"/>
<polygon fill="midnightblue" stroke="midnightblue" points="474.02,-194.73 481.85,-187.59 471.28,-188.29 474.02,-194.73"/>
</g>
<!-- Node18 -->
<g id="node18" class="node">
<title>Node18</title>
<g id="a_node18"><a xlink:href="sumset_8h.html" target="_top" xlink:title="The rs_signature class implementation of a file signature.">
<polygon fill="white" stroke="black" points="768,-168.5 768,-187.5 830,-187.5 830,-168.5 768,-168.5"/>
<text text-anchor="middle" x="799" y="-175.5" font-family="Helvetica,sans-Serif" font-size="10.00">sumset.h</text>
</a>
</g>
</g>
<!-- Node1&#45;&gt;Node18 -->
<g id="edge28" class="edge">
<title>Node1&#45;&gt;Node18</title>
<path fill="none" stroke="midnightblue" d="M275.06,-285.2C328.88,-278.41 442.82,-263.09 538,-244 616.98,-228.16 708.03,-204.15 759.02,-190.18"/>
<polygon fill="midnightblue" stroke="midnightblue" points="759.96,-193.55 768.67,-187.52 758.1,-186.8 759.96,-193.55"/>
</g>
<!-- Node19 -->
<g id="node19" class="node">
<title>Node19</title>
<g id="a_node19"><a xlink:href="scoop_8h.html" target="_top" xlink:title="Manage librsync streams of IO.">
<polygon fill="white" stroke="black" points="475,-224.5 475,-243.5 529,-243.5 529,-224.5 475,-224.5"/>
<text text-anchor="middle" x="502" y="-231.5" font-family="Helvetica,sans-Serif" font-size="10.00">scoop.h</text>
</a>
</g>
</g>
<!-- Node1&#45;&gt;Node19 -->
<g id="edge34" class="edge">
<title>Node1&#45;&gt;Node19</title>
<path fill="none" stroke="midnightblue" d="M275.12,-282.49C322.77,-272.51 413.63,-253.5 464.72,-242.8"/>
<polygon fill="midnightblue" stroke="midnightblue" points="465.62,-246.19 474.69,-240.72 464.19,-239.34 465.62,-246.19"/>
</g>
<!-- Node20 -->
<g id="node20" class="node">
<title>Node20</title>
<g id="a_node20"><a xlink:href="netint_8h.html" target="_top" xlink:title="Network&#45;byte&#45;order output to the tube.">
<polygon fill="white" stroke="black" points="234,-112.5 234,-131.5 288,-131.5 288,-112.5 234,-112.5"/>
<text text-anchor="middle" x="261" y="-119.5" font-family="Helvetica,sans-Serif" font-size="10.00">netint.h</text>
</a>
</g>
</g>
<!-- Node1&#45;&gt;Node20 -->
<g id="edge39" class="edge">
<title>Node1&#45;&gt;Node20</title>
<path fill="none" stroke="midnightblue" d="M244.91,-280.08C247.59,-253.95 255.45,-177.21 259.1,-141.58"/>
<polygon fill="midnightblue" stroke="midnightblue" points="262.59,-141.87 260.12,-131.57 255.62,-141.16 262.59,-141.87"/>
</g>
<!-- Node21 -->
<g id="node21" class="node">
<title>Node21</title>
<g id="a_node21"><a xlink:href="trace_8h.html" target="_top" xlink:title="logging functions.">
<polygon fill="white" stroke="black" points="56,-224.5 56,-243.5 106,-243.5 106,-224.5 56,-224.5"/>
<text text-anchor="middle" x="81" y="-231.5" font-family="Helvetica,sans-Serif" font-size="10.00">trace.h</text>
</a>
</g>
</g>
<!-- Node1&#45;&gt;Node21 -->
<g id="edge41" class="edge">
<title>Node1&#45;&gt;Node21</title>
<path fill="none" stroke="midnightblue" d="M218.17,-280.44C190.59,-271.31 146.71,-256.77 116.03,-246.6"/>
<polygon fill="midnightblue" stroke="midnightblue" points="116.76,-243.16 106.17,-243.34 114.56,-249.81 116.76,-243.16"/>
</g>
<!-- Node23 -->
<g id="node23" class="node">
<title>Node23</title>
<g id="a_node23"><a xlink:href="util_8h.html" target="_top" xlink:title="Misc utility functions used by librsync.">
<polygon fill="white" stroke="black" points="344.5,-112.5 344.5,-131.5 385.5,-131.5 385.5,-112.5 344.5,-112.5"/>
<text text-anchor="middle" x="365" y="-119.5" font-family="Helvetica,sans-Serif" font-size="10.00">util.h</text>
</a>
</g>
</g>
<!-- Node1&#45;&gt;Node23 -->
<g id="edge44" class="edge">
<title>Node1&#45;&gt;Node23</title>
<path fill="none" stroke="midnightblue" d="M250.51,-280.08C269.88,-253.49 327.43,-174.54 352.78,-139.76"/>
<polygon fill="midnightblue" stroke="midnightblue" points="355.69,-141.71 358.75,-131.57 350.04,-137.59 355.69,-141.71"/>
</g>
<!-- Node5 -->
<g id="node5" class="node">
<title>Node5</title>
<g id="a_node5"><a xlink:title=" ">
<polygon fill="white" stroke="#bfbfbf" points="182,-0.5 182,-19.5 232,-19.5 232,-0.5 182,-0.5"/>
<text text-anchor="middle" x="207" y="-7.5" font-family="Helvetica,sans-Serif" font-size="10.00">stdio.h</text>
</a>
</g>
</g>
<!-- Node4&#45;&gt;Node5 -->
<g id="edge4" class="edge">
<title>Node4&#45;&gt;Node5</title>
<path fill="none" stroke="midnightblue" d="M289.25,-56.32C273.68,-47.74 249.62,-34.49 231.54,-24.52"/>
<polygon fill="midnightblue" stroke="midnightblue" points="233.15,-21.42 222.71,-19.65 229.78,-27.55 233.15,-21.42"/>
</g>
<!-- Node6 -->
<g id="node6" class="node">
<title>Node6</title>
<g id="a_node6"><a xlink:title=" ">
<polygon fill="white" stroke="#bfbfbf" points="435.5,-0.5 435.5,-19.5 488.5,-19.5 488.5,-0.5 435.5,-0.5"/>
<text text-anchor="middle" x="462" y="-7.5" font-family="Helvetica,sans-Serif" font-size="10.00">stdint.h</text>
</a>
</g>
</g>
<!-- Node4&#45;&gt;Node6 -->
<g id="edge5" class="edge">
<title>Node4&#45;&gt;Node6</title>
<path fill="none" stroke="midnightblue" d="M329.88,-56.44C356.29,-47.36 398.22,-32.94 427.74,-22.78"/>
<polygon fill="midnightblue" stroke="midnightblue" points="428.92,-26.08 437.24,-19.52 426.64,-19.46 428.92,-26.08"/>
</g>
<!-- Node7 -->
<g id="node7" class="node">
<title>Node7</title>
<g id="a_node7"><a xlink:title=" ">
<polygon fill="white" stroke="#bfbfbf" points="250,-0.5 250,-19.5 298,-19.5 298,-0.5 250,-0.5"/>
<text text-anchor="middle" x="274" y="-7.5" font-family="Helvetica,sans-Serif" font-size="10.00">time.h</text>
</a>
</g>
</g>
<!-- Node4&#45;&gt;Node7 -->
<g id="edge6" class="edge">
<title>Node4&#45;&gt;Node7</title>
<path fill="none" stroke="midnightblue" d="M299.88,-56.08C295.59,-48.61 289.34,-37.72 284.06,-28.52"/>
<polygon fill="midnightblue" stroke="midnightblue" points="287.04,-26.68 279.02,-19.75 280.97,-30.17 287.04,-26.68"/>
</g>
<!-- Node8 -->
<g id="node8" class="node">
<title>Node8</title>
<g id="a_node8"><a xlink:href="librsync__export_8h_source.html" target="_top" xlink:title=" ">
<polygon fill="white" stroke="black" points="316.5,-0.5 316.5,-19.5 417.5,-19.5 417.5,-0.5 316.5,-0.5"/>
<text text-anchor="middle" x="367" y="-7.5" font-family="Helvetica,sans-Serif" font-size="10.00">librsync_export.h</text>
</a>
</g>
</g>
<!-- Node4&#45;&gt;Node8 -->
<g id="edge7" class="edge">
<title>Node4&#45;&gt;Node8</title>
<path fill="none" stroke="midnightblue" d="M314.96,-56.32C324.13,-48.34 337.94,-36.31 349.03,-26.65"/>
<polygon fill="midnightblue" stroke="midnightblue" points="351.62,-29.04 356.86,-19.83 347.02,-23.76 351.62,-29.04"/>
</g>
<!-- Node9&#45;&gt;Node4 -->
<g id="edge27" class="edge">
<title>Node9&#45;&gt;Node4</title>
<path fill="none" stroke="midnightblue" d="M488.7,-168.43C468.67,-155.64 429.43,-131.03 395,-112 374.36,-100.59 350.46,-88.7 332.48,-80.01"/>
<polygon fill="midnightblue" stroke="midnightblue" points="333.69,-76.71 323.16,-75.54 330.65,-83.02 333.69,-76.71"/>
</g>
<!-- Node10 -->
<g id="node10" class="node">
<title>Node10</title>
<g id="a_node10"><a xlink:title=" ">
<polygon fill="white" stroke="#bfbfbf" points="816,-0.5 816,-19.5 872,-19.5 872,-0.5 816,-0.5"/>
<text text-anchor="middle" x="844" y="-7.5" font-family="Helvetica,sans-Serif" font-size="10.00">assert.h</text>
</a>
</g>
</g>
<!-- Node9&#45;&gt;Node10 -->
<g id="edge9" class="edge">
<title>Node9&#45;&gt;Node10</title>
<path fill="none" stroke="midnightblue" d="M522.73,-174.67C594.54,-166.13 830.58,-133.98 874,-76 885.33,-60.86 872.6,-40.76 860.4,-26.94"/>
<polygon fill="midnightblue" stroke="midnightblue" points="862.89,-24.47 853.47,-19.62 857.8,-29.28 862.89,-24.47"/>
</g>
<!-- Node11 -->
<g id="node11" class="node">
<title>Node11</title>
<g id="a_node11"><a xlink:title=" ">
<polygon fill="white" stroke="#bfbfbf" points="602,-0.5 602,-19.5 658,-19.5 658,-0.5 602,-0.5"/>
<text text-anchor="middle" x="630" y="-7.5" font-family="Helvetica,sans-Serif" font-size="10.00">stddef.h</text>
</a>
</g>
</g>
<!-- Node9&#45;&gt;Node11 -->
<g id="edge10" class="edge">
<title>Node9&#45;&gt;Node11</title>
<path fill="none" stroke="midnightblue" d="M510.83,-168.32C527.73,-151.45 565.35,-112.67 592,-76 603.02,-60.83 613.62,-42.26 620.81,-28.85"/>
<polygon fill="midnightblue" stroke="midnightblue" points="624.04,-30.23 625.6,-19.75 617.85,-26.97 624.04,-30.23"/>
</g>
<!-- Node12 -->
<g id="node12" class="node">
<title>Node12</title>
<g id="a_node12"><a xlink:href="mdfour_8h.html" target="_top" xlink:title="MD4 message digest algorithm.">
<polygon fill="white" stroke="black" points="442.5,-112.5 442.5,-131.5 503.5,-131.5 503.5,-112.5 442.5,-112.5"/>
<text text-anchor="middle" x="473" y="-119.5" font-family="Helvetica,sans-Serif" font-size="10.00">mdfour.h</text>
</a>
</g>
</g>
<!-- Node9&#45;&gt;Node12 -->
<g id="edge11" class="edge">
<title>Node9&#45;&gt;Node12</title>
<path fill="none" stroke="midnightblue" d="M497.21,-168.08C493.24,-160.69 487.47,-149.95 482.57,-140.81"/>
<polygon fill="midnightblue" stroke="midnightblue" points="485.51,-138.91 477.7,-131.75 479.35,-142.22 485.51,-138.91"/>
</g>
<!-- Node13 -->
<g id="node13" class="node">
<title>Node13</title>
<g id="a_node13"><a xlink:href="checksum_8h.html" target="_top" xlink:title="Abstract wrappers around different weaksum and strongsum implementations.">
<polygon fill="white" stroke="black" points="598.5,-112.5 598.5,-131.5 673.5,-131.5 673.5,-112.5 598.5,-112.5"/>
<text text-anchor="middle" x="636" y="-119.5" font-family="Helvetica,sans-Serif" font-size="10.00">checksum.h</text>
</a>
</g>
</g>
<!-- Node9&#45;&gt;Node13 -->
<g id="edge13" class="edge">
<title>Node9&#45;&gt;Node13</title>
<path fill="none" stroke="midnightblue" d="M522.64,-168.68C544.68,-159.8 579.84,-145.63 605.16,-135.43"/>
<polygon fill="midnightblue" stroke="midnightblue" points="606.7,-138.58 614.67,-131.6 604.08,-132.09 606.7,-138.58"/>
</g>
<!-- Node12&#45;&gt;Node6 -->
<g id="edge12" class="edge">
<title>Node12&#45;&gt;Node6</title>
<path fill="none" stroke="midnightblue" d="M457.27,-112.24C445.11,-104.48 429.19,-91.93 422,-76 413.94,-58.13 428.56,-39.2 442.33,-26.41"/>
<polygon fill="midnightblue" stroke="midnightblue" points="444.89,-28.83 450.17,-19.64 440.31,-23.53 444.89,-28.83"/>
</g>
<!-- Node13&#45;&gt;Node4 -->
<g id="edge16" class="edge">
<title>Node13&#45;&gt;Node4</title>
<path fill="none" stroke="midnightblue" d="M598.23,-114.41C593.44,-113.59 588.61,-112.77 584,-112 500.12,-97.98 401.93,-82.31 347.25,-73.66"/>
<polygon fill="midnightblue" stroke="midnightblue" points="347.66,-70.18 337.24,-72.08 346.57,-77.1 347.66,-70.18"/>
</g>
<!-- Node13&#45;&gt;Node10 -->
<g id="edge14" class="edge">
<title>Node13&#45;&gt;Node10</title>
<path fill="none" stroke="midnightblue" d="M652.32,-112.37C688.47,-93.25 775.49,-47.23 818.74,-24.36"/>
<polygon fill="midnightblue" stroke="midnightblue" points="820.55,-27.36 827.75,-19.59 817.28,-21.17 820.55,-27.36"/>
</g>
<!-- Node13&#45;&gt;Node11 -->
<g id="edge15" class="edge">
<title>Node13&#45;&gt;Node11</title>
<path fill="none" stroke="midnightblue" d="M635.53,-112.37C634.56,-94.62 632.33,-53.67 631.01,-29.6"/>
<polygon fill="midnightblue" stroke="midnightblue" points="634.51,-29.39 630.47,-19.59 627.52,-29.77 634.51,-29.39"/>
</g>
<!-- Node14 -->
<g id="node14" class="node">
<title>Node14</title>
<g id="a_node14"><a xlink:href="rollsum_8h.html" target="_top" xlink:title="The Rollsum class implementation of the original rsync rollsum.">
<polygon fill="white" stroke="black" points="431,-56.5 431,-75.5 493,-75.5 493,-56.5 431,-56.5"/>
<text text-anchor="middle" x="462" y="-63.5" font-family="Helvetica,sans-Serif" font-size="10.00">rollsum.h</text>
</a>
</g>
</g>
<!-- Node13&#45;&gt;Node14 -->
<g id="edge17" class="edge">
<title>Node13&#45;&gt;Node14</title>
<path fill="none" stroke="midnightblue" d="M608.43,-112.44C578.9,-103.28 531.88,-88.69 499.12,-78.52"/>
<polygon fill="midnightblue" stroke="midnightblue" points="500.03,-75.14 489.44,-75.52 497.96,-81.82 500.03,-75.14"/>
</g>
<!-- Node15 -->
<g id="node15" class="node">
<title>Node15</title>
<g id="a_node15"><a xlink:href="rabinkarp_8h.html" target="_top" xlink:title="The rabinkarp class implementation of the RabinKarp rollsum.">
<polygon fill="white" stroke="black" points="511,-56.5 511,-75.5 583,-75.5 583,-56.5 511,-56.5"/>
<text text-anchor="middle" x="547" y="-63.5" font-family="Helvetica,sans-Serif" font-size="10.00">rabinkarp.h</text>
</a>
</g>
</g>
<!-- Node13&#45;&gt;Node15 -->
<g id="edge20" class="edge">
<title>Node13&#45;&gt;Node15</title>
<path fill="none" stroke="midnightblue" d="M621.7,-112.32C607.82,-103.9 586.51,-90.97 570.2,-81.07"/>
<polygon fill="midnightblue" stroke="midnightblue" points="571.63,-77.85 561.26,-75.65 568,-83.83 571.63,-77.85"/>
</g>
<!-- Node16 -->
<g id="node16" class="node">
<title>Node16</title>
<g id="a_node16"><a xlink:href="hashtable_8h.html" target="_top" xlink:title="A generic open addressing hashtable.">
<polygon fill="white" stroke="black" points="791,-56.5 791,-75.5 865,-75.5 865,-56.5 791,-56.5"/>
<text text-anchor="middle" x="828" y="-63.5" font-family="Helvetica,sans-Serif" font-size="10.00">hashtable.h</text>
</a>
</g>
</g>
<!-- Node13&#45;&gt;Node16 -->
<g id="edge23" class="edge">
<title>Node13&#45;&gt;Node16</title>
<path fill="none" stroke="midnightblue" d="M666.42,-112.44C699.28,-103.2 751.78,-88.44 787.97,-78.26"/>
<polygon fill="midnightblue" stroke="midnightblue" points="789.04,-81.59 797.72,-75.52 787.15,-74.85 789.04,-81.59"/>
</g>
<!-- Node14&#45;&gt;Node6 -->
<g id="edge19" class="edge">
<title>Node14&#45;&gt;Node6</title>
<path fill="none" stroke="midnightblue" d="M462,-56.08C462,-49.01 462,-38.86 462,-29.99"/>
<polygon fill="midnightblue" stroke="midnightblue" points="465.5,-29.75 462,-19.75 458.5,-29.75 465.5,-29.75"/>
</g>
<!-- Node14&#45;&gt;Node11 -->
<g id="edge18" class="edge">
<title>Node14&#45;&gt;Node11</title>
<path fill="none" stroke="midnightblue" d="M488.62,-56.44C517.01,-47.32 562.14,-32.81 593.75,-22.65"/>
<polygon fill="midnightblue" stroke="midnightblue" points="595.06,-25.91 603.5,-19.52 592.91,-19.24 595.06,-25.91"/>
</g>
<!-- Node15&#45;&gt;Node6 -->
<g id="edge22" class="edge">
<title>Node15&#45;&gt;Node6</title>
<path fill="none" stroke="midnightblue" d="M533.34,-56.32C520.08,-47.9 499.73,-34.97 484.15,-25.07"/>
<polygon fill="midnightblue" stroke="midnightblue" points="485.94,-22.06 475.62,-19.65 482.19,-27.97 485.94,-22.06"/>
</g>
<!-- Node15&#45;&gt;Node11 -->
<g id="edge21" class="edge">
<title>Node15&#45;&gt;Node11</title>
<path fill="none" stroke="midnightblue" d="M560.34,-56.32C573.16,-47.98 592.78,-35.21 607.94,-25.35"/>
<polygon fill="midnightblue" stroke="midnightblue" points="610.22,-28.04 616.7,-19.65 606.41,-22.17 610.22,-28.04"/>
</g>
<!-- Node16&#45;&gt;Node10 -->
<g id="edge25" class="edge">
<title>Node16&#45;&gt;Node10</title>
<path fill="none" stroke="midnightblue" d="M830.64,-56.08C832.79,-48.85 835.88,-38.41 838.55,-29.4"/>
<polygon fill="midnightblue" stroke="midnightblue" points="841.92,-30.33 841.41,-19.75 835.21,-28.34 841.92,-30.33"/>
</g>
<!-- Node16&#45;&gt;Node11 -->
<g id="edge26" class="edge">
<title>Node16&#45;&gt;Node11</title>
<path fill="none" stroke="midnightblue" d="M796.63,-56.44C761.74,-46.93 705.39,-31.56 668.03,-21.37"/>
<polygon fill="midnightblue" stroke="midnightblue" points="668.59,-17.9 658.03,-18.64 666.75,-24.65 668.59,-17.9"/>
</g>
<!-- Node17 -->
<g id="node17" class="node">
<title>Node17</title>
<g id="a_node17"><a xlink:title=" ">
<polygon fill="white" stroke="#bfbfbf" points="922,-0.5 922,-19.5 984,-19.5 984,-0.5 922,-0.5"/>
<text text-anchor="middle" x="953" y="-7.5" font-family="Helvetica,sans-Serif" font-size="10.00">stdbool.h</text>
</a>
</g>
</g>
<!-- Node16&#45;&gt;Node17 -->
<g id="edge24" class="edge">
<title>Node16&#45;&gt;Node17</title>
<path fill="none" stroke="midnightblue" d="M847.81,-56.44C868.29,-47.6 900.48,-33.69 923.86,-23.59"/>
<polygon fill="midnightblue" stroke="midnightblue" points="925.49,-26.7 933.29,-19.52 922.72,-20.27 925.49,-26.7"/>
</g>
<!-- Node18&#45;&gt;Node4 -->
<g id="edge33" class="edge">
<title>Node18&#45;&gt;Node4</title>
<path fill="none" stroke="midnightblue" d="M767.75,-170.7C726.81,-162.35 652.84,-146.92 590,-132 555.6,-123.83 547.4,-120.18 513,-112 455.72,-98.37 389.15,-84.27 347.06,-75.57"/>
<polygon fill="midnightblue" stroke="midnightblue" points="347.66,-72.12 337.16,-73.53 346.25,-78.98 347.66,-72.12"/>
</g>
<!-- Node18&#45;&gt;Node10 -->
<g id="edge29" class="edge">
<title>Node18&#45;&gt;Node10</title>
<path fill="none" stroke="midnightblue" d="M814.55,-168.3C839.59,-153.27 887.99,-119.8 907,-76 916.32,-54.53 893.46,-36.03 872.72,-24.33"/>
<polygon fill="midnightblue" stroke="midnightblue" points="874.24,-21.17 863.76,-19.59 870.96,-27.36 874.24,-21.17"/>
</g>
<!-- Node18&#45;&gt;Node11 -->
<g id="edge30" class="edge">
<title>Node18&#45;&gt;Node11</title>
<path fill="none" stroke="midnightblue" d="M796.99,-168.41C791.48,-146.66 774.14,-88.8 739,-56 719.18,-37.5 690.71,-26.1 667.83,-19.4"/>
<polygon fill="midnightblue" stroke="midnightblue" points="668.66,-16 658.09,-16.73 666.81,-22.75 668.66,-16"/>
</g>
<!-- Node18&#45;&gt;Node13 -->
<g id="edge32" class="edge">
<title>Node18&#45;&gt;Node13</title>
<path fill="none" stroke="midnightblue" d="M773.17,-168.44C745.75,-159.36 702.22,-144.94 671.57,-134.78"/>
<polygon fill="midnightblue" stroke="midnightblue" points="672.3,-131.34 661.71,-131.52 670.1,-137.98 672.3,-131.34"/>
</g>
<!-- Node18&#45;&gt;Node16 -->
<g id="edge31" class="edge">
<title>Node18&#45;&gt;Node16</title>
<path fill="none" stroke="midnightblue" d="M801.28,-168.37C805.98,-150.54 816.85,-109.3 823.18,-85.27"/>
<polygon fill="midnightblue" stroke="midnightblue" points="826.57,-86.15 825.73,-75.59 819.8,-84.37 826.57,-86.15"/>
</g>
<!-- Node19&#45;&gt;Node4 -->
<g id="edge38" class="edge">
<title>Node19&#45;&gt;Node4</title>
<path fill="none" stroke="midnightblue" d="M479.87,-224.46C445.16,-210.09 377.61,-178.06 336,-132 323.85,-118.54 315.51,-99.47 310.57,-85.47"/>
<polygon fill="midnightblue" stroke="midnightblue" points="313.89,-84.34 307.45,-75.92 307.23,-86.51 313.89,-84.34"/>
</g>
<!-- Node19&#45;&gt;Node9 -->
<g id="edge37" class="edge">
<title>Node19&#45;&gt;Node9</title>
<path fill="none" stroke="midnightblue" d="M502,-224.08C502,-217.01 502,-206.86 502,-197.99"/>
<polygon fill="midnightblue" stroke="midnightblue" points="505.5,-197.75 502,-187.75 498.5,-197.75 505.5,-197.75"/>
</g>
<!-- Node19&#45;&gt;Node11 -->
<g id="edge36" class="edge">
<title>Node19&#45;&gt;Node11</title>
<path fill="none" stroke="midnightblue" d="M523.22,-224.39C567.05,-206.12 665.01,-162.64 683,-132 703.98,-96.26 668.94,-50.69 646.51,-26.97"/>
<polygon fill="midnightblue" stroke="midnightblue" points="648.72,-24.23 639.21,-19.55 643.72,-29.13 648.72,-24.23"/>
</g>
<!-- Node19&#45;&gt;Node17 -->
<g id="edge35" class="edge">
<title>Node19&#45;&gt;Node17</title>
<path fill="none" stroke="midnightblue" d="M529.17,-231.85C599.46,-228.5 785.51,-217.05 839,-188 902.15,-153.71 935.54,-67.7 947.63,-29.63"/>
<polygon fill="midnightblue" stroke="midnightblue" points="951.05,-30.44 950.6,-19.85 944.35,-28.41 951.05,-30.44"/>
</g>
<!-- Node20&#45;&gt;Node4 -->
<g id="edge40" class="edge">
<title>Node20&#45;&gt;Node4</title>
<path fill="none" stroke="midnightblue" d="M268.27,-112.08C274.54,-104.38 283.79,-93.03 291.43,-83.65"/>
<polygon fill="midnightblue" stroke="midnightblue" points="294.27,-85.71 297.87,-75.75 288.84,-81.29 294.27,-85.71"/>
</g>
<!-- Node21&#45;&gt;Node2 -->
<g id="edge43" class="edge">
<title>Node21&#45;&gt;Node2</title>
<path fill="none" stroke="midnightblue" d="M72.25,-224.08C64.53,-216.22 53.1,-204.57 43.78,-195.08"/>
<polygon fill="midnightblue" stroke="midnightblue" points="46.09,-192.44 36.59,-187.75 41.1,-197.34 46.09,-192.44"/>
</g>
<!-- Node22 -->
<g id="node22" class="node">
<title>Node22</title>
<g id="a_node22"><a xlink:title=" ">
<polygon fill="white" stroke="#bfbfbf" points="74.5,-168.5 74.5,-187.5 139.5,-187.5 139.5,-168.5 74.5,-168.5"/>
<text text-anchor="middle" x="107" y="-175.5" font-family="Helvetica,sans-Serif" font-size="10.00">inttypes.h</text>
</a>
</g>
</g>
<!-- Node21&#45;&gt;Node22 -->
<g id="edge42" class="edge">
<title>Node21&#45;&gt;Node22</title>
<path fill="none" stroke="midnightblue" d="M85.29,-224.08C88.85,-216.69 94.02,-205.95 98.42,-196.81"/>
<polygon fill="midnightblue" stroke="midnightblue" points="101.6,-198.28 102.79,-187.75 95.29,-195.24 101.6,-198.28"/>
</g>
<!-- Node23&#45;&gt;Node4 -->
<g id="edge46" class="edge">
<title>Node23&#45;&gt;Node4</title>
<path fill="none" stroke="midnightblue" d="M355.36,-112.32C346.49,-104.34 333.13,-92.31 322.39,-82.65"/>
<polygon fill="midnightblue" stroke="midnightblue" points="324.59,-79.92 314.82,-75.83 319.91,-85.13 324.59,-79.92"/>
</g>
<!-- Node23&#45;&gt;Node11 -->
<g id="edge45" class="edge">
<title>Node23&#45;&gt;Node11</title>
<path fill="none" stroke="midnightblue" d="M370.06,-112.25C378.75,-98.06 397.94,-70.16 422,-56 475.24,-24.66 547.67,-15.06 591.51,-12.18"/>
<polygon fill="midnightblue" stroke="midnightblue" points="591.96,-15.66 601.74,-11.59 591.56,-8.67 591.96,-15.66"/>
</g>
</g>
</svg>
