<?xml version="1.0" encoding="UTF-8" standalone="no"?>
<!DOCTYPE svg PUBLIC "-//W3C//DTD SVG 1.1//EN"
 "http://www.w3.org/Graphics/SVG/1.1/DTD/svg11.dtd">
<!-- Generated by graphviz version 2.43.0 (0)
 -->
<!-- Title: mksum.c Pages: 1 -->
<svg width="1018pt" height="308pt"
 viewBox="0.00 0.00 1017.50 308.00" xmlns="http://www.w3.org/2000/svg" xmlns:xlink="http://www.w3.org/1999/xlink">
<g id="graph0" class="graph" transform="scale(1 1) rotate(0) translate(4 304)">
<title>mksum.c</title>
<polygon fill="white" stroke="transparent" points="-4,4 -4,-304 1013.5,-304 1013.5,4 -4,4"/>
<!-- Node1 -->
<g id="node1" class="node">
<title>Node1</title>
<g id="a_node1"><a xlink:title="Generate file signatures.">
<polygon fill="#bfbfbf" stroke="black" points="232.5,-280.5 232.5,-299.5 294.5,-299.5 294.5,-280.5 232.5,-280.5"/>
<text text-anchor="middle" x="263.5" y="-287.5" font-family="Helvetica,sans-Serif" font-size="10.00">mksum.c</text>
</a>
</g>
</g>
<!-- Node2 -->
<g id="node2" class="node">
<title>Node2</title>
<g id="a_node2"><a xlink:title=" ">
<polygon fill="white" stroke="#bfbfbf" points="0,-224.5 0,-243.5 53,-243.5 53,-224.5 0,-224.5"/>
<text text-anchor="middle" x="26.5" y="-231.5" font-family="Helvetica,sans-Serif" font-size="10.00">stdlib.h</text>
</a>
</g>
</g>
<!-- Node1&#45;&gt;Node2 -->
<g id="edge1" class="edge">
<title>Node1&#45;&gt;Node2</title>
<path fill="none" stroke="midnightblue" d="M232.03,-281.83C188.36,-271.88 109.57,-253.93 63.26,-243.37"/>
<polygon fill="midnightblue" stroke="midnightblue" points="63.86,-239.92 53.33,-241.11 62.31,-246.75 63.86,-239.92"/>
</g>
<!-- Node3 -->
<g id="node3" class="node">
<title>Node3</title>
<g id="a_node3"><a xlink:href="librsync_8h.html" target="_top" xlink:title="Public header for librsync.">
<polygon fill="white" stroke="black" points="145.5,-56.5 145.5,-75.5 209.5,-75.5 209.5,-56.5 145.5,-56.5"/>
<text text-anchor="middle" x="177.5" y="-63.5" font-family="Helvetica,sans-Serif" font-size="10.00">librsync.h</text>
</a>
</g>
</g>
<!-- Node1&#45;&gt;Node3 -->
<g id="edge2" class="edge">
<title>Node1&#45;&gt;Node3</title>
<path fill="none" stroke="midnightblue" d="M248.35,-280.48C213.97,-260.14 130.72,-204.96 100.5,-132 97.1,-123.79 96.08,-119.71 100.5,-112 109.12,-96.99 124.89,-86.5 139.93,-79.46"/>
<polygon fill="midnightblue" stroke="midnightblue" points="141.32,-82.67 149.13,-75.51 138.56,-76.24 141.32,-82.67"/>
</g>
<!-- Node8 -->
<g id="node8" class="node">
<title>Node8</title>
<g id="a_node8"><a xlink:href="job_8h.html" target="_top" xlink:title="Generic state&#45;machine interface.">
<polygon fill="white" stroke="black" points="365,-168.5 365,-187.5 406,-187.5 406,-168.5 365,-168.5"/>
<text text-anchor="middle" x="385.5" y="-175.5" font-family="Helvetica,sans-Serif" font-size="10.00">job.h</text>
</a>
</g>
</g>
<!-- Node1&#45;&gt;Node8 -->
<g id="edge7" class="edge">
<title>Node1&#45;&gt;Node8</title>
<path fill="none" stroke="midnightblue" d="M273.07,-280.37C293.65,-261.81 342.34,-217.91 368.38,-194.44"/>
<polygon fill="midnightblue" stroke="midnightblue" points="370.89,-196.89 375.97,-187.59 366.2,-191.69 370.89,-196.89"/>
</g>
<!-- Node17 -->
<g id="node17" class="node">
<title>Node17</title>
<g id="a_node17"><a xlink:href="sumset_8h.html" target="_top" xlink:title="The rs_signature class implementation of a file signature.">
<polygon fill="white" stroke="black" points="643.5,-168.5 643.5,-187.5 705.5,-187.5 705.5,-168.5 643.5,-168.5"/>
<text text-anchor="middle" x="674.5" y="-175.5" font-family="Helvetica,sans-Serif" font-size="10.00">sumset.h</text>
</a>
</g>
</g>
<!-- Node1&#45;&gt;Node17 -->
<g id="edge27" class="edge">
<title>Node1&#45;&gt;Node17</title>
<path fill="none" stroke="midnightblue" d="M294.73,-280.64C368.1,-261 551.45,-211.93 633.58,-189.95"/>
<polygon fill="midnightblue" stroke="midnightblue" points="634.56,-193.31 643.32,-187.35 632.75,-186.55 634.56,-193.31"/>
</g>
<!-- Node18 -->
<g id="node18" class="node">
<title>Node18</title>
<g id="a_node18"><a xlink:href="scoop_8h.html" target="_top" xlink:title="Manage librsync streams of IO.">
<polygon fill="white" stroke="black" points="358.5,-224.5 358.5,-243.5 412.5,-243.5 412.5,-224.5 358.5,-224.5"/>
<text text-anchor="middle" x="385.5" y="-231.5" font-family="Helvetica,sans-Serif" font-size="10.00">scoop.h</text>
</a>
</g>
</g>
<!-- Node1&#45;&gt;Node18 -->
<g id="edge33" class="edge">
<title>Node1&#45;&gt;Node18</title>
<path fill="none" stroke="midnightblue" d="M282.83,-280.44C302.82,-271.6 334.24,-257.69 357.06,-247.59"/>
<polygon fill="midnightblue" stroke="midnightblue" points="358.53,-250.76 366.26,-243.52 355.7,-244.36 358.53,-250.76"/>
</g>
<!-- Node19 -->
<g id="node19" class="node">
<title>Node19</title>
<g id="a_node19"><a xlink:href="netint_8h.html" target="_top" xlink:title="Network&#45;byte&#45;order output to the tube.">
<polygon fill="white" stroke="black" points="109.5,-112.5 109.5,-131.5 163.5,-131.5 163.5,-112.5 109.5,-112.5"/>
<text text-anchor="middle" x="136.5" y="-119.5" font-family="Helvetica,sans-Serif" font-size="10.00">netint.h</text>
</a>
</g>
</g>
<!-- Node1&#45;&gt;Node19 -->
<g id="edge38" class="edge">
<title>Node1&#45;&gt;Node19</title>
<path fill="none" stroke="midnightblue" d="M256.67,-280.08C236.33,-253.49 175.93,-174.54 149.32,-139.76"/>
<polygon fill="midnightblue" stroke="midnightblue" points="151.91,-137.38 143.06,-131.57 146.35,-141.64 151.91,-137.38"/>
</g>
<!-- Node20 -->
<g id="node20" class="node">
<title>Node20</title>
<g id="a_node20"><a xlink:href="trace_8h.html" target="_top" xlink:title="logging functions.">
<polygon fill="white" stroke="black" points="877.5,-224.5 877.5,-243.5 927.5,-243.5 927.5,-224.5 877.5,-224.5"/>
<text text-anchor="middle" x="902.5" y="-231.5" font-family="Helvetica,sans-Serif" font-size="10.00">trace.h</text>
</a>
</g>
</g>
<!-- Node1&#45;&gt;Node20 -->
<g id="edge40" class="edge">
<title>Node1&#45;&gt;Node20</title>
<path fill="none" stroke="midnightblue" d="M294.75,-286.36C401.92,-277.3 754.14,-247.54 867.22,-237.98"/>
<polygon fill="midnightblue" stroke="midnightblue" points="867.73,-241.45 877.4,-237.12 867.14,-234.48 867.73,-241.45"/>
</g>
<!-- Node23 -->
<g id="node23" class="node">
<title>Node23</title>
<g id="a_node23"><a xlink:href="util_8h.html" target="_top" xlink:title="Misc utility functions used by librsync.">
<polygon fill="white" stroke="black" points="220,-112.5 220,-131.5 261,-131.5 261,-112.5 220,-112.5"/>
<text text-anchor="middle" x="240.5" y="-119.5" font-family="Helvetica,sans-Serif" font-size="10.00">util.h</text>
</a>
</g>
</g>
<!-- Node1&#45;&gt;Node23 -->
<g id="edge43" class="edge">
<title>Node1&#45;&gt;Node23</title>
<path fill="none" stroke="midnightblue" d="M262.26,-280.08C258.64,-253.95 248.01,-177.21 243.07,-141.58"/>
<polygon fill="midnightblue" stroke="midnightblue" points="246.53,-140.99 241.69,-131.57 239.59,-141.95 246.53,-140.99"/>
</g>
<!-- Node4 -->
<g id="node4" class="node">
<title>Node4</title>
<g id="a_node4"><a xlink:title=" ">
<polygon fill="white" stroke="#bfbfbf" points="54.5,-0.5 54.5,-19.5 104.5,-19.5 104.5,-0.5 54.5,-0.5"/>
<text text-anchor="middle" x="79.5" y="-7.5" font-family="Helvetica,sans-Serif" font-size="10.00">stdio.h</text>
</a>
</g>
</g>
<!-- Node3&#45;&gt;Node4 -->
<g id="edge3" class="edge">
<title>Node3&#45;&gt;Node4</title>
<path fill="none" stroke="midnightblue" d="M161.75,-56.32C146.18,-47.74 122.12,-34.49 104.04,-24.52"/>
<polygon fill="midnightblue" stroke="midnightblue" points="105.65,-21.42 95.21,-19.65 102.28,-27.55 105.65,-21.42"/>
</g>
<!-- Node5 -->
<g id="node5" class="node">
<title>Node5</title>
<g id="a_node5"><a xlink:title=" ">
<polygon fill="white" stroke="#bfbfbf" points="308,-0.5 308,-19.5 361,-19.5 361,-0.5 308,-0.5"/>
<text text-anchor="middle" x="334.5" y="-7.5" font-family="Helvetica,sans-Serif" font-size="10.00">stdint.h</text>
</a>
</g>
</g>
<!-- Node3&#45;&gt;Node5 -->
<g id="edge4" class="edge">
<title>Node3&#45;&gt;Node5</title>
<path fill="none" stroke="midnightblue" d="M202.38,-56.44C228.79,-47.36 270.72,-32.94 300.24,-22.78"/>
<polygon fill="midnightblue" stroke="midnightblue" points="301.42,-26.08 309.74,-19.52 299.14,-19.46 301.42,-26.08"/>
</g>
<!-- Node6 -->
<g id="node6" class="node">
<title>Node6</title>
<g id="a_node6"><a xlink:title=" ">
<polygon fill="white" stroke="#bfbfbf" points="122.5,-0.5 122.5,-19.5 170.5,-19.5 170.5,-0.5 122.5,-0.5"/>
<text text-anchor="middle" x="146.5" y="-7.5" font-family="Helvetica,sans-Serif" font-size="10.00">time.h</text>
</a>
</g>
</g>
<!-- Node3&#45;&gt;Node6 -->
<g id="edge5" class="edge">
<title>Node3&#45;&gt;Node6</title>
<path fill="none" stroke="midnightblue" d="M172.38,-56.08C168.09,-48.61 161.84,-37.72 156.56,-28.52"/>
<polygon fill="midnightblue" stroke="midnightblue" points="159.54,-26.68 151.52,-19.75 153.47,-30.17 159.54,-26.68"/>
</g>
<!-- Node7 -->
<g id="node7" class="node">
<title>Node7</title>
<g id="a_node7"><a xlink:href="librsync__export_8h_source.html" target="_top" xlink:title=" ">
<polygon fill="white" stroke="black" points="189,-0.5 189,-19.5 290,-19.5 290,-0.5 189,-0.5"/>
<text text-anchor="middle" x="239.5" y="-7.5" font-family="Helvetica,sans-Serif" font-size="10.00">librsync_export.h</text>
</a>
</g>
</g>
<!-- Node3&#45;&gt;Node7 -->
<g id="edge6" class="edge">
<title>Node3&#45;&gt;Node7</title>
<path fill="none" stroke="midnightblue" d="M187.46,-56.32C196.63,-48.34 210.44,-36.31 221.53,-26.65"/>
<polygon fill="midnightblue" stroke="midnightblue" points="224.12,-29.04 229.36,-19.83 219.52,-23.76 224.12,-29.04"/>
</g>
<!-- Node8&#45;&gt;Node3 -->
<g id="edge26" class="edge">
<title>Node8&#45;&gt;Node3</title>
<path fill="none" stroke="midnightblue" d="M370.63,-168.32C348.7,-155.59 306.3,-131.29 269.5,-112 248.01,-100.73 223.29,-88.69 204.88,-79.9"/>
<polygon fill="midnightblue" stroke="midnightblue" points="206.16,-76.63 195.63,-75.5 203.16,-82.96 206.16,-76.63"/>
</g>
<!-- Node9 -->
<g id="node9" class="node">
<title>Node9</title>
<g id="a_node9"><a xlink:title=" ">
<polygon fill="white" stroke="#bfbfbf" points="688.5,-0.5 688.5,-19.5 744.5,-19.5 744.5,-0.5 688.5,-0.5"/>
<text text-anchor="middle" x="716.5" y="-7.5" font-family="Helvetica,sans-Serif" font-size="10.00">assert.h</text>
</a>
</g>
</g>
<!-- Node8&#45;&gt;Node9 -->
<g id="edge8" class="edge">
<title>Node8&#45;&gt;Node9</title>
<path fill="none" stroke="midnightblue" d="M406.11,-174.5C476.36,-165.5 704.45,-132.32 746.5,-76 757.81,-60.85 745.08,-40.75 732.89,-26.93"/>
<polygon fill="midnightblue" stroke="midnightblue" points="735.38,-24.47 725.96,-19.61 730.29,-29.28 735.38,-24.47"/>
</g>
<!-- Node10 -->
<g id="node10" class="node">
<title>Node10</title>
<g id="a_node10"><a xlink:title=" ">
<polygon fill="white" stroke="#bfbfbf" points="474.5,-0.5 474.5,-19.5 530.5,-19.5 530.5,-0.5 474.5,-0.5"/>
<text text-anchor="middle" x="502.5" y="-7.5" font-family="Helvetica,sans-Serif" font-size="10.00">stddef.h</text>
</a>
</g>
</g>
<!-- Node8&#45;&gt;Node10 -->
<g id="edge9" class="edge">
<title>Node8&#45;&gt;Node10</title>
<path fill="none" stroke="midnightblue" d="M392.89,-168.38C407.38,-151.31 440.24,-111.73 464.5,-76 475.03,-60.49 485.69,-41.95 493.03,-28.65"/>
<polygon fill="midnightblue" stroke="midnightblue" points="496.23,-30.09 497.94,-19.64 490.08,-26.75 496.23,-30.09"/>
</g>
<!-- Node11 -->
<g id="node11" class="node">
<title>Node11</title>
<g id="a_node11"><a xlink:href="mdfour_8h.html" target="_top" xlink:title="MD4 message digest algorithm.">
<polygon fill="white" stroke="black" points="318,-112.5 318,-131.5 379,-131.5 379,-112.5 318,-112.5"/>
<text text-anchor="middle" x="348.5" y="-119.5" font-family="Helvetica,sans-Serif" font-size="10.00">mdfour.h</text>
</a>
</g>
</g>
<!-- Node8&#45;&gt;Node11 -->
<g id="edge10" class="edge">
<title>Node8&#45;&gt;Node11</title>
<path fill="none" stroke="midnightblue" d="M379.39,-168.08C374.22,-160.53 366.65,-149.49 360.31,-140.23"/>
<polygon fill="midnightblue" stroke="midnightblue" points="363.04,-138.02 354.5,-131.75 357.26,-141.98 363.04,-138.02"/>
</g>
<!-- Node12 -->
<g id="node12" class="node">
<title>Node12</title>
<g id="a_node12"><a xlink:href="checksum_8h.html" target="_top" xlink:title="Abstract wrappers around different weaksum and strongsum implementations.">
<polygon fill="white" stroke="black" points="474,-112.5 474,-131.5 549,-131.5 549,-112.5 474,-112.5"/>
<text text-anchor="middle" x="511.5" y="-119.5" font-family="Helvetica,sans-Serif" font-size="10.00">checksum.h</text>
</a>
</g>
</g>
<!-- Node8&#45;&gt;Node12 -->
<g id="edge12" class="edge">
<title>Node8&#45;&gt;Node12</title>
<path fill="none" stroke="midnightblue" d="M405.47,-168.44C426.11,-159.6 458.56,-145.69 482.13,-135.59"/>
<polygon fill="midnightblue" stroke="midnightblue" points="483.82,-138.67 491.63,-131.52 481.06,-132.24 483.82,-138.67"/>
</g>
<!-- Node11&#45;&gt;Node5 -->
<g id="edge11" class="edge">
<title>Node11&#45;&gt;Node5</title>
<path fill="none" stroke="midnightblue" d="M331.87,-112.46C319.01,-104.84 302.16,-92.36 294.5,-76 286.18,-58.25 300.84,-39.3 314.7,-26.47"/>
<polygon fill="midnightblue" stroke="midnightblue" points="317.29,-28.86 322.58,-19.68 312.72,-23.56 317.29,-28.86"/>
</g>
<!-- Node12&#45;&gt;Node3 -->
<g id="edge15" class="edge">
<title>Node12&#45;&gt;Node3</title>
<path fill="none" stroke="midnightblue" d="M473.74,-114.4C468.95,-113.58 464.11,-112.77 459.5,-112 374.5,-97.86 274.94,-82.18 219.76,-73.57"/>
<polygon fill="midnightblue" stroke="midnightblue" points="220.08,-70.07 209.66,-71.99 219.01,-76.99 220.08,-70.07"/>
</g>
<!-- Node12&#45;&gt;Node9 -->
<g id="edge13" class="edge">
<title>Node12&#45;&gt;Node9</title>
<path fill="none" stroke="midnightblue" d="M527.59,-112.37C563.21,-93.25 648.98,-47.23 691.6,-24.36"/>
<polygon fill="midnightblue" stroke="midnightblue" points="693.33,-27.4 700.49,-19.59 690.02,-21.24 693.33,-27.4"/>
</g>
<!-- Node12&#45;&gt;Node10 -->
<g id="edge14" class="edge">
<title>Node12&#45;&gt;Node10</title>
<path fill="none" stroke="midnightblue" d="M510.79,-112.37C509.34,-94.62 505.99,-53.67 504.02,-29.6"/>
<polygon fill="midnightblue" stroke="midnightblue" points="507.51,-29.27 503.2,-19.59 500.53,-29.84 507.51,-29.27"/>
</g>
<!-- Node13 -->
<g id="node13" class="node">
<title>Node13</title>
<g id="a_node13"><a xlink:href="rollsum_8h.html" target="_top" xlink:title="The Rollsum class implementation of the original rsync rollsum.">
<polygon fill="white" stroke="black" points="303.5,-56.5 303.5,-75.5 365.5,-75.5 365.5,-56.5 303.5,-56.5"/>
<text text-anchor="middle" x="334.5" y="-63.5" font-family="Helvetica,sans-Serif" font-size="10.00">rollsum.h</text>
</a>
</g>
</g>
<!-- Node12&#45;&gt;Node13 -->
<g id="edge16" class="edge">
<title>Node12&#45;&gt;Node13</title>
<path fill="none" stroke="midnightblue" d="M483.45,-112.44C453.42,-103.28 405.59,-88.69 372.26,-78.52"/>
<polygon fill="midnightblue" stroke="midnightblue" points="373,-75.09 362.41,-75.52 370.96,-81.78 373,-75.09"/>
</g>
<!-- Node14 -->
<g id="node14" class="node">
<title>Node14</title>
<g id="a_node14"><a xlink:href="rabinkarp_8h.html" target="_top" xlink:title="The rabinkarp class implementation of the RabinKarp rollsum.">
<polygon fill="white" stroke="black" points="383.5,-56.5 383.5,-75.5 455.5,-75.5 455.5,-56.5 383.5,-56.5"/>
<text text-anchor="middle" x="419.5" y="-63.5" font-family="Helvetica,sans-Serif" font-size="10.00">rabinkarp.h</text>
</a>
</g>
</g>
<!-- Node12&#45;&gt;Node14 -->
<g id="edge19" class="edge">
<title>Node12&#45;&gt;Node14</title>
<path fill="none" stroke="midnightblue" d="M496.72,-112.32C482.23,-103.82 459.93,-90.73 443.01,-80.8"/>
<polygon fill="midnightblue" stroke="midnightblue" points="444.64,-77.7 434.24,-75.65 441.1,-83.74 444.64,-77.7"/>
</g>
<!-- Node15 -->
<g id="node15" class="node">
<title>Node15</title>
<g id="a_node15"><a xlink:href="hashtable_8h.html" target="_top" xlink:title="A generic open addressing hashtable.">
<polygon fill="white" stroke="black" points="663.5,-56.5 663.5,-75.5 737.5,-75.5 737.5,-56.5 663.5,-56.5"/>
<text text-anchor="middle" x="700.5" y="-63.5" font-family="Helvetica,sans-Serif" font-size="10.00">hashtable.h</text>
</a>
</g>
</g>
<!-- Node12&#45;&gt;Node15 -->
<g id="edge22" class="edge">
<title>Node12&#45;&gt;Node15</title>
<path fill="none" stroke="midnightblue" d="M541.45,-112.44C573.66,-103.24 625.03,-88.56 660.64,-78.39"/>
<polygon fill="midnightblue" stroke="midnightblue" points="662.04,-81.63 670.69,-75.52 660.12,-74.9 662.04,-81.63"/>
</g>
<!-- Node13&#45;&gt;Node5 -->
<g id="edge18" class="edge">
<title>Node13&#45;&gt;Node5</title>
<path fill="none" stroke="midnightblue" d="M334.5,-56.08C334.5,-49.01 334.5,-38.86 334.5,-29.99"/>
<polygon fill="midnightblue" stroke="midnightblue" points="338,-29.75 334.5,-19.75 331,-29.75 338,-29.75"/>
</g>
<!-- Node13&#45;&gt;Node10 -->
<g id="edge17" class="edge">
<title>Node13&#45;&gt;Node10</title>
<path fill="none" stroke="midnightblue" d="M361.12,-56.44C389.51,-47.32 434.64,-32.81 466.25,-22.65"/>
<polygon fill="midnightblue" stroke="midnightblue" points="467.56,-25.91 476,-19.52 465.41,-19.24 467.56,-25.91"/>
</g>
<!-- Node14&#45;&gt;Node5 -->
<g id="edge21" class="edge">
<title>Node14&#45;&gt;Node5</title>
<path fill="none" stroke="midnightblue" d="M405.84,-56.32C392.58,-47.9 372.23,-34.97 356.65,-25.07"/>
<polygon fill="midnightblue" stroke="midnightblue" points="358.44,-22.06 348.12,-19.65 354.69,-27.97 358.44,-22.06"/>
</g>
<!-- Node14&#45;&gt;Node10 -->
<g id="edge20" class="edge">
<title>Node14&#45;&gt;Node10</title>
<path fill="none" stroke="midnightblue" d="M432.84,-56.32C445.66,-47.98 465.28,-35.21 480.44,-25.35"/>
<polygon fill="midnightblue" stroke="midnightblue" points="482.72,-28.04 489.2,-19.65 478.91,-22.17 482.72,-28.04"/>
</g>
<!-- Node15&#45;&gt;Node9 -->
<g id="edge24" class="edge">
<title>Node15&#45;&gt;Node9</title>
<path fill="none" stroke="midnightblue" d="M703.14,-56.08C705.29,-48.85 708.38,-38.41 711.05,-29.4"/>
<polygon fill="midnightblue" stroke="midnightblue" points="714.42,-30.33 713.91,-19.75 707.71,-28.34 714.42,-30.33"/>
</g>
<!-- Node15&#45;&gt;Node10 -->
<g id="edge25" class="edge">
<title>Node15&#45;&gt;Node10</title>
<path fill="none" stroke="midnightblue" d="M669.13,-56.44C634.24,-46.93 577.89,-31.56 540.53,-21.37"/>
<polygon fill="midnightblue" stroke="midnightblue" points="541.09,-17.9 530.53,-18.64 539.25,-24.65 541.09,-17.9"/>
</g>
<!-- Node16 -->
<g id="node16" class="node">
<title>Node16</title>
<g id="a_node16"><a xlink:title=" ">
<polygon fill="white" stroke="#bfbfbf" points="794.5,-0.5 794.5,-19.5 856.5,-19.5 856.5,-0.5 794.5,-0.5"/>
<text text-anchor="middle" x="825.5" y="-7.5" font-family="Helvetica,sans-Serif" font-size="10.00">stdbool.h</text>
</a>
</g>
</g>
<!-- Node15&#45;&gt;Node16 -->
<g id="edge23" class="edge">
<title>Node15&#45;&gt;Node16</title>
<path fill="none" stroke="midnightblue" d="M720.31,-56.44C740.79,-47.6 772.98,-33.69 796.36,-23.59"/>
<polygon fill="midnightblue" stroke="midnightblue" points="797.99,-26.7 805.79,-19.52 795.22,-20.27 797.99,-26.7"/>
</g>
<!-- Node17&#45;&gt;Node3 -->
<g id="edge32" class="edge">
<title>Node17&#45;&gt;Node3</title>
<path fill="none" stroke="midnightblue" d="M643.45,-170.78C602.38,-162.46 527.81,-147 464.5,-132 430.09,-123.85 421.91,-120.15 387.5,-112 329.51,-98.26 262.08,-84.14 219.6,-75.47"/>
<polygon fill="midnightblue" stroke="midnightblue" points="220.11,-72 209.62,-73.43 218.72,-78.86 220.11,-72"/>
</g>
<!-- Node17&#45;&gt;Node9 -->
<g id="edge28" class="edge">
<title>Node17&#45;&gt;Node9</title>
<path fill="none" stroke="midnightblue" d="M689.23,-168.43C713.49,-153.35 760.98,-119.52 779.5,-76 782.98,-67.82 783.57,-63.9 779.5,-56 772.42,-42.25 758.98,-31.77 746.32,-24.39"/>
<polygon fill="midnightblue" stroke="midnightblue" points="747.81,-21.22 737.35,-19.57 744.5,-27.39 747.81,-21.22"/>
</g>
<!-- Node17&#45;&gt;Node10 -->
<g id="edge29" class="edge">
<title>Node17&#45;&gt;Node10</title>
<path fill="none" stroke="midnightblue" d="M672.26,-168.41C666.17,-146.65 647.32,-88.78 611.5,-56 591.63,-37.82 563.41,-26.44 540.66,-19.68"/>
<polygon fill="midnightblue" stroke="midnightblue" points="541.53,-16.29 530.96,-16.97 539.65,-23.03 541.53,-16.29"/>
</g>
<!-- Node17&#45;&gt;Node12 -->
<g id="edge31" class="edge">
<title>Node17&#45;&gt;Node12</title>
<path fill="none" stroke="midnightblue" d="M648.67,-168.44C621.25,-159.36 577.72,-144.94 547.07,-134.78"/>
<polygon fill="midnightblue" stroke="midnightblue" points="547.8,-131.34 537.21,-131.52 545.6,-137.98 547.8,-131.34"/>
</g>
<!-- Node17&#45;&gt;Node15 -->
<g id="edge30" class="edge">
<title>Node17&#45;&gt;Node15</title>
<path fill="none" stroke="midnightblue" d="M676.54,-168.37C680.74,-150.62 690.42,-109.67 696.1,-85.6"/>
<polygon fill="midnightblue" stroke="midnightblue" points="699.58,-86.13 698.47,-75.59 692.76,-84.52 699.58,-86.13"/>
</g>
<!-- Node18&#45;&gt;Node3 -->
<g id="edge37" class="edge">
<title>Node18&#45;&gt;Node3</title>
<path fill="none" stroke="midnightblue" d="M361.7,-224.41C325.11,-210.18 254.66,-178.59 210.5,-132 197.74,-118.53 188.77,-99.17 183.43,-85.08"/>
<polygon fill="midnightblue" stroke="midnightblue" points="186.69,-83.79 180.06,-75.52 180.09,-86.12 186.69,-83.79"/>
</g>
<!-- Node18&#45;&gt;Node8 -->
<g id="edge36" class="edge">
<title>Node18&#45;&gt;Node8</title>
<path fill="none" stroke="midnightblue" d="M385.5,-224.08C385.5,-217.01 385.5,-206.86 385.5,-197.99"/>
<polygon fill="midnightblue" stroke="midnightblue" points="389,-197.75 385.5,-187.75 382,-197.75 389,-197.75"/>
</g>
<!-- Node18&#45;&gt;Node10 -->
<g id="edge35" class="edge">
<title>Node18&#45;&gt;Node10</title>
<path fill="none" stroke="midnightblue" d="M412.79,-226.18C452.87,-214.52 526.27,-186.55 557.5,-132 578.2,-95.84 542.33,-50.48 519.4,-26.9"/>
<polygon fill="midnightblue" stroke="midnightblue" points="521.78,-24.34 512.22,-19.78 516.85,-29.31 521.78,-24.34"/>
</g>
<!-- Node18&#45;&gt;Node16 -->
<g id="edge34" class="edge">
<title>Node18&#45;&gt;Node16</title>
<path fill="none" stroke="midnightblue" d="M412.57,-231.82C481.66,-228.42 662.73,-216.93 714.5,-188 776.75,-153.22 808.85,-67.47 820.4,-29.55"/>
<polygon fill="midnightblue" stroke="midnightblue" points="823.8,-30.39 823.23,-19.81 817.08,-28.44 823.8,-30.39"/>
</g>
<!-- Node19&#45;&gt;Node3 -->
<g id="edge39" class="edge">
<title>Node19&#45;&gt;Node3</title>
<path fill="none" stroke="midnightblue" d="M143.27,-112.08C149.06,-104.46 157.56,-93.26 164.64,-83.94"/>
<polygon fill="midnightblue" stroke="midnightblue" points="167.6,-85.83 170.86,-75.75 162.02,-81.6 167.6,-85.83"/>
</g>
<!-- Node21 -->
<g id="node21" class="node">
<title>Node21</title>
<g id="a_node21"><a xlink:title=" ">
<polygon fill="white" stroke="#bfbfbf" points="870,-168.5 870,-187.5 935,-187.5 935,-168.5 870,-168.5"/>
<text text-anchor="middle" x="902.5" y="-175.5" font-family="Helvetica,sans-Serif" font-size="10.00">inttypes.h</text>
</a>
</g>
</g>
<!-- Node20&#45;&gt;Node21 -->
<g id="edge41" class="edge">
<title>Node20&#45;&gt;Node21</title>
<path fill="none" stroke="midnightblue" d="M902.5,-224.08C902.5,-217.01 902.5,-206.86 902.5,-197.99"/>
<polygon fill="midnightblue" stroke="midnightblue" points="906,-197.75 902.5,-187.75 899,-197.75 906,-197.75"/>
</g>
<!-- Node22 -->
<g id="node22" class="node">
<title>Node22</title>
<g id="a_node22"><a xlink:href="config_8h_source.html" target="_top" xlink:title=" ">
<polygon fill="white" stroke="black" points="953.5,-168.5 953.5,-187.5 1009.5,-187.5 1009.5,-168.5 953.5,-168.5"/>
<text text-anchor="middle" x="981.5" y="-175.5" font-family="Helvetica,sans-Serif" font-size="10.00">config.h</text>
</a>
</g>
</g>
<!-- Node20&#45;&gt;Node22 -->
<g id="edge42" class="edge">
<title>Node20&#45;&gt;Node22</title>
<path fill="none" stroke="midnightblue" d="M915.19,-224.32C927.4,-215.98 946.08,-203.21 960.5,-193.35"/>
<polygon fill="midnightblue" stroke="midnightblue" points="962.56,-196.19 968.84,-187.65 958.61,-190.41 962.56,-196.19"/>
</g>
<!-- Node23&#45;&gt;Node3 -->
<g id="edge45" class="edge">
<title>Node23&#45;&gt;Node3</title>
<path fill="none" stroke="midnightblue" d="M230.38,-112.32C220.97,-104.26 206.76,-92.08 195.43,-82.37"/>
<polygon fill="midnightblue" stroke="midnightblue" points="197.68,-79.68 187.81,-75.83 193.12,-85 197.68,-79.68"/>
</g>
<!-- Node23&#45;&gt;Node10 -->
<g id="edge44" class="edge">
<title>Node23&#45;&gt;Node10</title>
<path fill="none" stroke="midnightblue" d="M245.17,-112.25C253.24,-98.05 271.17,-70.15 294.5,-56 347.46,-23.87 420.28,-14.52 464.22,-11.9"/>
<polygon fill="midnightblue" stroke="midnightblue" points="464.66,-15.38 474.47,-11.38 464.31,-8.39 464.66,-15.38"/>
</g>
</g>
</svg>
