<?xml version="1.0" encoding="UTF-8" standalone="no"?>
<!DOCTYPE svg PUBLIC "-//W3C//DTD SVG 1.1//EN"
 "http://www.w3.org/Graphics/SVG/1.1/DTD/svg11.dtd">
<!-- Generated by graphviz version 2.43.0 (0)
 -->
<!-- Title: netint.h Pages: 1 -->
<svg width="369pt" height="84pt"
 viewBox="0.00 0.00 369.00 84.00" xmlns="http://www.w3.org/2000/svg" xmlns:xlink="http://www.w3.org/1999/xlink">
<g id="graph0" class="graph" transform="scale(1 1) rotate(0) translate(4 80)">
<title>netint.h</title>
<polygon fill="white" stroke="transparent" points="-4,4 -4,-80 365,-80 365,4 -4,4"/>
<!-- Node1 -->
<g id="node1" class="node">
<title>Node1</title>
<g id="a_node1"><a xlink:title="Network&#45;byte&#45;order output to the tube.">
<polygon fill="#bfbfbf" stroke="black" points="145.5,-56.5 145.5,-75.5 199.5,-75.5 199.5,-56.5 145.5,-56.5"/>
<text text-anchor="middle" x="172.5" y="-63.5" font-family="Helvetica,sans-Serif" font-size="10.00">netint.h</text>
</a>
</g>
</g>
<!-- Node2 -->
<g id="node2" class="node">
<title>Node2</title>
<g id="a_node2"><a xlink:href="emit_8c_source.html" target="_top" xlink:title=" ">
<polygon fill="white" stroke="black" points="0,-0.5 0,-19.5 47,-19.5 47,-0.5 0,-0.5"/>
<text text-anchor="middle" x="23.5" y="-7.5" font-family="Helvetica,sans-Serif" font-size="10.00">emit.c</text>
</a>
</g>
</g>
<!-- Node1&#45;&gt;Node2 -->
<g id="edge1" class="edge">
<title>Node1&#45;&gt;Node2</title>
<path fill="none" stroke="midnightblue" d="M139.13,-52.91C111.12,-42.75 71.8,-28.51 47,-19.52"/>
<polygon fill="midnightblue" stroke="midnightblue" points="138.3,-56.33 148.89,-56.44 140.68,-49.75 138.3,-56.33"/>
</g>
<!-- Node3 -->
<g id="node3" class="node">
<title>Node3</title>
<g id="a_node3"><a xlink:href="mksum_8c.html" target="_top" xlink:title="Generate file signatures.">
<polygon fill="white" stroke="black" points="65.5,-0.5 65.5,-19.5 127.5,-19.5 127.5,-0.5 65.5,-0.5"/>
<text text-anchor="middle" x="96.5" y="-7.5" font-family="Helvetica,sans-Serif" font-size="10.00">mksum.c</text>
</a>
</g>
</g>
<!-- Node1&#45;&gt;Node3 -->
<g id="edge2" class="edge">
<title>Node1&#45;&gt;Node3</title>
<path fill="none" stroke="midnightblue" d="M151.92,-50.38C138.19,-40.62 120.57,-28.11 108.93,-19.83"/>
<polygon fill="midnightblue" stroke="midnightblue" points="150.11,-53.38 160.29,-56.32 154.16,-47.68 150.11,-53.38"/>
</g>
<!-- Node4 -->
<g id="node4" class="node">
<title>Node4</title>
<g id="a_node4"><a xlink:href="netint_8c_source.html" target="_top" xlink:title=" ">
<polygon fill="white" stroke="black" points="146,-0.5 146,-19.5 199,-19.5 199,-0.5 146,-0.5"/>
<text text-anchor="middle" x="172.5" y="-7.5" font-family="Helvetica,sans-Serif" font-size="10.00">netint.c</text>
</a>
</g>
</g>
<!-- Node1&#45;&gt;Node4 -->
<g id="edge3" class="edge">
<title>Node1&#45;&gt;Node4</title>
<path fill="none" stroke="midnightblue" d="M172.5,-45.8C172.5,-36.91 172.5,-26.78 172.5,-19.75"/>
<polygon fill="midnightblue" stroke="midnightblue" points="169,-46.08 172.5,-56.08 176,-46.08 169,-46.08"/>
</g>
<!-- Node5 -->
<g id="node5" class="node">
<title>Node5</title>
<g id="a_node5"><a xlink:href="patch_8c.html" target="_top" xlink:title="Apply a delta to an old file to generate a new file.">
<polygon fill="white" stroke="black" points="217.5,-0.5 217.5,-19.5 269.5,-19.5 269.5,-0.5 217.5,-0.5"/>
<text text-anchor="middle" x="243.5" y="-7.5" font-family="Helvetica,sans-Serif" font-size="10.00">patch.c</text>
</a>
</g>
</g>
<!-- Node1&#45;&gt;Node5 -->
<g id="edge4" class="edge">
<title>Node1&#45;&gt;Node5</title>
<path fill="none" stroke="midnightblue" d="M192.09,-50.1C204.87,-40.38 221.11,-28.03 231.89,-19.83"/>
<polygon fill="midnightblue" stroke="midnightblue" points="189.75,-47.48 183.91,-56.32 193.99,-53.06 189.75,-47.48"/>
</g>
<!-- Node6 -->
<g id="node6" class="node">
<title>Node6</title>
<g id="a_node6"><a xlink:href="readsums_8c.html" target="_top" xlink:title="Load signatures from a file.">
<polygon fill="white" stroke="black" points="288,-0.5 288,-19.5 361,-19.5 361,-0.5 288,-0.5"/>
<text text-anchor="middle" x="324.5" y="-7.5" font-family="Helvetica,sans-Serif" font-size="10.00">readsums.c</text>
</a>
</g>
</g>
<!-- Node1&#45;&gt;Node6 -->
<g id="edge5" class="edge">
<title>Node1&#45;&gt;Node6</title>
<path fill="none" stroke="midnightblue" d="M206.17,-53.04C234.77,-42.88 275.11,-28.55 300.53,-19.52"/>
<polygon fill="midnightblue" stroke="midnightblue" points="204.84,-49.8 196.58,-56.44 207.18,-56.39 204.84,-49.8"/>
</g>
</g>
</svg>
