<?xml version="1.0" encoding="UTF-8" standalone="no"?>
<!DOCTYPE svg PUBLIC "-//W3C//DTD SVG 1.1//EN"
 "http://www.w3.org/Graphics/SVG/1.1/DTD/svg11.dtd">
<!-- Generated by graphviz version 2.43.0 (0)
 -->
<!-- Title: patch.c Pages: 1 -->
<svg width="999pt" height="308pt"
 viewBox="0.00 0.00 998.50 308.00" xmlns="http://www.w3.org/2000/svg" xmlns:xlink="http://www.w3.org/1999/xlink">
<g id="graph0" class="graph" transform="scale(1 1) rotate(0) translate(4 304)">
<title>patch.c</title>
<polygon fill="white" stroke="transparent" points="-4,4 -4,-304 994.5,-304 994.5,4 -4,4"/>
<!-- Node1 -->
<g id="node1" class="node">
<title>Node1</title>
<g id="a_node1"><a xlink:title="Apply a delta to an old file to generate a new file.">
<polygon fill="#bfbfbf" stroke="black" points="605,-280.5 605,-299.5 657,-299.5 657,-280.5 605,-280.5"/>
<text text-anchor="middle" x="631" y="-287.5" font-family="Helvetica,sans-Serif" font-size="10.00">patch.c</text>
</a>
</g>
</g>
<!-- Node2 -->
<g id="node2" class="node">
<title>Node2</title>
<g id="a_node2"><a xlink:href="config_8h_source.html" target="_top" xlink:title=" ">
<polygon fill="white" stroke="black" points="651,-168.5 651,-187.5 707,-187.5 707,-168.5 651,-168.5"/>
<text text-anchor="middle" x="679" y="-175.5" font-family="Helvetica,sans-Serif" font-size="10.00">config.h</text>
</a>
</g>
</g>
<!-- Node1&#45;&gt;Node2 -->
<g id="edge1" class="edge">
<title>Node1&#45;&gt;Node2</title>
<path fill="none" stroke="midnightblue" d="M634.77,-280.37C642.58,-262.46 660.71,-220.92 671.17,-196.95"/>
<polygon fill="midnightblue" stroke="midnightblue" points="674.46,-198.16 675.25,-187.59 668.04,-195.36 674.46,-198.16"/>
</g>
<!-- Node3 -->
<g id="node3" class="node">
<title>Node3</title>
<g id="a_node3"><a xlink:title=" ">
<polygon fill="white" stroke="#bfbfbf" points="63,-0.5 63,-19.5 119,-19.5 119,-0.5 63,-0.5"/>
<text text-anchor="middle" x="91" y="-7.5" font-family="Helvetica,sans-Serif" font-size="10.00">assert.h</text>
</a>
</g>
</g>
<!-- Node1&#45;&gt;Node3 -->
<g id="edge2" class="edge">
<title>Node1&#45;&gt;Node3</title>
<path fill="none" stroke="midnightblue" d="M604.99,-288.26C513.18,-285.42 204.69,-273.81 111,-244 56.52,-226.67 0,-236.17 0,-179 0,-179 0,-179 0,-121 0,-78.47 40.89,-43.53 67.85,-25.12"/>
<polygon fill="midnightblue" stroke="midnightblue" points="69.94,-27.93 76.38,-19.52 66.1,-22.08 69.94,-27.93"/>
</g>
<!-- Node4 -->
<g id="node4" class="node">
<title>Node4</title>
<g id="a_node4"><a xlink:title=" ">
<polygon fill="white" stroke="#bfbfbf" points="396.5,-224.5 396.5,-243.5 449.5,-243.5 449.5,-224.5 396.5,-224.5"/>
<text text-anchor="middle" x="423" y="-231.5" font-family="Helvetica,sans-Serif" font-size="10.00">stdlib.h</text>
</a>
</g>
</g>
<!-- Node1&#45;&gt;Node4 -->
<g id="edge3" class="edge">
<title>Node1&#45;&gt;Node4</title>
<path fill="none" stroke="midnightblue" d="M604.66,-282.16C567.9,-272.62 501.06,-255.27 459.52,-244.48"/>
<polygon fill="midnightblue" stroke="midnightblue" points="460.35,-241.08 449.79,-241.95 458.59,-247.85 460.35,-241.08"/>
</g>
<!-- Node5 -->
<g id="node5" class="node">
<title>Node5</title>
<g id="a_node5"><a xlink:title=" ">
<polygon fill="white" stroke="#bfbfbf" points="467.5,-224.5 467.5,-243.5 520.5,-243.5 520.5,-224.5 467.5,-224.5"/>
<text text-anchor="middle" x="494" y="-231.5" font-family="Helvetica,sans-Serif" font-size="10.00">string.h</text>
</a>
</g>
</g>
<!-- Node1&#45;&gt;Node5 -->
<g id="edge4" class="edge">
<title>Node1&#45;&gt;Node5</title>
<path fill="none" stroke="midnightblue" d="M609.29,-280.44C586.65,-271.52 550.93,-257.44 525.25,-247.32"/>
<polygon fill="midnightblue" stroke="midnightblue" points="526.19,-243.93 515.61,-243.52 523.63,-250.44 526.19,-243.93"/>
</g>
<!-- Node6 -->
<g id="node6" class="node">
<title>Node6</title>
<g id="a_node6"><a xlink:title=" ">
<polygon fill="white" stroke="#bfbfbf" points="189.5,-0.5 189.5,-19.5 242.5,-19.5 242.5,-0.5 189.5,-0.5"/>
<text text-anchor="middle" x="216" y="-7.5" font-family="Helvetica,sans-Serif" font-size="10.00">stdint.h</text>
</a>
</g>
</g>
<!-- Node1&#45;&gt;Node6 -->
<g id="edge5" class="edge">
<title>Node1&#45;&gt;Node6</title>
<path fill="none" stroke="midnightblue" d="M604.98,-289.46C495.25,-290.7 76,-288.28 76,-179 76,-179 76,-179 76,-121 76,-68.2 138.32,-36.89 179.81,-21.9"/>
<polygon fill="midnightblue" stroke="midnightblue" points="181.03,-25.18 189.34,-18.6 178.74,-18.56 181.03,-25.18"/>
</g>
<!-- Node7 -->
<g id="node7" class="node">
<title>Node7</title>
<g id="a_node7"><a xlink:href="librsync_8h.html" target="_top" xlink:title="Public header for librsync.">
<polygon fill="white" stroke="black" points="613,-56.5 613,-75.5 677,-75.5 677,-56.5 613,-56.5"/>
<text text-anchor="middle" x="645" y="-63.5" font-family="Helvetica,sans-Serif" font-size="10.00">librsync.h</text>
</a>
</g>
</g>
<!-- Node1&#45;&gt;Node7 -->
<g id="edge6" class="edge">
<title>Node1&#45;&gt;Node7</title>
<path fill="none" stroke="midnightblue" d="M657.22,-283.5C698.35,-273.19 775.71,-246.49 799,-188 821.22,-132.21 739.48,-95.81 686.65,-78.59"/>
<polygon fill="midnightblue" stroke="midnightblue" points="687.42,-75.17 676.83,-75.51 685.32,-81.85 687.42,-75.17"/>
</g>
<!-- Node11 -->
<g id="node11" class="node">
<title>Node11</title>
<g id="a_node11"><a xlink:href="job_8h.html" target="_top" xlink:title="Generic state&#45;machine interface.">
<polygon fill="white" stroke="black" points="439.5,-168.5 439.5,-187.5 480.5,-187.5 480.5,-168.5 439.5,-168.5"/>
<text text-anchor="middle" x="460" y="-175.5" font-family="Helvetica,sans-Serif" font-size="10.00">job.h</text>
</a>
</g>
</g>
<!-- Node1&#45;&gt;Node11 -->
<g id="edge11" class="edge">
<title>Node1&#45;&gt;Node11</title>
<path fill="none" stroke="midnightblue" d="M617.58,-280.37C588.24,-261.49 518.12,-216.38 482.13,-193.24"/>
<polygon fill="midnightblue" stroke="midnightblue" points="483.66,-190.06 473.36,-187.59 479.87,-195.95 483.66,-190.06"/>
</g>
<!-- Node19 -->
<g id="node19" class="node">
<title>Node19</title>
<g id="a_node19"><a xlink:href="netint_8h.html" target="_top" xlink:title="Network&#45;byte&#45;order output to the tube.">
<polygon fill="white" stroke="black" points="847,-112.5 847,-131.5 901,-131.5 901,-112.5 847,-112.5"/>
<text text-anchor="middle" x="874" y="-119.5" font-family="Helvetica,sans-Serif" font-size="10.00">netint.h</text>
</a>
</g>
</g>
<!-- Node1&#45;&gt;Node19 -->
<g id="edge31" class="edge">
<title>Node1&#45;&gt;Node19</title>
<path fill="none" stroke="midnightblue" d="M657.37,-286.33C706.02,-280.91 807.27,-267.1 833,-244 862.62,-217.41 870.86,-168.64 873.14,-141.86"/>
<polygon fill="midnightblue" stroke="midnightblue" points="876.65,-141.76 873.81,-131.55 869.67,-141.3 876.65,-141.76"/>
</g>
<!-- Node20 -->
<g id="node20" class="node">
<title>Node20</title>
<g id="a_node20"><a xlink:href="scoop_8h.html" target="_top" xlink:title="Manage librsync streams of IO.">
<polygon fill="white" stroke="black" points="577,-224.5 577,-243.5 631,-243.5 631,-224.5 577,-224.5"/>
<text text-anchor="middle" x="604" y="-231.5" font-family="Helvetica,sans-Serif" font-size="10.00">scoop.h</text>
</a>
</g>
</g>
<!-- Node1&#45;&gt;Node20 -->
<g id="edge33" class="edge">
<title>Node1&#45;&gt;Node20</title>
<path fill="none" stroke="midnightblue" d="M626.54,-280.08C622.85,-272.69 617.48,-261.95 612.91,-252.81"/>
<polygon fill="midnightblue" stroke="midnightblue" points="615.98,-251.13 608.38,-243.75 609.72,-254.26 615.98,-251.13"/>
</g>
<!-- Node21 -->
<g id="node21" class="node">
<title>Node21</title>
<g id="a_node21"><a xlink:href="command_8h.html" target="_top" xlink:title="Types of commands present in the encoding stream.">
<polygon fill="white" stroke="black" points="902,-168.5 902,-187.5 976,-187.5 976,-168.5 902,-168.5"/>
<text text-anchor="middle" x="939" y="-175.5" font-family="Helvetica,sans-Serif" font-size="10.00">command.h</text>
</a>
</g>
</g>
<!-- Node1&#45;&gt;Node21 -->
<g id="edge38" class="edge">
<title>Node1&#45;&gt;Node21</title>
<path fill="none" stroke="midnightblue" d="M657.06,-288.88C702.87,-287.67 799.71,-280.58 871,-244 893.59,-232.41 913.83,-210.92 926.23,-195.83"/>
<polygon fill="midnightblue" stroke="midnightblue" points="929.12,-197.82 932.59,-187.81 923.63,-193.47 929.12,-197.82"/>
</g>
<!-- Node22 -->
<g id="node22" class="node">
<title>Node22</title>
<g id="a_node22"><a xlink:href="prototab_8h.html" target="_top" xlink:title="Delta file commands.">
<polygon fill="white" stroke="black" points="923.5,-224.5 923.5,-243.5 990.5,-243.5 990.5,-224.5 923.5,-224.5"/>
<text text-anchor="middle" x="957" y="-231.5" font-family="Helvetica,sans-Serif" font-size="10.00">prototab.h</text>
</a>
</g>
</g>
<!-- Node1&#45;&gt;Node22 -->
<g id="edge39" class="edge">
<title>Node1&#45;&gt;Node22</title>
<path fill="none" stroke="midnightblue" d="M657.1,-285C706.39,-277.39 816.53,-260.15 909,-244 910.46,-243.74 911.95,-243.48 913.45,-243.21"/>
<polygon fill="midnightblue" stroke="midnightblue" points="914.24,-246.63 923.45,-241.4 912.99,-239.74 914.24,-246.63"/>
</g>
<!-- Node23 -->
<g id="node23" class="node">
<title>Node23</title>
<g id="a_node23"><a xlink:href="trace_8h.html" target="_top" xlink:title="logging functions.">
<polygon fill="white" stroke="black" points="687,-224.5 687,-243.5 737,-243.5 737,-224.5 687,-224.5"/>
<text text-anchor="middle" x="712" y="-231.5" font-family="Helvetica,sans-Serif" font-size="10.00">trace.h</text>
</a>
</g>
</g>
<!-- Node1&#45;&gt;Node23 -->
<g id="edge41" class="edge">
<title>Node1&#45;&gt;Node23</title>
<path fill="none" stroke="midnightblue" d="M644.01,-280.32C656.53,-271.98 675.68,-259.21 690.47,-249.35"/>
<polygon fill="midnightblue" stroke="midnightblue" points="692.64,-252.11 699.02,-243.65 688.76,-246.29 692.64,-252.11"/>
</g>
<!-- Node7&#45;&gt;Node6 -->
<g id="edge8" class="edge">
<title>Node7&#45;&gt;Node6</title>
<path fill="none" stroke="midnightblue" d="M612.76,-60.94C534.55,-51.1 335.17,-26 252.63,-15.61"/>
<polygon fill="midnightblue" stroke="midnightblue" points="253.06,-12.14 242.7,-14.36 252.19,-19.08 253.06,-12.14"/>
</g>
<!-- Node8 -->
<g id="node8" class="node">
<title>Node8</title>
<g id="a_node8"><a xlink:title=" ">
<polygon fill="white" stroke="#bfbfbf" points="553,-0.5 553,-19.5 603,-19.5 603,-0.5 553,-0.5"/>
<text text-anchor="middle" x="578" y="-7.5" font-family="Helvetica,sans-Serif" font-size="10.00">stdio.h</text>
</a>
</g>
</g>
<!-- Node7&#45;&gt;Node8 -->
<g id="edge7" class="edge">
<title>Node7&#45;&gt;Node8</title>
<path fill="none" stroke="midnightblue" d="M634.24,-56.32C624.23,-48.26 609.11,-36.08 597.07,-26.37"/>
<polygon fill="midnightblue" stroke="midnightblue" points="598.94,-23.38 588.96,-19.83 594.55,-28.83 598.94,-23.38"/>
</g>
<!-- Node9 -->
<g id="node9" class="node">
<title>Node9</title>
<g id="a_node9"><a xlink:title=" ">
<polygon fill="white" stroke="#bfbfbf" points="621,-0.5 621,-19.5 669,-19.5 669,-0.5 621,-0.5"/>
<text text-anchor="middle" x="645" y="-7.5" font-family="Helvetica,sans-Serif" font-size="10.00">time.h</text>
</a>
</g>
</g>
<!-- Node7&#45;&gt;Node9 -->
<g id="edge9" class="edge">
<title>Node7&#45;&gt;Node9</title>
<path fill="none" stroke="midnightblue" d="M645,-56.08C645,-49.01 645,-38.86 645,-29.99"/>
<polygon fill="midnightblue" stroke="midnightblue" points="648.5,-29.75 645,-19.75 641.5,-29.75 648.5,-29.75"/>
</g>
<!-- Node10 -->
<g id="node10" class="node">
<title>Node10</title>
<g id="a_node10"><a xlink:href="librsync__export_8h_source.html" target="_top" xlink:title=" ">
<polygon fill="white" stroke="black" points="687.5,-0.5 687.5,-19.5 788.5,-19.5 788.5,-0.5 687.5,-0.5"/>
<text text-anchor="middle" x="738" y="-7.5" font-family="Helvetica,sans-Serif" font-size="10.00">librsync_export.h</text>
</a>
</g>
</g>
<!-- Node7&#45;&gt;Node10 -->
<g id="edge10" class="edge">
<title>Node7&#45;&gt;Node10</title>
<path fill="none" stroke="midnightblue" d="M659.94,-56.32C674.59,-47.82 697.13,-34.73 714.24,-24.8"/>
<polygon fill="midnightblue" stroke="midnightblue" points="716.2,-27.7 723.1,-19.65 712.69,-21.65 716.2,-27.7"/>
</g>
<!-- Node11&#45;&gt;Node3 -->
<g id="edge12" class="edge">
<title>Node11&#45;&gt;Node3</title>
<path fill="none" stroke="midnightblue" d="M439.1,-175.58C382.46,-171.42 227.34,-157.9 184,-132 142.25,-107.06 112.56,-55.68 99.1,-28.59"/>
<polygon fill="midnightblue" stroke="midnightblue" points="102.22,-27.01 94.74,-19.51 95.91,-30.04 102.22,-27.01"/>
</g>
<!-- Node11&#45;&gt;Node7 -->
<g id="edge30" class="edge">
<title>Node11&#45;&gt;Node7</title>
<path fill="none" stroke="midnightblue" d="M474.52,-168.37C506.4,-149.41 582.77,-104 621.55,-80.94"/>
<polygon fill="midnightblue" stroke="midnightblue" points="623.74,-83.71 630.55,-75.59 620.17,-77.69 623.74,-83.71"/>
</g>
<!-- Node12 -->
<g id="node12" class="node">
<title>Node12</title>
<g id="a_node12"><a xlink:title=" ">
<polygon fill="white" stroke="#bfbfbf" points="349,-0.5 349,-19.5 405,-19.5 405,-0.5 349,-0.5"/>
<text text-anchor="middle" x="377" y="-7.5" font-family="Helvetica,sans-Serif" font-size="10.00">stddef.h</text>
</a>
</g>
</g>
<!-- Node11&#45;&gt;Node12 -->
<g id="edge13" class="edge">
<title>Node11&#45;&gt;Node12</title>
<path fill="none" stroke="midnightblue" d="M464.15,-168.25C473.53,-147.09 493.82,-92.23 471,-56 458.65,-36.4 435.14,-25.15 414.72,-18.8"/>
<polygon fill="midnightblue" stroke="midnightblue" points="415.58,-15.4 405.01,-16.06 413.68,-22.14 415.58,-15.4"/>
</g>
<!-- Node13 -->
<g id="node13" class="node">
<title>Node13</title>
<g id="a_node13"><a xlink:href="mdfour_8h.html" target="_top" xlink:title="MD4 message digest algorithm.">
<polygon fill="white" stroke="black" points="193.5,-112.5 193.5,-131.5 254.5,-131.5 254.5,-112.5 193.5,-112.5"/>
<text text-anchor="middle" x="224" y="-119.5" font-family="Helvetica,sans-Serif" font-size="10.00">mdfour.h</text>
</a>
</g>
</g>
<!-- Node11&#45;&gt;Node13 -->
<g id="edge14" class="edge">
<title>Node11&#45;&gt;Node13</title>
<path fill="none" stroke="midnightblue" d="M439.47,-172.3C400.55,-163.4 315.37,-143.91 264.55,-132.28"/>
<polygon fill="midnightblue" stroke="midnightblue" points="265.09,-128.81 254.56,-129.99 263.52,-135.63 265.09,-128.81"/>
</g>
<!-- Node14 -->
<g id="node14" class="node">
<title>Node14</title>
<g id="a_node14"><a xlink:href="checksum_8h.html" target="_top" xlink:title="Abstract wrappers around different weaksum and strongsum implementations.">
<polygon fill="white" stroke="black" points="322.5,-112.5 322.5,-131.5 397.5,-131.5 397.5,-112.5 322.5,-112.5"/>
<text text-anchor="middle" x="360" y="-119.5" font-family="Helvetica,sans-Serif" font-size="10.00">checksum.h</text>
</a>
</g>
</g>
<!-- Node11&#45;&gt;Node14 -->
<g id="edge16" class="edge">
<title>Node11&#45;&gt;Node14</title>
<path fill="none" stroke="midnightblue" d="M443.93,-168.32C428.04,-159.74 403.49,-146.49 385.04,-136.52"/>
<polygon fill="midnightblue" stroke="midnightblue" points="386.49,-133.33 376.03,-131.65 383.16,-139.49 386.49,-133.33"/>
</g>
<!-- Node13&#45;&gt;Node6 -->
<g id="edge15" class="edge">
<title>Node13&#45;&gt;Node6</title>
<path fill="none" stroke="midnightblue" d="M207.67,-112.39C195.04,-104.72 178.5,-92.21 171,-76 162.44,-57.5 178.95,-38.59 194.33,-25.97"/>
<polygon fill="midnightblue" stroke="midnightblue" points="196.78,-28.51 202.59,-19.65 192.52,-22.95 196.78,-28.51"/>
</g>
<!-- Node14&#45;&gt;Node3 -->
<g id="edge17" class="edge">
<title>Node14&#45;&gt;Node3</title>
<path fill="none" stroke="midnightblue" d="M322.45,-117.08C283.06,-111.84 220.16,-100.24 171,-76 145.81,-63.58 121.44,-41.96 106.35,-27.09"/>
<polygon fill="midnightblue" stroke="midnightblue" points="108.49,-24.28 98.98,-19.62 103.51,-29.2 108.49,-24.28"/>
</g>
<!-- Node14&#45;&gt;Node7 -->
<g id="edge19" class="edge">
<title>Node14&#45;&gt;Node7</title>
<path fill="none" stroke="midnightblue" d="M397.55,-113.88C450.63,-103.83 547.29,-85.51 602.79,-75"/>
<polygon fill="midnightblue" stroke="midnightblue" points="603.48,-78.43 612.66,-73.13 602.18,-71.55 603.48,-78.43"/>
</g>
<!-- Node14&#45;&gt;Node12 -->
<g id="edge18" class="edge">
<title>Node14&#45;&gt;Node12</title>
<path fill="none" stroke="midnightblue" d="M361.33,-112.37C364.08,-94.62 370.41,-53.67 374.13,-29.6"/>
<polygon fill="midnightblue" stroke="midnightblue" points="377.6,-30.01 375.67,-19.59 370.69,-28.94 377.6,-30.01"/>
</g>
<!-- Node15 -->
<g id="node15" class="node">
<title>Node15</title>
<g id="a_node15"><a xlink:href="rollsum_8h.html" target="_top" xlink:title="The Rollsum class implementation of the original rsync rollsum.">
<polygon fill="white" stroke="black" points="270,-56.5 270,-75.5 332,-75.5 332,-56.5 270,-56.5"/>
<text text-anchor="middle" x="301" y="-63.5" font-family="Helvetica,sans-Serif" font-size="10.00">rollsum.h</text>
</a>
</g>
</g>
<!-- Node14&#45;&gt;Node15 -->
<g id="edge20" class="edge">
<title>Node14&#45;&gt;Node15</title>
<path fill="none" stroke="midnightblue" d="M350.52,-112.32C341.8,-104.34 328.66,-92.31 318.1,-82.65"/>
<polygon fill="midnightblue" stroke="midnightblue" points="320.39,-80 310.65,-75.83 315.67,-85.17 320.39,-80"/>
</g>
<!-- Node16 -->
<g id="node16" class="node">
<title>Node16</title>
<g id="a_node16"><a xlink:href="rabinkarp_8h.html" target="_top" xlink:title="The rabinkarp class implementation of the RabinKarp rollsum.">
<polygon fill="white" stroke="black" points="180,-56.5 180,-75.5 252,-75.5 252,-56.5 180,-56.5"/>
<text text-anchor="middle" x="216" y="-63.5" font-family="Helvetica,sans-Serif" font-size="10.00">rabinkarp.h</text>
</a>
</g>
</g>
<!-- Node14&#45;&gt;Node16 -->
<g id="edge23" class="edge">
<title>Node14&#45;&gt;Node16</title>
<path fill="none" stroke="midnightblue" d="M337.18,-112.44C313.17,-103.44 275.17,-89.19 248.13,-79.05"/>
<polygon fill="midnightblue" stroke="midnightblue" points="249.3,-75.75 238.71,-75.52 246.84,-82.3 249.3,-75.75"/>
</g>
<!-- Node17 -->
<g id="node17" class="node">
<title>Node17</title>
<g id="a_node17"><a xlink:href="hashtable_8h.html" target="_top" xlink:title="A generic open addressing hashtable.">
<polygon fill="white" stroke="black" points="388,-56.5 388,-75.5 462,-75.5 462,-56.5 388,-56.5"/>
<text text-anchor="middle" x="425" y="-63.5" font-family="Helvetica,sans-Serif" font-size="10.00">hashtable.h</text>
</a>
</g>
</g>
<!-- Node14&#45;&gt;Node17 -->
<g id="edge26" class="edge">
<title>Node14&#45;&gt;Node17</title>
<path fill="none" stroke="midnightblue" d="M370.44,-112.32C380.15,-104.26 394.82,-92.08 406.5,-82.37"/>
<polygon fill="midnightblue" stroke="midnightblue" points="408.91,-84.92 414.37,-75.83 404.44,-79.53 408.91,-84.92"/>
</g>
<!-- Node15&#45;&gt;Node6 -->
<g id="edge22" class="edge">
<title>Node15&#45;&gt;Node6</title>
<path fill="none" stroke="midnightblue" d="M287.34,-56.32C274.08,-47.9 253.73,-34.97 238.15,-25.07"/>
<polygon fill="midnightblue" stroke="midnightblue" points="239.94,-22.06 229.62,-19.65 236.19,-27.97 239.94,-22.06"/>
</g>
<!-- Node15&#45;&gt;Node12 -->
<g id="edge21" class="edge">
<title>Node15&#45;&gt;Node12</title>
<path fill="none" stroke="midnightblue" d="M313.21,-56.32C324.78,-48.11 342.38,-35.6 356.16,-25.81"/>
<polygon fill="midnightblue" stroke="midnightblue" points="358.44,-28.48 364.57,-19.83 354.39,-22.77 358.44,-28.48"/>
</g>
<!-- Node16&#45;&gt;Node6 -->
<g id="edge25" class="edge">
<title>Node16&#45;&gt;Node6</title>
<path fill="none" stroke="midnightblue" d="M216,-56.08C216,-49.01 216,-38.86 216,-29.99"/>
<polygon fill="midnightblue" stroke="midnightblue" points="219.5,-29.75 216,-19.75 212.5,-29.75 219.5,-29.75"/>
</g>
<!-- Node16&#45;&gt;Node12 -->
<g id="edge24" class="edge">
<title>Node16&#45;&gt;Node12</title>
<path fill="none" stroke="midnightblue" d="M241.51,-56.44C268.6,-47.36 311.59,-32.94 341.87,-22.78"/>
<polygon fill="midnightblue" stroke="midnightblue" points="343.24,-26.01 351.61,-19.52 341.01,-19.38 343.24,-26.01"/>
</g>
<!-- Node17&#45;&gt;Node3 -->
<g id="edge28" class="edge">
<title>Node17&#45;&gt;Node3</title>
<path fill="none" stroke="midnightblue" d="M387.98,-59.01C324.11,-48.69 193.85,-27.63 129.18,-17.17"/>
<polygon fill="midnightblue" stroke="midnightblue" points="129.44,-13.67 119.01,-15.53 128.32,-20.58 129.44,-13.67"/>
</g>
<!-- Node17&#45;&gt;Node12 -->
<g id="edge29" class="edge">
<title>Node17&#45;&gt;Node12</title>
<path fill="none" stroke="midnightblue" d="M417.07,-56.08C410.15,-48.3 399.93,-36.8 391.55,-27.37"/>
<polygon fill="midnightblue" stroke="midnightblue" points="394.04,-24.9 384.78,-19.75 388.81,-29.55 394.04,-24.9"/>
</g>
<!-- Node18 -->
<g id="node18" class="node">
<title>Node18</title>
<g id="a_node18"><a xlink:title=" ">
<polygon fill="white" stroke="#bfbfbf" points="440,-0.5 440,-19.5 502,-19.5 502,-0.5 440,-0.5"/>
<text text-anchor="middle" x="471" y="-7.5" font-family="Helvetica,sans-Serif" font-size="10.00">stdbool.h</text>
</a>
</g>
</g>
<!-- Node17&#45;&gt;Node18 -->
<g id="edge27" class="edge">
<title>Node17&#45;&gt;Node18</title>
<path fill="none" stroke="midnightblue" d="M432.6,-56.08C439.23,-48.3 449.02,-36.8 457.06,-27.37"/>
<polygon fill="midnightblue" stroke="midnightblue" points="459.73,-29.63 463.55,-19.75 454.4,-25.09 459.73,-29.63"/>
</g>
<!-- Node19&#45;&gt;Node7 -->
<g id="edge32" class="edge">
<title>Node19&#45;&gt;Node7</title>
<path fill="none" stroke="midnightblue" d="M846.83,-114.59C807.32,-105.28 733.64,-87.9 687.07,-76.92"/>
<polygon fill="midnightblue" stroke="midnightblue" points="687.82,-73.5 677.28,-74.61 686.21,-80.31 687.82,-73.5"/>
</g>
<!-- Node20&#45;&gt;Node7 -->
<g id="edge37" class="edge">
<title>Node20&#45;&gt;Node7</title>
<path fill="none" stroke="midnightblue" d="M606.2,-224.08C612.66,-197.95 631.61,-121.21 640.41,-85.58"/>
<polygon fill="midnightblue" stroke="midnightblue" points="643.88,-86.12 642.88,-75.57 637.09,-84.44 643.88,-86.12"/>
</g>
<!-- Node20&#45;&gt;Node11 -->
<g id="edge36" class="edge">
<title>Node20&#45;&gt;Node11</title>
<path fill="none" stroke="midnightblue" d="M581.18,-224.44C556.6,-215.23 517.38,-200.52 490.24,-190.34"/>
<polygon fill="midnightblue" stroke="midnightblue" points="491.43,-187.05 480.84,-186.82 488.97,-193.6 491.43,-187.05"/>
</g>
<!-- Node20&#45;&gt;Node12 -->
<g id="edge35" class="edge">
<title>Node20&#45;&gt;Node12</title>
<path fill="none" stroke="midnightblue" d="M600.62,-224.29C589.23,-196.03 549.57,-105.82 489,-56 467.57,-38.37 438.35,-26.94 415.13,-20.01"/>
<polygon fill="midnightblue" stroke="midnightblue" points="415.83,-16.58 405.25,-17.23 413.93,-23.31 415.83,-16.58"/>
</g>
<!-- Node20&#45;&gt;Node18 -->
<g id="edge34" class="edge">
<title>Node20&#45;&gt;Node18</title>
<path fill="none" stroke="midnightblue" d="M602.99,-224.29C599.41,-196.77 585.14,-110.3 542,-56 531.13,-42.32 514.89,-31.59 500.68,-24.04"/>
<polygon fill="midnightblue" stroke="midnightblue" points="502.23,-20.9 491.72,-19.55 499.09,-27.16 502.23,-20.9"/>
</g>
<!-- Node22&#45;&gt;Node21 -->
<g id="edge40" class="edge">
<title>Node22&#45;&gt;Node21</title>
<path fill="none" stroke="midnightblue" d="M954.03,-224.08C951.62,-216.85 948.14,-206.41 945.13,-197.4"/>
<polygon fill="midnightblue" stroke="midnightblue" points="948.4,-196.13 941.92,-187.75 941.76,-198.34 948.4,-196.13"/>
</g>
<!-- Node23&#45;&gt;Node2 -->
<g id="edge43" class="edge">
<title>Node23&#45;&gt;Node2</title>
<path fill="none" stroke="midnightblue" d="M706.55,-224.08C701.99,-216.61 695.33,-205.72 689.71,-196.52"/>
<polygon fill="midnightblue" stroke="midnightblue" points="692.55,-194.46 684.35,-187.75 686.58,-198.11 692.55,-194.46"/>
</g>
<!-- Node24 -->
<g id="node24" class="node">
<title>Node24</title>
<g id="a_node24"><a xlink:title=" ">
<polygon fill="white" stroke="#bfbfbf" points="725.5,-168.5 725.5,-187.5 790.5,-187.5 790.5,-168.5 725.5,-168.5"/>
<text text-anchor="middle" x="758" y="-175.5" font-family="Helvetica,sans-Serif" font-size="10.00">inttypes.h</text>
</a>
</g>
</g>
<!-- Node23&#45;&gt;Node24 -->
<g id="edge42" class="edge">
<title>Node23&#45;&gt;Node24</title>
<path fill="none" stroke="midnightblue" d="M719.6,-224.08C726.23,-216.3 736.02,-204.8 744.06,-195.37"/>
<polygon fill="midnightblue" stroke="midnightblue" points="746.73,-197.63 750.55,-187.75 741.4,-193.09 746.73,-197.63"/>
</g>
</g>
</svg>
