<?xml version="1.0" encoding="UTF-8" standalone="no"?>
<!DOCTYPE svg PUBLIC "-//W3C//DTD SVG 1.1//EN"
 "http://www.w3.org/Graphics/SVG/1.1/DTD/svg11.dtd">
<!-- Generated by graphviz version 2.43.0 (0)
 -->
<!-- Title: patch.c Pages: 1 -->
<svg width="971pt" height="308pt"
 viewBox="0.00 0.00 970.57 308.00" xmlns="http://www.w3.org/2000/svg" xmlns:xlink="http://www.w3.org/1999/xlink">
<g id="graph0" class="graph" transform="scale(1 1) rotate(0) translate(4 304)">
<title>patch.c</title>
<polygon fill="white" stroke="transparent" points="-4,4 -4,-304 966.57,-304 966.57,4 -4,4"/>
<!-- Node1 -->
<g id="node1" class="node">
<title>Node1</title>
<g id="a_node1"><a xlink:title="Apply a delta to an old file to generate a new file.">
<polygon fill="#bfbfbf" stroke="black" points="524.07,-280.5 524.07,-299.5 576.07,-299.5 576.07,-280.5 524.07,-280.5"/>
<text text-anchor="middle" x="550.07" y="-287.5" font-family="Helvetica,sans-Serif" font-size="10.00">patch.c</text>
</a>
</g>
</g>
<!-- Node2 -->
<g id="node2" class="node">
<title>Node2</title>
<g id="a_node2"><a xlink:title=" ">
<polygon fill="white" stroke="#bfbfbf" points="61.07,-0.5 61.07,-19.5 117.07,-19.5 117.07,-0.5 61.07,-0.5"/>
<text text-anchor="middle" x="89.07" y="-7.5" font-family="Helvetica,sans-Serif" font-size="10.00">assert.h</text>
</a>
</g>
</g>
<!-- Node1&#45;&gt;Node2 -->
<g id="edge1" class="edge">
<title>Node1&#45;&gt;Node2</title>
<path fill="none" stroke="midnightblue" d="M523.91,-288.49C422.55,-286.28 59.39,-276.16 20.07,-244 -3.22,-224.94 1.07,-209.1 1.07,-179 1.07,-179 1.07,-179 1.07,-121 1.07,-79.03 40.62,-43.9 66.69,-25.3"/>
<polygon fill="midnightblue" stroke="midnightblue" points="68.67,-28.18 74.94,-19.64 64.71,-22.41 68.67,-28.18"/>
</g>
<!-- Node3 -->
<g id="node3" class="node">
<title>Node3</title>
<g id="a_node3"><a xlink:title=" ">
<polygon fill="white" stroke="#bfbfbf" points="29.57,-224.5 29.57,-243.5 82.57,-243.5 82.57,-224.5 29.57,-224.5"/>
<text text-anchor="middle" x="56.07" y="-231.5" font-family="Helvetica,sans-Serif" font-size="10.00">stdlib.h</text>
</a>
</g>
</g>
<!-- Node1&#45;&gt;Node3 -->
<g id="edge2" class="edge">
<title>Node1&#45;&gt;Node3</title>
<path fill="none" stroke="midnightblue" d="M524,-287.85C455.04,-284.52 262.03,-273.26 92.82,-244.07"/>
<polygon fill="midnightblue" stroke="midnightblue" points="93.19,-240.58 82.73,-242.31 91.98,-247.48 93.19,-240.58"/>
</g>
<!-- Node4 -->
<g id="node4" class="node">
<title>Node4</title>
<g id="a_node4"><a xlink:title=" ">
<polygon fill="white" stroke="#bfbfbf" points="100.57,-224.5 100.57,-243.5 153.57,-243.5 153.57,-224.5 100.57,-224.5"/>
<text text-anchor="middle" x="127.07" y="-231.5" font-family="Helvetica,sans-Serif" font-size="10.00">string.h</text>
</a>
</g>
</g>
<!-- Node1&#45;&gt;Node4 -->
<g id="edge3" class="edge">
<title>Node1&#45;&gt;Node4</title>
<path fill="none" stroke="midnightblue" d="M524.01,-286.83C462.03,-281.46 301.1,-266.38 168.07,-244 166.78,-243.78 165.47,-243.55 164.14,-243.31"/>
<polygon fill="midnightblue" stroke="midnightblue" points="164.4,-239.79 153.91,-241.29 163.04,-246.66 164.4,-239.79"/>
</g>
<!-- Node5 -->
<g id="node5" class="node">
<title>Node5</title>
<g id="a_node5"><a xlink:title=" ">
<polygon fill="white" stroke="#bfbfbf" points="185.57,-0.5 185.57,-19.5 238.57,-19.5 238.57,-0.5 185.57,-0.5"/>
<text text-anchor="middle" x="212.07" y="-7.5" font-family="Helvetica,sans-Serif" font-size="10.00">stdint.h</text>
</a>
</g>
</g>
<!-- Node1&#45;&gt;Node5 -->
<g id="edge4" class="edge">
<title>Node1&#45;&gt;Node5</title>
<path fill="none" stroke="midnightblue" d="M524.01,-283.32C461.11,-268.46 298.79,-223.15 198.07,-132 170.9,-107.41 151.86,-89.78 166.07,-56 171.1,-44.05 181.02,-33.69 190.36,-25.93"/>
<polygon fill="midnightblue" stroke="midnightblue" points="192.51,-28.69 198.29,-19.81 188.23,-23.15 192.51,-28.69"/>
</g>
<!-- Node6 -->
<g id="node6" class="node">
<title>Node6</title>
<g id="a_node6"><a xlink:href="librsync_8h.html" target="_top" xlink:title="Public header for librsync.">
<polygon fill="white" stroke="black" points="596.07,-56.5 596.07,-75.5 660.07,-75.5 660.07,-56.5 596.07,-56.5"/>
<text text-anchor="middle" x="628.07" y="-63.5" font-family="Helvetica,sans-Serif" font-size="10.00">librsync.h</text>
</a>
</g>
</g>
<!-- Node1&#45;&gt;Node6 -->
<g id="edge5" class="edge">
<title>Node1&#45;&gt;Node6</title>
<path fill="none" stroke="midnightblue" d="M558.5,-280.35C566.51,-271.73 578.43,-257.84 586.07,-244 611.57,-197.87 615.09,-183.75 625.07,-132 628.05,-116.56 628.68,-98.69 628.63,-85.6"/>
<polygon fill="midnightblue" stroke="midnightblue" points="632.13,-85.44 628.46,-75.51 625.13,-85.56 632.13,-85.44"/>
</g>
<!-- Node10 -->
<g id="node10" class="node">
<title>Node10</title>
<g id="a_node10"><a xlink:href="job_8h.html" target="_top" xlink:title="Generic state&#45;machine interface.">
<polygon fill="white" stroke="black" points="422.57,-168.5 422.57,-187.5 463.57,-187.5 463.57,-168.5 422.57,-168.5"/>
<text text-anchor="middle" x="443.07" y="-175.5" font-family="Helvetica,sans-Serif" font-size="10.00">job.h</text>
</a>
</g>
</g>
<!-- Node1&#45;&gt;Node10 -->
<g id="edge10" class="edge">
<title>Node1&#45;&gt;Node10</title>
<path fill="none" stroke="midnightblue" d="M541.68,-280.37C523.79,-261.97 481.66,-218.67 458.69,-195.05"/>
<polygon fill="midnightblue" stroke="midnightblue" points="460.91,-192.32 451.43,-187.59 455.9,-197.2 460.91,-192.32"/>
</g>
<!-- Node18 -->
<g id="node18" class="node">
<title>Node18</title>
<g id="a_node18"><a xlink:href="netint_8h.html" target="_top" xlink:title="Network&#45;byte&#45;order output to the tube.">
<polygon fill="white" stroke="black" points="672.07,-112.5 672.07,-131.5 726.07,-131.5 726.07,-112.5 672.07,-112.5"/>
<text text-anchor="middle" x="699.07" y="-119.5" font-family="Helvetica,sans-Serif" font-size="10.00">netint.h</text>
</a>
</g>
</g>
<!-- Node1&#45;&gt;Node18 -->
<g id="edge30" class="edge">
<title>Node1&#45;&gt;Node18</title>
<path fill="none" stroke="midnightblue" d="M576.27,-284.47C600.62,-278.95 636.3,-267.3 658.07,-244 685.11,-215.06 694.38,-167.62 697.51,-141.57"/>
<polygon fill="midnightblue" stroke="midnightblue" points="701,-141.84 698.54,-131.54 694.04,-141.13 701,-141.84"/>
</g>
<!-- Node19 -->
<g id="node19" class="node">
<title>Node19</title>
<g id="a_node19"><a xlink:href="scoop_8h.html" target="_top" xlink:title="Manage librsync streams of IO.">
<polygon fill="white" stroke="black" points="523.07,-224.5 523.07,-243.5 577.07,-243.5 577.07,-224.5 523.07,-224.5"/>
<text text-anchor="middle" x="550.07" y="-231.5" font-family="Helvetica,sans-Serif" font-size="10.00">scoop.h</text>
</a>
</g>
</g>
<!-- Node1&#45;&gt;Node19 -->
<g id="edge32" class="edge">
<title>Node1&#45;&gt;Node19</title>
<path fill="none" stroke="midnightblue" d="M550.07,-280.08C550.07,-273.01 550.07,-262.86 550.07,-253.99"/>
<polygon fill="midnightblue" stroke="midnightblue" points="553.57,-253.75 550.07,-243.75 546.57,-253.75 553.57,-253.75"/>
</g>
<!-- Node20 -->
<g id="node20" class="node">
<title>Node20</title>
<g id="a_node20"><a xlink:href="command_8h.html" target="_top" xlink:title="Types of commands present in the encoding stream.">
<polygon fill="white" stroke="black" points="724.07,-168.5 724.07,-187.5 798.07,-187.5 798.07,-168.5 724.07,-168.5"/>
<text text-anchor="middle" x="761.07" y="-175.5" font-family="Helvetica,sans-Serif" font-size="10.00">command.h</text>
</a>
</g>
</g>
<!-- Node1&#45;&gt;Node20 -->
<g id="edge37" class="edge">
<title>Node1&#45;&gt;Node20</title>
<path fill="none" stroke="midnightblue" d="M576.45,-288.04C632.33,-285.38 759.69,-275.9 786.07,-244 797.69,-229.96 786.96,-209.92 776.18,-195.81"/>
<polygon fill="midnightblue" stroke="midnightblue" points="778.71,-193.39 769.65,-187.9 773.31,-197.84 778.71,-193.39"/>
</g>
<!-- Node21 -->
<g id="node21" class="node">
<title>Node21</title>
<g id="a_node21"><a xlink:href="prototab_8h.html" target="_top" xlink:title="Delta file commands.">
<polygon fill="white" stroke="black" points="710.57,-224.5 710.57,-243.5 777.57,-243.5 777.57,-224.5 710.57,-224.5"/>
<text text-anchor="middle" x="744.07" y="-231.5" font-family="Helvetica,sans-Serif" font-size="10.00">prototab.h</text>
</a>
</g>
</g>
<!-- Node1&#45;&gt;Node21 -->
<g id="edge38" class="edge">
<title>Node1&#45;&gt;Node21</title>
<path fill="none" stroke="midnightblue" d="M576.24,-281.72C608.9,-272.63 665.11,-256.98 703.41,-246.32"/>
<polygon fill="midnightblue" stroke="midnightblue" points="704.52,-249.64 713.21,-243.59 702.64,-242.9 704.52,-249.64"/>
</g>
<!-- Node22 -->
<g id="node22" class="node">
<title>Node22</title>
<g id="a_node22"><a xlink:href="trace_8h.html" target="_top" xlink:title="logging functions.">
<polygon fill="white" stroke="black" points="834.07,-224.5 834.07,-243.5 884.07,-243.5 884.07,-224.5 834.07,-224.5"/>
<text text-anchor="middle" x="859.07" y="-231.5" font-family="Helvetica,sans-Serif" font-size="10.00">trace.h</text>
</a>
</g>
</g>
<!-- Node1&#45;&gt;Node22 -->
<g id="edge40" class="edge">
<title>Node1&#45;&gt;Node22</title>
<path fill="none" stroke="midnightblue" d="M576.24,-285.19C624.57,-278.02 731.05,-261.67 820.07,-244 821.34,-243.75 822.63,-243.49 823.92,-243.22"/>
<polygon fill="midnightblue" stroke="midnightblue" points="824.92,-246.58 833.95,-241.04 823.43,-239.74 824.92,-246.58"/>
</g>
<!-- Node6&#45;&gt;Node5 -->
<g id="edge7" class="edge">
<title>Node6&#45;&gt;Node5</title>
<path fill="none" stroke="midnightblue" d="M595.78,-60.81C519.59,-50.92 329.05,-26.18 248.71,-15.76"/>
<polygon fill="midnightblue" stroke="midnightblue" points="248.95,-12.26 238.58,-14.44 248.05,-19.2 248.95,-12.26"/>
</g>
<!-- Node7 -->
<g id="node7" class="node">
<title>Node7</title>
<g id="a_node7"><a xlink:title=" ">
<polygon fill="white" stroke="#bfbfbf" points="634.07,-0.5 634.07,-19.5 684.07,-19.5 684.07,-0.5 634.07,-0.5"/>
<text text-anchor="middle" x="659.07" y="-7.5" font-family="Helvetica,sans-Serif" font-size="10.00">stdio.h</text>
</a>
</g>
</g>
<!-- Node6&#45;&gt;Node7 -->
<g id="edge6" class="edge">
<title>Node6&#45;&gt;Node7</title>
<path fill="none" stroke="midnightblue" d="M633.19,-56.08C637.48,-48.61 643.73,-37.72 649.02,-28.52"/>
<polygon fill="midnightblue" stroke="midnightblue" points="652.11,-30.17 654.05,-19.75 646.04,-26.68 652.11,-30.17"/>
</g>
<!-- Node8 -->
<g id="node8" class="node">
<title>Node8</title>
<g id="a_node8"><a xlink:title=" ">
<polygon fill="white" stroke="#bfbfbf" points="702.07,-0.5 702.07,-19.5 750.07,-19.5 750.07,-0.5 702.07,-0.5"/>
<text text-anchor="middle" x="726.07" y="-7.5" font-family="Helvetica,sans-Serif" font-size="10.00">time.h</text>
</a>
</g>
</g>
<!-- Node6&#45;&gt;Node8 -->
<g id="edge8" class="edge">
<title>Node6&#45;&gt;Node8</title>
<path fill="none" stroke="midnightblue" d="M643.82,-56.32C659.39,-47.74 683.45,-34.49 701.53,-24.52"/>
<polygon fill="midnightblue" stroke="midnightblue" points="703.3,-27.55 710.37,-19.65 699.92,-21.42 703.3,-27.55"/>
</g>
<!-- Node9 -->
<g id="node9" class="node">
<title>Node9</title>
<g id="a_node9"><a xlink:href="librsync__export_8h_source.html" target="_top" xlink:title=" ">
<polygon fill="white" stroke="black" points="514.57,-0.5 514.57,-19.5 615.57,-19.5 615.57,-0.5 514.57,-0.5"/>
<text text-anchor="middle" x="565.07" y="-7.5" font-family="Helvetica,sans-Serif" font-size="10.00">librsync_export.h</text>
</a>
</g>
</g>
<!-- Node6&#45;&gt;Node9 -->
<g id="edge9" class="edge">
<title>Node6&#45;&gt;Node9</title>
<path fill="none" stroke="midnightblue" d="M617.95,-56.32C608.55,-48.26 594.33,-36.08 583.01,-26.37"/>
<polygon fill="midnightblue" stroke="midnightblue" points="585.25,-23.68 575.38,-19.83 580.7,-29 585.25,-23.68"/>
</g>
<!-- Node10&#45;&gt;Node2 -->
<g id="edge11" class="edge">
<title>Node10&#45;&gt;Node2</title>
<path fill="none" stroke="midnightblue" d="M422.56,-177.55C378.51,-177.85 272.82,-173.77 198.07,-132 152.79,-106.7 116.43,-55.51 99.46,-28.54"/>
<polygon fill="midnightblue" stroke="midnightblue" points="102.31,-26.49 94.11,-19.79 96.34,-30.15 102.31,-26.49"/>
</g>
<!-- Node10&#45;&gt;Node6 -->
<g id="edge29" class="edge">
<title>Node10&#45;&gt;Node6</title>
<path fill="none" stroke="midnightblue" d="M457.59,-168.37C489.47,-149.41 565.85,-104 604.63,-80.94"/>
<polygon fill="midnightblue" stroke="midnightblue" points="606.82,-83.71 613.63,-75.59 603.24,-77.69 606.82,-83.71"/>
</g>
<!-- Node11 -->
<g id="node11" class="node">
<title>Node11</title>
<g id="a_node11"><a xlink:title=" ">
<polygon fill="white" stroke="#bfbfbf" points="360.07,-0.5 360.07,-19.5 416.07,-19.5 416.07,-0.5 360.07,-0.5"/>
<text text-anchor="middle" x="388.07" y="-7.5" font-family="Helvetica,sans-Serif" font-size="10.00">stddef.h</text>
</a>
</g>
</g>
<!-- Node10&#45;&gt;Node11 -->
<g id="edge12" class="edge">
<title>Node10&#45;&gt;Node11</title>
<path fill="none" stroke="midnightblue" d="M446.35,-168.48C453.71,-147.84 469.48,-94.06 450.07,-56 443.07,-42.27 429.71,-31.75 417.17,-24.35"/>
<polygon fill="midnightblue" stroke="midnightblue" points="418.75,-21.22 408.3,-19.51 415.4,-27.37 418.75,-21.22"/>
</g>
<!-- Node12 -->
<g id="node12" class="node">
<title>Node12</title>
<g id="a_node12"><a xlink:href="mdfour_8h.html" target="_top" xlink:title="MD4 message digest algorithm.">
<polygon fill="white" stroke="black" points="207.57,-112.5 207.57,-131.5 268.57,-131.5 268.57,-112.5 207.57,-112.5"/>
<text text-anchor="middle" x="238.07" y="-119.5" font-family="Helvetica,sans-Serif" font-size="10.00">mdfour.h</text>
</a>
</g>
</g>
<!-- Node10&#45;&gt;Node12 -->
<g id="edge13" class="edge">
<title>Node10&#45;&gt;Node12</title>
<path fill="none" stroke="midnightblue" d="M422.29,-171.53C388.74,-162.69 322.05,-145.12 278.79,-133.72"/>
<polygon fill="midnightblue" stroke="midnightblue" points="279.43,-130.27 268.87,-131.11 277.64,-137.04 279.43,-130.27"/>
</g>
<!-- Node13 -->
<g id="node13" class="node">
<title>Node13</title>
<g id="a_node13"><a xlink:href="checksum_8h.html" target="_top" xlink:title="Abstract wrappers around different weaksum and strongsum implementations.">
<polygon fill="white" stroke="black" points="350.57,-112.5 350.57,-131.5 425.57,-131.5 425.57,-112.5 350.57,-112.5"/>
<text text-anchor="middle" x="388.07" y="-119.5" font-family="Helvetica,sans-Serif" font-size="10.00">checksum.h</text>
</a>
</g>
</g>
<!-- Node10&#45;&gt;Node13 -->
<g id="edge15" class="edge">
<title>Node10&#45;&gt;Node13</title>
<path fill="none" stroke="midnightblue" d="M433.99,-168.08C425.9,-160.14 413.88,-148.34 404.16,-138.8"/>
<polygon fill="midnightblue" stroke="midnightblue" points="406.58,-136.26 396.99,-131.75 401.67,-141.25 406.58,-136.26"/>
</g>
<!-- Node12&#45;&gt;Node5 -->
<g id="edge14" class="edge">
<title>Node12&#45;&gt;Node5</title>
<path fill="none" stroke="midnightblue" d="M215.62,-112.38C200.31,-105.18 181.21,-93.29 172.07,-76 162.78,-58.41 178.15,-39.08 192.46,-26.12"/>
<polygon fill="midnightblue" stroke="midnightblue" points="194.76,-28.75 200.13,-19.62 190.24,-23.41 194.76,-28.75"/>
</g>
<!-- Node13&#45;&gt;Node2 -->
<g id="edge16" class="edge">
<title>Node13&#45;&gt;Node2</title>
<path fill="none" stroke="midnightblue" d="M350.53,-118.39C306.11,-114.15 230.78,-103.27 172.07,-76 145.78,-63.79 120.25,-41.8 104.61,-26.82"/>
<polygon fill="midnightblue" stroke="midnightblue" points="106.96,-24.22 97.37,-19.7 102.05,-29.21 106.96,-24.22"/>
</g>
<!-- Node13&#45;&gt;Node6 -->
<g id="edge18" class="edge">
<title>Node13&#45;&gt;Node6</title>
<path fill="none" stroke="midnightblue" d="M425.84,-112.5C469.41,-102.7 540.84,-86.63 586.11,-76.44"/>
<polygon fill="midnightblue" stroke="midnightblue" points="586.92,-79.85 595.91,-74.24 585.38,-73.02 586.92,-79.85"/>
</g>
<!-- Node13&#45;&gt;Node11 -->
<g id="edge17" class="edge">
<title>Node13&#45;&gt;Node11</title>
<path fill="none" stroke="midnightblue" d="M401.86,-112.19C412.9,-104.24 427.58,-91.45 434.07,-76 442.03,-57.08 425.28,-38.24 409.81,-25.75"/>
<polygon fill="midnightblue" stroke="midnightblue" points="411.6,-22.72 401.51,-19.51 407.39,-28.31 411.6,-22.72"/>
</g>
<!-- Node14 -->
<g id="node14" class="node">
<title>Node14</title>
<g id="a_node14"><a xlink:href="rollsum_8h.html" target="_top" xlink:title="The Rollsum class implementation of the original rsync rollsum.">
<polygon fill="white" stroke="black" points="181.07,-56.5 181.07,-75.5 243.07,-75.5 243.07,-56.5 181.07,-56.5"/>
<text text-anchor="middle" x="212.07" y="-63.5" font-family="Helvetica,sans-Serif" font-size="10.00">rollsum.h</text>
</a>
</g>
</g>
<!-- Node13&#45;&gt;Node14 -->
<g id="edge19" class="edge">
<title>Node13&#45;&gt;Node14</title>
<path fill="none" stroke="midnightblue" d="M360.19,-112.44C330.32,-103.28 282.76,-88.69 249.62,-78.52"/>
<polygon fill="midnightblue" stroke="midnightblue" points="250.42,-75.1 239.83,-75.52 248.37,-81.8 250.42,-75.1"/>
</g>
<!-- Node15 -->
<g id="node15" class="node">
<title>Node15</title>
<g id="a_node15"><a xlink:href="rabinkarp_8h.html" target="_top" xlink:title="The rabinkarp class implementation of the RabinKarp rollsum.">
<polygon fill="white" stroke="black" points="261.07,-56.5 261.07,-75.5 333.07,-75.5 333.07,-56.5 261.07,-56.5"/>
<text text-anchor="middle" x="297.07" y="-63.5" font-family="Helvetica,sans-Serif" font-size="10.00">rabinkarp.h</text>
</a>
</g>
</g>
<!-- Node13&#45;&gt;Node15 -->
<g id="edge22" class="edge">
<title>Node13&#45;&gt;Node15</title>
<path fill="none" stroke="midnightblue" d="M373.45,-112.32C359.13,-103.82 337.06,-90.73 320.33,-80.8"/>
<polygon fill="midnightblue" stroke="midnightblue" points="322.04,-77.75 311.66,-75.65 318.47,-83.77 322.04,-77.75"/>
</g>
<!-- Node16 -->
<g id="node16" class="node">
<title>Node16</title>
<g id="a_node16"><a xlink:href="hashtable_8h.html" target="_top" xlink:title="A generic open addressing hashtable.">
<polygon fill="white" stroke="black" points="351.07,-56.5 351.07,-75.5 425.07,-75.5 425.07,-56.5 351.07,-56.5"/>
<text text-anchor="middle" x="388.07" y="-63.5" font-family="Helvetica,sans-Serif" font-size="10.00">hashtable.h</text>
</a>
</g>
</g>
<!-- Node13&#45;&gt;Node16 -->
<g id="edge25" class="edge">
<title>Node13&#45;&gt;Node16</title>
<path fill="none" stroke="midnightblue" d="M388.07,-112.08C388.07,-105.01 388.07,-94.86 388.07,-85.99"/>
<polygon fill="midnightblue" stroke="midnightblue" points="391.57,-85.75 388.07,-75.75 384.57,-85.75 391.57,-85.75"/>
</g>
<!-- Node14&#45;&gt;Node5 -->
<g id="edge21" class="edge">
<title>Node14&#45;&gt;Node5</title>
<path fill="none" stroke="midnightblue" d="M212.07,-56.08C212.07,-49.01 212.07,-38.86 212.07,-29.99"/>
<polygon fill="midnightblue" stroke="midnightblue" points="215.57,-29.75 212.07,-19.75 208.57,-29.75 215.57,-29.75"/>
</g>
<!-- Node14&#45;&gt;Node11 -->
<g id="edge20" class="edge">
<title>Node14&#45;&gt;Node11</title>
<path fill="none" stroke="midnightblue" d="M239.96,-56.44C269.83,-47.28 317.39,-32.69 350.53,-22.52"/>
<polygon fill="midnightblue" stroke="midnightblue" points="351.78,-25.8 360.32,-19.52 349.73,-19.1 351.78,-25.8"/>
</g>
<!-- Node15&#45;&gt;Node5 -->
<g id="edge24" class="edge">
<title>Node15&#45;&gt;Node5</title>
<path fill="none" stroke="midnightblue" d="M283.42,-56.32C270.16,-47.9 249.81,-34.97 234.23,-25.07"/>
<polygon fill="midnightblue" stroke="midnightblue" points="236.01,-22.06 225.7,-19.65 232.26,-27.97 236.01,-22.06"/>
</g>
<!-- Node15&#45;&gt;Node11 -->
<g id="edge23" class="edge">
<title>Node15&#45;&gt;Node11</title>
<path fill="none" stroke="midnightblue" d="M311.7,-56.32C326.02,-47.82 348.09,-34.73 364.82,-24.8"/>
<polygon fill="midnightblue" stroke="midnightblue" points="366.68,-27.77 373.49,-19.65 363.1,-21.75 366.68,-27.77"/>
</g>
<!-- Node16&#45;&gt;Node2 -->
<g id="edge27" class="edge">
<title>Node16&#45;&gt;Node2</title>
<path fill="none" stroke="midnightblue" d="M350.93,-57.68C347.93,-57.1 344.95,-56.54 342.07,-56 265.92,-41.78 176.67,-26.15 127.13,-17.56"/>
<polygon fill="midnightblue" stroke="midnightblue" points="127.63,-14.09 117.18,-15.84 126.44,-20.99 127.63,-14.09"/>
</g>
<!-- Node16&#45;&gt;Node11 -->
<g id="edge28" class="edge">
<title>Node16&#45;&gt;Node11</title>
<path fill="none" stroke="midnightblue" d="M388.07,-56.08C388.07,-49.01 388.07,-38.86 388.07,-29.99"/>
<polygon fill="midnightblue" stroke="midnightblue" points="391.57,-29.75 388.07,-19.75 384.57,-29.75 391.57,-29.75"/>
</g>
<!-- Node17 -->
<g id="node17" class="node">
<title>Node17</title>
<g id="a_node17"><a xlink:title=" ">
<polygon fill="white" stroke="#bfbfbf" points="434.07,-0.5 434.07,-19.5 496.07,-19.5 496.07,-0.5 434.07,-0.5"/>
<text text-anchor="middle" x="465.07" y="-7.5" font-family="Helvetica,sans-Serif" font-size="10.00">stdbool.h</text>
</a>
</g>
</g>
<!-- Node16&#45;&gt;Node17 -->
<g id="edge26" class="edge">
<title>Node16&#45;&gt;Node17</title>
<path fill="none" stroke="midnightblue" d="M400.45,-56.32C412.23,-48.06 430.21,-35.45 444.21,-25.63"/>
<polygon fill="midnightblue" stroke="midnightblue" points="446.56,-28.26 452.73,-19.65 442.54,-22.53 446.56,-28.26"/>
</g>
<!-- Node18&#45;&gt;Node6 -->
<g id="edge31" class="edge">
<title>Node18&#45;&gt;Node6</title>
<path fill="none" stroke="midnightblue" d="M687.67,-112.32C676.97,-104.18 660.73,-91.84 647.91,-82.09"/>
<polygon fill="midnightblue" stroke="midnightblue" points="649.77,-79.1 639.69,-75.83 645.53,-84.67 649.77,-79.1"/>
</g>
<!-- Node19&#45;&gt;Node6 -->
<g id="edge36" class="edge">
<title>Node19&#45;&gt;Node6</title>
<path fill="none" stroke="midnightblue" d="M557.15,-224.47C564.15,-215.72 574.85,-201.53 582.07,-188 600.63,-153.28 615.33,-109.42 622.76,-85.19"/>
<polygon fill="midnightblue" stroke="midnightblue" points="626.14,-86.12 625.65,-75.54 619.43,-84.11 626.14,-86.12"/>
</g>
<!-- Node19&#45;&gt;Node10 -->
<g id="edge35" class="edge">
<title>Node19&#45;&gt;Node10</title>
<path fill="none" stroke="midnightblue" d="M532.88,-224.32C515.72,-215.66 489.13,-202.24 469.33,-192.25"/>
<polygon fill="midnightblue" stroke="midnightblue" points="470.73,-189.04 460.22,-187.65 467.57,-195.28 470.73,-189.04"/>
</g>
<!-- Node19&#45;&gt;Node11 -->
<g id="edge34" class="edge">
<title>Node19&#45;&gt;Node11</title>
<path fill="none" stroke="midnightblue" d="M548.06,-224.18C541.29,-196.33 517.04,-108.97 468.07,-56 455.18,-42.05 436.93,-31.33 421.13,-23.86"/>
<polygon fill="midnightblue" stroke="midnightblue" points="422.23,-20.52 411.67,-19.63 419.37,-26.91 422.23,-20.52"/>
</g>
<!-- Node19&#45;&gt;Node17 -->
<g id="edge33" class="edge">
<title>Node19&#45;&gt;Node17</title>
<path fill="none" stroke="midnightblue" d="M552.42,-224.44C559.3,-197.37 576.95,-112.06 543.07,-56 534.04,-41.04 518.02,-30.57 502.84,-23.51"/>
<polygon fill="midnightblue" stroke="midnightblue" points="504.13,-20.26 493.56,-19.55 501.38,-26.7 504.13,-20.26"/>
</g>
<!-- Node21&#45;&gt;Node20 -->
<g id="edge39" class="edge">
<title>Node21&#45;&gt;Node20</title>
<path fill="none" stroke="midnightblue" d="M746.88,-224.08C749.16,-216.85 752.45,-206.41 755.28,-197.4"/>
<polygon fill="midnightblue" stroke="midnightblue" points="758.65,-198.34 758.32,-187.75 751.98,-196.24 758.65,-198.34"/>
</g>
<!-- Node23 -->
<g id="node23" class="node">
<title>Node23</title>
<g id="a_node23"><a xlink:title=" ">
<polygon fill="white" stroke="#bfbfbf" points="897.57,-168.5 897.57,-187.5 962.57,-187.5 962.57,-168.5 897.57,-168.5"/>
<text text-anchor="middle" x="930.07" y="-175.5" font-family="Helvetica,sans-Serif" font-size="10.00">inttypes.h</text>
</a>
</g>
</g>
<!-- Node22&#45;&gt;Node23 -->
<g id="edge41" class="edge">
<title>Node22&#45;&gt;Node23</title>
<path fill="none" stroke="midnightblue" d="M870.48,-224.32C881.18,-216.18 897.42,-203.84 910.24,-194.09"/>
<polygon fill="midnightblue" stroke="midnightblue" points="912.62,-196.67 918.46,-187.83 908.38,-191.1 912.62,-196.67"/>
</g>
<!-- Node24 -->
<g id="node24" class="node">
<title>Node24</title>
<g id="a_node24"><a xlink:href="config_8h_source.html" target="_top" xlink:title=" ">
<polygon fill="white" stroke="black" points="823.07,-168.5 823.07,-187.5 879.07,-187.5 879.07,-168.5 823.07,-168.5"/>
<text text-anchor="middle" x="851.07" y="-175.5" font-family="Helvetica,sans-Serif" font-size="10.00">config.h</text>
</a>
</g>
</g>
<!-- Node22&#45;&gt;Node24 -->
<g id="edge42" class="edge">
<title>Node22&#45;&gt;Node24</title>
<path fill="none" stroke="midnightblue" d="M857.75,-224.08C856.69,-216.93 855.17,-206.64 853.84,-197.69"/>
<polygon fill="midnightblue" stroke="midnightblue" points="857.3,-197.13 852.37,-187.75 850.37,-198.16 857.3,-197.13"/>
</g>
</g>
</svg>
