<?xml version="1.0" encoding="UTF-8" standalone="no"?>
<!DOCTYPE svg PUBLIC "-//W3C//DTD SVG 1.1//EN"
 "http://www.w3.org/Graphics/SVG/1.1/DTD/svg11.dtd">
<!-- Generated by graphviz version 2.43.0 (0)
 -->
<!-- Title: prototab.h Pages: 1 -->
<svg width="210pt" height="84pt"
 viewBox="0.00 0.00 209.50 84.00" xmlns="http://www.w3.org/2000/svg" xmlns:xlink="http://www.w3.org/1999/xlink">
<g id="graph0" class="graph" transform="scale(1 1) rotate(0) translate(4 80)">
<title>prototab.h</title>
<polygon fill="white" stroke="transparent" points="-4,4 -4,-80 205.5,-80 205.5,4 -4,4"/>
<!-- Node1 -->
<g id="node1" class="node">
<title>Node1</title>
<g id="a_node1"><a xlink:title="Delta file commands.">
<polygon fill="#bfbfbf" stroke="black" points="58,-56.5 58,-75.5 125,-75.5 125,-56.5 58,-56.5"/>
<text text-anchor="middle" x="91.5" y="-63.5" font-family="Helvetica,sans-Serif" font-size="10.00">prototab.h</text>
</a>
</g>
</g>
<!-- Node2 -->
<g id="node2" class="node">
<title>Node2</title>
<g id="a_node2"><a xlink:href="emit_8c_source.html" target="_top" xlink:title=" ">
<polygon fill="white" stroke="black" points="0,-0.5 0,-19.5 47,-19.5 47,-0.5 0,-0.5"/>
<text text-anchor="middle" x="23.5" y="-7.5" font-family="Helvetica,sans-Serif" font-size="10.00">emit.c</text>
</a>
</g>
</g>
<!-- Node1&#45;&gt;Node2 -->
<g id="edge1" class="edge">
<title>Node1&#45;&gt;Node2</title>
<path fill="none" stroke="midnightblue" d="M72.74,-50.1C60.5,-40.38 44.94,-28.03 34.62,-19.83"/>
<polygon fill="midnightblue" stroke="midnightblue" points="70.57,-52.85 80.57,-56.32 74.92,-47.36 70.57,-52.85"/>
</g>
<!-- Node3 -->
<g id="node3" class="node">
<title>Node3</title>
<g id="a_node3"><a xlink:href="patch_8c.html" target="_top" xlink:title="Apply a delta to an old file to generate a new file.">
<polygon fill="white" stroke="black" points="65.5,-0.5 65.5,-19.5 117.5,-19.5 117.5,-0.5 65.5,-0.5"/>
<text text-anchor="middle" x="91.5" y="-7.5" font-family="Helvetica,sans-Serif" font-size="10.00">patch.c</text>
</a>
</g>
</g>
<!-- Node1&#45;&gt;Node3 -->
<g id="edge2" class="edge">
<title>Node1&#45;&gt;Node3</title>
<path fill="none" stroke="midnightblue" d="M91.5,-45.8C91.5,-36.91 91.5,-26.78 91.5,-19.75"/>
<polygon fill="midnightblue" stroke="midnightblue" points="88,-46.08 91.5,-56.08 95,-46.08 88,-46.08"/>
</g>
<!-- Node4 -->
<g id="node4" class="node">
<title>Node4</title>
<g id="a_node4"><a xlink:href="prototab_8c_source.html" target="_top" xlink:title=" ">
<polygon fill="white" stroke="black" points="135.5,-0.5 135.5,-19.5 201.5,-19.5 201.5,-0.5 135.5,-0.5"/>
<text text-anchor="middle" x="168.5" y="-7.5" font-family="Helvetica,sans-Serif" font-size="10.00">prototab.c</text>
</a>
</g>
</g>
<!-- Node1&#45;&gt;Node4 -->
<g id="edge3" class="edge">
<title>Node1&#45;&gt;Node4</title>
<path fill="none" stroke="midnightblue" d="M112.4,-50.34C126.41,-40.52 144.38,-27.91 156.16,-19.65"/>
<polygon fill="midnightblue" stroke="midnightblue" points="110.05,-47.72 103.87,-56.32 114.07,-53.45 110.05,-47.72"/>
</g>
</g>
</svg>
