<?xml version="1.0" encoding="UTF-8" standalone="no"?>
<!DOCTYPE svg PUBLIC "-//W3C//DTD SVG 1.1//EN"
 "http://www.w3.org/Graphics/SVG/1.1/DTD/svg11.dtd">
<!-- Generated by graphviz version 2.43.0 (0)
 -->
<!-- Title: rdiff.c Pages: 1 -->
<svg width="583pt" height="140pt"
 viewBox="0.00 0.00 583.00 140.00" xmlns="http://www.w3.org/2000/svg" xmlns:xlink="http://www.w3.org/1999/xlink">
<g id="graph0" class="graph" transform="scale(1 1) rotate(0) translate(4 136)">
<title>rdiff.c</title>
<polygon fill="white" stroke="transparent" points="-4,4 -4,-136 579,-136 579,4 -4,4"/>
<!-- Node1 -->
<g id="node1" class="node">
<title>Node1</title>
<g id="a_node1"><a xlink:title="Command&#45;line network&#45;delta tool.">
<polygon fill="#bfbfbf" stroke="black" points="244.5,-112.5 244.5,-131.5 288.5,-131.5 288.5,-112.5 244.5,-112.5"/>
<text text-anchor="middle" x="266.5" y="-119.5" font-family="Helvetica,sans-Serif" font-size="10.00">rdiff.c</text>
</a>
</g>
</g>
<!-- Node2 -->
<g id="node2" class="node">
<title>Node2</title>
<g id="a_node2"><a xlink:title=" ">
<polygon fill="white" stroke="#bfbfbf" points="0,-56.5 0,-75.5 53,-75.5 53,-56.5 0,-56.5"/>
<text text-anchor="middle" x="26.5" y="-63.5" font-family="Helvetica,sans-Serif" font-size="10.00">stdlib.h</text>
</a>
</g>
</g>
<!-- Node1&#45;&gt;Node2 -->
<g id="edge1" class="edge">
<title>Node1&#45;&gt;Node2</title>
<path fill="none" stroke="midnightblue" d="M244.42,-116.34C208.62,-108.74 135.48,-93.03 63.38,-76.15"/>
<polygon fill="midnightblue" stroke="midnightblue" points="63.75,-72.65 53.22,-73.77 62.15,-79.46 63.75,-72.65"/>
</g>
<!-- Node3 -->
<g id="node3" class="node">
<title>Node3</title>
<g id="a_node3"><a xlink:title=" ">
<polygon fill="white" stroke="#bfbfbf" points="71.5,-56.5 71.5,-75.5 127.5,-75.5 127.5,-56.5 71.5,-56.5"/>
<text text-anchor="middle" x="99.5" y="-63.5" font-family="Helvetica,sans-Serif" font-size="10.00">stdarg.h</text>
</a>
</g>
</g>
<!-- Node1&#45;&gt;Node3 -->
<g id="edge2" class="edge">
<title>Node1&#45;&gt;Node3</title>
<path fill="none" stroke="midnightblue" d="M244.32,-113.83C216.58,-104.86 168.72,-89.38 135.65,-78.69"/>
<polygon fill="midnightblue" stroke="midnightblue" points="136.49,-75.28 125.9,-75.54 134.34,-81.94 136.49,-75.28"/>
</g>
<!-- Node4 -->
<g id="node4" class="node">
<title>Node4</title>
<g id="a_node4"><a xlink:title=" ">
<polygon fill="white" stroke="#bfbfbf" points="146,-56.5 146,-75.5 199,-75.5 199,-56.5 146,-56.5"/>
<text text-anchor="middle" x="172.5" y="-63.5" font-family="Helvetica,sans-Serif" font-size="10.00">string.h</text>
</a>
</g>
</g>
<!-- Node1&#45;&gt;Node4 -->
<g id="edge3" class="edge">
<title>Node1&#45;&gt;Node4</title>
<path fill="none" stroke="midnightblue" d="M251.4,-112.32C236.6,-103.82 213.81,-90.73 196.52,-80.8"/>
<polygon fill="midnightblue" stroke="midnightblue" points="197.98,-77.6 187.57,-75.65 194.49,-83.67 197.98,-77.6"/>
</g>
<!-- Node5 -->
<g id="node5" class="node">
<title>Node5</title>
<g id="a_node5"><a xlink:title=" ">
<polygon fill="white" stroke="#bfbfbf" points="217,-56.5 217,-75.5 264,-75.5 264,-56.5 217,-56.5"/>
<text text-anchor="middle" x="240.5" y="-63.5" font-family="Helvetica,sans-Serif" font-size="10.00">popt.h</text>
</a>
</g>
</g>
<!-- Node1&#45;&gt;Node5 -->
<g id="edge4" class="edge">
<title>Node1&#45;&gt;Node5</title>
<path fill="none" stroke="midnightblue" d="M262.21,-112.08C258.65,-104.69 253.48,-93.95 249.08,-84.81"/>
<polygon fill="midnightblue" stroke="midnightblue" points="252.21,-83.24 244.71,-75.75 245.9,-86.28 252.21,-83.24"/>
</g>
<!-- Node6 -->
<g id="node6" class="node">
<title>Node6</title>
<g id="a_node6"><a xlink:title=" ">
<polygon fill="white" stroke="#bfbfbf" points="267.5,-0.5 267.5,-19.5 317.5,-19.5 317.5,-0.5 267.5,-0.5"/>
<text text-anchor="middle" x="292.5" y="-7.5" font-family="Helvetica,sans-Serif" font-size="10.00">stdio.h</text>
</a>
</g>
</g>
<!-- Node1&#45;&gt;Node6 -->
<g id="edge5" class="edge">
<title>Node1&#45;&gt;Node6</title>
<path fill="none" stroke="midnightblue" d="M268.54,-112.37C272.74,-94.62 282.42,-53.67 288.1,-29.6"/>
<polygon fill="midnightblue" stroke="midnightblue" points="291.58,-30.13 290.47,-19.59 284.76,-28.52 291.58,-30.13"/>
</g>
<!-- Node7 -->
<g id="node7" class="node">
<title>Node7</title>
<g id="a_node7"><a xlink:href="config_8h_source.html" target="_top" xlink:title=" ">
<polygon fill="white" stroke="black" points="320.5,-56.5 320.5,-75.5 376.5,-75.5 376.5,-56.5 320.5,-56.5"/>
<text text-anchor="middle" x="348.5" y="-63.5" font-family="Helvetica,sans-Serif" font-size="10.00">config.h</text>
</a>
</g>
</g>
<!-- Node1&#45;&gt;Node7 -->
<g id="edge6" class="edge">
<title>Node1&#45;&gt;Node7</title>
<path fill="none" stroke="midnightblue" d="M279.67,-112.32C292.35,-103.98 311.73,-91.21 326.71,-81.35"/>
<polygon fill="midnightblue" stroke="midnightblue" points="328.93,-84.08 335.36,-75.65 325.08,-78.23 328.93,-84.08"/>
</g>
<!-- Node8 -->
<g id="node8" class="node">
<title>Node8</title>
<g id="a_node8"><a xlink:href="librsync_8h.html" target="_top" xlink:title="Public header for librsync.">
<polygon fill="white" stroke="black" points="394.5,-56.5 394.5,-75.5 458.5,-75.5 458.5,-56.5 394.5,-56.5"/>
<text text-anchor="middle" x="426.5" y="-63.5" font-family="Helvetica,sans-Serif" font-size="10.00">librsync.h</text>
</a>
</g>
</g>
<!-- Node1&#45;&gt;Node8 -->
<g id="edge7" class="edge">
<title>Node1&#45;&gt;Node8</title>
<path fill="none" stroke="midnightblue" d="M288.75,-113.49C315.4,-104.5 360.37,-89.32 391.65,-78.76"/>
<polygon fill="midnightblue" stroke="midnightblue" points="392.92,-82.03 401.28,-75.51 390.69,-75.39 392.92,-82.03"/>
</g>
<!-- Node12 -->
<g id="node12" class="node">
<title>Node12</title>
<g id="a_node12"><a xlink:href="isprefix_8h.html" target="_top" xlink:title="String prefix text function.">
<polygon fill="white" stroke="black" points="476.5,-56.5 476.5,-75.5 538.5,-75.5 538.5,-56.5 476.5,-56.5"/>
<text text-anchor="middle" x="507.5" y="-63.5" font-family="Helvetica,sans-Serif" font-size="10.00">isprefix.h</text>
</a>
</g>
</g>
<!-- Node1&#45;&gt;Node12 -->
<g id="edge12" class="edge">
<title>Node1&#45;&gt;Node12</title>
<path fill="none" stroke="midnightblue" d="M288.51,-116.08C323.83,-108.18 395.6,-92.13 466.5,-76.22"/>
<polygon fill="midnightblue" stroke="midnightblue" points="467.5,-79.59 476.49,-73.98 465.97,-72.76 467.5,-79.59"/>
</g>
<!-- Node8&#45;&gt;Node6 -->
<g id="edge8" class="edge">
<title>Node8&#45;&gt;Node6</title>
<path fill="none" stroke="midnightblue" d="M405.27,-56.44C383.12,-47.52 348.18,-33.44 323.06,-23.32"/>
<polygon fill="midnightblue" stroke="midnightblue" points="324.22,-20.01 313.63,-19.52 321.6,-26.5 324.22,-20.01"/>
</g>
<!-- Node9 -->
<g id="node9" class="node">
<title>Node9</title>
<g id="a_node9"><a xlink:title=" ">
<polygon fill="white" stroke="#bfbfbf" points="336,-0.5 336,-19.5 389,-19.5 389,-0.5 336,-0.5"/>
<text text-anchor="middle" x="362.5" y="-7.5" font-family="Helvetica,sans-Serif" font-size="10.00">stdint.h</text>
</a>
</g>
</g>
<!-- Node8&#45;&gt;Node9 -->
<g id="edge9" class="edge">
<title>Node8&#45;&gt;Node9</title>
<path fill="none" stroke="midnightblue" d="M416.22,-56.32C406.66,-48.26 392.22,-36.08 380.72,-26.37"/>
<polygon fill="midnightblue" stroke="midnightblue" points="382.87,-23.61 372.97,-19.83 378.36,-28.96 382.87,-23.61"/>
</g>
<!-- Node10 -->
<g id="node10" class="node">
<title>Node10</title>
<g id="a_node10"><a xlink:title=" ">
<polygon fill="white" stroke="#bfbfbf" points="407.5,-0.5 407.5,-19.5 455.5,-19.5 455.5,-0.5 407.5,-0.5"/>
<text text-anchor="middle" x="431.5" y="-7.5" font-family="Helvetica,sans-Serif" font-size="10.00">time.h</text>
</a>
</g>
</g>
<!-- Node8&#45;&gt;Node10 -->
<g id="edge10" class="edge">
<title>Node8&#45;&gt;Node10</title>
<path fill="none" stroke="midnightblue" d="M427.33,-56.08C427.98,-49.01 428.92,-38.86 429.74,-29.99"/>
<polygon fill="midnightblue" stroke="midnightblue" points="433.25,-30.03 430.69,-19.75 426.28,-29.39 433.25,-30.03"/>
</g>
<!-- Node11 -->
<g id="node11" class="node">
<title>Node11</title>
<g id="a_node11"><a xlink:href="librsync__export_8h_source.html" target="_top" xlink:title=" ">
<polygon fill="white" stroke="black" points="474,-0.5 474,-19.5 575,-19.5 575,-0.5 474,-0.5"/>
<text text-anchor="middle" x="524.5" y="-7.5" font-family="Helvetica,sans-Serif" font-size="10.00">librsync_export.h</text>
</a>
</g>
</g>
<!-- Node8&#45;&gt;Node11 -->
<g id="edge11" class="edge">
<title>Node8&#45;&gt;Node11</title>
<path fill="none" stroke="midnightblue" d="M442.25,-56.32C457.82,-47.74 481.88,-34.49 499.96,-24.52"/>
<polygon fill="midnightblue" stroke="midnightblue" points="501.72,-27.55 508.79,-19.65 498.35,-21.42 501.72,-27.55"/>
</g>
</g>
</svg>
