<?xml version="1.0" encoding="UTF-8" standalone="no"?>
<!DOCTYPE svg PUBLIC "-//W3C//DTD SVG 1.1//EN"
 "http://www.w3.org/Graphics/SVG/1.1/DTD/svg11.dtd">
<!-- Generated by graphviz version 2.43.0 (0)
 -->
<!-- Title: rdiff.c Pages: 1 -->
<svg width="648pt" height="140pt"
 viewBox="0.00 0.00 647.50 140.00" xmlns="http://www.w3.org/2000/svg" xmlns:xlink="http://www.w3.org/1999/xlink">
<g id="graph0" class="graph" transform="scale(1 1) rotate(0) translate(4 136)">
<title>rdiff.c</title>
<polygon fill="white" stroke="transparent" points="-4,4 -4,-136 643.5,-136 643.5,4 -4,4"/>
<!-- Node1 -->
<g id="node1" class="node">
<title>Node1</title>
<g id="a_node1"><a xlink:title="Command&#45;line network&#45;delta tool.">
<polygon fill="#bfbfbf" stroke="black" points="259,-112.5 259,-131.5 303,-131.5 303,-112.5 259,-112.5"/>
<text text-anchor="middle" x="281" y="-119.5" font-family="Helvetica,sans-Serif" font-size="10.00">rdiff.c</text>
</a>
</g>
</g>
<!-- Node2 -->
<g id="node2" class="node">
<title>Node2</title>
<g id="a_node2"><a xlink:href="config_8h_source.html" target="_top" xlink:title=" ">
<polygon fill="white" stroke="black" points="0,-56.5 0,-75.5 56,-75.5 56,-56.5 0,-56.5"/>
<text text-anchor="middle" x="28" y="-63.5" font-family="Helvetica,sans-Serif" font-size="10.00">config.h</text>
</a>
</g>
</g>
<!-- Node1&#45;&gt;Node2 -->
<g id="edge1" class="edge">
<title>Node1&#45;&gt;Node2</title>
<path fill="none" stroke="midnightblue" d="M258.87,-116.64C221.3,-109.19 142.44,-93.31 66.04,-76.18"/>
<polygon fill="midnightblue" stroke="midnightblue" points="66.78,-72.76 56.26,-73.98 65.25,-79.59 66.78,-72.76"/>
</g>
<!-- Node3 -->
<g id="node3" class="node">
<title>Node3</title>
<g id="a_node3"><a xlink:title=" ">
<polygon fill="white" stroke="#bfbfbf" points="74.5,-56.5 74.5,-75.5 127.5,-75.5 127.5,-56.5 74.5,-56.5"/>
<text text-anchor="middle" x="101" y="-63.5" font-family="Helvetica,sans-Serif" font-size="10.00">stdlib.h</text>
</a>
</g>
</g>
<!-- Node1&#45;&gt;Node3 -->
<g id="edge2" class="edge">
<title>Node1&#45;&gt;Node3</title>
<path fill="none" stroke="midnightblue" d="M258.93,-114.38C228.64,-105.29 173.8,-88.84 137.39,-77.92"/>
<polygon fill="midnightblue" stroke="midnightblue" points="138.23,-74.51 127.64,-74.99 136.22,-81.22 138.23,-74.51"/>
</g>
<!-- Node4 -->
<g id="node4" class="node">
<title>Node4</title>
<g id="a_node4"><a xlink:title=" ">
<polygon fill="white" stroke="#bfbfbf" points="146,-56.5 146,-75.5 202,-75.5 202,-56.5 146,-56.5"/>
<text text-anchor="middle" x="174" y="-63.5" font-family="Helvetica,sans-Serif" font-size="10.00">stdarg.h</text>
</a>
</g>
</g>
<!-- Node1&#45;&gt;Node4 -->
<g id="edge3" class="edge">
<title>Node1&#45;&gt;Node4</title>
<path fill="none" stroke="midnightblue" d="M263.81,-112.32C246.65,-103.66 220.05,-90.24 200.25,-80.25"/>
<polygon fill="midnightblue" stroke="midnightblue" points="201.65,-77.04 191.15,-75.65 198.5,-83.28 201.65,-77.04"/>
</g>
<!-- Node5 -->
<g id="node5" class="node">
<title>Node5</title>
<g id="a_node5"><a xlink:title=" ">
<polygon fill="white" stroke="#bfbfbf" points="220.5,-56.5 220.5,-75.5 273.5,-75.5 273.5,-56.5 220.5,-56.5"/>
<text text-anchor="middle" x="247" y="-63.5" font-family="Helvetica,sans-Serif" font-size="10.00">string.h</text>
</a>
</g>
</g>
<!-- Node1&#45;&gt;Node5 -->
<g id="edge4" class="edge">
<title>Node1&#45;&gt;Node5</title>
<path fill="none" stroke="midnightblue" d="M275.39,-112.08C270.63,-104.53 263.68,-93.49 257.85,-84.23"/>
<polygon fill="midnightblue" stroke="midnightblue" points="260.8,-82.35 252.51,-75.75 254.88,-86.08 260.8,-82.35"/>
</g>
<!-- Node6 -->
<g id="node6" class="node">
<title>Node6</title>
<g id="a_node6"><a xlink:title=" ">
<polygon fill="white" stroke="#bfbfbf" points="291.5,-56.5 291.5,-75.5 338.5,-75.5 338.5,-56.5 291.5,-56.5"/>
<text text-anchor="middle" x="315" y="-63.5" font-family="Helvetica,sans-Serif" font-size="10.00">popt.h</text>
</a>
</g>
</g>
<!-- Node1&#45;&gt;Node6 -->
<g id="edge5" class="edge">
<title>Node1&#45;&gt;Node6</title>
<path fill="none" stroke="midnightblue" d="M286.61,-112.08C291.37,-104.53 298.32,-93.49 304.15,-84.23"/>
<polygon fill="midnightblue" stroke="midnightblue" points="307.12,-86.08 309.49,-75.75 301.2,-82.35 307.12,-86.08"/>
</g>
<!-- Node7 -->
<g id="node7" class="node">
<title>Node7</title>
<g id="a_node7"><a xlink:title=" ">
<polygon fill="white" stroke="#bfbfbf" points="332,-0.5 332,-19.5 382,-19.5 382,-0.5 332,-0.5"/>
<text text-anchor="middle" x="357" y="-7.5" font-family="Helvetica,sans-Serif" font-size="10.00">stdio.h</text>
</a>
</g>
</g>
<!-- Node1&#45;&gt;Node7 -->
<g id="edge6" class="edge">
<title>Node1&#45;&gt;Node7</title>
<path fill="none" stroke="midnightblue" d="M302.43,-112.37C317.72,-105.04 337.38,-92.99 348,-76 356.58,-62.26 358.41,-43.73 358.33,-29.97"/>
<polygon fill="midnightblue" stroke="midnightblue" points="361.82,-29.6 357.93,-19.75 354.83,-29.88 361.82,-29.6"/>
</g>
<!-- Node8 -->
<g id="node8" class="node">
<title>Node8</title>
<g id="a_node8"><a xlink:href="librsync_8h.html" target="_top" xlink:title="Public header for librsync.">
<polygon fill="white" stroke="black" points="395,-56.5 395,-75.5 459,-75.5 459,-56.5 395,-56.5"/>
<text text-anchor="middle" x="427" y="-63.5" font-family="Helvetica,sans-Serif" font-size="10.00">librsync.h</text>
</a>
</g>
</g>
<!-- Node1&#45;&gt;Node8 -->
<g id="edge7" class="edge">
<title>Node1&#45;&gt;Node8</title>
<path fill="none" stroke="midnightblue" d="M303.17,-112.8C327.33,-103.86 366.23,-89.48 393.98,-79.21"/>
<polygon fill="midnightblue" stroke="midnightblue" points="395.48,-82.39 403.65,-75.64 393.06,-75.82 395.48,-82.39"/>
</g>
<!-- Node12 -->
<g id="node12" class="node">
<title>Node12</title>
<g id="a_node12"><a xlink:href="isprefix_8h.html" target="_top" xlink:title="String prefix text function.">
<polygon fill="white" stroke="black" points="477,-56.5 477,-75.5 539,-75.5 539,-56.5 477,-56.5"/>
<text text-anchor="middle" x="508" y="-63.5" font-family="Helvetica,sans-Serif" font-size="10.00">isprefix.h</text>
</a>
</g>
</g>
<!-- Node1&#45;&gt;Node12 -->
<g id="edge12" class="edge">
<title>Node1&#45;&gt;Node12</title>
<path fill="none" stroke="midnightblue" d="M303.18,-115.72C341.09,-106.71 418.91,-88.19 466.95,-76.76"/>
<polygon fill="midnightblue" stroke="midnightblue" points="467.81,-80.16 476.73,-74.44 466.19,-73.35 467.81,-80.16"/>
</g>
<!-- Node8&#45;&gt;Node7 -->
<g id="edge8" class="edge">
<title>Node8&#45;&gt;Node7</title>
<path fill="none" stroke="midnightblue" d="M415.75,-56.32C405.2,-48.18 389.2,-35.84 376.56,-26.09"/>
<polygon fill="midnightblue" stroke="midnightblue" points="378.51,-23.17 368.45,-19.83 374.23,-28.71 378.51,-23.17"/>
</g>
<!-- Node9 -->
<g id="node9" class="node">
<title>Node9</title>
<g id="a_node9"><a xlink:title=" ">
<polygon fill="white" stroke="#bfbfbf" points="400.5,-0.5 400.5,-19.5 453.5,-19.5 453.5,-0.5 400.5,-0.5"/>
<text text-anchor="middle" x="427" y="-7.5" font-family="Helvetica,sans-Serif" font-size="10.00">stdint.h</text>
</a>
</g>
</g>
<!-- Node8&#45;&gt;Node9 -->
<g id="edge9" class="edge">
<title>Node8&#45;&gt;Node9</title>
<path fill="none" stroke="midnightblue" d="M427,-56.08C427,-49.01 427,-38.86 427,-29.99"/>
<polygon fill="midnightblue" stroke="midnightblue" points="430.5,-29.75 427,-19.75 423.5,-29.75 430.5,-29.75"/>
</g>
<!-- Node10 -->
<g id="node10" class="node">
<title>Node10</title>
<g id="a_node10"><a xlink:title=" ">
<polygon fill="white" stroke="#bfbfbf" points="472,-0.5 472,-19.5 520,-19.5 520,-0.5 472,-0.5"/>
<text text-anchor="middle" x="496" y="-7.5" font-family="Helvetica,sans-Serif" font-size="10.00">time.h</text>
</a>
</g>
</g>
<!-- Node8&#45;&gt;Node10 -->
<g id="edge10" class="edge">
<title>Node8&#45;&gt;Node10</title>
<path fill="none" stroke="midnightblue" d="M438.09,-56.32C448.49,-48.18 464.26,-35.84 476.72,-26.09"/>
<polygon fill="midnightblue" stroke="midnightblue" points="478.99,-28.75 484.71,-19.83 474.68,-23.24 478.99,-28.75"/>
</g>
<!-- Node11 -->
<g id="node11" class="node">
<title>Node11</title>
<g id="a_node11"><a xlink:href="librsync__export_8h_source.html" target="_top" xlink:title=" ">
<polygon fill="white" stroke="black" points="538.5,-0.5 538.5,-19.5 639.5,-19.5 639.5,-0.5 538.5,-0.5"/>
<text text-anchor="middle" x="589" y="-7.5" font-family="Helvetica,sans-Serif" font-size="10.00">librsync_export.h</text>
</a>
</g>
</g>
<!-- Node8&#45;&gt;Node11 -->
<g id="edge11" class="edge">
<title>Node8&#45;&gt;Node11</title>
<path fill="none" stroke="midnightblue" d="M452.67,-56.44C479.92,-47.36 523.18,-32.94 553.65,-22.78"/>
<polygon fill="midnightblue" stroke="midnightblue" points="555.07,-26 563.45,-19.52 552.86,-19.36 555.07,-26"/>
</g>
</g>
</svg>
