<?xml version="1.0" encoding="UTF-8" standalone="no"?>
<!DOCTYPE svg PUBLIC "-//W3C//DTD SVG 1.1//EN"
 "http://www.w3.org/Graphics/SVG/1.1/DTD/svg11.dtd">
<!-- Generated by graphviz version 2.43.0 (0)
 -->
<!-- Title: readsums.c Pages: 1 -->
<svg width="963pt" height="308pt"
 viewBox="0.00 0.00 963.00 308.00" xmlns="http://www.w3.org/2000/svg" xmlns:xlink="http://www.w3.org/1999/xlink">
<g id="graph0" class="graph" transform="scale(1 1) rotate(0) translate(4 304)">
<title>readsums.c</title>
<polygon fill="white" stroke="transparent" points="-4,4 -4,-304 959,-304 959,4 -4,4"/>
<!-- Node1 -->
<g id="node1" class="node">
<title>Node1</title>
<g id="a_node1"><a xlink:title="Load signatures from a file.">
<polygon fill="#bfbfbf" stroke="black" points="288.5,-280.5 288.5,-299.5 361.5,-299.5 361.5,-280.5 288.5,-280.5"/>
<text text-anchor="middle" x="325" y="-287.5" font-family="Helvetica,sans-Serif" font-size="10.00">readsums.c</text>
</a>
</g>
</g>
<!-- Node2 -->
<g id="node2" class="node">
<title>Node2</title>
<g id="a_node2"><a xlink:href="librsync_8h.html" target="_top" xlink:title="Public header for librsync.">
<polygon fill="white" stroke="black" points="91,-56.5 91,-75.5 155,-75.5 155,-56.5 91,-56.5"/>
<text text-anchor="middle" x="123" y="-63.5" font-family="Helvetica,sans-Serif" font-size="10.00">librsync.h</text>
</a>
</g>
</g>
<!-- Node1&#45;&gt;Node2 -->
<g id="edge1" class="edge">
<title>Node1&#45;&gt;Node2</title>
<path fill="none" stroke="midnightblue" d="M288.32,-287.8C226.59,-284.91 106.09,-275.32 80,-244 40.41,-196.47 86.43,-118.24 110.34,-83.97"/>
<polygon fill="midnightblue" stroke="midnightblue" points="113.41,-85.69 116.41,-75.53 107.73,-81.6 113.41,-85.69"/>
</g>
<!-- Node7 -->
<g id="node7" class="node">
<title>Node7</title>
<g id="a_node7"><a xlink:href="job_8h.html" target="_top" xlink:title="Generic state&#45;machine interface.">
<polygon fill="white" stroke="black" points="332.5,-168.5 332.5,-187.5 373.5,-187.5 373.5,-168.5 332.5,-168.5"/>
<text text-anchor="middle" x="353" y="-175.5" font-family="Helvetica,sans-Serif" font-size="10.00">job.h</text>
</a>
</g>
</g>
<!-- Node1&#45;&gt;Node7 -->
<g id="edge6" class="edge">
<title>Node1&#45;&gt;Node7</title>
<path fill="none" stroke="midnightblue" d="M327.2,-280.37C331.72,-262.62 342.14,-221.67 348.27,-197.6"/>
<polygon fill="midnightblue" stroke="midnightblue" points="351.74,-198.15 350.81,-187.59 344.95,-196.42 351.74,-198.15"/>
</g>
<!-- Node16 -->
<g id="node16" class="node">
<title>Node16</title>
<g id="a_node16"><a xlink:href="sumset_8h.html" target="_top" xlink:title="The rs_signature class implementation of a file signature.">
<polygon fill="white" stroke="black" points="589,-168.5 589,-187.5 651,-187.5 651,-168.5 589,-168.5"/>
<text text-anchor="middle" x="620" y="-175.5" font-family="Helvetica,sans-Serif" font-size="10.00">sumset.h</text>
</a>
</g>
</g>
<!-- Node1&#45;&gt;Node16 -->
<g id="edge26" class="edge">
<title>Node1&#45;&gt;Node16</title>
<path fill="none" stroke="midnightblue" d="M348.15,-280.37C400.39,-260.89 527.53,-213.48 587.58,-191.09"/>
<polygon fill="midnightblue" stroke="midnightblue" points="588.81,-194.36 596.96,-187.59 586.37,-187.81 588.81,-194.36"/>
</g>
<!-- Node17 -->
<g id="node17" class="node">
<title>Node17</title>
<g id="a_node17"><a xlink:href="scoop_8h.html" target="_top" xlink:title="Manage librsync streams of IO.">
<polygon fill="white" stroke="black" points="353,-224.5 353,-243.5 407,-243.5 407,-224.5 353,-224.5"/>
<text text-anchor="middle" x="380" y="-231.5" font-family="Helvetica,sans-Serif" font-size="10.00">scoop.h</text>
</a>
</g>
</g>
<!-- Node1&#45;&gt;Node17 -->
<g id="edge32" class="edge">
<title>Node1&#45;&gt;Node17</title>
<path fill="none" stroke="midnightblue" d="M334.08,-280.08C342.17,-272.14 354.2,-260.34 363.91,-250.8"/>
<polygon fill="midnightblue" stroke="midnightblue" points="366.4,-253.25 371.09,-243.75 361.5,-248.26 366.4,-253.25"/>
</g>
<!-- Node18 -->
<g id="node18" class="node">
<title>Node18</title>
<g id="a_node18"><a xlink:href="netint_8h.html" target="_top" xlink:title="Network&#45;byte&#45;order output to the tube.">
<polygon fill="white" stroke="black" points="89,-224.5 89,-243.5 143,-243.5 143,-224.5 89,-224.5"/>
<text text-anchor="middle" x="116" y="-231.5" font-family="Helvetica,sans-Serif" font-size="10.00">netint.h</text>
</a>
</g>
</g>
<!-- Node1&#45;&gt;Node18 -->
<g id="edge37" class="edge">
<title>Node1&#45;&gt;Node18</title>
<path fill="none" stroke="midnightblue" d="M291.88,-280.44C254.08,-270.68 192.41,-254.74 153.04,-244.57"/>
<polygon fill="midnightblue" stroke="midnightblue" points="153.86,-241.17 143.3,-242.05 152.11,-247.94 153.86,-241.17"/>
</g>
<!-- Node19 -->
<g id="node19" class="node">
<title>Node19</title>
<g id="a_node19"><a xlink:href="trace_8h.html" target="_top" xlink:title="logging functions.">
<polygon fill="white" stroke="black" points="823,-224.5 823,-243.5 873,-243.5 873,-224.5 823,-224.5"/>
<text text-anchor="middle" x="848" y="-231.5" font-family="Helvetica,sans-Serif" font-size="10.00">trace.h</text>
</a>
</g>
</g>
<!-- Node1&#45;&gt;Node19 -->
<g id="edge39" class="edge">
<title>Node1&#45;&gt;Node19</title>
<path fill="none" stroke="midnightblue" d="M361.78,-285.2C458.27,-275.24 717.79,-248.44 812.65,-238.65"/>
<polygon fill="midnightblue" stroke="midnightblue" points="813.28,-242.1 822.87,-237.6 812.56,-235.14 813.28,-242.1"/>
</g>
<!-- Node22 -->
<g id="node22" class="node">
<title>Node22</title>
<g id="a_node22"><a xlink:href="util_8h.html" target="_top" xlink:title="Misc utility functions used by librsync.">
<polygon fill="white" stroke="black" points="165.5,-112.5 165.5,-131.5 206.5,-131.5 206.5,-112.5 165.5,-112.5"/>
<text text-anchor="middle" x="186" y="-119.5" font-family="Helvetica,sans-Serif" font-size="10.00">util.h</text>
</a>
</g>
</g>
<!-- Node1&#45;&gt;Node22 -->
<g id="edge42" class="edge">
<title>Node1&#45;&gt;Node22</title>
<path fill="none" stroke="midnightblue" d="M317.53,-280.08C295.17,-253.38 228.59,-173.87 199.67,-139.32"/>
<polygon fill="midnightblue" stroke="midnightblue" points="202.28,-136.99 193.17,-131.57 196.91,-141.48 202.28,-136.99"/>
</g>
<!-- Node3 -->
<g id="node3" class="node">
<title>Node3</title>
<g id="a_node3"><a xlink:title=" ">
<polygon fill="white" stroke="#bfbfbf" points="0,-0.5 0,-19.5 50,-19.5 50,-0.5 0,-0.5"/>
<text text-anchor="middle" x="25" y="-7.5" font-family="Helvetica,sans-Serif" font-size="10.00">stdio.h</text>
</a>
</g>
</g>
<!-- Node2&#45;&gt;Node3 -->
<g id="edge2" class="edge">
<title>Node2&#45;&gt;Node3</title>
<path fill="none" stroke="midnightblue" d="M107.25,-56.32C91.68,-47.74 67.62,-34.49 49.54,-24.52"/>
<polygon fill="midnightblue" stroke="midnightblue" points="51.15,-21.42 40.71,-19.65 47.78,-27.55 51.15,-21.42"/>
</g>
<!-- Node4 -->
<g id="node4" class="node">
<title>Node4</title>
<g id="a_node4"><a xlink:title=" ">
<polygon fill="white" stroke="#bfbfbf" points="253.5,-0.5 253.5,-19.5 306.5,-19.5 306.5,-0.5 253.5,-0.5"/>
<text text-anchor="middle" x="280" y="-7.5" font-family="Helvetica,sans-Serif" font-size="10.00">stdint.h</text>
</a>
</g>
</g>
<!-- Node2&#45;&gt;Node4 -->
<g id="edge3" class="edge">
<title>Node2&#45;&gt;Node4</title>
<path fill="none" stroke="midnightblue" d="M147.88,-56.44C174.29,-47.36 216.22,-32.94 245.74,-22.78"/>
<polygon fill="midnightblue" stroke="midnightblue" points="246.92,-26.08 255.24,-19.52 244.64,-19.46 246.92,-26.08"/>
</g>
<!-- Node5 -->
<g id="node5" class="node">
<title>Node5</title>
<g id="a_node5"><a xlink:title=" ">
<polygon fill="white" stroke="#bfbfbf" points="68,-0.5 68,-19.5 116,-19.5 116,-0.5 68,-0.5"/>
<text text-anchor="middle" x="92" y="-7.5" font-family="Helvetica,sans-Serif" font-size="10.00">time.h</text>
</a>
</g>
</g>
<!-- Node2&#45;&gt;Node5 -->
<g id="edge4" class="edge">
<title>Node2&#45;&gt;Node5</title>
<path fill="none" stroke="midnightblue" d="M117.88,-56.08C113.59,-48.61 107.34,-37.72 102.06,-28.52"/>
<polygon fill="midnightblue" stroke="midnightblue" points="105.04,-26.68 97.02,-19.75 98.97,-30.17 105.04,-26.68"/>
</g>
<!-- Node6 -->
<g id="node6" class="node">
<title>Node6</title>
<g id="a_node6"><a xlink:href="librsync__export_8h_source.html" target="_top" xlink:title=" ">
<polygon fill="white" stroke="black" points="134.5,-0.5 134.5,-19.5 235.5,-19.5 235.5,-0.5 134.5,-0.5"/>
<text text-anchor="middle" x="185" y="-7.5" font-family="Helvetica,sans-Serif" font-size="10.00">librsync_export.h</text>
</a>
</g>
</g>
<!-- Node2&#45;&gt;Node6 -->
<g id="edge5" class="edge">
<title>Node2&#45;&gt;Node6</title>
<path fill="none" stroke="midnightblue" d="M132.96,-56.32C142.13,-48.34 155.94,-36.31 167.03,-26.65"/>
<polygon fill="midnightblue" stroke="midnightblue" points="169.62,-29.04 174.86,-19.83 165.02,-23.76 169.62,-29.04"/>
</g>
<!-- Node7&#45;&gt;Node2 -->
<g id="edge25" class="edge">
<title>Node7&#45;&gt;Node2</title>
<path fill="none" stroke="midnightblue" d="M333.52,-168.47C313.47,-159.62 281.37,-145.23 254,-132 236.46,-123.52 232.42,-120.72 215,-112 193.17,-101.06 168.29,-88.91 149.91,-80"/>
<polygon fill="midnightblue" stroke="midnightblue" points="151.21,-76.74 140.69,-75.53 148.16,-83.04 151.21,-76.74"/>
</g>
<!-- Node8 -->
<g id="node8" class="node">
<title>Node8</title>
<g id="a_node8"><a xlink:title=" ">
<polygon fill="white" stroke="#bfbfbf" points="634,-0.5 634,-19.5 690,-19.5 690,-0.5 634,-0.5"/>
<text text-anchor="middle" x="662" y="-7.5" font-family="Helvetica,sans-Serif" font-size="10.00">assert.h</text>
</a>
</g>
</g>
<!-- Node7&#45;&gt;Node8 -->
<g id="edge7" class="edge">
<title>Node7&#45;&gt;Node8</title>
<path fill="none" stroke="midnightblue" d="M373.73,-174.06C441.24,-164.03 652.63,-128.8 692,-76 703.3,-60.84 690.57,-40.74 678.39,-26.93"/>
<polygon fill="midnightblue" stroke="midnightblue" points="680.88,-24.47 671.46,-19.61 675.79,-29.28 680.88,-24.47"/>
</g>
<!-- Node9 -->
<g id="node9" class="node">
<title>Node9</title>
<g id="a_node9"><a xlink:title=" ">
<polygon fill="white" stroke="#bfbfbf" points="420,-0.5 420,-19.5 476,-19.5 476,-0.5 420,-0.5"/>
<text text-anchor="middle" x="448" y="-7.5" font-family="Helvetica,sans-Serif" font-size="10.00">stddef.h</text>
</a>
</g>
</g>
<!-- Node7&#45;&gt;Node9 -->
<g id="edge8" class="edge">
<title>Node7&#45;&gt;Node9</title>
<path fill="none" stroke="midnightblue" d="M358.11,-168.08C373.19,-141.72 417.74,-63.88 437.89,-28.66"/>
<polygon fill="midnightblue" stroke="midnightblue" points="441.17,-29.99 443.1,-19.57 435.09,-26.51 441.17,-29.99"/>
</g>
<!-- Node10 -->
<g id="node10" class="node">
<title>Node10</title>
<g id="a_node10"><a xlink:href="mdfour_8h.html" target="_top" xlink:title="MD4 message digest algorithm.">
<polygon fill="white" stroke="black" points="263.5,-112.5 263.5,-131.5 324.5,-131.5 324.5,-112.5 263.5,-112.5"/>
<text text-anchor="middle" x="294" y="-119.5" font-family="Helvetica,sans-Serif" font-size="10.00">mdfour.h</text>
</a>
</g>
</g>
<!-- Node7&#45;&gt;Node10 -->
<g id="edge9" class="edge">
<title>Node7&#45;&gt;Node10</title>
<path fill="none" stroke="midnightblue" d="M343.52,-168.32C334.8,-160.34 321.66,-148.31 311.1,-138.65"/>
<polygon fill="midnightblue" stroke="midnightblue" points="313.39,-136 303.65,-131.83 308.67,-141.17 313.39,-136"/>
</g>
<!-- Node11 -->
<g id="node11" class="node">
<title>Node11</title>
<g id="a_node11"><a xlink:href="checksum_8h.html" target="_top" xlink:title="Abstract wrappers around different weaksum and strongsum implementations.">
<polygon fill="white" stroke="black" points="419.5,-112.5 419.5,-131.5 494.5,-131.5 494.5,-112.5 419.5,-112.5"/>
<text text-anchor="middle" x="457" y="-119.5" font-family="Helvetica,sans-Serif" font-size="10.00">checksum.h</text>
</a>
</g>
</g>
<!-- Node7&#45;&gt;Node11 -->
<g id="edge11" class="edge">
<title>Node7&#45;&gt;Node11</title>
<path fill="none" stroke="midnightblue" d="M369.71,-168.32C386.31,-159.7 412,-146.36 431.22,-136.39"/>
<polygon fill="midnightblue" stroke="midnightblue" points="433.07,-139.37 440.33,-131.65 429.84,-133.16 433.07,-139.37"/>
</g>
<!-- Node10&#45;&gt;Node4 -->
<g id="edge10" class="edge">
<title>Node10&#45;&gt;Node4</title>
<path fill="none" stroke="midnightblue" d="M277.37,-112.46C264.51,-104.84 247.66,-92.36 240,-76 231.68,-58.25 246.34,-39.3 260.2,-26.47"/>
<polygon fill="midnightblue" stroke="midnightblue" points="262.79,-28.86 268.08,-19.68 258.22,-23.56 262.79,-28.86"/>
</g>
<!-- Node11&#45;&gt;Node2 -->
<g id="edge14" class="edge">
<title>Node11&#45;&gt;Node2</title>
<path fill="none" stroke="midnightblue" d="M419.24,-114.4C414.45,-113.58 409.61,-112.77 405,-112 320,-97.86 220.44,-82.18 165.26,-73.57"/>
<polygon fill="midnightblue" stroke="midnightblue" points="165.58,-70.07 155.16,-71.99 164.51,-76.99 165.58,-70.07"/>
</g>
<!-- Node11&#45;&gt;Node8 -->
<g id="edge12" class="edge">
<title>Node11&#45;&gt;Node8</title>
<path fill="none" stroke="midnightblue" d="M473.09,-112.37C508.71,-93.25 594.48,-47.23 637.1,-24.36"/>
<polygon fill="midnightblue" stroke="midnightblue" points="638.83,-27.4 645.99,-19.59 635.52,-21.24 638.83,-27.4"/>
</g>
<!-- Node11&#45;&gt;Node9 -->
<g id="edge13" class="edge">
<title>Node11&#45;&gt;Node9</title>
<path fill="none" stroke="midnightblue" d="M456.29,-112.37C454.84,-94.62 451.49,-53.67 449.52,-29.6"/>
<polygon fill="midnightblue" stroke="midnightblue" points="453.01,-29.27 448.7,-19.59 446.03,-29.84 453.01,-29.27"/>
</g>
<!-- Node12 -->
<g id="node12" class="node">
<title>Node12</title>
<g id="a_node12"><a xlink:href="rollsum_8h.html" target="_top" xlink:title="The Rollsum class implementation of the original rsync rollsum.">
<polygon fill="white" stroke="black" points="249,-56.5 249,-75.5 311,-75.5 311,-56.5 249,-56.5"/>
<text text-anchor="middle" x="280" y="-63.5" font-family="Helvetica,sans-Serif" font-size="10.00">rollsum.h</text>
</a>
</g>
</g>
<!-- Node11&#45;&gt;Node12 -->
<g id="edge15" class="edge">
<title>Node11&#45;&gt;Node12</title>
<path fill="none" stroke="midnightblue" d="M428.95,-112.44C398.92,-103.28 351.09,-88.69 317.76,-78.52"/>
<polygon fill="midnightblue" stroke="midnightblue" points="318.5,-75.09 307.91,-75.52 316.46,-81.78 318.5,-75.09"/>
</g>
<!-- Node13 -->
<g id="node13" class="node">
<title>Node13</title>
<g id="a_node13"><a xlink:href="rabinkarp_8h.html" target="_top" xlink:title="The rabinkarp class implementation of the RabinKarp rollsum.">
<polygon fill="white" stroke="black" points="329,-56.5 329,-75.5 401,-75.5 401,-56.5 329,-56.5"/>
<text text-anchor="middle" x="365" y="-63.5" font-family="Helvetica,sans-Serif" font-size="10.00">rabinkarp.h</text>
</a>
</g>
</g>
<!-- Node11&#45;&gt;Node13 -->
<g id="edge18" class="edge">
<title>Node11&#45;&gt;Node13</title>
<path fill="none" stroke="midnightblue" d="M442.22,-112.32C427.73,-103.82 405.43,-90.73 388.51,-80.8"/>
<polygon fill="midnightblue" stroke="midnightblue" points="390.14,-77.7 379.74,-75.65 386.6,-83.74 390.14,-77.7"/>
</g>
<!-- Node14 -->
<g id="node14" class="node">
<title>Node14</title>
<g id="a_node14"><a xlink:href="hashtable_8h.html" target="_top" xlink:title="A generic open addressing hashtable.">
<polygon fill="white" stroke="black" points="609,-56.5 609,-75.5 683,-75.5 683,-56.5 609,-56.5"/>
<text text-anchor="middle" x="646" y="-63.5" font-family="Helvetica,sans-Serif" font-size="10.00">hashtable.h</text>
</a>
</g>
</g>
<!-- Node11&#45;&gt;Node14 -->
<g id="edge21" class="edge">
<title>Node11&#45;&gt;Node14</title>
<path fill="none" stroke="midnightblue" d="M486.95,-112.44C519.16,-103.24 570.53,-88.56 606.14,-78.39"/>
<polygon fill="midnightblue" stroke="midnightblue" points="607.54,-81.63 616.19,-75.52 605.62,-74.9 607.54,-81.63"/>
</g>
<!-- Node12&#45;&gt;Node4 -->
<g id="edge17" class="edge">
<title>Node12&#45;&gt;Node4</title>
<path fill="none" stroke="midnightblue" d="M280,-56.08C280,-49.01 280,-38.86 280,-29.99"/>
<polygon fill="midnightblue" stroke="midnightblue" points="283.5,-29.75 280,-19.75 276.5,-29.75 283.5,-29.75"/>
</g>
<!-- Node12&#45;&gt;Node9 -->
<g id="edge16" class="edge">
<title>Node12&#45;&gt;Node9</title>
<path fill="none" stroke="midnightblue" d="M306.62,-56.44C335.01,-47.32 380.14,-32.81 411.75,-22.65"/>
<polygon fill="midnightblue" stroke="midnightblue" points="413.06,-25.91 421.5,-19.52 410.91,-19.24 413.06,-25.91"/>
</g>
<!-- Node13&#45;&gt;Node4 -->
<g id="edge20" class="edge">
<title>Node13&#45;&gt;Node4</title>
<path fill="none" stroke="midnightblue" d="M351.34,-56.32C338.08,-47.9 317.73,-34.97 302.15,-25.07"/>
<polygon fill="midnightblue" stroke="midnightblue" points="303.94,-22.06 293.62,-19.65 300.19,-27.97 303.94,-22.06"/>
</g>
<!-- Node13&#45;&gt;Node9 -->
<g id="edge19" class="edge">
<title>Node13&#45;&gt;Node9</title>
<path fill="none" stroke="midnightblue" d="M378.34,-56.32C391.16,-47.98 410.78,-35.21 425.94,-25.35"/>
<polygon fill="midnightblue" stroke="midnightblue" points="428.22,-28.04 434.7,-19.65 424.41,-22.17 428.22,-28.04"/>
</g>
<!-- Node14&#45;&gt;Node8 -->
<g id="edge23" class="edge">
<title>Node14&#45;&gt;Node8</title>
<path fill="none" stroke="midnightblue" d="M648.64,-56.08C650.79,-48.85 653.88,-38.41 656.55,-29.4"/>
<polygon fill="midnightblue" stroke="midnightblue" points="659.92,-30.33 659.41,-19.75 653.21,-28.34 659.92,-30.33"/>
</g>
<!-- Node14&#45;&gt;Node9 -->
<g id="edge24" class="edge">
<title>Node14&#45;&gt;Node9</title>
<path fill="none" stroke="midnightblue" d="M614.63,-56.44C579.74,-46.93 523.39,-31.56 486.03,-21.37"/>
<polygon fill="midnightblue" stroke="midnightblue" points="486.59,-17.9 476.03,-18.64 484.75,-24.65 486.59,-17.9"/>
</g>
<!-- Node15 -->
<g id="node15" class="node">
<title>Node15</title>
<g id="a_node15"><a xlink:title=" ">
<polygon fill="white" stroke="#bfbfbf" points="740,-0.5 740,-19.5 802,-19.5 802,-0.5 740,-0.5"/>
<text text-anchor="middle" x="771" y="-7.5" font-family="Helvetica,sans-Serif" font-size="10.00">stdbool.h</text>
</a>
</g>
</g>
<!-- Node14&#45;&gt;Node15 -->
<g id="edge22" class="edge">
<title>Node14&#45;&gt;Node15</title>
<path fill="none" stroke="midnightblue" d="M665.81,-56.44C686.29,-47.6 718.48,-33.69 741.86,-23.59"/>
<polygon fill="midnightblue" stroke="midnightblue" points="743.49,-26.7 751.29,-19.52 740.72,-20.27 743.49,-26.7"/>
</g>
<!-- Node16&#45;&gt;Node2 -->
<g id="edge31" class="edge">
<title>Node16&#45;&gt;Node2</title>
<path fill="none" stroke="midnightblue" d="M588.95,-170.78C547.88,-162.46 473.31,-147 410,-132 375.59,-123.85 367.41,-120.15 333,-112 275.01,-98.26 207.58,-84.14 165.1,-75.47"/>
<polygon fill="midnightblue" stroke="midnightblue" points="165.61,-72 155.12,-73.43 164.22,-78.86 165.61,-72"/>
</g>
<!-- Node16&#45;&gt;Node8 -->
<g id="edge27" class="edge">
<title>Node16&#45;&gt;Node8</title>
<path fill="none" stroke="midnightblue" d="M634.73,-168.43C658.99,-153.35 706.48,-119.52 725,-76 728.48,-67.82 729.07,-63.9 725,-56 717.92,-42.25 704.48,-31.77 691.82,-24.39"/>
<polygon fill="midnightblue" stroke="midnightblue" points="693.31,-21.22 682.85,-19.57 690,-27.39 693.31,-21.22"/>
</g>
<!-- Node16&#45;&gt;Node9 -->
<g id="edge28" class="edge">
<title>Node16&#45;&gt;Node9</title>
<path fill="none" stroke="midnightblue" d="M617.76,-168.41C611.67,-146.65 592.82,-88.78 557,-56 537.13,-37.82 508.91,-26.44 486.16,-19.68"/>
<polygon fill="midnightblue" stroke="midnightblue" points="487.03,-16.29 476.46,-16.97 485.15,-23.03 487.03,-16.29"/>
</g>
<!-- Node16&#45;&gt;Node11 -->
<g id="edge30" class="edge">
<title>Node16&#45;&gt;Node11</title>
<path fill="none" stroke="midnightblue" d="M594.17,-168.44C566.75,-159.36 523.22,-144.94 492.57,-134.78"/>
<polygon fill="midnightblue" stroke="midnightblue" points="493.3,-131.34 482.71,-131.52 491.1,-137.98 493.3,-131.34"/>
</g>
<!-- Node16&#45;&gt;Node14 -->
<g id="edge29" class="edge">
<title>Node16&#45;&gt;Node14</title>
<path fill="none" stroke="midnightblue" d="M622.04,-168.37C626.24,-150.62 635.92,-109.67 641.6,-85.6"/>
<polygon fill="midnightblue" stroke="midnightblue" points="645.08,-86.13 643.97,-75.59 638.26,-84.52 645.08,-86.13"/>
</g>
<!-- Node17&#45;&gt;Node2 -->
<g id="edge36" class="edge">
<title>Node17&#45;&gt;Node2</title>
<path fill="none" stroke="midnightblue" d="M352.89,-227.04C307.12,-215.74 213.85,-187.24 156,-132 142.58,-119.19 133.71,-99.73 128.57,-85.44"/>
<polygon fill="midnightblue" stroke="midnightblue" points="131.82,-84.12 125.37,-75.72 125.18,-86.31 131.82,-84.12"/>
</g>
<!-- Node17&#45;&gt;Node7 -->
<g id="edge35" class="edge">
<title>Node17&#45;&gt;Node7</title>
<path fill="none" stroke="midnightblue" d="M375.54,-224.08C371.85,-216.69 366.48,-205.95 361.91,-196.81"/>
<polygon fill="midnightblue" stroke="midnightblue" points="364.98,-195.13 357.38,-187.75 358.72,-198.26 364.98,-195.13"/>
</g>
<!-- Node17&#45;&gt;Node9 -->
<g id="edge34" class="edge">
<title>Node17&#45;&gt;Node9</title>
<path fill="none" stroke="midnightblue" d="M398.56,-224.43C427.23,-210.03 481.27,-177.96 503,-132 520.73,-94.49 486.43,-49.98 464.43,-26.81"/>
<polygon fill="midnightblue" stroke="midnightblue" points="466.78,-24.21 457.27,-19.55 461.8,-29.13 466.78,-24.21"/>
</g>
<!-- Node17&#45;&gt;Node15 -->
<g id="edge33" class="edge">
<title>Node17&#45;&gt;Node15</title>
<path fill="none" stroke="midnightblue" d="M407.28,-231.07C468.95,-226.33 617.09,-212.64 660,-188 721.84,-152.49 754.16,-67.14 765.83,-29.43"/>
<polygon fill="midnightblue" stroke="midnightblue" points="769.21,-30.34 768.69,-19.76 762.5,-28.35 769.21,-30.34"/>
</g>
<!-- Node18&#45;&gt;Node2 -->
<g id="edge38" class="edge">
<title>Node18&#45;&gt;Node2</title>
<path fill="none" stroke="midnightblue" d="M116.38,-224.08C117.48,-197.95 120.71,-121.21 122.22,-85.58"/>
<polygon fill="midnightblue" stroke="midnightblue" points="125.71,-85.71 122.64,-75.57 118.72,-85.41 125.71,-85.71"/>
</g>
<!-- Node20 -->
<g id="node20" class="node">
<title>Node20</title>
<g id="a_node20"><a xlink:title=" ">
<polygon fill="white" stroke="#bfbfbf" points="815.5,-168.5 815.5,-187.5 880.5,-187.5 880.5,-168.5 815.5,-168.5"/>
<text text-anchor="middle" x="848" y="-175.5" font-family="Helvetica,sans-Serif" font-size="10.00">inttypes.h</text>
</a>
</g>
</g>
<!-- Node19&#45;&gt;Node20 -->
<g id="edge40" class="edge">
<title>Node19&#45;&gt;Node20</title>
<path fill="none" stroke="midnightblue" d="M848,-224.08C848,-217.01 848,-206.86 848,-197.99"/>
<polygon fill="midnightblue" stroke="midnightblue" points="851.5,-197.75 848,-187.75 844.5,-197.75 851.5,-197.75"/>
</g>
<!-- Node21 -->
<g id="node21" class="node">
<title>Node21</title>
<g id="a_node21"><a xlink:href="config_8h_source.html" target="_top" xlink:title=" ">
<polygon fill="white" stroke="black" points="899,-168.5 899,-187.5 955,-187.5 955,-168.5 899,-168.5"/>
<text text-anchor="middle" x="927" y="-175.5" font-family="Helvetica,sans-Serif" font-size="10.00">config.h</text>
</a>
</g>
</g>
<!-- Node19&#45;&gt;Node21 -->
<g id="edge41" class="edge">
<title>Node19&#45;&gt;Node21</title>
<path fill="none" stroke="midnightblue" d="M860.69,-224.32C872.9,-215.98 891.58,-203.21 906,-193.35"/>
<polygon fill="midnightblue" stroke="midnightblue" points="908.06,-196.19 914.34,-187.65 904.11,-190.41 908.06,-196.19"/>
</g>
<!-- Node22&#45;&gt;Node2 -->
<g id="edge44" class="edge">
<title>Node22&#45;&gt;Node2</title>
<path fill="none" stroke="midnightblue" d="M175.88,-112.32C166.47,-104.26 152.26,-92.08 140.93,-82.37"/>
<polygon fill="midnightblue" stroke="midnightblue" points="143.18,-79.68 133.31,-75.83 138.62,-85 143.18,-79.68"/>
</g>
<!-- Node22&#45;&gt;Node9 -->
<g id="edge43" class="edge">
<title>Node22&#45;&gt;Node9</title>
<path fill="none" stroke="midnightblue" d="M190.67,-112.25C198.74,-98.05 216.67,-70.15 240,-56 292.96,-23.87 365.78,-14.52 409.72,-11.9"/>
<polygon fill="midnightblue" stroke="midnightblue" points="410.16,-15.38 419.97,-11.38 409.81,-8.39 410.16,-15.38"/>
</g>
</g>
</svg>
