<?xml version="1.0" encoding="UTF-8" standalone="no"?>
<!DOCTYPE svg PUBLIC "-//W3C//DTD SVG 1.1//EN"
 "http://www.w3.org/Graphics/SVG/1.1/DTD/svg11.dtd">
<!-- Generated by graphviz version 2.43.0 (0)
 -->
<!-- Title: readsums.c Pages: 1 -->
<svg width="920pt" height="308pt"
 viewBox="0.00 0.00 920.00 308.00" xmlns="http://www.w3.org/2000/svg" xmlns:xlink="http://www.w3.org/1999/xlink">
<g id="graph0" class="graph" transform="scale(1 1) rotate(0) translate(4 304)">
<title>readsums.c</title>
<polygon fill="white" stroke="transparent" points="-4,4 -4,-304 916,-304 916,4 -4,4"/>
<!-- Node1 -->
<g id="node1" class="node">
<title>Node1</title>
<g id="a_node1"><a xlink:title="Load signatures from a file.">
<polygon fill="#bfbfbf" stroke="black" points="213.5,-280.5 213.5,-299.5 286.5,-299.5 286.5,-280.5 213.5,-280.5"/>
<text text-anchor="middle" x="250" y="-287.5" font-family="Helvetica,sans-Serif" font-size="10.00">readsums.c</text>
</a>
</g>
</g>
<!-- Node2 -->
<g id="node2" class="node">
<title>Node2</title>
<g id="a_node2"><a xlink:href="config_8h_source.html" target="_top" xlink:title=" ">
<polygon fill="white" stroke="black" points="0,-168.5 0,-187.5 56,-187.5 56,-168.5 0,-168.5"/>
<text text-anchor="middle" x="28" y="-175.5" font-family="Helvetica,sans-Serif" font-size="10.00">config.h</text>
</a>
</g>
</g>
<!-- Node1&#45;&gt;Node2 -->
<g id="edge1" class="edge">
<title>Node1&#45;&gt;Node2</title>
<path fill="none" stroke="midnightblue" d="M213.35,-287.14C175.23,-283.6 115.32,-273.39 73,-244 55.96,-232.17 43.36,-211.65 35.89,-196.83"/>
<polygon fill="midnightblue" stroke="midnightblue" points="38.99,-195.2 31.55,-187.66 32.66,-198.19 38.99,-195.2"/>
</g>
<!-- Node3 -->
<g id="node3" class="node">
<title>Node3</title>
<g id="a_node3"><a xlink:href="librsync_8h.html" target="_top" xlink:title="Public header for librsync.">
<polygon fill="white" stroke="black" points="201,-56.5 201,-75.5 265,-75.5 265,-56.5 201,-56.5"/>
<text text-anchor="middle" x="233" y="-63.5" font-family="Helvetica,sans-Serif" font-size="10.00">librsync.h</text>
</a>
</g>
</g>
<!-- Node1&#45;&gt;Node3 -->
<g id="edge2" class="edge">
<title>Node1&#45;&gt;Node3</title>
<path fill="none" stroke="midnightblue" d="M229.15,-280.43C214.42,-273.13 195.8,-261.09 187,-244 158.97,-189.53 199.32,-116.62 220.9,-84.01"/>
<polygon fill="midnightblue" stroke="midnightblue" points="223.91,-85.82 226.66,-75.58 218.13,-81.87 223.91,-85.82"/>
</g>
<!-- Node8 -->
<g id="node8" class="node">
<title>Node8</title>
<g id="a_node8"><a xlink:href="job_8h.html" target="_top" xlink:title="Generic state&#45;machine interface.">
<polygon fill="white" stroke="black" points="409.5,-168.5 409.5,-187.5 450.5,-187.5 450.5,-168.5 409.5,-168.5"/>
<text text-anchor="middle" x="430" y="-175.5" font-family="Helvetica,sans-Serif" font-size="10.00">job.h</text>
</a>
</g>
</g>
<!-- Node1&#45;&gt;Node8 -->
<g id="edge7" class="edge">
<title>Node1&#45;&gt;Node8</title>
<path fill="none" stroke="midnightblue" d="M264.12,-280.37C295.14,-261.41 369.45,-216 407.19,-192.94"/>
<polygon fill="midnightblue" stroke="midnightblue" points="409.23,-195.79 415.94,-187.59 405.58,-189.82 409.23,-195.79"/>
</g>
<!-- Node17 -->
<g id="node17" class="node">
<title>Node17</title>
<g id="a_node17"><a xlink:href="sumset_8h.html" target="_top" xlink:title="The rs_signature class implementation of a file signature.">
<polygon fill="white" stroke="black" points="696,-168.5 696,-187.5 758,-187.5 758,-168.5 696,-168.5"/>
<text text-anchor="middle" x="727" y="-175.5" font-family="Helvetica,sans-Serif" font-size="10.00">sumset.h</text>
</a>
</g>
</g>
<!-- Node1&#45;&gt;Node17 -->
<g id="edge27" class="edge">
<title>Node1&#45;&gt;Node17</title>
<path fill="none" stroke="midnightblue" d="M286.78,-281.79C329.85,-273.24 403.27,-258.34 466,-244 544.1,-226.15 634.74,-203.03 686.04,-189.72"/>
<polygon fill="midnightblue" stroke="midnightblue" points="686.96,-193.1 695.76,-187.2 685.2,-186.32 686.96,-193.1"/>
</g>
<!-- Node18 -->
<g id="node18" class="node">
<title>Node18</title>
<g id="a_node18"><a xlink:href="scoop_8h.html" target="_top" xlink:title="Manage librsync streams of IO.">
<polygon fill="white" stroke="black" points="403,-224.5 403,-243.5 457,-243.5 457,-224.5 403,-224.5"/>
<text text-anchor="middle" x="430" y="-231.5" font-family="Helvetica,sans-Serif" font-size="10.00">scoop.h</text>
</a>
</g>
</g>
<!-- Node1&#45;&gt;Node18 -->
<g id="edge33" class="edge">
<title>Node1&#45;&gt;Node18</title>
<path fill="none" stroke="midnightblue" d="M278.52,-280.44C309.43,-271.17 358.86,-256.34 392.79,-246.16"/>
<polygon fill="midnightblue" stroke="midnightblue" points="394.22,-249.39 402.79,-243.16 392.21,-242.68 394.22,-249.39"/>
</g>
<!-- Node19 -->
<g id="node19" class="node">
<title>Node19</title>
<g id="a_node19"><a xlink:href="netint_8h.html" target="_top" xlink:title="Network&#45;byte&#45;order output to the tube.">
<polygon fill="white" stroke="black" points="196,-224.5 196,-243.5 250,-243.5 250,-224.5 196,-224.5"/>
<text text-anchor="middle" x="223" y="-231.5" font-family="Helvetica,sans-Serif" font-size="10.00">netint.h</text>
</a>
</g>
</g>
<!-- Node1&#45;&gt;Node19 -->
<g id="edge38" class="edge">
<title>Node1&#45;&gt;Node19</title>
<path fill="none" stroke="midnightblue" d="M245.54,-280.08C241.85,-272.69 236.48,-261.95 231.91,-252.81"/>
<polygon fill="midnightblue" stroke="midnightblue" points="234.98,-251.13 227.38,-243.75 228.72,-254.26 234.98,-251.13"/>
</g>
<!-- Node20 -->
<g id="node20" class="node">
<title>Node20</title>
<g id="a_node20"><a xlink:href="trace_8h.html" target="_top" xlink:title="logging functions.">
<polygon fill="white" stroke="black" points="82,-224.5 82,-243.5 132,-243.5 132,-224.5 82,-224.5"/>
<text text-anchor="middle" x="107" y="-231.5" font-family="Helvetica,sans-Serif" font-size="10.00">trace.h</text>
</a>
</g>
</g>
<!-- Node1&#45;&gt;Node20 -->
<g id="edge40" class="edge">
<title>Node1&#45;&gt;Node20</title>
<path fill="none" stroke="midnightblue" d="M227.34,-280.44C203.6,-271.48 166.09,-257.31 139.26,-247.18"/>
<polygon fill="midnightblue" stroke="midnightblue" points="140.14,-243.77 129.55,-243.52 137.67,-250.32 140.14,-243.77"/>
</g>
<!-- Node22 -->
<g id="node22" class="node">
<title>Node22</title>
<g id="a_node22"><a xlink:href="util_8h.html" target="_top" xlink:title="Misc utility functions used by librsync.">
<polygon fill="white" stroke="black" points="272.5,-112.5 272.5,-131.5 313.5,-131.5 313.5,-112.5 272.5,-112.5"/>
<text text-anchor="middle" x="293" y="-119.5" font-family="Helvetica,sans-Serif" font-size="10.00">util.h</text>
</a>
</g>
</g>
<!-- Node1&#45;&gt;Node22 -->
<g id="edge43" class="edge">
<title>Node1&#45;&gt;Node22</title>
<path fill="none" stroke="midnightblue" d="M252.31,-280.08C259.08,-253.95 278.96,-177.21 288.19,-141.58"/>
<polygon fill="midnightblue" stroke="midnightblue" points="291.66,-142.13 290.78,-131.57 284.88,-140.37 291.66,-142.13"/>
</g>
<!-- Node4 -->
<g id="node4" class="node">
<title>Node4</title>
<g id="a_node4"><a xlink:title=" ">
<polygon fill="white" stroke="#bfbfbf" points="110,-0.5 110,-19.5 160,-19.5 160,-0.5 110,-0.5"/>
<text text-anchor="middle" x="135" y="-7.5" font-family="Helvetica,sans-Serif" font-size="10.00">stdio.h</text>
</a>
</g>
</g>
<!-- Node3&#45;&gt;Node4 -->
<g id="edge3" class="edge">
<title>Node3&#45;&gt;Node4</title>
<path fill="none" stroke="midnightblue" d="M217.25,-56.32C201.68,-47.74 177.62,-34.49 159.54,-24.52"/>
<polygon fill="midnightblue" stroke="midnightblue" points="161.15,-21.42 150.71,-19.65 157.78,-27.55 161.15,-21.42"/>
</g>
<!-- Node5 -->
<g id="node5" class="node">
<title>Node5</title>
<g id="a_node5"><a xlink:title=" ">
<polygon fill="white" stroke="#bfbfbf" points="363.5,-0.5 363.5,-19.5 416.5,-19.5 416.5,-0.5 363.5,-0.5"/>
<text text-anchor="middle" x="390" y="-7.5" font-family="Helvetica,sans-Serif" font-size="10.00">stdint.h</text>
</a>
</g>
</g>
<!-- Node3&#45;&gt;Node5 -->
<g id="edge4" class="edge">
<title>Node3&#45;&gt;Node5</title>
<path fill="none" stroke="midnightblue" d="M257.88,-56.44C284.29,-47.36 326.22,-32.94 355.74,-22.78"/>
<polygon fill="midnightblue" stroke="midnightblue" points="356.92,-26.08 365.24,-19.52 354.64,-19.46 356.92,-26.08"/>
</g>
<!-- Node6 -->
<g id="node6" class="node">
<title>Node6</title>
<g id="a_node6"><a xlink:title=" ">
<polygon fill="white" stroke="#bfbfbf" points="178,-0.5 178,-19.5 226,-19.5 226,-0.5 178,-0.5"/>
<text text-anchor="middle" x="202" y="-7.5" font-family="Helvetica,sans-Serif" font-size="10.00">time.h</text>
</a>
</g>
</g>
<!-- Node3&#45;&gt;Node6 -->
<g id="edge5" class="edge">
<title>Node3&#45;&gt;Node6</title>
<path fill="none" stroke="midnightblue" d="M227.88,-56.08C223.59,-48.61 217.34,-37.72 212.06,-28.52"/>
<polygon fill="midnightblue" stroke="midnightblue" points="215.04,-26.68 207.02,-19.75 208.97,-30.17 215.04,-26.68"/>
</g>
<!-- Node7 -->
<g id="node7" class="node">
<title>Node7</title>
<g id="a_node7"><a xlink:href="librsync__export_8h_source.html" target="_top" xlink:title=" ">
<polygon fill="white" stroke="black" points="244.5,-0.5 244.5,-19.5 345.5,-19.5 345.5,-0.5 244.5,-0.5"/>
<text text-anchor="middle" x="295" y="-7.5" font-family="Helvetica,sans-Serif" font-size="10.00">librsync_export.h</text>
</a>
</g>
</g>
<!-- Node3&#45;&gt;Node7 -->
<g id="edge6" class="edge">
<title>Node3&#45;&gt;Node7</title>
<path fill="none" stroke="midnightblue" d="M242.96,-56.32C252.13,-48.34 265.94,-36.31 277.03,-26.65"/>
<polygon fill="midnightblue" stroke="midnightblue" points="279.62,-29.04 284.86,-19.83 275.02,-23.76 279.62,-29.04"/>
</g>
<!-- Node8&#45;&gt;Node3 -->
<g id="edge26" class="edge">
<title>Node8&#45;&gt;Node3</title>
<path fill="none" stroke="midnightblue" d="M416.7,-168.43C396.67,-155.64 357.43,-131.03 323,-112 302.36,-100.59 278.46,-88.7 260.48,-80.01"/>
<polygon fill="midnightblue" stroke="midnightblue" points="261.69,-76.71 251.16,-75.54 258.65,-83.02 261.69,-76.71"/>
</g>
<!-- Node9 -->
<g id="node9" class="node">
<title>Node9</title>
<g id="a_node9"><a xlink:title=" ">
<polygon fill="white" stroke="#bfbfbf" points="744,-0.5 744,-19.5 800,-19.5 800,-0.5 744,-0.5"/>
<text text-anchor="middle" x="772" y="-7.5" font-family="Helvetica,sans-Serif" font-size="10.00">assert.h</text>
</a>
</g>
</g>
<!-- Node8&#45;&gt;Node9 -->
<g id="edge8" class="edge">
<title>Node8&#45;&gt;Node9</title>
<path fill="none" stroke="midnightblue" d="M450.73,-174.67C522.54,-166.13 758.58,-133.98 802,-76 813.33,-60.86 800.6,-40.76 788.4,-26.94"/>
<polygon fill="midnightblue" stroke="midnightblue" points="790.89,-24.47 781.47,-19.62 785.8,-29.28 790.89,-24.47"/>
</g>
<!-- Node10 -->
<g id="node10" class="node">
<title>Node10</title>
<g id="a_node10"><a xlink:title=" ">
<polygon fill="white" stroke="#bfbfbf" points="530,-0.5 530,-19.5 586,-19.5 586,-0.5 530,-0.5"/>
<text text-anchor="middle" x="558" y="-7.5" font-family="Helvetica,sans-Serif" font-size="10.00">stddef.h</text>
</a>
</g>
</g>
<!-- Node8&#45;&gt;Node10 -->
<g id="edge9" class="edge">
<title>Node8&#45;&gt;Node10</title>
<path fill="none" stroke="midnightblue" d="M438.83,-168.32C455.73,-151.45 493.35,-112.67 520,-76 531.02,-60.83 541.62,-42.26 548.81,-28.85"/>
<polygon fill="midnightblue" stroke="midnightblue" points="552.04,-30.23 553.6,-19.75 545.85,-26.97 552.04,-30.23"/>
</g>
<!-- Node11 -->
<g id="node11" class="node">
<title>Node11</title>
<g id="a_node11"><a xlink:href="mdfour_8h.html" target="_top" xlink:title="MD4 message digest algorithm.">
<polygon fill="white" stroke="black" points="370.5,-112.5 370.5,-131.5 431.5,-131.5 431.5,-112.5 370.5,-112.5"/>
<text text-anchor="middle" x="401" y="-119.5" font-family="Helvetica,sans-Serif" font-size="10.00">mdfour.h</text>
</a>
</g>
</g>
<!-- Node8&#45;&gt;Node11 -->
<g id="edge10" class="edge">
<title>Node8&#45;&gt;Node11</title>
<path fill="none" stroke="midnightblue" d="M425.21,-168.08C421.24,-160.69 415.47,-149.95 410.57,-140.81"/>
<polygon fill="midnightblue" stroke="midnightblue" points="413.51,-138.91 405.7,-131.75 407.35,-142.22 413.51,-138.91"/>
</g>
<!-- Node12 -->
<g id="node12" class="node">
<title>Node12</title>
<g id="a_node12"><a xlink:href="checksum_8h.html" target="_top" xlink:title="Abstract wrappers around different weaksum and strongsum implementations.">
<polygon fill="white" stroke="black" points="526.5,-112.5 526.5,-131.5 601.5,-131.5 601.5,-112.5 526.5,-112.5"/>
<text text-anchor="middle" x="564" y="-119.5" font-family="Helvetica,sans-Serif" font-size="10.00">checksum.h</text>
</a>
</g>
</g>
<!-- Node8&#45;&gt;Node12 -->
<g id="edge12" class="edge">
<title>Node8&#45;&gt;Node12</title>
<path fill="none" stroke="midnightblue" d="M450.64,-168.68C472.68,-159.8 507.84,-145.63 533.16,-135.43"/>
<polygon fill="midnightblue" stroke="midnightblue" points="534.7,-138.58 542.67,-131.6 532.08,-132.09 534.7,-138.58"/>
</g>
<!-- Node11&#45;&gt;Node5 -->
<g id="edge11" class="edge">
<title>Node11&#45;&gt;Node5</title>
<path fill="none" stroke="midnightblue" d="M385.27,-112.24C373.11,-104.48 357.19,-91.93 350,-76 341.94,-58.13 356.56,-39.2 370.33,-26.41"/>
<polygon fill="midnightblue" stroke="midnightblue" points="372.89,-28.83 378.17,-19.64 368.31,-23.53 372.89,-28.83"/>
</g>
<!-- Node12&#45;&gt;Node3 -->
<g id="edge15" class="edge">
<title>Node12&#45;&gt;Node3</title>
<path fill="none" stroke="midnightblue" d="M526.23,-114.41C521.44,-113.59 516.61,-112.77 512,-112 428.12,-97.98 329.93,-82.31 275.25,-73.66"/>
<polygon fill="midnightblue" stroke="midnightblue" points="275.66,-70.18 265.24,-72.08 274.57,-77.1 275.66,-70.18"/>
</g>
<!-- Node12&#45;&gt;Node9 -->
<g id="edge13" class="edge">
<title>Node12&#45;&gt;Node9</title>
<path fill="none" stroke="midnightblue" d="M580.32,-112.37C616.47,-93.25 703.49,-47.23 746.74,-24.36"/>
<polygon fill="midnightblue" stroke="midnightblue" points="748.55,-27.36 755.75,-19.59 745.28,-21.17 748.55,-27.36"/>
</g>
<!-- Node12&#45;&gt;Node10 -->
<g id="edge14" class="edge">
<title>Node12&#45;&gt;Node10</title>
<path fill="none" stroke="midnightblue" d="M563.53,-112.37C562.56,-94.62 560.33,-53.67 559.01,-29.6"/>
<polygon fill="midnightblue" stroke="midnightblue" points="562.51,-29.39 558.47,-19.59 555.52,-29.77 562.51,-29.39"/>
</g>
<!-- Node13 -->
<g id="node13" class="node">
<title>Node13</title>
<g id="a_node13"><a xlink:href="rollsum_8h.html" target="_top" xlink:title="The Rollsum class implementation of the original rsync rollsum.">
<polygon fill="white" stroke="black" points="359,-56.5 359,-75.5 421,-75.5 421,-56.5 359,-56.5"/>
<text text-anchor="middle" x="390" y="-63.5" font-family="Helvetica,sans-Serif" font-size="10.00">rollsum.h</text>
</a>
</g>
</g>
<!-- Node12&#45;&gt;Node13 -->
<g id="edge16" class="edge">
<title>Node12&#45;&gt;Node13</title>
<path fill="none" stroke="midnightblue" d="M536.43,-112.44C506.9,-103.28 459.88,-88.69 427.12,-78.52"/>
<polygon fill="midnightblue" stroke="midnightblue" points="428.03,-75.14 417.44,-75.52 425.96,-81.82 428.03,-75.14"/>
</g>
<!-- Node14 -->
<g id="node14" class="node">
<title>Node14</title>
<g id="a_node14"><a xlink:href="rabinkarp_8h.html" target="_top" xlink:title="The rabinkarp class implementation of the RabinKarp rollsum.">
<polygon fill="white" stroke="black" points="439,-56.5 439,-75.5 511,-75.5 511,-56.5 439,-56.5"/>
<text text-anchor="middle" x="475" y="-63.5" font-family="Helvetica,sans-Serif" font-size="10.00">rabinkarp.h</text>
</a>
</g>
</g>
<!-- Node12&#45;&gt;Node14 -->
<g id="edge19" class="edge">
<title>Node12&#45;&gt;Node14</title>
<path fill="none" stroke="midnightblue" d="M549.7,-112.32C535.82,-103.9 514.51,-90.97 498.2,-81.07"/>
<polygon fill="midnightblue" stroke="midnightblue" points="499.63,-77.85 489.26,-75.65 496,-83.83 499.63,-77.85"/>
</g>
<!-- Node15 -->
<g id="node15" class="node">
<title>Node15</title>
<g id="a_node15"><a xlink:href="hashtable_8h.html" target="_top" xlink:title="A generic open addressing hashtable.">
<polygon fill="white" stroke="black" points="719,-56.5 719,-75.5 793,-75.5 793,-56.5 719,-56.5"/>
<text text-anchor="middle" x="756" y="-63.5" font-family="Helvetica,sans-Serif" font-size="10.00">hashtable.h</text>
</a>
</g>
</g>
<!-- Node12&#45;&gt;Node15 -->
<g id="edge22" class="edge">
<title>Node12&#45;&gt;Node15</title>
<path fill="none" stroke="midnightblue" d="M594.42,-112.44C627.28,-103.2 679.78,-88.44 715.97,-78.26"/>
<polygon fill="midnightblue" stroke="midnightblue" points="717.04,-81.59 725.72,-75.52 715.15,-74.85 717.04,-81.59"/>
</g>
<!-- Node13&#45;&gt;Node5 -->
<g id="edge18" class="edge">
<title>Node13&#45;&gt;Node5</title>
<path fill="none" stroke="midnightblue" d="M390,-56.08C390,-49.01 390,-38.86 390,-29.99"/>
<polygon fill="midnightblue" stroke="midnightblue" points="393.5,-29.75 390,-19.75 386.5,-29.75 393.5,-29.75"/>
</g>
<!-- Node13&#45;&gt;Node10 -->
<g id="edge17" class="edge">
<title>Node13&#45;&gt;Node10</title>
<path fill="none" stroke="midnightblue" d="M416.62,-56.44C445.01,-47.32 490.14,-32.81 521.75,-22.65"/>
<polygon fill="midnightblue" stroke="midnightblue" points="523.06,-25.91 531.5,-19.52 520.91,-19.24 523.06,-25.91"/>
</g>
<!-- Node14&#45;&gt;Node5 -->
<g id="edge21" class="edge">
<title>Node14&#45;&gt;Node5</title>
<path fill="none" stroke="midnightblue" d="M461.34,-56.32C448.08,-47.9 427.73,-34.97 412.15,-25.07"/>
<polygon fill="midnightblue" stroke="midnightblue" points="413.94,-22.06 403.62,-19.65 410.19,-27.97 413.94,-22.06"/>
</g>
<!-- Node14&#45;&gt;Node10 -->
<g id="edge20" class="edge">
<title>Node14&#45;&gt;Node10</title>
<path fill="none" stroke="midnightblue" d="M488.34,-56.32C501.16,-47.98 520.78,-35.21 535.94,-25.35"/>
<polygon fill="midnightblue" stroke="midnightblue" points="538.22,-28.04 544.7,-19.65 534.41,-22.17 538.22,-28.04"/>
</g>
<!-- Node15&#45;&gt;Node9 -->
<g id="edge24" class="edge">
<title>Node15&#45;&gt;Node9</title>
<path fill="none" stroke="midnightblue" d="M758.64,-56.08C760.79,-48.85 763.88,-38.41 766.55,-29.4"/>
<polygon fill="midnightblue" stroke="midnightblue" points="769.92,-30.33 769.41,-19.75 763.21,-28.34 769.92,-30.33"/>
</g>
<!-- Node15&#45;&gt;Node10 -->
<g id="edge25" class="edge">
<title>Node15&#45;&gt;Node10</title>
<path fill="none" stroke="midnightblue" d="M724.63,-56.44C689.74,-46.93 633.39,-31.56 596.03,-21.37"/>
<polygon fill="midnightblue" stroke="midnightblue" points="596.59,-17.9 586.03,-18.64 594.75,-24.65 596.59,-17.9"/>
</g>
<!-- Node16 -->
<g id="node16" class="node">
<title>Node16</title>
<g id="a_node16"><a xlink:title=" ">
<polygon fill="white" stroke="#bfbfbf" points="850,-0.5 850,-19.5 912,-19.5 912,-0.5 850,-0.5"/>
<text text-anchor="middle" x="881" y="-7.5" font-family="Helvetica,sans-Serif" font-size="10.00">stdbool.h</text>
</a>
</g>
</g>
<!-- Node15&#45;&gt;Node16 -->
<g id="edge23" class="edge">
<title>Node15&#45;&gt;Node16</title>
<path fill="none" stroke="midnightblue" d="M775.81,-56.44C796.29,-47.6 828.48,-33.69 851.86,-23.59"/>
<polygon fill="midnightblue" stroke="midnightblue" points="853.49,-26.7 861.29,-19.52 850.72,-20.27 853.49,-26.7"/>
</g>
<!-- Node17&#45;&gt;Node3 -->
<g id="edge32" class="edge">
<title>Node17&#45;&gt;Node3</title>
<path fill="none" stroke="midnightblue" d="M695.75,-170.7C654.81,-162.35 580.84,-146.92 518,-132 483.6,-123.83 475.4,-120.18 441,-112 383.72,-98.37 317.15,-84.27 275.06,-75.57"/>
<polygon fill="midnightblue" stroke="midnightblue" points="275.66,-72.12 265.16,-73.53 274.25,-78.98 275.66,-72.12"/>
</g>
<!-- Node17&#45;&gt;Node9 -->
<g id="edge28" class="edge">
<title>Node17&#45;&gt;Node9</title>
<path fill="none" stroke="midnightblue" d="M742.55,-168.3C767.59,-153.27 815.99,-119.8 835,-76 844.32,-54.53 821.46,-36.03 800.72,-24.33"/>
<polygon fill="midnightblue" stroke="midnightblue" points="802.24,-21.17 791.76,-19.59 798.96,-27.36 802.24,-21.17"/>
</g>
<!-- Node17&#45;&gt;Node10 -->
<g id="edge29" class="edge">
<title>Node17&#45;&gt;Node10</title>
<path fill="none" stroke="midnightblue" d="M724.99,-168.41C719.48,-146.66 702.14,-88.8 667,-56 647.18,-37.5 618.71,-26.1 595.83,-19.4"/>
<polygon fill="midnightblue" stroke="midnightblue" points="596.66,-16 586.09,-16.73 594.81,-22.75 596.66,-16"/>
</g>
<!-- Node17&#45;&gt;Node12 -->
<g id="edge31" class="edge">
<title>Node17&#45;&gt;Node12</title>
<path fill="none" stroke="midnightblue" d="M701.17,-168.44C673.75,-159.36 630.22,-144.94 599.57,-134.78"/>
<polygon fill="midnightblue" stroke="midnightblue" points="600.3,-131.34 589.71,-131.52 598.1,-137.98 600.3,-131.34"/>
</g>
<!-- Node17&#45;&gt;Node15 -->
<g id="edge30" class="edge">
<title>Node17&#45;&gt;Node15</title>
<path fill="none" stroke="midnightblue" d="M729.28,-168.37C733.98,-150.54 744.85,-109.3 751.18,-85.27"/>
<polygon fill="midnightblue" stroke="midnightblue" points="754.57,-86.15 753.73,-75.59 747.8,-84.37 754.57,-86.15"/>
</g>
<!-- Node18&#45;&gt;Node3 -->
<g id="edge37" class="edge">
<title>Node18&#45;&gt;Node3</title>
<path fill="none" stroke="midnightblue" d="M407.87,-224.46C373.16,-210.09 305.61,-178.06 264,-132 251.85,-118.54 243.51,-99.47 238.57,-85.47"/>
<polygon fill="midnightblue" stroke="midnightblue" points="241.89,-84.34 235.45,-75.92 235.23,-86.51 241.89,-84.34"/>
</g>
<!-- Node18&#45;&gt;Node8 -->
<g id="edge36" class="edge">
<title>Node18&#45;&gt;Node8</title>
<path fill="none" stroke="midnightblue" d="M430,-224.08C430,-217.01 430,-206.86 430,-197.99"/>
<polygon fill="midnightblue" stroke="midnightblue" points="433.5,-197.75 430,-187.75 426.5,-197.75 433.5,-197.75"/>
</g>
<!-- Node18&#45;&gt;Node10 -->
<g id="edge35" class="edge">
<title>Node18&#45;&gt;Node10</title>
<path fill="none" stroke="midnightblue" d="M451.22,-224.39C495.05,-206.12 593.01,-162.64 611,-132 631.98,-96.26 596.94,-50.69 574.51,-26.97"/>
<polygon fill="midnightblue" stroke="midnightblue" points="576.72,-24.23 567.21,-19.55 571.72,-29.13 576.72,-24.23"/>
</g>
<!-- Node18&#45;&gt;Node16 -->
<g id="edge34" class="edge">
<title>Node18&#45;&gt;Node16</title>
<path fill="none" stroke="midnightblue" d="M457.17,-231.85C527.46,-228.5 713.51,-217.05 767,-188 830.15,-153.71 863.54,-67.7 875.63,-29.63"/>
<polygon fill="midnightblue" stroke="midnightblue" points="879.05,-30.44 878.6,-19.85 872.35,-28.41 879.05,-30.44"/>
</g>
<!-- Node19&#45;&gt;Node3 -->
<g id="edge39" class="edge">
<title>Node19&#45;&gt;Node3</title>
<path fill="none" stroke="midnightblue" d="M223.47,-224.49C224.56,-204.73 227.37,-154.21 230,-112 230.54,-103.4 231.17,-93.87 231.71,-85.8"/>
<polygon fill="midnightblue" stroke="midnightblue" points="235.21,-85.84 232.4,-75.63 228.23,-85.36 235.21,-85.84"/>
</g>
<!-- Node20&#45;&gt;Node2 -->
<g id="edge42" class="edge">
<title>Node20&#45;&gt;Node2</title>
<path fill="none" stroke="midnightblue" d="M94.31,-224.32C82.1,-215.98 63.42,-203.21 49,-193.35"/>
<polygon fill="midnightblue" stroke="midnightblue" points="50.89,-190.41 40.66,-187.65 46.94,-196.19 50.89,-190.41"/>
</g>
<!-- Node21 -->
<g id="node21" class="node">
<title>Node21</title>
<g id="a_node21"><a xlink:title=" ">
<polygon fill="white" stroke="#bfbfbf" points="74.5,-168.5 74.5,-187.5 139.5,-187.5 139.5,-168.5 74.5,-168.5"/>
<text text-anchor="middle" x="107" y="-175.5" font-family="Helvetica,sans-Serif" font-size="10.00">inttypes.h</text>
</a>
</g>
</g>
<!-- Node20&#45;&gt;Node21 -->
<g id="edge41" class="edge">
<title>Node20&#45;&gt;Node21</title>
<path fill="none" stroke="midnightblue" d="M107,-224.08C107,-217.01 107,-206.86 107,-197.99"/>
<polygon fill="midnightblue" stroke="midnightblue" points="110.5,-197.75 107,-187.75 103.5,-197.75 110.5,-197.75"/>
</g>
<!-- Node22&#45;&gt;Node3 -->
<g id="edge45" class="edge">
<title>Node22&#45;&gt;Node3</title>
<path fill="none" stroke="midnightblue" d="M283.36,-112.32C274.49,-104.34 261.13,-92.31 250.39,-82.65"/>
<polygon fill="midnightblue" stroke="midnightblue" points="252.59,-79.92 242.82,-75.83 247.91,-85.13 252.59,-79.92"/>
</g>
<!-- Node22&#45;&gt;Node10 -->
<g id="edge44" class="edge">
<title>Node22&#45;&gt;Node10</title>
<path fill="none" stroke="midnightblue" d="M298.06,-112.25C306.75,-98.06 325.94,-70.16 350,-56 403.24,-24.66 475.67,-15.06 519.51,-12.18"/>
<polygon fill="midnightblue" stroke="midnightblue" points="519.96,-15.66 529.74,-11.59 519.56,-8.67 519.96,-15.66"/>
</g>
</g>
</svg>
