<?xml version="1.0" encoding="UTF-8" standalone="no"?>
<!DOCTYPE svg PUBLIC "-//W3C//DTD SVG 1.1//EN"
 "http://www.w3.org/Graphics/SVG/1.1/DTD/svg11.dtd">
<!-- Generated by graphviz version 2.43.0 (0)
 -->
<!-- Title: rollsum.h Pages: 1 -->
<svg width="743pt" height="252pt"
 viewBox="0.00 0.00 742.50 252.00" xmlns="http://www.w3.org/2000/svg" xmlns:xlink="http://www.w3.org/1999/xlink">
<g id="graph0" class="graph" transform="scale(1 1) rotate(0) translate(4 248)">
<title>rollsum.h</title>
<polygon fill="white" stroke="transparent" points="-4,4 -4,-248 738.5,-248 738.5,4 -4,4"/>
<!-- Node1 -->
<g id="node1" class="node">
<title>Node1</title>
<g id="a_node1"><a xlink:title="The Rollsum class implementation of the original rsync rollsum.">
<polygon fill="#bfbfbf" stroke="black" points="148,-224.5 148,-243.5 210,-243.5 210,-224.5 148,-224.5"/>
<text text-anchor="middle" x="179" y="-231.5" font-family="Helvetica,sans-Serif" font-size="10.00">rollsum.h</text>
</a>
</g>
</g>
<!-- Node2 -->
<g id="node2" class="node">
<title>Node2</title>
<g id="a_node2"><a xlink:href="checksum_8h.html" target="_top" xlink:title="Abstract wrappers around different weaksum and strongsum implementations.">
<polygon fill="white" stroke="black" points="98.5,-168.5 98.5,-187.5 173.5,-187.5 173.5,-168.5 98.5,-168.5"/>
<text text-anchor="middle" x="136" y="-175.5" font-family="Helvetica,sans-Serif" font-size="10.00">checksum.h</text>
</a>
</g>
</g>
<!-- Node1&#45;&gt;Node2 -->
<g id="edge1" class="edge">
<title>Node1&#45;&gt;Node2</title>
<path fill="none" stroke="midnightblue" d="M165.58,-216.14C158.09,-206.74 149.06,-195.4 142.97,-187.75"/>
<polygon fill="midnightblue" stroke="midnightblue" points="162.93,-218.44 171.9,-224.08 168.41,-214.08 162.93,-218.44"/>
</g>
<!-- Node19 -->
<g id="node19" class="node">
<title>Node19</title>
<g id="a_node19"><a xlink:href="rollsum_8c_source.html" target="_top" xlink:title=" ">
<polygon fill="white" stroke="black" points="191,-168.5 191,-187.5 253,-187.5 253,-168.5 191,-168.5"/>
<text text-anchor="middle" x="222" y="-175.5" font-family="Helvetica,sans-Serif" font-size="10.00">rollsum.c</text>
</a>
</g>
</g>
<!-- Node1&#45;&gt;Node19 -->
<g id="edge30" class="edge">
<title>Node1&#45;&gt;Node19</title>
<path fill="none" stroke="midnightblue" d="M192.42,-216.14C199.91,-206.74 208.94,-195.4 215.03,-187.75"/>
<polygon fill="midnightblue" stroke="midnightblue" points="189.59,-214.08 186.1,-224.08 195.07,-218.44 189.59,-214.08"/>
</g>
<!-- Node3 -->
<g id="node3" class="node">
<title>Node3</title>
<g id="a_node3"><a xlink:href="checksum_8c_source.html" target="_top" xlink:title=" ">
<polygon fill="white" stroke="black" points="0,-112.5 0,-131.5 74,-131.5 74,-112.5 0,-112.5"/>
<text text-anchor="middle" x="37" y="-119.5" font-family="Helvetica,sans-Serif" font-size="10.00">checksum.c</text>
</a>
</g>
</g>
<!-- Node2&#45;&gt;Node3 -->
<g id="edge2" class="edge">
<title>Node2&#45;&gt;Node3</title>
<path fill="none" stroke="midnightblue" d="M111.16,-163.45C92.89,-153.48 68.58,-140.23 52.87,-131.65"/>
<polygon fill="midnightblue" stroke="midnightblue" points="109.64,-166.61 120.09,-168.32 112.99,-160.46 109.64,-166.61"/>
</g>
<!-- Node4 -->
<g id="node4" class="node">
<title>Node4</title>
<g id="a_node4"><a xlink:href="delta_8c.html" target="_top" xlink:title="Generate in streaming mode an rsync delta given a set of signatures, and a new file.">
<polygon fill="white" stroke="black" points="24,-0.5 24,-19.5 74,-19.5 74,-0.5 24,-0.5"/>
<text text-anchor="middle" x="49" y="-7.5" font-family="Helvetica,sans-Serif" font-size="10.00">delta.c</text>
</a>
</g>
</g>
<!-- Node2&#45;&gt;Node4 -->
<g id="edge3" class="edge">
<title>Node2&#45;&gt;Node4</title>
<path fill="none" stroke="midnightblue" d="M126.49,-158.86C107.83,-123.25 67.06,-45.45 53.49,-19.57"/>
<polygon fill="midnightblue" stroke="midnightblue" points="123.58,-160.84 131.32,-168.08 129.78,-157.59 123.58,-160.84"/>
</g>
<!-- Node5 -->
<g id="node5" class="node">
<title>Node5</title>
<g id="a_node5"><a xlink:href="job_8h.html" target="_top" xlink:title="Generic state&#45;machine interface.">
<polygon fill="white" stroke="black" points="405.5,-112.5 405.5,-131.5 446.5,-131.5 446.5,-112.5 405.5,-112.5"/>
<text text-anchor="middle" x="426" y="-119.5" font-family="Helvetica,sans-Serif" font-size="10.00">job.h</text>
</a>
</g>
</g>
<!-- Node2&#45;&gt;Node5 -->
<g id="edge4" class="edge">
<title>Node2&#45;&gt;Node5</title>
<path fill="none" stroke="midnightblue" d="M183.55,-167.72C271.79,-150.99 364.92,-134.05 405.42,-126.72"/>
<polygon fill="midnightblue" stroke="midnightblue" points="182.82,-164.3 173.65,-169.6 184.13,-171.17 182.82,-164.3"/>
</g>
<!-- Node17 -->
<g id="node17" class="node">
<title>Node17</title>
<g id="a_node17"><a xlink:href="sumset_8h.html" target="_top" xlink:title="The rs_signature class implementation of a file signature.">
<polygon fill="white" stroke="black" points="168,-56.5 168,-75.5 230,-75.5 230,-56.5 168,-56.5"/>
<text text-anchor="middle" x="199" y="-63.5" font-family="Helvetica,sans-Serif" font-size="10.00">sumset.h</text>
</a>
</g>
</g>
<!-- Node2&#45;&gt;Node17 -->
<g id="edge24" class="edge">
<title>Node2&#45;&gt;Node17</title>
<path fill="none" stroke="midnightblue" d="M145.94,-159.64C159.63,-135.74 183.75,-93.63 194.08,-75.59"/>
<polygon fill="midnightblue" stroke="midnightblue" points="142.88,-157.95 140.94,-168.37 148.95,-161.43 142.88,-157.95"/>
</g>
<!-- Node5&#45;&gt;Node4 -->
<g id="edge6" class="edge">
<title>Node5&#45;&gt;Node4</title>
<path fill="none" stroke="midnightblue" d="M394.95,-119.45C344.19,-116.1 240.86,-105.91 159,-76 120.04,-61.76 79.3,-33.64 60.17,-19.52"/>
<polygon fill="midnightblue" stroke="midnightblue" points="395.06,-122.96 405.25,-120.08 395.48,-115.97 395.06,-122.96"/>
</g>
<!-- Node6 -->
<g id="node6" class="node">
<title>Node6</title>
<g id="a_node6"><a xlink:href="buf_8c_source.html" target="_top" xlink:title=" ">
<polygon fill="white" stroke="black" points="537,-56.5 537,-75.5 577,-75.5 577,-56.5 537,-56.5"/>
<text text-anchor="middle" x="557" y="-63.5" font-family="Helvetica,sans-Serif" font-size="10.00">buf.c</text>
</a>
</g>
</g>
<!-- Node5&#45;&gt;Node6 -->
<g id="edge5" class="edge">
<title>Node5&#45;&gt;Node6</title>
<path fill="none" stroke="midnightblue" d="M456.05,-108.61C480.79,-98.41 515.19,-84.23 536.77,-75.34"/>
<polygon fill="midnightblue" stroke="midnightblue" points="454.67,-105.4 446.76,-112.44 457.34,-111.87 454.67,-105.4"/>
</g>
<!-- Node7 -->
<g id="node7" class="node">
<title>Node7</title>
<g id="a_node7"><a xlink:href="emit_8c_source.html" target="_top" xlink:title=" ">
<polygon fill="white" stroke="black" points="671.5,-56.5 671.5,-75.5 718.5,-75.5 718.5,-56.5 671.5,-56.5"/>
<text text-anchor="middle" x="695" y="-63.5" font-family="Helvetica,sans-Serif" font-size="10.00">emit.c</text>
</a>
</g>
</g>
<!-- Node5&#45;&gt;Node7 -->
<g id="edge7" class="edge">
<title>Node5&#45;&gt;Node7</title>
<path fill="none" stroke="midnightblue" d="M456.62,-115.44C500.93,-107.3 585.45,-91.43 657,-76 661.64,-75 666.58,-73.87 671.32,-72.76"/>
<polygon fill="midnightblue" stroke="midnightblue" points="455.97,-112 446.76,-117.24 457.23,-118.89 455.97,-112"/>
</g>
<!-- Node8 -->
<g id="node8" class="node">
<title>Node8</title>
<g id="a_node8"><a xlink:href="job_8c_source.html" target="_top" xlink:title=" ">
<polygon fill="white" stroke="black" points="416,-0.5 416,-19.5 456,-19.5 456,-0.5 416,-0.5"/>
<text text-anchor="middle" x="436" y="-7.5" font-family="Helvetica,sans-Serif" font-size="10.00">job.c</text>
</a>
</g>
</g>
<!-- Node5&#45;&gt;Node8 -->
<g id="edge8" class="edge">
<title>Node5&#45;&gt;Node8</title>
<path fill="none" stroke="midnightblue" d="M420.65,-102.42C417.63,-89.36 415.01,-71.53 418,-56 420.55,-42.78 426.94,-28.51 431.38,-19.66"/>
<polygon fill="midnightblue" stroke="midnightblue" points="417.26,-103.31 423.16,-112.11 424.04,-101.55 417.26,-103.31"/>
</g>
<!-- Node9 -->
<g id="node9" class="node">
<title>Node9</title>
<g id="a_node9"><a xlink:href="mksum_8c.html" target="_top" xlink:title="Generate file signatures.">
<polygon fill="white" stroke="black" points="244,-0.5 244,-19.5 306,-19.5 306,-0.5 244,-0.5"/>
<text text-anchor="middle" x="275" y="-7.5" font-family="Helvetica,sans-Serif" font-size="10.00">mksum.c</text>
</a>
</g>
</g>
<!-- Node5&#45;&gt;Node9 -->
<g id="edge9" class="edge">
<title>Node5&#45;&gt;Node9</title>
<path fill="none" stroke="midnightblue" d="M405.98,-106.42C374.04,-83.15 312.54,-38.35 286.79,-19.59"/>
<polygon fill="midnightblue" stroke="midnightblue" points="404.01,-109.31 414.15,-112.37 408.13,-103.65 404.01,-109.31"/>
</g>
<!-- Node10 -->
<g id="node10" class="node">
<title>Node10</title>
<g id="a_node10"><a xlink:href="patch_8c.html" target="_top" xlink:title="Apply a delta to an old file to generate a new file.">
<polygon fill="white" stroke="black" points="546,-0.5 546,-19.5 598,-19.5 598,-0.5 546,-0.5"/>
<text text-anchor="middle" x="572" y="-7.5" font-family="Helvetica,sans-Serif" font-size="10.00">patch.c</text>
</a>
</g>
</g>
<!-- Node5&#45;&gt;Node10 -->
<g id="edge10" class="edge">
<title>Node5&#45;&gt;Node10</title>
<path fill="none" stroke="midnightblue" d="M447.33,-106.45C459.88,-97.79 475.99,-86.47 490,-76 516.2,-56.43 546.09,-32.25 561.54,-19.61"/>
<polygon fill="midnightblue" stroke="midnightblue" points="445.16,-103.7 438.9,-112.25 449.13,-109.47 445.16,-103.7"/>
</g>
<!-- Node11 -->
<g id="node11" class="node">
<title>Node11</title>
<g id="a_node11"><a xlink:href="readsums_8c.html" target="_top" xlink:title="Load signatures from a file.">
<polygon fill="white" stroke="black" points="324.5,-0.5 324.5,-19.5 397.5,-19.5 397.5,-0.5 324.5,-0.5"/>
<text text-anchor="middle" x="361" y="-7.5" font-family="Helvetica,sans-Serif" font-size="10.00">readsums.c</text>
</a>
</g>
</g>
<!-- Node5&#45;&gt;Node11 -->
<g id="edge11" class="edge">
<title>Node5&#45;&gt;Node11</title>
<path fill="none" stroke="midnightblue" d="M415.74,-103.64C401.62,-79.74 376.74,-37.63 366.08,-19.59"/>
<polygon fill="midnightblue" stroke="midnightblue" points="412.8,-105.54 420.9,-112.37 418.83,-101.98 412.8,-105.54"/>
</g>
<!-- Node12 -->
<g id="node12" class="node">
<title>Node12</title>
<g id="a_node12"><a xlink:href="scoop_8c.html" target="_top" xlink:title="This file deals with readahead from caller&#45;supplied buffers.">
<polygon fill="white" stroke="black" points="616.5,-0.5 616.5,-19.5 669.5,-19.5 669.5,-0.5 616.5,-0.5"/>
<text text-anchor="middle" x="643" y="-7.5" font-family="Helvetica,sans-Serif" font-size="10.00">scoop.c</text>
</a>
</g>
</g>
<!-- Node5&#45;&gt;Node12 -->
<g id="edge12" class="edge">
<title>Node5&#45;&gt;Node12</title>
<path fill="none" stroke="midnightblue" d="M456.93,-117.62C490.81,-112.76 545.69,-101.41 586,-76 609.62,-61.11 629,-33.54 637.84,-19.58"/>
<polygon fill="midnightblue" stroke="midnightblue" points="456.17,-114.19 446.71,-118.98 457.09,-121.13 456.17,-114.19"/>
</g>
<!-- Node13 -->
<g id="node13" class="node">
<title>Node13</title>
<g id="a_node13"><a xlink:href="scoop_8h.html" target="_top" xlink:title="Manage librsync streams of IO.">
<polygon fill="white" stroke="black" points="427,-56.5 427,-75.5 481,-75.5 481,-56.5 427,-56.5"/>
<text text-anchor="middle" x="454" y="-63.5" font-family="Helvetica,sans-Serif" font-size="10.00">scoop.h</text>
</a>
</g>
</g>
<!-- Node5&#45;&gt;Node13 -->
<g id="edge13" class="edge">
<title>Node5&#45;&gt;Node13</title>
<path fill="none" stroke="midnightblue" d="M435.34,-102.98C440.09,-93.82 445.66,-83.09 449.46,-75.75"/>
<polygon fill="midnightblue" stroke="midnightblue" points="432.12,-101.59 430.62,-112.08 438.33,-104.82 432.12,-101.59"/>
</g>
<!-- Node15 -->
<g id="node15" class="node">
<title>Node15</title>
<g id="a_node15"><a xlink:href="tube_8c.html" target="_top" xlink:title="A somewhat elastic but fairly small buffer for data passing through a stream.">
<polygon fill="white" stroke="black" points="687.5,-0.5 687.5,-19.5 734.5,-19.5 734.5,-0.5 687.5,-0.5"/>
<text text-anchor="middle" x="711" y="-7.5" font-family="Helvetica,sans-Serif" font-size="10.00">tube.c</text>
</a>
</g>
</g>
<!-- Node5&#45;&gt;Node15 -->
<g id="edge22" class="edge">
<title>Node5&#45;&gt;Node15</title>
<path fill="none" stroke="midnightblue" d="M456.89,-116.85C494.66,-111.04 559.98,-98.56 612,-76 647.09,-60.78 683.45,-33.37 700.71,-19.51"/>
<polygon fill="midnightblue" stroke="midnightblue" points="455.93,-113.46 446.55,-118.38 456.95,-120.38 455.93,-113.46"/>
</g>
<!-- Node16 -->
<g id="node16" class="node">
<title>Node16</title>
<g id="a_node16"><a xlink:href="whole_8c_source.html" target="_top" xlink:title=" ">
<polygon fill="white" stroke="black" points="172,-0.5 172,-19.5 226,-19.5 226,-0.5 172,-0.5"/>
<text text-anchor="middle" x="199" y="-7.5" font-family="Helvetica,sans-Serif" font-size="10.00">whole.c</text>
</a>
</g>
</g>
<!-- Node5&#45;&gt;Node16 -->
<g id="edge23" class="edge">
<title>Node5&#45;&gt;Node16</title>
<path fill="none" stroke="midnightblue" d="M399.12,-108C380.54,-99.02 355.27,-86.79 333,-76 291.35,-55.82 242.43,-32.08 216.77,-19.63"/>
<polygon fill="midnightblue" stroke="midnightblue" points="397.64,-111.18 408.17,-112.38 400.69,-104.87 397.64,-111.18"/>
</g>
<!-- Node13&#45;&gt;Node4 -->
<g id="edge14" class="edge">
<title>Node13&#45;&gt;Node4</title>
<path fill="none" stroke="midnightblue" d="M416.71,-62.19C349.55,-56.75 203.96,-43.23 83,-20 80.12,-19.45 77.13,-18.79 74.16,-18.07"/>
<polygon fill="midnightblue" stroke="midnightblue" points="416.56,-65.69 426.8,-63 417.11,-58.71 416.56,-65.69"/>
</g>
<!-- Node13&#45;&gt;Node8 -->
<g id="edge15" class="edge">
<title>Node13&#45;&gt;Node8</title>
<path fill="none" stroke="midnightblue" d="M447.8,-46.4C444.79,-37.36 441.31,-26.94 438.92,-19.75"/>
<polygon fill="midnightblue" stroke="midnightblue" points="444.54,-47.7 451.03,-56.08 451.19,-45.49 444.54,-47.7"/>
</g>
<!-- Node13&#45;&gt;Node9 -->
<g id="edge16" class="edge">
<title>Node13&#45;&gt;Node9</title>
<path fill="none" stroke="midnightblue" d="M416.87,-53.8C383.11,-43.61 334.02,-28.81 303.33,-19.55"/>
<polygon fill="midnightblue" stroke="midnightblue" points="416.23,-57.26 426.81,-56.8 418.25,-50.56 416.23,-57.26"/>
</g>
<!-- Node13&#45;&gt;Node10 -->
<g id="edge18" class="edge">
<title>Node13&#45;&gt;Node10</title>
<path fill="none" stroke="midnightblue" d="M481.9,-52.23C503.97,-42.13 534.18,-28.31 553.39,-19.52"/>
<polygon fill="midnightblue" stroke="midnightblue" points="480.33,-49.1 472.7,-56.44 483.25,-55.46 480.33,-49.1"/>
</g>
<!-- Node13&#45;&gt;Node11 -->
<g id="edge19" class="edge">
<title>Node13&#45;&gt;Node11</title>
<path fill="none" stroke="midnightblue" d="M430.19,-51.18C413.08,-41.24 390.53,-28.15 375.9,-19.65"/>
<polygon fill="midnightblue" stroke="midnightblue" points="428.65,-54.33 439.06,-56.32 432.17,-48.28 428.65,-54.33"/>
</g>
<!-- Node13&#45;&gt;Node12 -->
<g id="edge20" class="edge">
<title>Node13&#45;&gt;Node12</title>
<path fill="none" stroke="midnightblue" d="M490.94,-54.45C527.79,-43.92 583.51,-28 616.28,-18.64"/>
<polygon fill="midnightblue" stroke="midnightblue" points="489.73,-51.15 481.08,-57.26 491.66,-57.88 489.73,-51.15"/>
</g>
<!-- Node14 -->
<g id="node14" class="node">
<title>Node14</title>
<g id="a_node14"><a xlink:href="netint_8c_source.html" target="_top" xlink:title=" ">
<polygon fill="white" stroke="black" points="474.5,-0.5 474.5,-19.5 527.5,-19.5 527.5,-0.5 474.5,-0.5"/>
<text text-anchor="middle" x="501" y="-7.5" font-family="Helvetica,sans-Serif" font-size="10.00">netint.c</text>
</a>
</g>
</g>
<!-- Node13&#45;&gt;Node14 -->
<g id="edge17" class="edge">
<title>Node13&#45;&gt;Node14</title>
<path fill="none" stroke="midnightblue" d="M468.42,-48.43C476.66,-38.97 486.65,-27.48 493.38,-19.75"/>
<polygon fill="midnightblue" stroke="midnightblue" points="465.69,-46.24 461.76,-56.08 470.97,-50.84 465.69,-46.24"/>
</g>
<!-- Node13&#45;&gt;Node15 -->
<g id="edge21" class="edge">
<title>Node13&#45;&gt;Node15</title>
<path fill="none" stroke="midnightblue" d="M491.28,-58.45C536.07,-50.37 613.38,-35.77 679,-20 681.69,-19.35 684.5,-18.63 687.29,-17.89"/>
<polygon fill="midnightblue" stroke="midnightblue" points="490.39,-55.05 481.16,-60.26 491.62,-61.94 490.39,-55.05"/>
</g>
<!-- Node17&#45;&gt;Node4 -->
<g id="edge25" class="edge">
<title>Node17&#45;&gt;Node4</title>
<path fill="none" stroke="midnightblue" d="M165.78,-53.04C137.55,-42.88 97.74,-28.55 72.66,-19.52"/>
<polygon fill="midnightblue" stroke="midnightblue" points="164.64,-56.35 175.23,-56.44 167.01,-49.76 164.64,-56.35"/>
</g>
<!-- Node17&#45;&gt;Node9 -->
<g id="edge26" class="edge">
<title>Node17&#45;&gt;Node9</title>
<path fill="none" stroke="midnightblue" d="M219.58,-50.38C233.31,-40.62 250.93,-28.11 262.57,-19.83"/>
<polygon fill="midnightblue" stroke="midnightblue" points="217.34,-47.68 211.21,-56.32 221.39,-53.38 217.34,-47.68"/>
</g>
<!-- Node17&#45;&gt;Node11 -->
<g id="edge27" class="edge">
<title>Node17&#45;&gt;Node11</title>
<path fill="none" stroke="midnightblue" d="M234.48,-53.17C264.99,-43 308.24,-28.59 335.45,-19.52"/>
<polygon fill="midnightblue" stroke="midnightblue" points="233.05,-49.96 224.67,-56.44 235.26,-56.6 233.05,-49.96"/>
</g>
<!-- Node17&#45;&gt;Node16 -->
<g id="edge29" class="edge">
<title>Node17&#45;&gt;Node16</title>
<path fill="none" stroke="midnightblue" d="M199,-45.8C199,-36.91 199,-26.78 199,-19.75"/>
<polygon fill="midnightblue" stroke="midnightblue" points="195.5,-46.08 199,-56.08 202.5,-46.08 195.5,-46.08"/>
</g>
<!-- Node18 -->
<g id="node18" class="node">
<title>Node18</title>
<g id="a_node18"><a xlink:href="sumset_8c_source.html" target="_top" xlink:title=" ">
<polygon fill="white" stroke="black" points="92.5,-0.5 92.5,-19.5 153.5,-19.5 153.5,-0.5 92.5,-0.5"/>
<text text-anchor="middle" x="123" y="-7.5" font-family="Helvetica,sans-Serif" font-size="10.00">sumset.c</text>
</a>
</g>
</g>
<!-- Node17&#45;&gt;Node18 -->
<g id="edge28" class="edge">
<title>Node17&#45;&gt;Node18</title>
<path fill="none" stroke="midnightblue" d="M178.42,-50.38C164.69,-40.62 147.07,-28.11 135.43,-19.83"/>
<polygon fill="midnightblue" stroke="midnightblue" points="176.61,-53.38 186.79,-56.32 180.66,-47.68 176.61,-53.38"/>
</g>
</g>
</svg>
