<?xml version="1.0" encoding="UTF-8" standalone="no"?>
<!DOCTYPE svg PUBLIC "-//W3C//DTD SVG 1.1//EN"
 "http://www.w3.org/Graphics/SVG/1.1/DTD/svg11.dtd">
<!-- Generated by graphviz version 2.43.0 (0)
 -->
<!-- Title: scoop.h Pages: 1 -->
<svg width="566pt" height="84pt"
 viewBox="0.00 0.00 565.50 84.00" xmlns="http://www.w3.org/2000/svg" xmlns:xlink="http://www.w3.org/1999/xlink">
<g id="graph0" class="graph" transform="scale(1 1) rotate(0) translate(4 80)">
<title>scoop.h</title>
<polygon fill="white" stroke="transparent" points="-4,4 -4,-80 561.5,-80 561.5,4 -4,4"/>
<!-- Node1 -->
<g id="node1" class="node">
<title>Node1</title>
<g id="a_node1"><a xlink:title="Manage librsync streams of IO.">
<polygon fill="#bfbfbf" stroke="black" points="241,-56.5 241,-75.5 295,-75.5 295,-56.5 241,-56.5"/>
<text text-anchor="middle" x="268" y="-63.5" font-family="Helvetica,sans-Serif" font-size="10.00">scoop.h</text>
</a>
</g>
</g>
<!-- Node2 -->
<g id="node2" class="node">
<title>Node2</title>
<g id="a_node2"><a xlink:href="delta_8c.html" target="_top" xlink:title="Generate in streaming mode an rsync delta given a set of signatures, and a new file.">
<polygon fill="white" stroke="black" points="0,-0.5 0,-19.5 50,-19.5 50,-0.5 0,-0.5"/>
<text text-anchor="middle" x="25" y="-7.5" font-family="Helvetica,sans-Serif" font-size="10.00">delta.c</text>
</a>
</g>
</g>
<!-- Node1&#45;&gt;Node2 -->
<g id="edge1" class="edge">
<title>Node1&#45;&gt;Node2</title>
<path fill="none" stroke="midnightblue" d="M230.84,-57.54C188.95,-49.02 118.89,-34.37 59,-20 56.15,-19.32 53.17,-18.57 50.22,-17.82"/>
<polygon fill="midnightblue" stroke="midnightblue" points="230.36,-61.02 240.85,-59.58 231.75,-54.16 230.36,-61.02"/>
</g>
<!-- Node3 -->
<g id="node3" class="node">
<title>Node3</title>
<g id="a_node3"><a xlink:href="job_8c_source.html" target="_top" xlink:title=" ">
<polygon fill="white" stroke="black" points="68,-0.5 68,-19.5 108,-19.5 108,-0.5 68,-0.5"/>
<text text-anchor="middle" x="88" y="-7.5" font-family="Helvetica,sans-Serif" font-size="10.00">job.c</text>
</a>
</g>
</g>
<!-- Node1&#45;&gt;Node3 -->
<g id="edge2" class="edge">
<title>Node1&#45;&gt;Node3</title>
<path fill="none" stroke="midnightblue" d="M231.16,-54.15C200.56,-45.1 155.91,-31.84 117,-20 114.18,-19.14 111.2,-18.23 108.27,-17.32"/>
<polygon fill="midnightblue" stroke="midnightblue" points="230.39,-57.57 240.97,-57.04 232.37,-50.86 230.39,-57.57"/>
</g>
<!-- Node4 -->
<g id="node4" class="node">
<title>Node4</title>
<g id="a_node4"><a xlink:href="mksum_8c.html" target="_top" xlink:title="Generate file signatures.">
<polygon fill="white" stroke="black" points="126,-0.5 126,-19.5 188,-19.5 188,-0.5 126,-0.5"/>
<text text-anchor="middle" x="157" y="-7.5" font-family="Helvetica,sans-Serif" font-size="10.00">mksum.c</text>
</a>
</g>
</g>
<!-- Node1&#45;&gt;Node4 -->
<g id="edge3" class="edge">
<title>Node1&#45;&gt;Node4</title>
<path fill="none" stroke="midnightblue" d="M240.99,-51.86C220.41,-41.85 192.66,-28.35 174.79,-19.65"/>
<polygon fill="midnightblue" stroke="midnightblue" points="239.64,-55.1 250.17,-56.32 242.7,-48.8 239.64,-55.1"/>
</g>
<!-- Node5 -->
<g id="node5" class="node">
<title>Node5</title>
<g id="a_node5"><a xlink:href="netint_8c_source.html" target="_top" xlink:title=" ">
<polygon fill="white" stroke="black" points="206.5,-0.5 206.5,-19.5 259.5,-19.5 259.5,-0.5 206.5,-0.5"/>
<text text-anchor="middle" x="233" y="-7.5" font-family="Helvetica,sans-Serif" font-size="10.00">netint.c</text>
</a>
</g>
</g>
<!-- Node1&#45;&gt;Node5 -->
<g id="edge4" class="edge">
<title>Node1&#45;&gt;Node5</title>
<path fill="none" stroke="midnightblue" d="M256.7,-47.57C250.68,-38.27 243.53,-27.25 238.67,-19.75"/>
<polygon fill="midnightblue" stroke="midnightblue" points="253.84,-49.6 262.22,-56.08 259.72,-45.79 253.84,-49.6"/>
</g>
<!-- Node6 -->
<g id="node6" class="node">
<title>Node6</title>
<g id="a_node6"><a xlink:href="patch_8c.html" target="_top" xlink:title="Apply a delta to an old file to generate a new file.">
<polygon fill="white" stroke="black" points="278,-0.5 278,-19.5 330,-19.5 330,-0.5 278,-0.5"/>
<text text-anchor="middle" x="304" y="-7.5" font-family="Helvetica,sans-Serif" font-size="10.00">patch.c</text>
</a>
</g>
</g>
<!-- Node1&#45;&gt;Node6 -->
<g id="edge5" class="edge">
<title>Node1&#45;&gt;Node6</title>
<path fill="none" stroke="midnightblue" d="M279.62,-47.57C285.82,-38.27 293.17,-27.25 298.17,-19.75"/>
<polygon fill="midnightblue" stroke="midnightblue" points="276.58,-45.82 273.94,-56.08 282.4,-49.7 276.58,-45.82"/>
</g>
<!-- Node7 -->
<g id="node7" class="node">
<title>Node7</title>
<g id="a_node7"><a xlink:href="readsums_8c.html" target="_top" xlink:title="Load signatures from a file.">
<polygon fill="white" stroke="black" points="348.5,-0.5 348.5,-19.5 421.5,-19.5 421.5,-0.5 348.5,-0.5"/>
<text text-anchor="middle" x="385" y="-7.5" font-family="Helvetica,sans-Serif" font-size="10.00">readsums.c</text>
</a>
</g>
</g>
<!-- Node1&#45;&gt;Node7 -->
<g id="edge6" class="edge">
<title>Node1&#45;&gt;Node7</title>
<path fill="none" stroke="midnightblue" d="M295.66,-52.23C317.55,-42.13 347.5,-28.31 366.55,-19.52"/>
<polygon fill="midnightblue" stroke="midnightblue" points="294.15,-49.08 286.54,-56.44 297.09,-55.43 294.15,-49.08"/>
</g>
<!-- Node8 -->
<g id="node8" class="node">
<title>Node8</title>
<g id="a_node8"><a xlink:href="scoop_8c.html" target="_top" xlink:title="This file deals with readahead from caller&#45;supplied buffers.">
<polygon fill="white" stroke="black" points="439.5,-0.5 439.5,-19.5 492.5,-19.5 492.5,-0.5 439.5,-0.5"/>
<text text-anchor="middle" x="466" y="-7.5" font-family="Helvetica,sans-Serif" font-size="10.00">scoop.c</text>
</a>
</g>
</g>
<!-- Node1&#45;&gt;Node8 -->
<g id="edge7" class="edge">
<title>Node1&#45;&gt;Node8</title>
<path fill="none" stroke="midnightblue" d="M305.03,-54.9C344.05,-44.26 404.57,-27.75 439.21,-18.31"/>
<polygon fill="midnightblue" stroke="midnightblue" points="303.84,-51.6 295.12,-57.6 305.68,-58.35 303.84,-51.6"/>
</g>
<!-- Node9 -->
<g id="node9" class="node">
<title>Node9</title>
<g id="a_node9"><a xlink:href="tube_8c.html" target="_top" xlink:title="A somewhat elastic but fairly small buffer for data passing through a stream.">
<polygon fill="white" stroke="black" points="510.5,-0.5 510.5,-19.5 557.5,-19.5 557.5,-0.5 510.5,-0.5"/>
<text text-anchor="middle" x="534" y="-7.5" font-family="Helvetica,sans-Serif" font-size="10.00">tube.c</text>
</a>
</g>
</g>
<!-- Node1&#45;&gt;Node9 -->
<g id="edge8" class="edge">
<title>Node1&#45;&gt;Node9</title>
<path fill="none" stroke="midnightblue" d="M305.06,-58.87C351.37,-50.97 432.94,-36.32 502,-20 504.7,-19.36 507.51,-18.65 510.29,-17.91"/>
<polygon fill="midnightblue" stroke="midnightblue" points="304.46,-55.42 295.18,-60.54 305.63,-62.32 304.46,-55.42"/>
</g>
</g>
</svg>
