<?xml version="1.0" encoding="UTF-8" standalone="no"?>
<!DOCTYPE svg PUBLIC "-//W3C//DTD SVG 1.1//EN"
 "http://www.w3.org/Graphics/SVG/1.1/DTD/svg11.dtd">
<!-- Generated by graphviz version 2.43.0 (0)
 -->
<!-- Title: scoop.h Pages: 1 -->
<svg width="751pt" height="252pt"
 viewBox="0.00 0.00 751.00 252.00" xmlns="http://www.w3.org/2000/svg" xmlns:xlink="http://www.w3.org/1999/xlink">
<g id="graph0" class="graph" transform="scale(1 1) rotate(0) translate(4 248)">
<title>scoop.h</title>
<polygon fill="white" stroke="transparent" points="-4,4 -4,-248 747,-248 747,4 -4,4"/>
<!-- Node1 -->
<g id="node1" class="node">
<title>Node1</title>
<g id="a_node1"><a xlink:title="Manage librsync streams of IO.">
<polygon fill="#bfbfbf" stroke="black" points="210,-224.5 210,-243.5 264,-243.5 264,-224.5 210,-224.5"/>
<text text-anchor="middle" x="237" y="-231.5" font-family="Helvetica,sans-Serif" font-size="10.00">scoop.h</text>
</a>
</g>
</g>
<!-- Node2 -->
<g id="node2" class="node">
<title>Node2</title>
<g id="a_node2"><a xlink:title=" ">
<polygon fill="white" stroke="#bfbfbf" points="0,-0.5 0,-19.5 62,-19.5 62,-0.5 0,-0.5"/>
<text text-anchor="middle" x="31" y="-7.5" font-family="Helvetica,sans-Serif" font-size="10.00">stdbool.h</text>
</a>
</g>
</g>
<!-- Node1&#45;&gt;Node2 -->
<g id="edge1" class="edge">
<title>Node1&#45;&gt;Node2</title>
<path fill="none" stroke="midnightblue" d="M228.92,-224.3C198.04,-191.01 87.07,-71.42 46.23,-27.41"/>
<polygon fill="midnightblue" stroke="midnightblue" points="48.61,-24.83 39.24,-19.88 43.48,-29.59 48.61,-24.83"/>
</g>
<!-- Node3 -->
<g id="node3" class="node">
<title>Node3</title>
<g id="a_node3"><a xlink:title=" ">
<polygon fill="white" stroke="#bfbfbf" points="266,-0.5 266,-19.5 322,-19.5 322,-0.5 266,-0.5"/>
<text text-anchor="middle" x="294" y="-7.5" font-family="Helvetica,sans-Serif" font-size="10.00">stddef.h</text>
</a>
</g>
</g>
<!-- Node1&#45;&gt;Node3 -->
<g id="edge2" class="edge">
<title>Node1&#45;&gt;Node3</title>
<path fill="none" stroke="midnightblue" d="M239.23,-224.3C247.64,-191.56 277.47,-75.38 289.21,-29.67"/>
<polygon fill="midnightblue" stroke="midnightblue" points="292.62,-30.44 291.72,-19.88 285.84,-28.7 292.62,-30.44"/>
</g>
<!-- Node4 -->
<g id="node4" class="node">
<title>Node4</title>
<g id="a_node4"><a xlink:href="job_8h.html" target="_top" xlink:title="Generic state&#45;machine interface.">
<polygon fill="white" stroke="black" points="287.5,-168.5 287.5,-187.5 328.5,-187.5 328.5,-168.5 287.5,-168.5"/>
<text text-anchor="middle" x="308" y="-175.5" font-family="Helvetica,sans-Serif" font-size="10.00">job.h</text>
</a>
</g>
</g>
<!-- Node1&#45;&gt;Node4 -->
<g id="edge3" class="edge">
<title>Node1&#45;&gt;Node4</title>
<path fill="none" stroke="midnightblue" d="M248.41,-224.32C259.11,-216.18 275.34,-203.84 288.16,-194.09"/>
<polygon fill="midnightblue" stroke="midnightblue" points="290.54,-196.67 296.39,-187.83 286.31,-191.1 290.54,-196.67"/>
</g>
<!-- Node9 -->
<g id="node9" class="node">
<title>Node9</title>
<g id="a_node9"><a xlink:href="librsync_8h.html" target="_top" xlink:title="Public header for librsync.">
<polygon fill="white" stroke="black" points="549,-56.5 549,-75.5 613,-75.5 613,-56.5 549,-56.5"/>
<text text-anchor="middle" x="581" y="-63.5" font-family="Helvetica,sans-Serif" font-size="10.00">librsync.h</text>
</a>
</g>
</g>
<!-- Node1&#45;&gt;Node9 -->
<g id="edge27" class="edge">
<title>Node1&#45;&gt;Node9</title>
<path fill="none" stroke="midnightblue" d="M264.14,-228.37C317.84,-218.2 439.85,-190.06 525,-132 543.57,-119.33 559.71,-99.01 569.83,-84.46"/>
<polygon fill="midnightblue" stroke="midnightblue" points="572.93,-86.13 575.58,-75.87 567.11,-82.23 572.93,-86.13"/>
</g>
<!-- Node4&#45;&gt;Node3 -->
<g id="edge5" class="edge">
<title>Node4&#45;&gt;Node3</title>
<path fill="none" stroke="midnightblue" d="M304.68,-168.19C301.49,-159.23 296.88,-144.88 295,-132 289.77,-96.09 291.14,-53.55 292.59,-29.68"/>
<polygon fill="midnightblue" stroke="midnightblue" points="296.09,-29.78 293.28,-19.57 289.1,-29.31 296.09,-29.78"/>
</g>
<!-- Node5 -->
<g id="node5" class="node">
<title>Node5</title>
<g id="a_node5"><a xlink:title=" ">
<polygon fill="white" stroke="#bfbfbf" points="80,-0.5 80,-19.5 136,-19.5 136,-0.5 80,-0.5"/>
<text text-anchor="middle" x="108" y="-7.5" font-family="Helvetica,sans-Serif" font-size="10.00">assert.h</text>
</a>
</g>
</g>
<!-- Node4&#45;&gt;Node5 -->
<g id="edge4" class="edge">
<title>Node4&#45;&gt;Node5</title>
<path fill="none" stroke="midnightblue" d="M287.46,-173.55C245.53,-165.28 150.59,-140.05 110,-76 101.32,-62.31 101.75,-43.52 103.8,-29.67"/>
<polygon fill="midnightblue" stroke="midnightblue" points="107.25,-30.28 105.65,-19.8 100.37,-28.99 107.25,-30.28"/>
</g>
<!-- Node6 -->
<g id="node6" class="node">
<title>Node6</title>
<g id="a_node6"><a xlink:href="mdfour_8h.html" target="_top" xlink:title="MD4 message digest algorithm.">
<polygon fill="white" stroke="black" points="424.5,-112.5 424.5,-131.5 485.5,-131.5 485.5,-112.5 424.5,-112.5"/>
<text text-anchor="middle" x="455" y="-119.5" font-family="Helvetica,sans-Serif" font-size="10.00">mdfour.h</text>
</a>
</g>
</g>
<!-- Node4&#45;&gt;Node6 -->
<g id="edge6" class="edge">
<title>Node4&#45;&gt;Node6</title>
<path fill="none" stroke="midnightblue" d="M328.75,-169.38C352.96,-160.48 393.31,-145.66 421.87,-135.17"/>
<polygon fill="midnightblue" stroke="midnightblue" points="423.26,-138.39 431.44,-131.65 420.85,-131.82 423.26,-138.39"/>
</g>
<!-- Node8 -->
<g id="node8" class="node">
<title>Node8</title>
<g id="a_node8"><a xlink:href="checksum_8h.html" target="_top" xlink:title="Abstract wrappers around different weaksum and strongsum implementations.">
<polygon fill="white" stroke="black" points="303.5,-112.5 303.5,-131.5 378.5,-131.5 378.5,-112.5 303.5,-112.5"/>
<text text-anchor="middle" x="341" y="-119.5" font-family="Helvetica,sans-Serif" font-size="10.00">checksum.h</text>
</a>
</g>
</g>
<!-- Node4&#45;&gt;Node8 -->
<g id="edge8" class="edge">
<title>Node4&#45;&gt;Node8</title>
<path fill="none" stroke="midnightblue" d="M313.45,-168.08C318.01,-160.61 324.67,-149.72 330.29,-140.52"/>
<polygon fill="midnightblue" stroke="midnightblue" points="333.42,-142.11 335.65,-131.75 327.45,-138.46 333.42,-142.11"/>
</g>
<!-- Node4&#45;&gt;Node9 -->
<g id="edge26" class="edge">
<title>Node4&#45;&gt;Node9</title>
<path fill="none" stroke="midnightblue" d="M328.56,-174.84C364,-170.52 438.25,-158.83 495,-132 521.8,-119.33 548.36,-97.45 564.71,-82.62"/>
<polygon fill="midnightblue" stroke="midnightblue" points="567.34,-84.95 572.29,-75.58 562.58,-79.83 567.34,-84.95"/>
</g>
<!-- Node7 -->
<g id="node7" class="node">
<title>Node7</title>
<g id="a_node7"><a xlink:title=" ">
<polygon fill="white" stroke="#bfbfbf" points="435.5,-0.5 435.5,-19.5 488.5,-19.5 488.5,-0.5 435.5,-0.5"/>
<text text-anchor="middle" x="462" y="-7.5" font-family="Helvetica,sans-Serif" font-size="10.00">stdint.h</text>
</a>
</g>
</g>
<!-- Node6&#45;&gt;Node7 -->
<g id="edge7" class="edge">
<title>Node6&#45;&gt;Node7</title>
<path fill="none" stroke="midnightblue" d="M469.08,-112.26C480.35,-104.35 495.35,-91.58 502,-76 509.66,-58.07 495.3,-39.28 481.7,-26.54"/>
<polygon fill="midnightblue" stroke="midnightblue" points="483.8,-23.72 473.96,-19.79 479.2,-29 483.8,-23.72"/>
</g>
<!-- Node8&#45;&gt;Node3 -->
<g id="edge10" class="edge">
<title>Node8&#45;&gt;Node3</title>
<path fill="none" stroke="midnightblue" d="M337.31,-112.37C329.66,-94.46 311.91,-52.92 301.67,-28.95"/>
<polygon fill="midnightblue" stroke="midnightblue" points="304.82,-27.41 297.67,-19.59 298.38,-30.16 304.82,-27.41"/>
</g>
<!-- Node8&#45;&gt;Node5 -->
<g id="edge9" class="edge">
<title>Node8&#45;&gt;Node5</title>
<path fill="none" stroke="midnightblue" d="M303.39,-117.8C248.76,-112.4 151.24,-99.68 126,-76 113.47,-64.24 109.39,-44.6 108.19,-29.98"/>
<polygon fill="midnightblue" stroke="midnightblue" points="111.67,-29.42 107.74,-19.58 104.67,-29.72 111.67,-29.42"/>
</g>
<!-- Node8&#45;&gt;Node9 -->
<g id="edge11" class="edge">
<title>Node8&#45;&gt;Node9</title>
<path fill="none" stroke="midnightblue" d="M378.76,-112.5C422.33,-102.7 493.76,-86.63 539.03,-76.44"/>
<polygon fill="midnightblue" stroke="midnightblue" points="539.85,-79.85 548.83,-74.24 538.31,-73.02 539.85,-79.85"/>
</g>
<!-- Node13 -->
<g id="node13" class="node">
<title>Node13</title>
<g id="a_node13"><a xlink:href="rollsum_8h.html" target="_top" xlink:title="The Rollsum class implementation of the original rsync rollsum.">
<polygon fill="white" stroke="black" points="431,-56.5 431,-75.5 493,-75.5 493,-56.5 431,-56.5"/>
<text text-anchor="middle" x="462" y="-63.5" font-family="Helvetica,sans-Serif" font-size="10.00">rollsum.h</text>
</a>
</g>
</g>
<!-- Node8&#45;&gt;Node13 -->
<g id="edge16" class="edge">
<title>Node8&#45;&gt;Node13</title>
<path fill="none" stroke="midnightblue" d="M360.17,-112.44C379.91,-103.64 410.89,-89.81 433.49,-79.72"/>
<polygon fill="midnightblue" stroke="midnightblue" points="435.21,-82.79 442.92,-75.52 432.36,-76.4 435.21,-82.79"/>
</g>
<!-- Node14 -->
<g id="node14" class="node">
<title>Node14</title>
<g id="a_node14"><a xlink:href="rabinkarp_8h.html" target="_top" xlink:title="The rabinkarp class implementation of the RabinKarp rollsum.">
<polygon fill="white" stroke="black" points="341,-56.5 341,-75.5 413,-75.5 413,-56.5 341,-56.5"/>
<text text-anchor="middle" x="377" y="-63.5" font-family="Helvetica,sans-Serif" font-size="10.00">rabinkarp.h</text>
</a>
</g>
</g>
<!-- Node8&#45;&gt;Node14 -->
<g id="edge19" class="edge">
<title>Node8&#45;&gt;Node14</title>
<path fill="none" stroke="midnightblue" d="M346.94,-112.08C351.98,-104.53 359.34,-93.49 365.51,-84.23"/>
<polygon fill="midnightblue" stroke="midnightblue" points="368.53,-86.01 371.17,-75.75 362.71,-82.13 368.53,-86.01"/>
</g>
<!-- Node15 -->
<g id="node15" class="node">
<title>Node15</title>
<g id="a_node15"><a xlink:href="hashtable_8h.html" target="_top" xlink:title="A generic open addressing hashtable.">
<polygon fill="white" stroke="black" points="135,-56.5 135,-75.5 209,-75.5 209,-56.5 135,-56.5"/>
<text text-anchor="middle" x="172" y="-63.5" font-family="Helvetica,sans-Serif" font-size="10.00">hashtable.h</text>
</a>
</g>
</g>
<!-- Node8&#45;&gt;Node15 -->
<g id="edge22" class="edge">
<title>Node8&#45;&gt;Node15</title>
<path fill="none" stroke="midnightblue" d="M314.22,-112.44C285.67,-103.32 240.27,-88.81 208.46,-78.65"/>
<polygon fill="midnightblue" stroke="midnightblue" points="209.24,-75.23 198.65,-75.52 207.11,-81.89 209.24,-75.23"/>
</g>
<!-- Node9&#45;&gt;Node7 -->
<g id="edge13" class="edge">
<title>Node9&#45;&gt;Node7</title>
<path fill="none" stroke="midnightblue" d="M562.14,-56.44C542.73,-47.64 512.27,-33.81 490.04,-23.72"/>
<polygon fill="midnightblue" stroke="midnightblue" points="491.32,-20.46 480.77,-19.52 488.43,-26.84 491.32,-20.46"/>
</g>
<!-- Node10 -->
<g id="node10" class="node">
<title>Node10</title>
<g id="a_node10"><a xlink:title=" ">
<polygon fill="white" stroke="#bfbfbf" points="693,-0.5 693,-19.5 743,-19.5 743,-0.5 693,-0.5"/>
<text text-anchor="middle" x="718" y="-7.5" font-family="Helvetica,sans-Serif" font-size="10.00">stdio.h</text>
</a>
</g>
</g>
<!-- Node9&#45;&gt;Node10 -->
<g id="edge12" class="edge">
<title>Node9&#45;&gt;Node10</title>
<path fill="none" stroke="midnightblue" d="M602.71,-56.44C625.35,-47.52 661.07,-33.44 686.75,-23.32"/>
<polygon fill="midnightblue" stroke="midnightblue" points="688.37,-26.44 696.39,-19.52 685.81,-19.93 688.37,-26.44"/>
</g>
<!-- Node11 -->
<g id="node11" class="node">
<title>Node11</title>
<g id="a_node11"><a xlink:title=" ">
<polygon fill="white" stroke="#bfbfbf" points="507,-0.5 507,-19.5 555,-19.5 555,-0.5 507,-0.5"/>
<text text-anchor="middle" x="531" y="-7.5" font-family="Helvetica,sans-Serif" font-size="10.00">time.h</text>
</a>
</g>
</g>
<!-- Node9&#45;&gt;Node11 -->
<g id="edge14" class="edge">
<title>Node9&#45;&gt;Node11</title>
<path fill="none" stroke="midnightblue" d="M572.74,-56.08C565.54,-48.3 554.89,-36.8 546.15,-27.37"/>
<polygon fill="midnightblue" stroke="midnightblue" points="548.47,-24.71 539.1,-19.75 543.33,-29.47 548.47,-24.71"/>
</g>
<!-- Node12 -->
<g id="node12" class="node">
<title>Node12</title>
<g id="a_node12"><a xlink:href="librsync__export_8h_source.html" target="_top" xlink:title=" ">
<polygon fill="white" stroke="black" points="573.5,-0.5 573.5,-19.5 674.5,-19.5 674.5,-0.5 573.5,-0.5"/>
<text text-anchor="middle" x="624" y="-7.5" font-family="Helvetica,sans-Serif" font-size="10.00">librsync_export.h</text>
</a>
</g>
</g>
<!-- Node9&#45;&gt;Node12 -->
<g id="edge15" class="edge">
<title>Node9&#45;&gt;Node12</title>
<path fill="none" stroke="midnightblue" d="M588.1,-56.08C594.24,-48.38 603.27,-37.03 610.74,-27.65"/>
<polygon fill="midnightblue" stroke="midnightblue" points="613.54,-29.75 617.03,-19.75 608.06,-25.39 613.54,-29.75"/>
</g>
<!-- Node13&#45;&gt;Node3 -->
<g id="edge17" class="edge">
<title>Node13&#45;&gt;Node3</title>
<path fill="none" stroke="midnightblue" d="M435.38,-56.44C406.99,-47.32 361.86,-32.81 330.25,-22.65"/>
<polygon fill="midnightblue" stroke="midnightblue" points="331.09,-19.24 320.5,-19.52 328.94,-25.91 331.09,-19.24"/>
</g>
<!-- Node13&#45;&gt;Node7 -->
<g id="edge18" class="edge">
<title>Node13&#45;&gt;Node7</title>
<path fill="none" stroke="midnightblue" d="M462,-56.08C462,-49.01 462,-38.86 462,-29.99"/>
<polygon fill="midnightblue" stroke="midnightblue" points="465.5,-29.75 462,-19.75 458.5,-29.75 465.5,-29.75"/>
</g>
<!-- Node14&#45;&gt;Node3 -->
<g id="edge20" class="edge">
<title>Node14&#45;&gt;Node3</title>
<path fill="none" stroke="midnightblue" d="M363.66,-56.32C350.84,-47.98 331.22,-35.21 316.06,-25.35"/>
<polygon fill="midnightblue" stroke="midnightblue" points="317.59,-22.17 307.3,-19.65 313.78,-28.04 317.59,-22.17"/>
</g>
<!-- Node14&#45;&gt;Node7 -->
<g id="edge21" class="edge">
<title>Node14&#45;&gt;Node7</title>
<path fill="none" stroke="midnightblue" d="M390.66,-56.32C403.92,-47.9 424.27,-34.97 439.85,-25.07"/>
<polygon fill="midnightblue" stroke="midnightblue" points="441.81,-27.97 448.38,-19.65 438.06,-22.06 441.81,-27.97"/>
</g>
<!-- Node15&#45;&gt;Node2 -->
<g id="edge23" class="edge">
<title>Node15&#45;&gt;Node2</title>
<path fill="none" stroke="midnightblue" d="M149.66,-56.44C126.25,-47.48 89.26,-33.31 62.81,-23.18"/>
<polygon fill="midnightblue" stroke="midnightblue" points="63.83,-19.82 53.24,-19.52 61.32,-26.36 63.83,-19.82"/>
</g>
<!-- Node15&#45;&gt;Node3 -->
<g id="edge25" class="edge">
<title>Node15&#45;&gt;Node3</title>
<path fill="none" stroke="midnightblue" d="M191.33,-56.44C211.32,-47.6 242.74,-33.69 265.56,-23.59"/>
<polygon fill="midnightblue" stroke="midnightblue" points="267.03,-26.76 274.76,-19.52 264.2,-20.36 267.03,-26.76"/>
</g>
<!-- Node15&#45;&gt;Node5 -->
<g id="edge24" class="edge">
<title>Node15&#45;&gt;Node5</title>
<path fill="none" stroke="midnightblue" d="M161.72,-56.32C152.16,-48.26 137.72,-36.08 126.22,-26.37"/>
<polygon fill="midnightblue" stroke="midnightblue" points="128.37,-23.61 118.47,-19.83 123.86,-28.96 128.37,-23.61"/>
</g>
</g>
</svg>
