<?xml version="1.0" encoding="UTF-8" standalone="no"?>
<!DOCTYPE svg PUBLIC "-//W3C//DTD SVG 1.1//EN"
 "http://www.w3.org/Graphics/SVG/1.1/DTD/svg11.dtd">
<!-- Generated by graphviz version 2.43.0 (0)
 -->
<!-- Title: scoop.c Pages: 1 -->
<svg width="856pt" height="308pt"
 viewBox="0.00 0.00 855.50 308.00" xmlns="http://www.w3.org/2000/svg" xmlns:xlink="http://www.w3.org/1999/xlink">
<g id="graph0" class="graph" transform="scale(1 1) rotate(0) translate(4 304)">
<title>scoop.c</title>
<polygon fill="white" stroke="transparent" points="-4,4 -4,-304 851.5,-304 851.5,4 -4,4"/>
<!-- Node1 -->
<g id="node1" class="node">
<title>Node1</title>
<g id="a_node1"><a xlink:title="This file deals with readahead from caller&#45;supplied buffers.">
<polygon fill="#bfbfbf" stroke="black" points="511.5,-280.5 511.5,-299.5 564.5,-299.5 564.5,-280.5 511.5,-280.5"/>
<text text-anchor="middle" x="538" y="-287.5" font-family="Helvetica,sans-Serif" font-size="10.00">scoop.c</text>
</a>
</g>
</g>
<!-- Node2 -->
<g id="node2" class="node">
<title>Node2</title>
<g id="a_node2"><a xlink:title=" ">
<polygon fill="white" stroke="#bfbfbf" points="29,-0.5 29,-19.5 85,-19.5 85,-0.5 29,-0.5"/>
<text text-anchor="middle" x="57" y="-7.5" font-family="Helvetica,sans-Serif" font-size="10.00">assert.h</text>
</a>
</g>
</g>
<!-- Node1&#45;&gt;Node2 -->
<g id="edge1" class="edge">
<title>Node1&#45;&gt;Node2</title>
<path fill="none" stroke="midnightblue" d="M511.32,-289.3C402.76,-289.81 0,-284.58 0,-179 0,-179 0,-179 0,-121 0,-84.3 25.32,-47.66 42.21,-27.3"/>
<polygon fill="midnightblue" stroke="midnightblue" points="44.95,-29.48 48.83,-19.62 39.65,-24.9 44.95,-29.48"/>
</g>
<!-- Node3 -->
<g id="node3" class="node">
<title>Node3</title>
<g id="a_node3"><a xlink:title=" ">
<polygon fill="white" stroke="#bfbfbf" points="358.5,-224.5 358.5,-243.5 411.5,-243.5 411.5,-224.5 358.5,-224.5"/>
<text text-anchor="middle" x="385" y="-231.5" font-family="Helvetica,sans-Serif" font-size="10.00">stdlib.h</text>
</a>
</g>
</g>
<!-- Node1&#45;&gt;Node3 -->
<g id="edge2" class="edge">
<title>Node1&#45;&gt;Node3</title>
<path fill="none" stroke="midnightblue" d="M513.76,-280.44C488.13,-271.4 447.51,-257.06 418.76,-246.92"/>
<polygon fill="midnightblue" stroke="midnightblue" points="419.72,-243.54 409.13,-243.52 417.39,-250.15 419.72,-243.54"/>
</g>
<!-- Node4 -->
<g id="node4" class="node">
<title>Node4</title>
<g id="a_node4"><a xlink:title=" ">
<polygon fill="white" stroke="#bfbfbf" points="429.5,-224.5 429.5,-243.5 482.5,-243.5 482.5,-224.5 429.5,-224.5"/>
<text text-anchor="middle" x="456" y="-231.5" font-family="Helvetica,sans-Serif" font-size="10.00">string.h</text>
</a>
</g>
</g>
<!-- Node1&#45;&gt;Node4 -->
<g id="edge3" class="edge">
<title>Node1&#45;&gt;Node4</title>
<path fill="none" stroke="midnightblue" d="M524.83,-280.32C512.15,-271.98 492.77,-259.21 477.79,-249.35"/>
<polygon fill="midnightblue" stroke="midnightblue" points="479.42,-246.23 469.14,-243.65 475.57,-252.08 479.42,-246.23"/>
</g>
<!-- Node5 -->
<g id="node5" class="node">
<title>Node5</title>
<g id="a_node5"><a xlink:href="librsync_8h.html" target="_top" xlink:title="Public header for librsync.">
<polygon fill="white" stroke="black" points="594,-56.5 594,-75.5 658,-75.5 658,-56.5 594,-56.5"/>
<text text-anchor="middle" x="626" y="-63.5" font-family="Helvetica,sans-Serif" font-size="10.00">librsync.h</text>
</a>
</g>
</g>
<!-- Node1&#45;&gt;Node5 -->
<g id="edge4" class="edge">
<title>Node1&#45;&gt;Node5</title>
<path fill="none" stroke="midnightblue" d="M557.73,-280.35C572.35,-272.88 591.49,-260.66 602,-244 633.67,-193.82 631.4,-119.75 628.24,-85.55"/>
<polygon fill="midnightblue" stroke="midnightblue" points="631.72,-85.15 627.18,-75.58 624.76,-85.89 631.72,-85.15"/>
</g>
<!-- Node10 -->
<g id="node10" class="node">
<title>Node10</title>
<g id="a_node10"><a xlink:href="job_8h.html" target="_top" xlink:title="Generic state&#45;machine interface.">
<polygon fill="white" stroke="black" points="420.5,-168.5 420.5,-187.5 461.5,-187.5 461.5,-168.5 420.5,-168.5"/>
<text text-anchor="middle" x="441" y="-175.5" font-family="Helvetica,sans-Serif" font-size="10.00">job.h</text>
</a>
</g>
</g>
<!-- Node1&#45;&gt;Node10 -->
<g id="edge9" class="edge">
<title>Node1&#45;&gt;Node10</title>
<path fill="none" stroke="midnightblue" d="M532.46,-280.15C524.18,-267.21 507.75,-242.65 491,-224 481.46,-213.38 469.64,-202.65 459.88,-194.33"/>
<polygon fill="midnightblue" stroke="midnightblue" points="461.87,-191.43 451.95,-187.7 457.38,-196.8 461.87,-191.43"/>
</g>
<!-- Node18 -->
<g id="node18" class="node">
<title>Node18</title>
<g id="a_node18"><a xlink:href="scoop_8h.html" target="_top" xlink:title="Manage librsync streams of IO.">
<polygon fill="white" stroke="black" points="539,-224.5 539,-243.5 593,-243.5 593,-224.5 539,-224.5"/>
<text text-anchor="middle" x="566" y="-231.5" font-family="Helvetica,sans-Serif" font-size="10.00">scoop.h</text>
</a>
</g>
</g>
<!-- Node1&#45;&gt;Node18 -->
<g id="edge29" class="edge">
<title>Node1&#45;&gt;Node18</title>
<path fill="none" stroke="midnightblue" d="M542.62,-280.08C546.46,-272.69 552.02,-261.95 556.76,-252.81"/>
<polygon fill="midnightblue" stroke="midnightblue" points="559.97,-254.24 561.46,-243.75 553.75,-251.02 559.97,-254.24"/>
</g>
<!-- Node19 -->
<g id="node19" class="node">
<title>Node19</title>
<g id="a_node19"><a xlink:href="trace_8h.html" target="_top" xlink:title="logging functions.">
<polygon fill="white" stroke="black" points="711,-224.5 711,-243.5 761,-243.5 761,-224.5 711,-224.5"/>
<text text-anchor="middle" x="736" y="-231.5" font-family="Helvetica,sans-Serif" font-size="10.00">trace.h</text>
</a>
</g>
</g>
<!-- Node1&#45;&gt;Node19 -->
<g id="edge34" class="edge">
<title>Node1&#45;&gt;Node19</title>
<path fill="none" stroke="midnightblue" d="M564.7,-281.72C599.97,-272.1 662.17,-255.14 701.12,-244.51"/>
<polygon fill="midnightblue" stroke="midnightblue" points="702.24,-247.84 710.97,-241.83 700.4,-241.08 702.24,-247.84"/>
</g>
<!-- Node22 -->
<g id="node22" class="node">
<title>Node22</title>
<g id="a_node22"><a xlink:href="util_8h.html" target="_top" xlink:title="Misc utility functions used by librsync.">
<polygon fill="white" stroke="black" points="670.5,-112.5 670.5,-131.5 711.5,-131.5 711.5,-112.5 670.5,-112.5"/>
<text text-anchor="middle" x="691" y="-119.5" font-family="Helvetica,sans-Serif" font-size="10.00">util.h</text>
</a>
</g>
</g>
<!-- Node1&#45;&gt;Node22 -->
<g id="edge37" class="edge">
<title>Node1&#45;&gt;Node22</title>
<path fill="none" stroke="midnightblue" d="M564.81,-285.74C591.59,-281.07 632.09,-269.97 656,-244 682.45,-215.27 689.03,-167.74 690.59,-141.63"/>
<polygon fill="midnightblue" stroke="midnightblue" points="694.09,-141.7 691,-131.57 687.1,-141.41 694.09,-141.7"/>
</g>
<!-- Node6 -->
<g id="node6" class="node">
<title>Node6</title>
<g id="a_node6"><a xlink:title=" ">
<polygon fill="white" stroke="#bfbfbf" points="710,-0.5 710,-19.5 760,-19.5 760,-0.5 710,-0.5"/>
<text text-anchor="middle" x="735" y="-7.5" font-family="Helvetica,sans-Serif" font-size="10.00">stdio.h</text>
</a>
</g>
</g>
<!-- Node5&#45;&gt;Node6 -->
<g id="edge5" class="edge">
<title>Node5&#45;&gt;Node6</title>
<path fill="none" stroke="midnightblue" d="M643.51,-56.32C661.07,-47.62 688.33,-34.12 708.53,-24.11"/>
<polygon fill="midnightblue" stroke="midnightblue" points="710.12,-27.23 717.53,-19.65 707.02,-20.96 710.12,-27.23"/>
</g>
<!-- Node7 -->
<g id="node7" class="node">
<title>Node7</title>
<g id="a_node7"><a xlink:title=" ">
<polygon fill="white" stroke="#bfbfbf" points="193.5,-0.5 193.5,-19.5 246.5,-19.5 246.5,-0.5 193.5,-0.5"/>
<text text-anchor="middle" x="220" y="-7.5" font-family="Helvetica,sans-Serif" font-size="10.00">stdint.h</text>
</a>
</g>
</g>
<!-- Node5&#45;&gt;Node7 -->
<g id="edge6" class="edge">
<title>Node5&#45;&gt;Node7</title>
<path fill="none" stroke="midnightblue" d="M593.8,-60.72C519.22,-50.8 335.01,-26.3 256.45,-15.85"/>
<polygon fill="midnightblue" stroke="midnightblue" points="256.9,-12.38 246.53,-14.53 255.98,-19.32 256.9,-12.38"/>
</g>
<!-- Node8 -->
<g id="node8" class="node">
<title>Node8</title>
<g id="a_node8"><a xlink:title=" ">
<polygon fill="white" stroke="#bfbfbf" points="524,-0.5 524,-19.5 572,-19.5 572,-0.5 524,-0.5"/>
<text text-anchor="middle" x="548" y="-7.5" font-family="Helvetica,sans-Serif" font-size="10.00">time.h</text>
</a>
</g>
</g>
<!-- Node5&#45;&gt;Node8 -->
<g id="edge7" class="edge">
<title>Node5&#45;&gt;Node8</title>
<path fill="none" stroke="midnightblue" d="M613.47,-56.32C601.41,-47.98 582.97,-35.21 568.73,-25.35"/>
<polygon fill="midnightblue" stroke="midnightblue" points="570.72,-22.47 560.5,-19.65 566.73,-28.22 570.72,-22.47"/>
</g>
<!-- Node9 -->
<g id="node9" class="node">
<title>Node9</title>
<g id="a_node9"><a xlink:href="librsync__export_8h_source.html" target="_top" xlink:title=" ">
<polygon fill="white" stroke="black" points="590.5,-0.5 590.5,-19.5 691.5,-19.5 691.5,-0.5 590.5,-0.5"/>
<text text-anchor="middle" x="641" y="-7.5" font-family="Helvetica,sans-Serif" font-size="10.00">librsync_export.h</text>
</a>
</g>
</g>
<!-- Node5&#45;&gt;Node9 -->
<g id="edge8" class="edge">
<title>Node5&#45;&gt;Node9</title>
<path fill="none" stroke="midnightblue" d="M628.48,-56.08C630.49,-48.85 633.39,-38.41 635.89,-29.4"/>
<polygon fill="midnightblue" stroke="midnightblue" points="639.26,-30.32 638.57,-19.75 632.52,-28.45 639.26,-30.32"/>
</g>
<!-- Node10&#45;&gt;Node2 -->
<g id="edge10" class="edge">
<title>Node10&#45;&gt;Node2</title>
<path fill="none" stroke="midnightblue" d="M420.17,-175.68C361.34,-171.65 195.12,-158.19 148,-132 105.83,-108.56 77.35,-56.53 64.61,-28.96"/>
<polygon fill="midnightblue" stroke="midnightblue" points="67.75,-27.42 60.5,-19.7 61.36,-30.26 67.75,-27.42"/>
</g>
<!-- Node10&#45;&gt;Node5 -->
<g id="edge28" class="edge">
<title>Node10&#45;&gt;Node5</title>
<path fill="none" stroke="midnightblue" d="M455.52,-168.37C487.4,-149.41 563.77,-104 602.55,-80.94"/>
<polygon fill="midnightblue" stroke="midnightblue" points="604.74,-83.71 611.55,-75.59 601.17,-77.69 604.74,-83.71"/>
</g>
<!-- Node11 -->
<g id="node11" class="node">
<title>Node11</title>
<g id="a_node11"><a xlink:title=" ">
<polygon fill="white" stroke="#bfbfbf" points="370,-0.5 370,-19.5 426,-19.5 426,-0.5 370,-0.5"/>
<text text-anchor="middle" x="398" y="-7.5" font-family="Helvetica,sans-Serif" font-size="10.00">stddef.h</text>
</a>
</g>
</g>
<!-- Node10&#45;&gt;Node11 -->
<g id="edge11" class="edge">
<title>Node10&#45;&gt;Node11</title>
<path fill="none" stroke="midnightblue" d="M439.15,-168.44C434.83,-148.58 423.52,-97.86 412,-56 409.56,-47.11 406.55,-37.34 403.95,-29.17"/>
<polygon fill="midnightblue" stroke="midnightblue" points="407.26,-28.02 400.85,-19.58 400.6,-30.17 407.26,-28.02"/>
</g>
<!-- Node12 -->
<g id="node12" class="node">
<title>Node12</title>
<g id="a_node12"><a xlink:href="mdfour_8h.html" target="_top" xlink:title="MD4 message digest algorithm.">
<polygon fill="white" stroke="black" points="157.5,-112.5 157.5,-131.5 218.5,-131.5 218.5,-112.5 157.5,-112.5"/>
<text text-anchor="middle" x="188" y="-119.5" font-family="Helvetica,sans-Serif" font-size="10.00">mdfour.h</text>
</a>
</g>
</g>
<!-- Node10&#45;&gt;Node12 -->
<g id="edge12" class="edge">
<title>Node10&#45;&gt;Node12</title>
<path fill="none" stroke="midnightblue" d="M420.3,-172.58C378.5,-163.66 283.37,-143.36 228.7,-131.69"/>
<polygon fill="midnightblue" stroke="midnightblue" points="229.16,-128.21 218.65,-129.54 227.7,-135.05 229.16,-128.21"/>
</g>
<!-- Node13 -->
<g id="node13" class="node">
<title>Node13</title>
<g id="a_node13"><a xlink:href="checksum_8h.html" target="_top" xlink:title="Abstract wrappers around different weaksum and strongsum implementations.">
<polygon fill="white" stroke="black" points="311.5,-112.5 311.5,-131.5 386.5,-131.5 386.5,-112.5 311.5,-112.5"/>
<text text-anchor="middle" x="349" y="-119.5" font-family="Helvetica,sans-Serif" font-size="10.00">checksum.h</text>
</a>
</g>
</g>
<!-- Node10&#45;&gt;Node13 -->
<g id="edge14" class="edge">
<title>Node10&#45;&gt;Node13</title>
<path fill="none" stroke="midnightblue" d="M426.22,-168.32C411.73,-159.82 389.43,-146.73 372.51,-136.8"/>
<polygon fill="midnightblue" stroke="midnightblue" points="374.14,-133.7 363.74,-131.65 370.6,-139.74 374.14,-133.7"/>
</g>
<!-- Node12&#45;&gt;Node7 -->
<g id="edge13" class="edge">
<title>Node12&#45;&gt;Node7</title>
<path fill="none" stroke="midnightblue" d="M171.28,-112.44C150.54,-100.61 119.47,-78.22 133,-56 144.02,-37.9 164.92,-26.76 183.48,-20.09"/>
<polygon fill="midnightblue" stroke="midnightblue" points="184.77,-23.35 193.18,-16.91 182.59,-16.7 184.77,-23.35"/>
</g>
<!-- Node13&#45;&gt;Node2 -->
<g id="edge15" class="edge">
<title>Node13&#45;&gt;Node2</title>
<path fill="none" stroke="midnightblue" d="M311.25,-118.83C266.63,-115.01 191.11,-104.53 133,-76 108.54,-63.99 85.51,-42.28 71.35,-27.27"/>
<polygon fill="midnightblue" stroke="midnightblue" points="73.77,-24.74 64.44,-19.73 68.61,-29.47 73.77,-24.74"/>
</g>
<!-- Node13&#45;&gt;Node5 -->
<g id="edge17" class="edge">
<title>Node13&#45;&gt;Node5</title>
<path fill="none" stroke="midnightblue" d="M386.65,-113.66C438.06,-103.64 529.99,-85.72 583.72,-75.24"/>
<polygon fill="midnightblue" stroke="midnightblue" points="584.46,-78.66 593.61,-73.31 583.12,-71.79 584.46,-78.66"/>
</g>
<!-- Node13&#45;&gt;Node11 -->
<g id="edge16" class="edge">
<title>Node13&#45;&gt;Node11</title>
<path fill="none" stroke="midnightblue" d="M362.17,-112.43C373.14,-104.46 388.06,-91.5 395,-76 401.5,-61.5 401.76,-43.32 400.68,-29.87"/>
<polygon fill="midnightblue" stroke="midnightblue" points="404.15,-29.43 399.56,-19.88 397.19,-30.21 404.15,-29.43"/>
</g>
<!-- Node14 -->
<g id="node14" class="node">
<title>Node14</title>
<g id="a_node14"><a xlink:href="rollsum_8h.html" target="_top" xlink:title="The Rollsum class implementation of the original rsync rollsum.">
<polygon fill="white" stroke="black" points="232,-56.5 232,-75.5 294,-75.5 294,-56.5 232,-56.5"/>
<text text-anchor="middle" x="263" y="-63.5" font-family="Helvetica,sans-Serif" font-size="10.00">rollsum.h</text>
</a>
</g>
</g>
<!-- Node13&#45;&gt;Node14 -->
<g id="edge18" class="edge">
<title>Node13&#45;&gt;Node14</title>
<path fill="none" stroke="midnightblue" d="M335.18,-112.32C321.77,-103.9 301.18,-90.97 285.41,-81.07"/>
<polygon fill="midnightblue" stroke="midnightblue" points="287.11,-78.01 276.78,-75.65 283.39,-83.94 287.11,-78.01"/>
</g>
<!-- Node15 -->
<g id="node15" class="node">
<title>Node15</title>
<g id="a_node15"><a xlink:href="rabinkarp_8h.html" target="_top" xlink:title="The rabinkarp class implementation of the RabinKarp rollsum.">
<polygon fill="white" stroke="black" points="142,-56.5 142,-75.5 214,-75.5 214,-56.5 142,-56.5"/>
<text text-anchor="middle" x="178" y="-63.5" font-family="Helvetica,sans-Serif" font-size="10.00">rabinkarp.h</text>
</a>
</g>
</g>
<!-- Node13&#45;&gt;Node15 -->
<g id="edge21" class="edge">
<title>Node13&#45;&gt;Node15</title>
<path fill="none" stroke="midnightblue" d="M321.9,-112.44C293.01,-103.32 247.08,-88.81 214.89,-78.65"/>
<polygon fill="midnightblue" stroke="midnightblue" points="215.56,-75.19 204.97,-75.52 213.45,-81.87 215.56,-75.19"/>
</g>
<!-- Node16 -->
<g id="node16" class="node">
<title>Node16</title>
<g id="a_node16"><a xlink:href="hashtable_8h.html" target="_top" xlink:title="A generic open addressing hashtable.">
<polygon fill="white" stroke="black" points="312,-56.5 312,-75.5 386,-75.5 386,-56.5 312,-56.5"/>
<text text-anchor="middle" x="349" y="-63.5" font-family="Helvetica,sans-Serif" font-size="10.00">hashtable.h</text>
</a>
</g>
</g>
<!-- Node13&#45;&gt;Node16 -->
<g id="edge24" class="edge">
<title>Node13&#45;&gt;Node16</title>
<path fill="none" stroke="midnightblue" d="M349,-112.08C349,-105.01 349,-94.86 349,-85.99"/>
<polygon fill="midnightblue" stroke="midnightblue" points="352.5,-85.75 349,-75.75 345.5,-85.75 352.5,-85.75"/>
</g>
<!-- Node14&#45;&gt;Node7 -->
<g id="edge20" class="edge">
<title>Node14&#45;&gt;Node7</title>
<path fill="none" stroke="midnightblue" d="M255.9,-56.08C249.76,-48.38 240.73,-37.03 233.26,-27.65"/>
<polygon fill="midnightblue" stroke="midnightblue" points="235.94,-25.39 226.97,-19.75 230.46,-29.75 235.94,-25.39"/>
</g>
<!-- Node14&#45;&gt;Node11 -->
<g id="edge19" class="edge">
<title>Node14&#45;&gt;Node11</title>
<path fill="none" stroke="midnightblue" d="M284.39,-56.44C306.71,-47.52 341.9,-33.44 367.21,-23.32"/>
<polygon fill="midnightblue" stroke="midnightblue" points="368.72,-26.48 376.71,-19.52 366.12,-19.98 368.72,-26.48"/>
</g>
<!-- Node15&#45;&gt;Node7 -->
<g id="edge23" class="edge">
<title>Node15&#45;&gt;Node7</title>
<path fill="none" stroke="midnightblue" d="M184.94,-56.08C190.93,-48.38 199.75,-37.03 207.05,-27.65"/>
<polygon fill="midnightblue" stroke="midnightblue" points="209.82,-29.79 213.19,-19.75 204.29,-25.5 209.82,-29.79"/>
</g>
<!-- Node15&#45;&gt;Node11 -->
<g id="edge22" class="edge">
<title>Node15&#45;&gt;Node11</title>
<path fill="none" stroke="midnightblue" d="M212.86,-56.44C252.96,-46.6 318.57,-30.5 359.96,-20.34"/>
<polygon fill="midnightblue" stroke="midnightblue" points="361.06,-23.67 369.94,-17.89 359.39,-16.87 361.06,-23.67"/>
</g>
<!-- Node16&#45;&gt;Node2 -->
<g id="edge26" class="edge">
<title>Node16&#45;&gt;Node2</title>
<path fill="none" stroke="midnightblue" d="M311.85,-57.69C308.86,-57.11 305.88,-56.54 303,-56 229.47,-42.08 143.45,-26.51 95.08,-17.82"/>
<polygon fill="midnightblue" stroke="midnightblue" points="95.52,-14.34 85.06,-16.02 94.28,-21.23 95.52,-14.34"/>
</g>
<!-- Node16&#45;&gt;Node11 -->
<g id="edge27" class="edge">
<title>Node16&#45;&gt;Node11</title>
<path fill="none" stroke="midnightblue" d="M357.09,-56.08C364.16,-48.3 374.59,-36.8 383.15,-27.37"/>
<polygon fill="midnightblue" stroke="midnightblue" points="385.93,-29.51 390.06,-19.75 380.75,-24.8 385.93,-29.51"/>
</g>
<!-- Node17 -->
<g id="node17" class="node">
<title>Node17</title>
<g id="a_node17"><a xlink:title=" ">
<polygon fill="white" stroke="#bfbfbf" points="444,-0.5 444,-19.5 506,-19.5 506,-0.5 444,-0.5"/>
<text text-anchor="middle" x="475" y="-7.5" font-family="Helvetica,sans-Serif" font-size="10.00">stdbool.h</text>
</a>
</g>
</g>
<!-- Node16&#45;&gt;Node17 -->
<g id="edge25" class="edge">
<title>Node16&#45;&gt;Node17</title>
<path fill="none" stroke="midnightblue" d="M368.97,-56.44C389.61,-47.6 422.06,-33.69 445.63,-23.59"/>
<polygon fill="midnightblue" stroke="midnightblue" points="447.32,-26.67 455.13,-19.52 444.56,-20.24 447.32,-26.67"/>
</g>
<!-- Node18&#45;&gt;Node5 -->
<g id="edge33" class="edge">
<title>Node18&#45;&gt;Node5</title>
<path fill="none" stroke="midnightblue" d="M569.23,-224.08C578.71,-197.83 606.65,-120.55 619.45,-85.12"/>
<polygon fill="midnightblue" stroke="midnightblue" points="622.8,-86.16 622.9,-75.57 616.21,-83.78 622.8,-86.16"/>
</g>
<!-- Node18&#45;&gt;Node10 -->
<g id="edge32" class="edge">
<title>Node18&#45;&gt;Node10</title>
<path fill="none" stroke="midnightblue" d="M546.19,-224.44C525.71,-215.6 493.52,-201.69 470.14,-191.59"/>
<polygon fill="midnightblue" stroke="midnightblue" points="471.28,-188.27 460.71,-187.52 468.51,-194.7 471.28,-188.27"/>
</g>
<!-- Node18&#45;&gt;Node11 -->
<g id="edge31" class="edge">
<title>Node18&#45;&gt;Node11</title>
<path fill="none" stroke="midnightblue" d="M559.41,-224.3C534.33,-191.15 444.48,-72.41 410.84,-27.96"/>
<polygon fill="midnightblue" stroke="midnightblue" points="413.55,-25.75 404.72,-19.88 407.97,-29.97 413.55,-25.75"/>
</g>
<!-- Node18&#45;&gt;Node17 -->
<g id="edge30" class="edge">
<title>Node18&#45;&gt;Node17</title>
<path fill="none" stroke="midnightblue" d="M563.72,-224.24C556.73,-197.94 534.17,-117.72 504,-56 499.25,-46.29 492.84,-36.12 487.25,-27.91"/>
<polygon fill="midnightblue" stroke="midnightblue" points="490.03,-25.78 481.42,-19.6 484.3,-29.8 490.03,-25.78"/>
</g>
<!-- Node20 -->
<g id="node20" class="node">
<title>Node20</title>
<g id="a_node20"><a xlink:title=" ">
<polygon fill="white" stroke="#bfbfbf" points="782.5,-168.5 782.5,-187.5 847.5,-187.5 847.5,-168.5 782.5,-168.5"/>
<text text-anchor="middle" x="815" y="-175.5" font-family="Helvetica,sans-Serif" font-size="10.00">inttypes.h</text>
</a>
</g>
</g>
<!-- Node19&#45;&gt;Node20 -->
<g id="edge35" class="edge">
<title>Node19&#45;&gt;Node20</title>
<path fill="none" stroke="midnightblue" d="M748.69,-224.32C760.9,-215.98 779.58,-203.21 794,-193.35"/>
<polygon fill="midnightblue" stroke="midnightblue" points="796.06,-196.19 802.34,-187.65 792.11,-190.41 796.06,-196.19"/>
</g>
<!-- Node21 -->
<g id="node21" class="node">
<title>Node21</title>
<g id="a_node21"><a xlink:href="config_8h_source.html" target="_top" xlink:title=" ">
<polygon fill="white" stroke="black" points="708,-168.5 708,-187.5 764,-187.5 764,-168.5 708,-168.5"/>
<text text-anchor="middle" x="736" y="-175.5" font-family="Helvetica,sans-Serif" font-size="10.00">config.h</text>
</a>
</g>
</g>
<!-- Node19&#45;&gt;Node21 -->
<g id="edge36" class="edge">
<title>Node19&#45;&gt;Node21</title>
<path fill="none" stroke="midnightblue" d="M736,-224.08C736,-217.01 736,-206.86 736,-197.99"/>
<polygon fill="midnightblue" stroke="midnightblue" points="739.5,-197.75 736,-187.75 732.5,-197.75 739.5,-197.75"/>
</g>
<!-- Node22&#45;&gt;Node5 -->
<g id="edge39" class="edge">
<title>Node22&#45;&gt;Node5</title>
<path fill="none" stroke="midnightblue" d="M680.56,-112.32C670.85,-104.26 656.18,-92.08 644.5,-82.37"/>
<polygon fill="midnightblue" stroke="midnightblue" points="646.56,-79.53 636.63,-75.83 642.09,-84.92 646.56,-79.53"/>
</g>
<!-- Node22&#45;&gt;Node11 -->
<g id="edge38" class="edge">
<title>Node22&#45;&gt;Node11</title>
<path fill="none" stroke="midnightblue" d="M690.48,-112.26C689.14,-98.06 684.32,-70.16 667,-56 588.67,8.06 540.33,-37.4 436.15,-19.95"/>
<polygon fill="midnightblue" stroke="midnightblue" points="436.7,-16.49 426.23,-18.13 435.43,-23.38 436.7,-16.49"/>
</g>
</g>
</svg>
