<?xml version="1.0" encoding="UTF-8" standalone="no"?>
<!DOCTYPE svg PUBLIC "-//W3C//DTD SVG 1.1//EN"
 "http://www.w3.org/Graphics/SVG/1.1/DTD/svg11.dtd">
<!-- Generated by graphviz version 2.43.0 (0)
 -->
<!-- Title: scoop.c Pages: 1 -->
<svg width="768pt" height="308pt"
 viewBox="0.00 0.00 768.00 308.00" xmlns="http://www.w3.org/2000/svg" xmlns:xlink="http://www.w3.org/1999/xlink">
<g id="graph0" class="graph" transform="scale(1 1) rotate(0) translate(4 304)">
<title>scoop.c</title>
<polygon fill="white" stroke="transparent" points="-4,4 -4,-304 764,-304 764,4 -4,4"/>
<!-- Node1 -->
<g id="node1" class="node">
<title>Node1</title>
<g id="a_node1"><a xlink:title="This file deals with readahead from caller&#45;supplied buffers.">
<polygon fill="#bfbfbf" stroke="black" points="361.5,-280.5 361.5,-299.5 414.5,-299.5 414.5,-280.5 361.5,-280.5"/>
<text text-anchor="middle" x="388" y="-287.5" font-family="Helvetica,sans-Serif" font-size="10.00">scoop.c</text>
</a>
</g>
</g>
<!-- Node2 -->
<g id="node2" class="node">
<title>Node2</title>
<g id="a_node2"><a xlink:href="config_8h_source.html" target="_top" xlink:title=" ">
<polygon fill="white" stroke="black" points="214,-168.5 214,-187.5 270,-187.5 270,-168.5 214,-168.5"/>
<text text-anchor="middle" x="242" y="-175.5" font-family="Helvetica,sans-Serif" font-size="10.00">config.h</text>
</a>
</g>
</g>
<!-- Node1&#45;&gt;Node2 -->
<g id="edge1" class="edge">
<title>Node1&#45;&gt;Node2</title>
<path fill="none" stroke="midnightblue" d="M361.4,-286.18C316.64,-280.84 229.34,-267.59 211,-244 199.32,-228.98 212.48,-208.86 225.07,-195"/>
<polygon fill="midnightblue" stroke="midnightblue" points="227.76,-197.26 232.23,-187.65 222.74,-192.37 227.76,-197.26"/>
</g>
<!-- Node3 -->
<g id="node3" class="node">
<title>Node3</title>
<g id="a_node3"><a xlink:title=" ">
<polygon fill="white" stroke="#bfbfbf" points="29,-0.5 29,-19.5 85,-19.5 85,-0.5 29,-0.5"/>
<text text-anchor="middle" x="57" y="-7.5" font-family="Helvetica,sans-Serif" font-size="10.00">assert.h</text>
</a>
</g>
</g>
<!-- Node1&#45;&gt;Node3 -->
<g id="edge2" class="edge">
<title>Node1&#45;&gt;Node3</title>
<path fill="none" stroke="midnightblue" d="M361.33,-287.23C273.67,-280.7 0,-254.27 0,-179 0,-179 0,-179 0,-121 0,-84.3 25.32,-47.66 42.21,-27.3"/>
<polygon fill="midnightblue" stroke="midnightblue" points="44.95,-29.48 48.83,-19.62 39.65,-24.9 44.95,-29.48"/>
</g>
<!-- Node4 -->
<g id="node4" class="node">
<title>Node4</title>
<g id="a_node4"><a xlink:title=" ">
<polygon fill="white" stroke="#bfbfbf" points="220.5,-224.5 220.5,-243.5 273.5,-243.5 273.5,-224.5 220.5,-224.5"/>
<text text-anchor="middle" x="247" y="-231.5" font-family="Helvetica,sans-Serif" font-size="10.00">stdlib.h</text>
</a>
</g>
</g>
<!-- Node1&#45;&gt;Node4 -->
<g id="edge3" class="edge">
<title>Node1&#45;&gt;Node4</title>
<path fill="none" stroke="midnightblue" d="M365.66,-280.44C342.25,-271.48 305.26,-257.31 278.81,-247.18"/>
<polygon fill="midnightblue" stroke="midnightblue" points="279.83,-243.82 269.24,-243.52 277.32,-250.36 279.83,-243.82"/>
</g>
<!-- Node5 -->
<g id="node5" class="node">
<title>Node5</title>
<g id="a_node5"><a xlink:title=" ">
<polygon fill="white" stroke="#bfbfbf" points="291.5,-224.5 291.5,-243.5 344.5,-243.5 344.5,-224.5 291.5,-224.5"/>
<text text-anchor="middle" x="318" y="-231.5" font-family="Helvetica,sans-Serif" font-size="10.00">string.h</text>
</a>
</g>
</g>
<!-- Node1&#45;&gt;Node5 -->
<g id="edge4" class="edge">
<title>Node1&#45;&gt;Node5</title>
<path fill="none" stroke="midnightblue" d="M376.75,-280.32C366.2,-272.18 350.2,-259.84 337.56,-250.09"/>
<polygon fill="midnightblue" stroke="midnightblue" points="339.51,-247.17 329.45,-243.83 335.23,-252.71 339.51,-247.17"/>
</g>
<!-- Node6 -->
<g id="node6" class="node">
<title>Node6</title>
<g id="a_node6"><a xlink:href="librsync_8h.html" target="_top" xlink:title="Public header for librsync.">
<polygon fill="white" stroke="black" points="594,-56.5 594,-75.5 658,-75.5 658,-56.5 594,-56.5"/>
<text text-anchor="middle" x="626" y="-63.5" font-family="Helvetica,sans-Serif" font-size="10.00">librsync.h</text>
</a>
</g>
</g>
<!-- Node1&#45;&gt;Node6 -->
<g id="edge5" class="edge">
<title>Node1&#45;&gt;Node6</title>
<path fill="none" stroke="midnightblue" d="M414.67,-283.85C444.51,-277.37 493.68,-264.55 532,-244 566.8,-225.33 576.73,-219.16 601,-188 617.86,-166.35 621.08,-158.8 627,-132 628.92,-123.32 627.1,-120.89 627,-112 626.9,-103.4 626.71,-93.87 626.51,-85.8"/>
<polygon fill="midnightblue" stroke="midnightblue" points="630.01,-85.53 626.25,-75.63 623.01,-85.71 630.01,-85.53"/>
</g>
<!-- Node11 -->
<g id="node11" class="node">
<title>Node11</title>
<g id="a_node11"><a xlink:href="job_8h.html" target="_top" xlink:title="Generic state&#45;machine interface.">
<polygon fill="white" stroke="black" points="420.5,-168.5 420.5,-187.5 461.5,-187.5 461.5,-168.5 420.5,-168.5"/>
<text text-anchor="middle" x="441" y="-175.5" font-family="Helvetica,sans-Serif" font-size="10.00">job.h</text>
</a>
</g>
</g>
<!-- Node1&#45;&gt;Node11 -->
<g id="edge10" class="edge">
<title>Node1&#45;&gt;Node11</title>
<path fill="none" stroke="midnightblue" d="M396.08,-280.34C403.73,-271.72 415.05,-257.82 422,-244 429.42,-229.23 434.43,-211.07 437.43,-197.71"/>
<polygon fill="midnightblue" stroke="midnightblue" points="440.88,-198.29 439.48,-187.79 434.02,-196.87 440.88,-198.29"/>
</g>
<!-- Node19 -->
<g id="node19" class="node">
<title>Node19</title>
<g id="a_node19"><a xlink:href="scoop_8h.html" target="_top" xlink:title="Manage librsync streams of IO.">
<polygon fill="white" stroke="black" points="469,-224.5 469,-243.5 523,-243.5 523,-224.5 469,-224.5"/>
<text text-anchor="middle" x="496" y="-231.5" font-family="Helvetica,sans-Serif" font-size="10.00">scoop.h</text>
</a>
</g>
</g>
<!-- Node1&#45;&gt;Node19 -->
<g id="edge30" class="edge">
<title>Node1&#45;&gt;Node19</title>
<path fill="none" stroke="midnightblue" d="M405.35,-280.32C422.67,-271.66 449.52,-258.24 469.5,-248.25"/>
<polygon fill="midnightblue" stroke="midnightblue" points="471.31,-251.26 478.69,-243.65 468.18,-245 471.31,-251.26"/>
</g>
<!-- Node20 -->
<g id="node20" class="node">
<title>Node20</title>
<g id="a_node20"><a xlink:href="trace_8h.html" target="_top" xlink:title="logging functions.">
<polygon fill="white" stroke="black" points="363,-224.5 363,-243.5 413,-243.5 413,-224.5 363,-224.5"/>
<text text-anchor="middle" x="388" y="-231.5" font-family="Helvetica,sans-Serif" font-size="10.00">trace.h</text>
</a>
</g>
</g>
<!-- Node1&#45;&gt;Node20 -->
<g id="edge35" class="edge">
<title>Node1&#45;&gt;Node20</title>
<path fill="none" stroke="midnightblue" d="M388,-280.08C388,-273.01 388,-262.86 388,-253.99"/>
<polygon fill="midnightblue" stroke="midnightblue" points="391.5,-253.75 388,-243.75 384.5,-253.75 391.5,-253.75"/>
</g>
<!-- Node22 -->
<g id="node22" class="node">
<title>Node22</title>
<g id="a_node22"><a xlink:href="util_8h.html" target="_top" xlink:title="Misc utility functions used by librsync.">
<polygon fill="white" stroke="black" points="670.5,-112.5 670.5,-131.5 711.5,-131.5 711.5,-112.5 670.5,-112.5"/>
<text text-anchor="middle" x="691" y="-119.5" font-family="Helvetica,sans-Serif" font-size="10.00">util.h</text>
</a>
</g>
</g>
<!-- Node1&#45;&gt;Node22 -->
<g id="edge38" class="edge">
<title>Node1&#45;&gt;Node22</title>
<path fill="none" stroke="midnightblue" d="M414.89,-288.03C475.57,-285.29 620.6,-275.54 656,-244 685.43,-217.78 690.77,-168.5 691.35,-141.63"/>
<polygon fill="midnightblue" stroke="midnightblue" points="694.85,-141.62 691.37,-131.61 687.85,-141.61 694.85,-141.62"/>
</g>
<!-- Node7 -->
<g id="node7" class="node">
<title>Node7</title>
<g id="a_node7"><a xlink:title=" ">
<polygon fill="white" stroke="#bfbfbf" points="710,-0.5 710,-19.5 760,-19.5 760,-0.5 710,-0.5"/>
<text text-anchor="middle" x="735" y="-7.5" font-family="Helvetica,sans-Serif" font-size="10.00">stdio.h</text>
</a>
</g>
</g>
<!-- Node6&#45;&gt;Node7 -->
<g id="edge6" class="edge">
<title>Node6&#45;&gt;Node7</title>
<path fill="none" stroke="midnightblue" d="M643.51,-56.32C661.07,-47.62 688.33,-34.12 708.53,-24.11"/>
<polygon fill="midnightblue" stroke="midnightblue" points="710.12,-27.23 717.53,-19.65 707.02,-20.96 710.12,-27.23"/>
</g>
<!-- Node8 -->
<g id="node8" class="node">
<title>Node8</title>
<g id="a_node8"><a xlink:title=" ">
<polygon fill="white" stroke="#bfbfbf" points="193.5,-0.5 193.5,-19.5 246.5,-19.5 246.5,-0.5 193.5,-0.5"/>
<text text-anchor="middle" x="220" y="-7.5" font-family="Helvetica,sans-Serif" font-size="10.00">stdint.h</text>
</a>
</g>
</g>
<!-- Node6&#45;&gt;Node8 -->
<g id="edge7" class="edge">
<title>Node6&#45;&gt;Node8</title>
<path fill="none" stroke="midnightblue" d="M593.8,-60.72C519.22,-50.8 335.01,-26.3 256.45,-15.85"/>
<polygon fill="midnightblue" stroke="midnightblue" points="256.9,-12.38 246.53,-14.53 255.98,-19.32 256.9,-12.38"/>
</g>
<!-- Node9 -->
<g id="node9" class="node">
<title>Node9</title>
<g id="a_node9"><a xlink:title=" ">
<polygon fill="white" stroke="#bfbfbf" points="524,-0.5 524,-19.5 572,-19.5 572,-0.5 524,-0.5"/>
<text text-anchor="middle" x="548" y="-7.5" font-family="Helvetica,sans-Serif" font-size="10.00">time.h</text>
</a>
</g>
</g>
<!-- Node6&#45;&gt;Node9 -->
<g id="edge8" class="edge">
<title>Node6&#45;&gt;Node9</title>
<path fill="none" stroke="midnightblue" d="M613.47,-56.32C601.41,-47.98 582.97,-35.21 568.73,-25.35"/>
<polygon fill="midnightblue" stroke="midnightblue" points="570.72,-22.47 560.5,-19.65 566.73,-28.22 570.72,-22.47"/>
</g>
<!-- Node10 -->
<g id="node10" class="node">
<title>Node10</title>
<g id="a_node10"><a xlink:href="librsync__export_8h_source.html" target="_top" xlink:title=" ">
<polygon fill="white" stroke="black" points="590.5,-0.5 590.5,-19.5 691.5,-19.5 691.5,-0.5 590.5,-0.5"/>
<text text-anchor="middle" x="641" y="-7.5" font-family="Helvetica,sans-Serif" font-size="10.00">librsync_export.h</text>
</a>
</g>
</g>
<!-- Node6&#45;&gt;Node10 -->
<g id="edge9" class="edge">
<title>Node6&#45;&gt;Node10</title>
<path fill="none" stroke="midnightblue" d="M628.48,-56.08C630.49,-48.85 633.39,-38.41 635.89,-29.4"/>
<polygon fill="midnightblue" stroke="midnightblue" points="639.26,-30.32 638.57,-19.75 632.52,-28.45 639.26,-30.32"/>
</g>
<!-- Node11&#45;&gt;Node3 -->
<g id="edge11" class="edge">
<title>Node11&#45;&gt;Node3</title>
<path fill="none" stroke="midnightblue" d="M420.45,-170.38C417.31,-169.5 414.08,-168.67 411,-168 295.71,-142.97 251.59,-188.47 148,-132 105.64,-108.91 77.24,-56.73 64.56,-29.04"/>
<polygon fill="midnightblue" stroke="midnightblue" points="67.7,-27.49 60.47,-19.74 61.29,-30.3 67.7,-27.49"/>
</g>
<!-- Node11&#45;&gt;Node6 -->
<g id="edge29" class="edge">
<title>Node11&#45;&gt;Node6</title>
<path fill="none" stroke="midnightblue" d="M455.52,-168.37C487.4,-149.41 563.77,-104 602.55,-80.94"/>
<polygon fill="midnightblue" stroke="midnightblue" points="604.74,-83.71 611.55,-75.59 601.17,-77.69 604.74,-83.71"/>
</g>
<!-- Node12 -->
<g id="node12" class="node">
<title>Node12</title>
<g id="a_node12"><a xlink:title=" ">
<polygon fill="white" stroke="#bfbfbf" points="370,-0.5 370,-19.5 426,-19.5 426,-0.5 370,-0.5"/>
<text text-anchor="middle" x="398" y="-7.5" font-family="Helvetica,sans-Serif" font-size="10.00">stddef.h</text>
</a>
</g>
</g>
<!-- Node11&#45;&gt;Node12 -->
<g id="edge12" class="edge">
<title>Node11&#45;&gt;Node12</title>
<path fill="none" stroke="midnightblue" d="M439.15,-168.44C434.83,-148.58 423.52,-97.86 412,-56 409.56,-47.11 406.55,-37.34 403.95,-29.17"/>
<polygon fill="midnightblue" stroke="midnightblue" points="407.26,-28.02 400.85,-19.58 400.6,-30.17 407.26,-28.02"/>
</g>
<!-- Node13 -->
<g id="node13" class="node">
<title>Node13</title>
<g id="a_node13"><a xlink:href="mdfour_8h.html" target="_top" xlink:title="MD4 message digest algorithm.">
<polygon fill="white" stroke="black" points="157.5,-112.5 157.5,-131.5 218.5,-131.5 218.5,-112.5 157.5,-112.5"/>
<text text-anchor="middle" x="188" y="-119.5" font-family="Helvetica,sans-Serif" font-size="10.00">mdfour.h</text>
</a>
</g>
</g>
<!-- Node11&#45;&gt;Node13 -->
<g id="edge13" class="edge">
<title>Node11&#45;&gt;Node13</title>
<path fill="none" stroke="midnightblue" d="M420.41,-170.55C417.27,-169.65 414.06,-168.77 411,-168 347.91,-152.21 273.71,-138.11 228.8,-130.06"/>
<polygon fill="midnightblue" stroke="midnightblue" points="229.32,-126.6 218.86,-128.3 228.09,-133.49 229.32,-126.6"/>
</g>
<!-- Node14 -->
<g id="node14" class="node">
<title>Node14</title>
<g id="a_node14"><a xlink:href="checksum_8h.html" target="_top" xlink:title="Abstract wrappers around different weaksum and strongsum implementations.">
<polygon fill="white" stroke="black" points="311.5,-112.5 311.5,-131.5 386.5,-131.5 386.5,-112.5 311.5,-112.5"/>
<text text-anchor="middle" x="349" y="-119.5" font-family="Helvetica,sans-Serif" font-size="10.00">checksum.h</text>
</a>
</g>
</g>
<!-- Node11&#45;&gt;Node14 -->
<g id="edge15" class="edge">
<title>Node11&#45;&gt;Node14</title>
<path fill="none" stroke="midnightblue" d="M426.22,-168.32C411.73,-159.82 389.43,-146.73 372.51,-136.8"/>
<polygon fill="midnightblue" stroke="midnightblue" points="374.14,-133.7 363.74,-131.65 370.6,-139.74 374.14,-133.7"/>
</g>
<!-- Node13&#45;&gt;Node8 -->
<g id="edge14" class="edge">
<title>Node13&#45;&gt;Node8</title>
<path fill="none" stroke="midnightblue" d="M171.28,-112.44C150.54,-100.61 119.47,-78.22 133,-56 144.02,-37.9 164.92,-26.76 183.48,-20.09"/>
<polygon fill="midnightblue" stroke="midnightblue" points="184.77,-23.35 193.18,-16.91 182.59,-16.7 184.77,-23.35"/>
</g>
<!-- Node14&#45;&gt;Node3 -->
<g id="edge16" class="edge">
<title>Node14&#45;&gt;Node3</title>
<path fill="none" stroke="midnightblue" d="M311.25,-118.83C266.63,-115.01 191.11,-104.53 133,-76 108.54,-63.99 85.51,-42.28 71.35,-27.27"/>
<polygon fill="midnightblue" stroke="midnightblue" points="73.77,-24.74 64.44,-19.73 68.61,-29.47 73.77,-24.74"/>
</g>
<!-- Node14&#45;&gt;Node6 -->
<g id="edge18" class="edge">
<title>Node14&#45;&gt;Node6</title>
<path fill="none" stroke="midnightblue" d="M386.65,-113.66C438.06,-103.64 529.99,-85.72 583.72,-75.24"/>
<polygon fill="midnightblue" stroke="midnightblue" points="584.46,-78.66 593.61,-73.31 583.12,-71.79 584.46,-78.66"/>
</g>
<!-- Node14&#45;&gt;Node12 -->
<g id="edge17" class="edge">
<title>Node14&#45;&gt;Node12</title>
<path fill="none" stroke="midnightblue" d="M362.17,-112.43C373.14,-104.46 388.06,-91.5 395,-76 401.5,-61.5 401.76,-43.32 400.68,-29.87"/>
<polygon fill="midnightblue" stroke="midnightblue" points="404.15,-29.43 399.56,-19.88 397.19,-30.21 404.15,-29.43"/>
</g>
<!-- Node15 -->
<g id="node15" class="node">
<title>Node15</title>
<g id="a_node15"><a xlink:href="rollsum_8h.html" target="_top" xlink:title="The Rollsum class implementation of the original rsync rollsum.">
<polygon fill="white" stroke="black" points="232,-56.5 232,-75.5 294,-75.5 294,-56.5 232,-56.5"/>
<text text-anchor="middle" x="263" y="-63.5" font-family="Helvetica,sans-Serif" font-size="10.00">rollsum.h</text>
</a>
</g>
</g>
<!-- Node14&#45;&gt;Node15 -->
<g id="edge19" class="edge">
<title>Node14&#45;&gt;Node15</title>
<path fill="none" stroke="midnightblue" d="M335.18,-112.32C321.77,-103.9 301.18,-90.97 285.41,-81.07"/>
<polygon fill="midnightblue" stroke="midnightblue" points="287.11,-78.01 276.78,-75.65 283.39,-83.94 287.11,-78.01"/>
</g>
<!-- Node16 -->
<g id="node16" class="node">
<title>Node16</title>
<g id="a_node16"><a xlink:href="rabinkarp_8h.html" target="_top" xlink:title="The rabinkarp class implementation of the RabinKarp rollsum.">
<polygon fill="white" stroke="black" points="142,-56.5 142,-75.5 214,-75.5 214,-56.5 142,-56.5"/>
<text text-anchor="middle" x="178" y="-63.5" font-family="Helvetica,sans-Serif" font-size="10.00">rabinkarp.h</text>
</a>
</g>
</g>
<!-- Node14&#45;&gt;Node16 -->
<g id="edge22" class="edge">
<title>Node14&#45;&gt;Node16</title>
<path fill="none" stroke="midnightblue" d="M321.9,-112.44C293.01,-103.32 247.08,-88.81 214.89,-78.65"/>
<polygon fill="midnightblue" stroke="midnightblue" points="215.56,-75.19 204.97,-75.52 213.45,-81.87 215.56,-75.19"/>
</g>
<!-- Node17 -->
<g id="node17" class="node">
<title>Node17</title>
<g id="a_node17"><a xlink:href="hashtable_8h.html" target="_top" xlink:title="A generic open addressing hashtable.">
<polygon fill="white" stroke="black" points="312,-56.5 312,-75.5 386,-75.5 386,-56.5 312,-56.5"/>
<text text-anchor="middle" x="349" y="-63.5" font-family="Helvetica,sans-Serif" font-size="10.00">hashtable.h</text>
</a>
</g>
</g>
<!-- Node14&#45;&gt;Node17 -->
<g id="edge25" class="edge">
<title>Node14&#45;&gt;Node17</title>
<path fill="none" stroke="midnightblue" d="M349,-112.08C349,-105.01 349,-94.86 349,-85.99"/>
<polygon fill="midnightblue" stroke="midnightblue" points="352.5,-85.75 349,-75.75 345.5,-85.75 352.5,-85.75"/>
</g>
<!-- Node15&#45;&gt;Node8 -->
<g id="edge21" class="edge">
<title>Node15&#45;&gt;Node8</title>
<path fill="none" stroke="midnightblue" d="M255.9,-56.08C249.76,-48.38 240.73,-37.03 233.26,-27.65"/>
<polygon fill="midnightblue" stroke="midnightblue" points="235.94,-25.39 226.97,-19.75 230.46,-29.75 235.94,-25.39"/>
</g>
<!-- Node15&#45;&gt;Node12 -->
<g id="edge20" class="edge">
<title>Node15&#45;&gt;Node12</title>
<path fill="none" stroke="midnightblue" d="M284.39,-56.44C306.71,-47.52 341.9,-33.44 367.21,-23.32"/>
<polygon fill="midnightblue" stroke="midnightblue" points="368.72,-26.48 376.71,-19.52 366.12,-19.98 368.72,-26.48"/>
</g>
<!-- Node16&#45;&gt;Node8 -->
<g id="edge24" class="edge">
<title>Node16&#45;&gt;Node8</title>
<path fill="none" stroke="midnightblue" d="M184.94,-56.08C190.93,-48.38 199.75,-37.03 207.05,-27.65"/>
<polygon fill="midnightblue" stroke="midnightblue" points="209.82,-29.79 213.19,-19.75 204.29,-25.5 209.82,-29.79"/>
</g>
<!-- Node16&#45;&gt;Node12 -->
<g id="edge23" class="edge">
<title>Node16&#45;&gt;Node12</title>
<path fill="none" stroke="midnightblue" d="M212.86,-56.44C252.96,-46.6 318.57,-30.5 359.96,-20.34"/>
<polygon fill="midnightblue" stroke="midnightblue" points="361.06,-23.67 369.94,-17.89 359.39,-16.87 361.06,-23.67"/>
</g>
<!-- Node17&#45;&gt;Node3 -->
<g id="edge27" class="edge">
<title>Node17&#45;&gt;Node3</title>
<path fill="none" stroke="midnightblue" d="M311.85,-57.69C308.86,-57.11 305.88,-56.54 303,-56 229.47,-42.08 143.45,-26.51 95.08,-17.82"/>
<polygon fill="midnightblue" stroke="midnightblue" points="95.52,-14.34 85.06,-16.02 94.28,-21.23 95.52,-14.34"/>
</g>
<!-- Node17&#45;&gt;Node12 -->
<g id="edge28" class="edge">
<title>Node17&#45;&gt;Node12</title>
<path fill="none" stroke="midnightblue" d="M357.09,-56.08C364.16,-48.3 374.59,-36.8 383.15,-27.37"/>
<polygon fill="midnightblue" stroke="midnightblue" points="385.93,-29.51 390.06,-19.75 380.75,-24.8 385.93,-29.51"/>
</g>
<!-- Node18 -->
<g id="node18" class="node">
<title>Node18</title>
<g id="a_node18"><a xlink:title=" ">
<polygon fill="white" stroke="#bfbfbf" points="444,-0.5 444,-19.5 506,-19.5 506,-0.5 444,-0.5"/>
<text text-anchor="middle" x="475" y="-7.5" font-family="Helvetica,sans-Serif" font-size="10.00">stdbool.h</text>
</a>
</g>
</g>
<!-- Node17&#45;&gt;Node18 -->
<g id="edge26" class="edge">
<title>Node17&#45;&gt;Node18</title>
<path fill="none" stroke="midnightblue" d="M368.97,-56.44C389.61,-47.6 422.06,-33.69 445.63,-23.59"/>
<polygon fill="midnightblue" stroke="midnightblue" points="447.32,-26.67 455.13,-19.52 444.56,-20.24 447.32,-26.67"/>
</g>
<!-- Node19&#45;&gt;Node6 -->
<g id="edge34" class="edge">
<title>Node19&#45;&gt;Node6</title>
<path fill="none" stroke="midnightblue" d="M522.69,-224.37C541.02,-217.22 564.71,-205.4 580,-188 606.37,-158.01 618.29,-111.35 623.12,-85.62"/>
<polygon fill="midnightblue" stroke="midnightblue" points="626.58,-86.13 624.82,-75.69 619.69,-84.95 626.58,-86.13"/>
</g>
<!-- Node19&#45;&gt;Node11 -->
<g id="edge33" class="edge">
<title>Node19&#45;&gt;Node11</title>
<path fill="none" stroke="midnightblue" d="M486.92,-224.08C478.83,-216.14 466.8,-204.34 457.09,-194.8"/>
<polygon fill="midnightblue" stroke="midnightblue" points="459.5,-192.26 449.91,-187.75 454.6,-197.25 459.5,-192.26"/>
</g>
<!-- Node19&#45;&gt;Node12 -->
<g id="edge32" class="edge">
<title>Node19&#45;&gt;Node12</title>
<path fill="none" stroke="midnightblue" d="M493.5,-224.21C485.83,-197.83 461.17,-117.41 429,-56 423.83,-46.13 416.87,-35.84 410.86,-27.59"/>
<polygon fill="midnightblue" stroke="midnightblue" points="413.64,-25.46 404.84,-19.57 408.04,-29.66 413.64,-25.46"/>
</g>
<!-- Node19&#45;&gt;Node18 -->
<g id="edge31" class="edge">
<title>Node19&#45;&gt;Node18</title>
<path fill="none" stroke="midnightblue" d="M498.35,-224.29C505.01,-198.13 522.33,-118.26 504,-56 500.99,-45.76 494.85,-35.66 488.99,-27.63"/>
<polygon fill="midnightblue" stroke="midnightblue" points="491.59,-25.27 482.67,-19.54 486.07,-29.58 491.59,-25.27"/>
</g>
<!-- Node20&#45;&gt;Node2 -->
<g id="edge37" class="edge">
<title>Node20&#45;&gt;Node2</title>
<path fill="none" stroke="midnightblue" d="M364.87,-224.44C340.52,-215.44 301.99,-201.19 274.58,-191.05"/>
<polygon fill="midnightblue" stroke="midnightblue" points="275.62,-187.7 265.03,-187.52 273.19,-194.27 275.62,-187.7"/>
</g>
<!-- Node21 -->
<g id="node21" class="node">
<title>Node21</title>
<g id="a_node21"><a xlink:title=" ">
<polygon fill="white" stroke="#bfbfbf" points="337.5,-168.5 337.5,-187.5 402.5,-187.5 402.5,-168.5 337.5,-168.5"/>
<text text-anchor="middle" x="370" y="-175.5" font-family="Helvetica,sans-Serif" font-size="10.00">inttypes.h</text>
</a>
</g>
</g>
<!-- Node20&#45;&gt;Node21 -->
<g id="edge36" class="edge">
<title>Node20&#45;&gt;Node21</title>
<path fill="none" stroke="midnightblue" d="M385.03,-224.08C382.62,-216.85 379.14,-206.41 376.13,-197.4"/>
<polygon fill="midnightblue" stroke="midnightblue" points="379.4,-196.13 372.92,-187.75 372.76,-198.34 379.4,-196.13"/>
</g>
<!-- Node22&#45;&gt;Node6 -->
<g id="edge40" class="edge">
<title>Node22&#45;&gt;Node6</title>
<path fill="none" stroke="midnightblue" d="M680.56,-112.32C670.85,-104.26 656.18,-92.08 644.5,-82.37"/>
<polygon fill="midnightblue" stroke="midnightblue" points="646.56,-79.53 636.63,-75.83 642.09,-84.92 646.56,-79.53"/>
</g>
<!-- Node22&#45;&gt;Node12 -->
<g id="edge39" class="edge">
<title>Node22&#45;&gt;Node12</title>
<path fill="none" stroke="midnightblue" d="M690.48,-112.26C689.14,-98.06 684.32,-70.16 667,-56 588.67,8.06 540.33,-37.4 436.15,-19.95"/>
<polygon fill="midnightblue" stroke="midnightblue" points="436.7,-16.49 426.23,-18.13 435.43,-23.38 436.7,-16.49"/>
</g>
</g>
</svg>
