<?xml version="1.0" encoding="UTF-8" standalone="no"?>
<!DOCTYPE svg PUBLIC "-//W3C//DTD SVG 1.1//EN"
 "http://www.w3.org/Graphics/SVG/1.1/DTD/svg11.dtd">
<!-- Generated by graphviz version 2.43.0 (0)
 -->
<!-- Title: rs_job Pages: 1 -->
<svg width="535pt" height="162pt"
 viewBox="0.00 0.00 534.50 162.00" xmlns="http://www.w3.org/2000/svg" xmlns:xlink="http://www.w3.org/1999/xlink">
<g id="graph0" class="graph" transform="scale(1 1) rotate(0) translate(4 158)">
<title>rs_job</title>
<polygon fill="white" stroke="transparent" points="-4,4 -4,-158 530.5,-158 530.5,4 -4,4"/>
<!-- Node1 -->
<g id="node1" class="node">
<title>Node1</title>
<g id="a_node1"><a xlink:title="The contents of this structure are private.">
<polygon fill="#bfbfbf" stroke="black" points="256,-0.5 256,-19.5 302,-19.5 302,-0.5 256,-0.5"/>
<text text-anchor="middle" x="279" y="-7.5" font-family="Helvetica,sans-Serif" font-size="10.00">rs_job</text>
</a>
</g>
</g>
<!-- Node2 -->
<g id="node2" class="node">
<title>Node2</title>
<g id="a_node2"><a xlink:href="structrs__buffers__s.html" target="_top" xlink:title="Description of input and output buffers.">
<polygon fill="white" stroke="black" points="0,-67.5 0,-86.5 76,-86.5 76,-67.5 0,-67.5"/>
<text text-anchor="middle" x="38" y="-74.5" font-family="Helvetica,sans-Serif" font-size="10.00">rs_buffers_s</text>
</a>
</g>
</g>
<!-- Node2&#45;&gt;Node1 -->
<g id="edge1" class="edge">
<title>Node2&#45;&gt;Node1</title>
<path fill="none" stroke="#9a32cd" stroke-dasharray="5,2" d="M61.74,-62.58C77.3,-54.33 98.32,-44.19 118,-38 165.72,-22.99 224.17,-15.84 255.87,-12.85"/>
<polygon fill="#9a32cd" stroke="#9a32cd" points="59.95,-59.57 52.83,-67.42 63.29,-65.72 59.95,-59.57"/>
<text text-anchor="middle" x="137" y="-41" font-family="Helvetica,sans-Serif" font-size="10.00"> stream</text>
</g>
<!-- Node3 -->
<g id="node3" class="node">
<title>Node3</title>
<g id="a_node3"><a xlink:href="structrs__signature.html" target="_top" xlink:title="Signature of a whole file.">
<polygon fill="white" stroke="black" points="94.5,-67.5 94.5,-86.5 171.5,-86.5 171.5,-67.5 94.5,-67.5"/>
<text text-anchor="middle" x="133" y="-74.5" font-family="Helvetica,sans-Serif" font-size="10.00">rs_signature</text>
</a>
</g>
</g>
<!-- Node3&#45;&gt;Node1 -->
<g id="edge2" class="edge">
<title>Node3&#45;&gt;Node1</title>
<path fill="none" stroke="#9a32cd" stroke-dasharray="5,2" d="M147.78,-59.79C155.52,-52.18 165.54,-43.58 176,-38 201.44,-24.43 234.13,-17.37 255.78,-13.93"/>
<polygon fill="#9a32cd" stroke="#9a32cd" points="144.8,-57.84 140.38,-67.46 149.84,-62.7 144.8,-57.84"/>
<text text-anchor="middle" x="200.5" y="-41" font-family="Helvetica,sans-Serif" font-size="10.00"> signature</text>
</g>
<!-- Node4 -->
<g id="node4" class="node">
<title>Node4</title>
<g id="a_node4"><a xlink:href="structhashtable.html" target="_top" xlink:title="The hashtable type.">
<polygon fill="white" stroke="black" points="100.5,-134.5 100.5,-153.5 165.5,-153.5 165.5,-134.5 100.5,-134.5"/>
<text text-anchor="middle" x="133" y="-141.5" font-family="Helvetica,sans-Serif" font-size="10.00">hashtable</text>
</a>
</g>
</g>
<!-- Node4&#45;&gt;Node3 -->
<g id="edge3" class="edge">
<title>Node4&#45;&gt;Node3</title>
<path fill="none" stroke="#9a32cd" stroke-dasharray="5,2" d="M133,-124.04C133,-111.67 133,-96.12 133,-86.63"/>
<polygon fill="#9a32cd" stroke="#9a32cd" points="129.5,-124.23 133,-134.23 136.5,-124.23 129.5,-124.23"/>
<text text-anchor="middle" x="159" y="-108" font-family="Helvetica,sans-Serif" font-size="10.00"> hashtable</text>
</g>
<!-- Node5 -->
<g id="node5" class="node">
<title>Node5</title>
<g id="a_node5"><a xlink:href="structweaksum.html" target="_top" xlink:title="Abstract wrapper around weaksum implementations.">
<polygon fill="white" stroke="black" points="190,-67.5 190,-86.5 254,-86.5 254,-67.5 190,-67.5"/>
<text text-anchor="middle" x="222" y="-74.5" font-family="Helvetica,sans-Serif" font-size="10.00">weaksum</text>
</a>
</g>
</g>
<!-- Node5&#45;&gt;Node1 -->
<g id="edge4" class="edge">
<title>Node5&#45;&gt;Node1</title>
<path fill="none" stroke="#9a32cd" stroke-dasharray="5,2" d="M226.09,-57.66C228.24,-50.97 231.41,-43.66 236,-38 242.33,-30.2 251.55,-23.99 259.83,-19.5"/>
<polygon fill="#9a32cd" stroke="#9a32cd" points="222.71,-56.79 223.51,-67.35 229.47,-58.59 222.71,-56.79"/>
<text text-anchor="middle" x="264" y="-41" font-family="Helvetica,sans-Serif" font-size="10.00"> weak_sum</text>
</g>
<!-- Node6 -->
<g id="node6" class="node">
<title>Node6</title>
<g id="a_node6"><a xlink:href="structRollsum.html" target="_top" xlink:title="The Rollsum state type.">
<polygon fill="white" stroke="black" points="189,-134.5 189,-153.5 245,-153.5 245,-134.5 189,-134.5"/>
<text text-anchor="middle" x="217" y="-141.5" font-family="Helvetica,sans-Serif" font-size="10.00">Rollsum</text>
</a>
</g>
</g>
<!-- Node6&#45;&gt;Node5 -->
<g id="edge5" class="edge">
<title>Node6&#45;&gt;Node5</title>
<path fill="none" stroke="#9a32cd" stroke-dasharray="5,2" d="M218.46,-124.04C219.41,-111.67 220.61,-96.12 221.34,-86.63"/>
<polygon fill="#9a32cd" stroke="#9a32cd" points="214.95,-123.99 217.67,-134.23 221.93,-124.53 214.95,-123.99"/>
<text text-anchor="middle" x="225.5" y="-108" font-family="Helvetica,sans-Serif" font-size="10.00"> rs</text>
</g>
<!-- Node7 -->
<g id="node7" class="node">
<title>Node7</title>
<g id="a_node7"><a xlink:href="structrabinkarp.html" target="_top" xlink:title="The rabinkarp_t state type.">
<polygon fill="white" stroke="black" points="263.5,-134.5 263.5,-153.5 326.5,-153.5 326.5,-134.5 263.5,-134.5"/>
<text text-anchor="middle" x="295" y="-141.5" font-family="Helvetica,sans-Serif" font-size="10.00">rabinkarp</text>
</a>
</g>
</g>
<!-- Node7&#45;&gt;Node5 -->
<g id="edge6" class="edge">
<title>Node7&#45;&gt;Node5</title>
<path fill="none" stroke="#9a32cd" stroke-dasharray="5,2" d="M277.43,-127.36C263.08,-114.58 243.33,-96.99 231.69,-86.63"/>
<polygon fill="#9a32cd" stroke="#9a32cd" points="275.36,-130.2 285.15,-134.23 280.01,-124.97 275.36,-130.2"/>
<text text-anchor="middle" x="268.5" y="-108" font-family="Helvetica,sans-Serif" font-size="10.00"> rk</text>
</g>
<!-- Node8 -->
<g id="node8" class="node">
<title>Node8</title>
<g id="a_node8"><a xlink:href="structrs__prototab__ent.html" target="_top" xlink:title=" ">
<polygon fill="white" stroke="#bfbfbf" points="272.5,-67.5 272.5,-86.5 365.5,-86.5 365.5,-67.5 272.5,-67.5"/>
<text text-anchor="middle" x="319" y="-74.5" font-family="Helvetica,sans-Serif" font-size="10.00">rs_prototab_ent</text>
</a>
</g>
</g>
<!-- Node8&#45;&gt;Node1 -->
<g id="edge7" class="edge">
<title>Node8&#45;&gt;Node1</title>
<path fill="none" stroke="#9a32cd" stroke-dasharray="5,2" d="M308.25,-58.53C300.51,-45.95 290.39,-29.51 284.31,-19.63"/>
<polygon fill="#9a32cd" stroke="#9a32cd" points="305.38,-60.55 313.61,-67.23 311.35,-56.88 305.38,-60.55"/>
<text text-anchor="middle" x="313.5" y="-41" font-family="Helvetica,sans-Serif" font-size="10.00"> cmd</text>
</g>
<!-- Node9 -->
<g id="node9" class="node">
<title>Node9</title>
<g id="a_node9"><a xlink:href="structrs__mdfour.html" target="_top" xlink:title="The rs_mdfour state type.">
<polygon fill="white" stroke="black" points="384,-67.5 384,-86.5 450,-86.5 450,-67.5 384,-67.5"/>
<text text-anchor="middle" x="417" y="-74.5" font-family="Helvetica,sans-Serif" font-size="10.00">rs_mdfour</text>
</a>
</g>
</g>
<!-- Node9&#45;&gt;Node1 -->
<g id="edge8" class="edge">
<title>Node9&#45;&gt;Node1</title>
<path fill="none" stroke="#9a32cd" stroke-dasharray="5,2" d="M389.28,-62.94C361.95,-50.07 320.95,-30.76 297.4,-19.67"/>
<polygon fill="#9a32cd" stroke="#9a32cd" points="388.14,-66.27 398.67,-67.37 391.12,-59.94 388.14,-66.27"/>
<text text-anchor="middle" x="387" y="-41" font-family="Helvetica,sans-Serif" font-size="10.00"> output_md4</text>
</g>
<!-- Node10 -->
<g id="node10" class="node">
<title>Node10</title>
<g id="a_node10"><a xlink:href="structrs__stats.html" target="_top" xlink:title="Performance statistics from a librsync encoding or decoding operation.">
<polygon fill="white" stroke="black" points="471.5,-67.5 471.5,-86.5 526.5,-86.5 526.5,-67.5 471.5,-67.5"/>
<text text-anchor="middle" x="499" y="-74.5" font-family="Helvetica,sans-Serif" font-size="10.00">rs_stats</text>
</a>
</g>
</g>
<!-- Node10&#45;&gt;Node1 -->
<g id="edge9" class="edge">
<title>Node10&#45;&gt;Node1</title>
<path fill="none" stroke="#9a32cd" stroke-dasharray="5,2" d="M475.74,-62.44C460.82,-54.28 440.79,-44.28 422,-38 380.9,-24.27 330.69,-16.82 302.02,-13.39"/>
<polygon fill="#9a32cd" stroke="#9a32cd" points="474.31,-65.65 484.74,-67.49 477.73,-59.55 474.31,-65.65"/>
<text text-anchor="middle" x="462" y="-41" font-family="Helvetica,sans-Serif" font-size="10.00"> stats</text>
</g>
</g>
</svg>
