<?xml version="1.0" encoding="UTF-8" standalone="no"?>
<!DOCTYPE svg PUBLIC "-//W3C//DTD SVG 1.1//EN"
 "http://www.w3.org/Graphics/SVG/1.1/DTD/svg11.dtd">
<!-- Generated by graphviz version 2.43.0 (0)
 -->
<!-- Title: rs_block_match Pages: 1 -->
<svg width="194pt" height="162pt"
 viewBox="0.00 0.00 193.50 162.00" xmlns="http://www.w3.org/2000/svg" xmlns:xlink="http://www.w3.org/1999/xlink">
<g id="graph0" class="graph" transform="scale(1 1) rotate(0) translate(4 158)">
<title>rs_block_match</title>
<polygon fill="white" stroke="transparent" points="-4,4 -4,-158 189.5,-158 189.5,4 -4,4"/>
<!-- Node1 -->
<g id="node1" class="node">
<title>Node1</title>
<g id="a_node1"><a xlink:title=" ">
<polygon fill="#bfbfbf" stroke="black" points="33,-0.5 33,-19.5 126,-19.5 126,-0.5 33,-0.5"/>
<text text-anchor="middle" x="79.5" y="-7.5" font-family="Helvetica,sans-Serif" font-size="10.00">rs_block_match</text>
</a>
</g>
</g>
<!-- Node2 -->
<g id="node2" class="node">
<title>Node2</title>
<g id="a_node2"><a xlink:href="structrs__block__sig.html" target="_top" xlink:title="Signature of a single block.">
<polygon fill="white" stroke="black" points="0,-67.5 0,-86.5 77,-86.5 77,-67.5 0,-67.5"/>
<text text-anchor="middle" x="38.5" y="-74.5" font-family="Helvetica,sans-Serif" font-size="10.00">rs_block_sig</text>
</a>
</g>
</g>
<!-- Node2&#45;&gt;Node1 -->
<g id="edge1" class="edge">
<title>Node2&#45;&gt;Node1</title>
<path fill="none" stroke="#9a32cd" stroke-dasharray="5,2" d="M42.32,-57.37C44.17,-50.92 46.81,-43.85 50.5,-38 54.98,-30.91 61.78,-24.44 67.67,-19.62"/>
<polygon fill="#9a32cd" stroke="#9a32cd" points="38.87,-56.77 39.92,-67.31 45.67,-58.41 38.87,-56.77"/>
<text text-anchor="middle" x="75" y="-41" font-family="Helvetica,sans-Serif" font-size="10.00"> block_sig</text>
</g>
<!-- Node3 -->
<g id="node3" class="node">
<title>Node3</title>
<g id="a_node3"><a xlink:href="structrs__signature.html" target="_top" xlink:title="Signature of a whole file.">
<polygon fill="white" stroke="black" points="95,-67.5 95,-86.5 172,-86.5 172,-67.5 95,-67.5"/>
<text text-anchor="middle" x="133.5" y="-74.5" font-family="Helvetica,sans-Serif" font-size="10.00">rs_signature</text>
</a>
</g>
</g>
<!-- Node3&#45;&gt;Node1 -->
<g id="edge2" class="edge">
<title>Node3&#45;&gt;Node1</title>
<path fill="none" stroke="#9a32cd" stroke-dasharray="5,2" d="M119.6,-59.27C109.07,-46.6 95.04,-29.7 86.67,-19.63"/>
<polygon fill="#9a32cd" stroke="#9a32cd" points="117.13,-61.78 126.22,-67.23 122.52,-57.31 117.13,-61.78"/>
<text text-anchor="middle" x="134" y="-41" font-family="Helvetica,sans-Serif" font-size="10.00"> signature</text>
</g>
<!-- Node4 -->
<g id="node4" class="node">
<title>Node4</title>
<g id="a_node4"><a xlink:href="structhashtable.html" target="_top" xlink:title="The hashtable type.">
<polygon fill="white" stroke="black" points="101,-134.5 101,-153.5 166,-153.5 166,-134.5 101,-134.5"/>
<text text-anchor="middle" x="133.5" y="-141.5" font-family="Helvetica,sans-Serif" font-size="10.00">hashtable</text>
</a>
</g>
</g>
<!-- Node4&#45;&gt;Node3 -->
<g id="edge3" class="edge">
<title>Node4&#45;&gt;Node3</title>
<path fill="none" stroke="#9a32cd" stroke-dasharray="5,2" d="M133.5,-124.04C133.5,-111.67 133.5,-96.12 133.5,-86.63"/>
<polygon fill="#9a32cd" stroke="#9a32cd" points="130,-124.23 133.5,-134.23 137,-124.23 130,-124.23"/>
<text text-anchor="middle" x="159.5" y="-108" font-family="Helvetica,sans-Serif" font-size="10.00"> hashtable</text>
</g>
</g>
</svg>
