<?xml version="1.0" encoding="UTF-8" standalone="no"?>
<!DOCTYPE svg PUBLIC "-//W3C//DTD SVG 1.1//EN"
 "http://www.w3.org/Graphics/SVG/1.1/DTD/svg11.dtd">
<!-- Generated by graphviz version 2.43.0 (0)
 -->
<!-- Title: weaksum Pages: 1 -->
<svg width="146pt" height="95pt"
 viewBox="0.00 0.00 145.50 95.00" xmlns="http://www.w3.org/2000/svg" xmlns:xlink="http://www.w3.org/1999/xlink">
<g id="graph0" class="graph" transform="scale(1 1) rotate(0) translate(4 91)">
<title>weaksum</title>
<polygon fill="white" stroke="transparent" points="-4,4 -4,-91 141.5,-91 141.5,4 -4,4"/>
<!-- Node1 -->
<g id="node1" class="node">
<title>Node1</title>
<g id="a_node1"><a xlink:title="Abstract wrapper around weaksum implementations.">
<polygon fill="#bfbfbf" stroke="black" points="35,-0.5 35,-19.5 99,-19.5 99,-0.5 35,-0.5"/>
<text text-anchor="middle" x="67" y="-7.5" font-family="Helvetica,sans-Serif" font-size="10.00">weaksum</text>
</a>
</g>
</g>
<!-- Node2 -->
<g id="node2" class="node">
<title>Node2</title>
<g id="a_node2"><a xlink:href="structRollsum.html" target="_top" xlink:title="The Rollsum state type.">
<polygon fill="white" stroke="black" points="0,-67.5 0,-86.5 56,-86.5 56,-67.5 0,-67.5"/>
<text text-anchor="middle" x="28" y="-74.5" font-family="Helvetica,sans-Serif" font-size="10.00">Rollsum</text>
</a>
</g>
</g>
<!-- Node2&#45;&gt;Node1 -->
<g id="edge1" class="edge">
<title>Node2&#45;&gt;Node1</title>
<path fill="none" stroke="#9a32cd" stroke-dasharray="5,2" d="M38.48,-58.53C46.03,-45.95 55.9,-29.51 61.82,-19.63"/>
<polygon fill="#9a32cd" stroke="#9a32cd" points="35.4,-56.86 33.26,-67.23 41.41,-60.46 35.4,-56.86"/>
<text text-anchor="middle" x="56.5" y="-41" font-family="Helvetica,sans-Serif" font-size="10.00"> rs</text>
</g>
<!-- Node3 -->
<g id="node3" class="node">
<title>Node3</title>
<g id="a_node3"><a xlink:href="structrabinkarp.html" target="_top" xlink:title="The rabinkarp_t state type.">
<polygon fill="white" stroke="black" points="74.5,-67.5 74.5,-86.5 137.5,-86.5 137.5,-67.5 74.5,-67.5"/>
<text text-anchor="middle" x="106" y="-74.5" font-family="Helvetica,sans-Serif" font-size="10.00">rabinkarp</text>
</a>
</g>
</g>
<!-- Node3&#45;&gt;Node1 -->
<g id="edge2" class="edge">
<title>Node3&#45;&gt;Node1</title>
<path fill="none" stroke="#9a32cd" stroke-dasharray="5,2" d="M95.52,-58.53C87.97,-45.95 78.1,-29.51 72.18,-19.63"/>
<polygon fill="#9a32cd" stroke="#9a32cd" points="92.59,-60.46 100.74,-67.23 98.6,-56.86 92.59,-60.46"/>
<text text-anchor="middle" x="94.5" y="-41" font-family="Helvetica,sans-Serif" font-size="10.00"> rk</text>
</g>
</g>
</svg>
