<?xml version="1.0" encoding="UTF-8" standalone="no"?>
<!DOCTYPE svg PUBLIC "-//W3C//DTD SVG 1.1//EN"
 "http://www.w3.org/Graphics/SVG/1.1/DTD/svg11.dtd">
<!-- Generated by graphviz version 2.43.0 (0)
 -->
<!-- Title: sumset.h Pages: 1 -->
<svg width="381pt" height="84pt"
 viewBox="0.00 0.00 381.00 84.00" xmlns="http://www.w3.org/2000/svg" xmlns:xlink="http://www.w3.org/1999/xlink">
<g id="graph0" class="graph" transform="scale(1 1) rotate(0) translate(4 80)">
<title>sumset.h</title>
<polygon fill="white" stroke="transparent" points="-4,4 -4,-80 377,-80 377,4 -4,4"/>
<!-- Node1 -->
<g id="node1" class="node">
<title>Node1</title>
<g id="a_node1"><a xlink:title="The rs_signature class implementation of a file signature.">
<polygon fill="#bfbfbf" stroke="black" points="154,-56.5 154,-75.5 216,-75.5 216,-56.5 154,-56.5"/>
<text text-anchor="middle" x="185" y="-63.5" font-family="Helvetica,sans-Serif" font-size="10.00">sumset.h</text>
</a>
</g>
</g>
<!-- Node2 -->
<g id="node2" class="node">
<title>Node2</title>
<g id="a_node2"><a xlink:href="delta_8c.html" target="_top" xlink:title="Generate in streaming mode an rsync delta given a set of signatures, and a new file.">
<polygon fill="white" stroke="black" points="0,-0.5 0,-19.5 50,-19.5 50,-0.5 0,-0.5"/>
<text text-anchor="middle" x="25" y="-7.5" font-family="Helvetica,sans-Serif" font-size="10.00">delta.c</text>
</a>
</g>
</g>
<!-- Node1&#45;&gt;Node2 -->
<g id="edge1" class="edge">
<title>Node1&#45;&gt;Node2</title>
<path fill="none" stroke="midnightblue" d="M149.95,-53.17C119.83,-43 77.1,-28.59 50.23,-19.52"/>
<polygon fill="midnightblue" stroke="midnightblue" points="149.05,-56.56 159.65,-56.44 151.29,-49.93 149.05,-56.56"/>
</g>
<!-- Node3 -->
<g id="node3" class="node">
<title>Node3</title>
<g id="a_node3"><a xlink:href="mksum_8c.html" target="_top" xlink:title="Generate file signatures.">
<polygon fill="white" stroke="black" points="68,-0.5 68,-19.5 130,-19.5 130,-0.5 68,-0.5"/>
<text text-anchor="middle" x="99" y="-7.5" font-family="Helvetica,sans-Serif" font-size="10.00">mksum.c</text>
</a>
</g>
</g>
<!-- Node1&#45;&gt;Node3 -->
<g id="edge2" class="edge">
<title>Node1&#45;&gt;Node3</title>
<path fill="none" stroke="midnightblue" d="M162.55,-50.9C146.78,-41 126.19,-28.07 112.78,-19.65"/>
<polygon fill="midnightblue" stroke="midnightblue" points="160.85,-53.97 171.18,-56.32 164.57,-48.04 160.85,-53.97"/>
</g>
<!-- Node4 -->
<g id="node4" class="node">
<title>Node4</title>
<g id="a_node4"><a xlink:href="readsums_8c.html" target="_top" xlink:title="Load signatures from a file.">
<polygon fill="white" stroke="black" points="148.5,-0.5 148.5,-19.5 221.5,-19.5 221.5,-0.5 148.5,-0.5"/>
<text text-anchor="middle" x="185" y="-7.5" font-family="Helvetica,sans-Serif" font-size="10.00">readsums.c</text>
</a>
</g>
</g>
<!-- Node1&#45;&gt;Node4 -->
<g id="edge3" class="edge">
<title>Node1&#45;&gt;Node4</title>
<path fill="none" stroke="midnightblue" d="M185,-45.8C185,-36.91 185,-26.78 185,-19.75"/>
<polygon fill="midnightblue" stroke="midnightblue" points="181.5,-46.08 185,-56.08 188.5,-46.08 181.5,-46.08"/>
</g>
<!-- Node5 -->
<g id="node5" class="node">
<title>Node5</title>
<g id="a_node5"><a xlink:href="sumset_8c_source.html" target="_top" xlink:title=" ">
<polygon fill="white" stroke="black" points="239.5,-0.5 239.5,-19.5 300.5,-19.5 300.5,-0.5 239.5,-0.5"/>
<text text-anchor="middle" x="270" y="-7.5" font-family="Helvetica,sans-Serif" font-size="10.00">sumset.c</text>
</a>
</g>
</g>
<!-- Node1&#45;&gt;Node5 -->
<g id="edge4" class="edge">
<title>Node1&#45;&gt;Node5</title>
<path fill="none" stroke="midnightblue" d="M207.19,-50.9C222.78,-41 243.13,-28.07 256.38,-19.65"/>
<polygon fill="midnightblue" stroke="midnightblue" points="205.22,-48.01 198.66,-56.32 208.97,-53.92 205.22,-48.01"/>
</g>
<!-- Node6 -->
<g id="node6" class="node">
<title>Node6</title>
<g id="a_node6"><a xlink:href="whole_8c_source.html" target="_top" xlink:title=" ">
<polygon fill="white" stroke="black" points="319,-0.5 319,-19.5 373,-19.5 373,-0.5 319,-0.5"/>
<text text-anchor="middle" x="346" y="-7.5" font-family="Helvetica,sans-Serif" font-size="10.00">whole.c</text>
</a>
</g>
</g>
<!-- Node1&#45;&gt;Node6 -->
<g id="edge5" class="edge">
<title>Node1&#45;&gt;Node6</title>
<path fill="none" stroke="midnightblue" d="M220.26,-53.17C250.58,-43 293.57,-28.59 320.61,-19.52"/>
<polygon fill="midnightblue" stroke="midnightblue" points="218.88,-49.95 210.51,-56.44 221.1,-56.58 218.88,-49.95"/>
</g>
</g>
</svg>
