<?xml version="1.0" encoding="UTF-8" standalone="no"?>
<!DOCTYPE svg PUBLIC "-//W3C//DTD SVG 1.1//EN"
 "http://www.w3.org/Graphics/SVG/1.1/DTD/svg11.dtd">
<!-- Generated by graphviz version 2.43.0 (0)
 -->
<!-- Title: sumset.h Pages: 1 -->
<svg width="609pt" height="196pt"
 viewBox="0.00 0.00 608.50 196.00" xmlns="http://www.w3.org/2000/svg" xmlns:xlink="http://www.w3.org/1999/xlink">
<g id="graph0" class="graph" transform="scale(1 1) rotate(0) translate(4 192)">
<title>sumset.h</title>
<polygon fill="white" stroke="transparent" points="-4,4 -4,-192 604.5,-192 604.5,4 -4,4"/>
<!-- Node1 -->
<g id="node1" class="node">
<title>Node1</title>
<g id="a_node1"><a xlink:title="The rs_signature class implementation of a file signature.">
<polygon fill="#bfbfbf" stroke="black" points="133,-168.5 133,-187.5 195,-187.5 195,-168.5 133,-168.5"/>
<text text-anchor="middle" x="164" y="-175.5" font-family="Helvetica,sans-Serif" font-size="10.00">sumset.h</text>
</a>
</g>
</g>
<!-- Node2 -->
<g id="node2" class="node">
<title>Node2</title>
<g id="a_node2"><a xlink:title=" ">
<polygon fill="white" stroke="#bfbfbf" points="0,-0.5 0,-19.5 56,-19.5 56,-0.5 0,-0.5"/>
<text text-anchor="middle" x="28" y="-7.5" font-family="Helvetica,sans-Serif" font-size="10.00">assert.h</text>
</a>
</g>
</g>
<!-- Node1&#45;&gt;Node2 -->
<g id="edge1" class="edge">
<title>Node1&#45;&gt;Node2</title>
<path fill="none" stroke="midnightblue" d="M145.16,-168.38C115.93,-153.91 60.41,-121.75 35,-76 27.17,-61.89 25.87,-43.4 26.27,-29.75"/>
<polygon fill="midnightblue" stroke="midnightblue" points="29.78,-29.82 26.9,-19.63 22.79,-29.39 29.78,-29.82"/>
</g>
<!-- Node3 -->
<g id="node3" class="node">
<title>Node3</title>
<g id="a_node3"><a xlink:title=" ">
<polygon fill="white" stroke="#bfbfbf" points="174,-0.5 174,-19.5 230,-19.5 230,-0.5 174,-0.5"/>
<text text-anchor="middle" x="202" y="-7.5" font-family="Helvetica,sans-Serif" font-size="10.00">stddef.h</text>
</a>
</g>
</g>
<!-- Node1&#45;&gt;Node3 -->
<g id="edge2" class="edge">
<title>Node1&#45;&gt;Node3</title>
<path fill="none" stroke="midnightblue" d="M166.04,-168.08C172.02,-141.95 189.59,-65.21 197.75,-29.58"/>
<polygon fill="midnightblue" stroke="midnightblue" points="201.22,-30.1 200.04,-19.57 194.4,-28.53 201.22,-30.1"/>
</g>
<!-- Node4 -->
<g id="node4" class="node">
<title>Node4</title>
<g id="a_node4"><a xlink:href="hashtable_8h.html" target="_top" xlink:title="A generic open addressing hashtable.">
<polygon fill="white" stroke="black" points="62,-56.5 62,-75.5 136,-75.5 136,-56.5 62,-56.5"/>
<text text-anchor="middle" x="99" y="-63.5" font-family="Helvetica,sans-Serif" font-size="10.00">hashtable.h</text>
</a>
</g>
</g>
<!-- Node1&#45;&gt;Node4 -->
<g id="edge3" class="edge">
<title>Node1&#45;&gt;Node4</title>
<path fill="none" stroke="midnightblue" d="M158.9,-168.37C148.22,-150.3 123.33,-108.18 109.23,-84.31"/>
<polygon fill="midnightblue" stroke="midnightblue" points="112.18,-82.42 104.08,-75.59 106.15,-85.98 112.18,-82.42"/>
</g>
<!-- Node6 -->
<g id="node6" class="node">
<title>Node6</title>
<g id="a_node6"><a xlink:href="checksum_8h.html" target="_top" xlink:title="Abstract wrappers around different weaksum and strongsum implementations.">
<polygon fill="white" stroke="black" points="192.5,-112.5 192.5,-131.5 267.5,-131.5 267.5,-112.5 192.5,-112.5"/>
<text text-anchor="middle" x="230" y="-119.5" font-family="Helvetica,sans-Serif" font-size="10.00">checksum.h</text>
</a>
</g>
</g>
<!-- Node1&#45;&gt;Node6 -->
<g id="edge7" class="edge">
<title>Node1&#45;&gt;Node6</title>
<path fill="none" stroke="midnightblue" d="M174.6,-168.32C184.46,-160.26 199.35,-148.08 211.22,-138.37"/>
<polygon fill="midnightblue" stroke="midnightblue" points="213.68,-140.88 219.2,-131.83 209.25,-135.46 213.68,-140.88"/>
</g>
<!-- Node7 -->
<g id="node7" class="node">
<title>Node7</title>
<g id="a_node7"><a xlink:href="librsync_8h.html" target="_top" xlink:title="Public header for librsync.">
<polygon fill="white" stroke="black" points="400,-56.5 400,-75.5 464,-75.5 464,-56.5 400,-56.5"/>
<text text-anchor="middle" x="432" y="-63.5" font-family="Helvetica,sans-Serif" font-size="10.00">librsync.h</text>
</a>
</g>
</g>
<!-- Node1&#45;&gt;Node7 -->
<g id="edge22" class="edge">
<title>Node1&#45;&gt;Node7</title>
<path fill="none" stroke="midnightblue" d="M185.5,-168.45C208.08,-159.46 244.58,-144.86 276,-132 319.98,-114 370.76,-92.76 402.12,-79.58"/>
<polygon fill="midnightblue" stroke="midnightblue" points="403.73,-82.7 411.59,-75.6 401.02,-76.25 403.73,-82.7"/>
</g>
<!-- Node4&#45;&gt;Node2 -->
<g id="edge5" class="edge">
<title>Node4&#45;&gt;Node2</title>
<path fill="none" stroke="midnightblue" d="M87.59,-56.32C76.89,-48.18 60.66,-35.84 47.84,-26.09"/>
<polygon fill="midnightblue" stroke="midnightblue" points="49.69,-23.1 39.61,-19.83 45.46,-28.67 49.69,-23.1"/>
</g>
<!-- Node4&#45;&gt;Node3 -->
<g id="edge6" class="edge">
<title>Node4&#45;&gt;Node3</title>
<path fill="none" stroke="midnightblue" d="M115.55,-56.32C131.99,-47.7 157.43,-34.36 176.47,-24.39"/>
<polygon fill="midnightblue" stroke="midnightblue" points="178.26,-27.4 185.49,-19.65 175.01,-21.2 178.26,-27.4"/>
</g>
<!-- Node5 -->
<g id="node5" class="node">
<title>Node5</title>
<g id="a_node5"><a xlink:title=" ">
<polygon fill="white" stroke="#bfbfbf" points="74,-0.5 74,-19.5 136,-19.5 136,-0.5 74,-0.5"/>
<text text-anchor="middle" x="105" y="-7.5" font-family="Helvetica,sans-Serif" font-size="10.00">stdbool.h</text>
</a>
</g>
</g>
<!-- Node4&#45;&gt;Node5 -->
<g id="edge4" class="edge">
<title>Node4&#45;&gt;Node5</title>
<path fill="none" stroke="midnightblue" d="M99.99,-56.08C100.79,-48.93 101.93,-38.64 102.92,-29.69"/>
<polygon fill="midnightblue" stroke="midnightblue" points="106.4,-30.08 104.03,-19.75 99.44,-29.3 106.4,-30.08"/>
</g>
<!-- Node6&#45;&gt;Node2 -->
<g id="edge8" class="edge">
<title>Node6&#45;&gt;Node2</title>
<path fill="none" stroke="midnightblue" d="M192.19,-121.09C152.83,-119.18 91.64,-110.32 53,-76 39.6,-64.1 33.34,-44.19 30.44,-29.53"/>
<polygon fill="midnightblue" stroke="midnightblue" points="33.88,-28.88 28.81,-19.57 26.97,-30 33.88,-28.88"/>
</g>
<!-- Node6&#45;&gt;Node3 -->
<g id="edge9" class="edge">
<title>Node6&#45;&gt;Node3</title>
<path fill="none" stroke="midnightblue" d="M227.8,-112.37C223.28,-94.62 212.86,-53.67 206.73,-29.6"/>
<polygon fill="midnightblue" stroke="midnightblue" points="210.05,-28.42 204.19,-19.59 203.26,-30.15 210.05,-28.42"/>
</g>
<!-- Node6&#45;&gt;Node4 -->
<g id="edge21" class="edge">
<title>Node6&#45;&gt;Node4</title>
<path fill="none" stroke="midnightblue" d="M209.24,-112.44C187.68,-103.56 153.74,-89.56 129.21,-79.45"/>
<polygon fill="midnightblue" stroke="midnightblue" points="130.24,-76.09 119.66,-75.52 127.57,-82.56 130.24,-76.09"/>
</g>
<!-- Node6&#45;&gt;Node7 -->
<g id="edge10" class="edge">
<title>Node6&#45;&gt;Node7</title>
<path fill="none" stroke="midnightblue" d="M262.01,-112.44C296.73,-103.16 352.29,-88.31 390.38,-78.13"/>
<polygon fill="midnightblue" stroke="midnightblue" points="391.39,-81.48 400.14,-75.52 389.58,-74.72 391.39,-81.48"/>
</g>
<!-- Node12 -->
<g id="node12" class="node">
<title>Node12</title>
<g id="a_node12"><a xlink:href="rollsum_8h.html" target="_top" xlink:title="The Rollsum class implementation of the original rsync rollsum.">
<polygon fill="white" stroke="black" points="230,-56.5 230,-75.5 292,-75.5 292,-56.5 230,-56.5"/>
<text text-anchor="middle" x="261" y="-63.5" font-family="Helvetica,sans-Serif" font-size="10.00">rollsum.h</text>
</a>
</g>
</g>
<!-- Node6&#45;&gt;Node12 -->
<g id="edge15" class="edge">
<title>Node6&#45;&gt;Node12</title>
<path fill="none" stroke="midnightblue" d="M235.12,-112.08C239.41,-104.61 245.66,-93.72 250.94,-84.52"/>
<polygon fill="midnightblue" stroke="midnightblue" points="254.03,-86.17 255.98,-75.75 247.96,-82.68 254.03,-86.17"/>
</g>
<!-- Node13 -->
<g id="node13" class="node">
<title>Node13</title>
<g id="a_node13"><a xlink:href="rabinkarp_8h.html" target="_top" xlink:title="The rabinkarp class implementation of the RabinKarp rollsum.">
<polygon fill="white" stroke="black" points="310,-56.5 310,-75.5 382,-75.5 382,-56.5 310,-56.5"/>
<text text-anchor="middle" x="346" y="-63.5" font-family="Helvetica,sans-Serif" font-size="10.00">rabinkarp.h</text>
</a>
</g>
</g>
<!-- Node6&#45;&gt;Node13 -->
<g id="edge18" class="edge">
<title>Node6&#45;&gt;Node13</title>
<path fill="none" stroke="midnightblue" d="M248.38,-112.44C267.22,-103.68 296.73,-89.94 318.38,-79.86"/>
<polygon fill="midnightblue" stroke="midnightblue" points="320.12,-82.91 327.71,-75.52 317.16,-76.56 320.12,-82.91"/>
</g>
<!-- Node8 -->
<g id="node8" class="node">
<title>Node8</title>
<g id="a_node8"><a xlink:title=" ">
<polygon fill="white" stroke="#bfbfbf" points="365,-0.5 365,-19.5 415,-19.5 415,-0.5 365,-0.5"/>
<text text-anchor="middle" x="390" y="-7.5" font-family="Helvetica,sans-Serif" font-size="10.00">stdio.h</text>
</a>
</g>
</g>
<!-- Node7&#45;&gt;Node8 -->
<g id="edge11" class="edge">
<title>Node7&#45;&gt;Node8</title>
<path fill="none" stroke="midnightblue" d="M425.06,-56.08C419.07,-48.38 410.25,-37.03 402.95,-27.65"/>
<polygon fill="midnightblue" stroke="midnightblue" points="405.71,-25.5 396.81,-19.75 400.18,-29.79 405.71,-25.5"/>
</g>
<!-- Node9 -->
<g id="node9" class="node">
<title>Node9</title>
<g id="a_node9"><a xlink:title=" ">
<polygon fill="white" stroke="#bfbfbf" points="293.5,-0.5 293.5,-19.5 346.5,-19.5 346.5,-0.5 293.5,-0.5"/>
<text text-anchor="middle" x="320" y="-7.5" font-family="Helvetica,sans-Serif" font-size="10.00">stdint.h</text>
</a>
</g>
</g>
<!-- Node7&#45;&gt;Node9 -->
<g id="edge12" class="edge">
<title>Node7&#45;&gt;Node9</title>
<path fill="none" stroke="midnightblue" d="M414.01,-56.32C395.96,-47.62 367.95,-34.12 347.2,-24.11"/>
<polygon fill="midnightblue" stroke="midnightblue" points="348.48,-20.84 337.95,-19.65 345.44,-27.15 348.48,-20.84"/>
</g>
<!-- Node10 -->
<g id="node10" class="node">
<title>Node10</title>
<g id="a_node10"><a xlink:title=" ">
<polygon fill="white" stroke="#bfbfbf" points="433,-0.5 433,-19.5 481,-19.5 481,-0.5 433,-0.5"/>
<text text-anchor="middle" x="457" y="-7.5" font-family="Helvetica,sans-Serif" font-size="10.00">time.h</text>
</a>
</g>
</g>
<!-- Node7&#45;&gt;Node10 -->
<g id="edge13" class="edge">
<title>Node7&#45;&gt;Node10</title>
<path fill="none" stroke="midnightblue" d="M436.13,-56.08C439.51,-48.77 444.42,-38.18 448.62,-29.1"/>
<polygon fill="midnightblue" stroke="midnightblue" points="451.92,-30.3 452.95,-19.75 445.57,-27.36 451.92,-30.3"/>
</g>
<!-- Node11 -->
<g id="node11" class="node">
<title>Node11</title>
<g id="a_node11"><a xlink:href="librsync__export_8h_source.html" target="_top" xlink:title=" ">
<polygon fill="white" stroke="black" points="499.5,-0.5 499.5,-19.5 600.5,-19.5 600.5,-0.5 499.5,-0.5"/>
<text text-anchor="middle" x="550" y="-7.5" font-family="Helvetica,sans-Serif" font-size="10.00">librsync_export.h</text>
</a>
</g>
</g>
<!-- Node7&#45;&gt;Node11 -->
<g id="edge14" class="edge">
<title>Node7&#45;&gt;Node11</title>
<path fill="none" stroke="midnightblue" d="M450.7,-56.44C469.94,-47.64 500.15,-33.81 522.2,-23.72"/>
<polygon fill="midnightblue" stroke="midnightblue" points="523.75,-26.86 531.39,-19.52 520.84,-20.5 523.75,-26.86"/>
</g>
<!-- Node12&#45;&gt;Node3 -->
<g id="edge16" class="edge">
<title>Node12&#45;&gt;Node3</title>
<path fill="none" stroke="midnightblue" d="M251.52,-56.32C242.8,-48.34 229.66,-36.31 219.1,-26.65"/>
<polygon fill="midnightblue" stroke="midnightblue" points="221.39,-24 211.65,-19.83 216.67,-29.17 221.39,-24"/>
</g>
<!-- Node12&#45;&gt;Node9 -->
<g id="edge17" class="edge">
<title>Node12&#45;&gt;Node9</title>
<path fill="none" stroke="midnightblue" d="M270.48,-56.32C279.2,-48.34 292.34,-36.31 302.9,-26.65"/>
<polygon fill="midnightblue" stroke="midnightblue" points="305.33,-29.17 310.35,-19.83 300.61,-24 305.33,-29.17"/>
</g>
<!-- Node13&#45;&gt;Node3 -->
<g id="edge19" class="edge">
<title>Node13&#45;&gt;Node3</title>
<path fill="none" stroke="midnightblue" d="M323.18,-56.44C299.17,-47.44 261.17,-33.19 234.13,-23.05"/>
<polygon fill="midnightblue" stroke="midnightblue" points="235.3,-19.75 224.71,-19.52 232.84,-26.3 235.3,-19.75"/>
</g>
<!-- Node13&#45;&gt;Node9 -->
<g id="edge20" class="edge">
<title>Node13&#45;&gt;Node9</title>
<path fill="none" stroke="midnightblue" d="M341.71,-56.08C338.15,-48.69 332.98,-37.95 328.58,-28.81"/>
<polygon fill="midnightblue" stroke="midnightblue" points="331.71,-27.24 324.21,-19.75 325.4,-30.28 331.71,-27.24"/>
</g>
</g>
</svg>
