<?xml version="1.0" encoding="UTF-8" standalone="no"?>
<!DOCTYPE svg PUBLIC "-//W3C//DTD SVG 1.1//EN"
 "http://www.w3.org/Graphics/SVG/1.1/DTD/svg11.dtd">
<!-- Generated by graphviz version 2.43.0 (0)
 -->
<!-- Title: trace.h Pages: 1 -->
<svg width="966pt" height="84pt"
 viewBox="0.00 0.00 965.50 84.00" xmlns="http://www.w3.org/2000/svg" xmlns:xlink="http://www.w3.org/1999/xlink">
<g id="graph0" class="graph" transform="scale(1 1) rotate(0) translate(4 80)">
<title>trace.h</title>
<polygon fill="white" stroke="transparent" points="-4,4 -4,-80 961.5,-80 961.5,4 -4,4"/>
<!-- Node1 -->
<g id="node1" class="node">
<title>Node1</title>
<g id="a_node1"><a xlink:title="logging functions.">
<polygon fill="#bfbfbf" stroke="black" points="445,-56.5 445,-75.5 495,-75.5 495,-56.5 445,-56.5"/>
<text text-anchor="middle" x="470" y="-63.5" font-family="Helvetica,sans-Serif" font-size="10.00">trace.h</text>
</a>
</g>
</g>
<!-- Node2 -->
<g id="node2" class="node">
<title>Node2</title>
<g id="a_node2"><a xlink:href="buf_8c_source.html" target="_top" xlink:title=" ">
<polygon fill="white" stroke="black" points="0,-0.5 0,-19.5 40,-19.5 40,-0.5 0,-0.5"/>
<text text-anchor="middle" x="20" y="-7.5" font-family="Helvetica,sans-Serif" font-size="10.00">buf.c</text>
</a>
</g>
</g>
<!-- Node1&#45;&gt;Node2 -->
<g id="edge1" class="edge">
<title>Node1&#45;&gt;Node2</title>
<path fill="none" stroke="midnightblue" d="M434.57,-63.54C361.69,-60.03 190,-49.13 49,-20 46.11,-19.4 43.1,-18.64 40.15,-17.8"/>
<polygon fill="midnightblue" stroke="midnightblue" points="434.43,-67.04 444.59,-64 434.76,-60.04 434.43,-67.04"/>
</g>
<!-- Node3 -->
<g id="node3" class="node">
<title>Node3</title>
<g id="a_node3"><a xlink:href="delta_8c.html" target="_top" xlink:title="Generate in streaming mode an rsync delta given a set of signatures, and a new file.">
<polygon fill="white" stroke="black" points="58,-0.5 58,-19.5 108,-19.5 108,-0.5 58,-0.5"/>
<text text-anchor="middle" x="83" y="-7.5" font-family="Helvetica,sans-Serif" font-size="10.00">delta.c</text>
</a>
</g>
</g>
<!-- Node1&#45;&gt;Node3 -->
<g id="edge2" class="edge">
<title>Node1&#45;&gt;Node3</title>
<path fill="none" stroke="midnightblue" d="M434.69,-62.05C370.86,-56.39 232.21,-42.49 117,-20 114.12,-19.44 111.13,-18.77 108.17,-18.06"/>
<polygon fill="midnightblue" stroke="midnightblue" points="434.73,-65.57 445,-62.96 435.34,-58.6 434.73,-65.57"/>
</g>
<!-- Node4 -->
<g id="node4" class="node">
<title>Node4</title>
<g id="a_node4"><a xlink:href="emit_8c_source.html" target="_top" xlink:title=" ">
<polygon fill="white" stroke="black" points="126.5,-0.5 126.5,-19.5 173.5,-19.5 173.5,-0.5 126.5,-0.5"/>
<text text-anchor="middle" x="150" y="-7.5" font-family="Helvetica,sans-Serif" font-size="10.00">emit.c</text>
</a>
</g>
</g>
<!-- Node1&#45;&gt;Node4 -->
<g id="edge3" class="edge">
<title>Node1&#45;&gt;Node4</title>
<path fill="none" stroke="midnightblue" d="M434.73,-60.75C380.36,-53.91 272.93,-39.25 183,-20 179.98,-19.35 176.83,-18.6 173.72,-17.81"/>
<polygon fill="midnightblue" stroke="midnightblue" points="434.52,-64.25 444.88,-62.01 435.38,-57.3 434.52,-64.25"/>
</g>
<!-- Node5 -->
<g id="node5" class="node">
<title>Node5</title>
<g id="a_node5"><a xlink:href="fileutil_8c_source.html" target="_top" xlink:title=" ">
<polygon fill="white" stroke="black" points="192,-0.5 192,-19.5 248,-19.5 248,-0.5 192,-0.5"/>
<text text-anchor="middle" x="220" y="-7.5" font-family="Helvetica,sans-Serif" font-size="10.00">fileutil.c</text>
</a>
</g>
</g>
<!-- Node1&#45;&gt;Node5 -->
<g id="edge4" class="edge">
<title>Node1&#45;&gt;Node5</title>
<path fill="none" stroke="midnightblue" d="M434.89,-57.92C392.61,-49.32 319.48,-34.2 257,-20 254.16,-19.36 251.21,-18.67 248.26,-17.97"/>
<polygon fill="midnightblue" stroke="midnightblue" points="434.2,-61.35 444.7,-59.91 435.59,-54.49 434.2,-61.35"/>
</g>
<!-- Node6 -->
<g id="node6" class="node">
<title>Node6</title>
<g id="a_node6"><a xlink:href="job_8c_source.html" target="_top" xlink:title=" ">
<polygon fill="white" stroke="black" points="266,-0.5 266,-19.5 306,-19.5 306,-0.5 266,-0.5"/>
<text text-anchor="middle" x="286" y="-7.5" font-family="Helvetica,sans-Serif" font-size="10.00">job.c</text>
</a>
</g>
</g>
<!-- Node1&#45;&gt;Node6 -->
<g id="edge5" class="edge">
<title>Node1&#45;&gt;Node6</title>
<path fill="none" stroke="midnightblue" d="M434.97,-55.03C403.52,-46.03 356.11,-32.35 315,-20 312.17,-19.15 309.19,-18.24 306.27,-17.34"/>
<polygon fill="midnightblue" stroke="midnightblue" points="434.42,-58.51 444.99,-57.89 436.34,-51.78 434.42,-58.51"/>
</g>
<!-- Node7 -->
<g id="node7" class="node">
<title>Node7</title>
<g id="a_node7"><a xlink:href="mksum_8c.html" target="_top" xlink:title="Generate file signatures.">
<polygon fill="white" stroke="black" points="324,-0.5 324,-19.5 386,-19.5 386,-0.5 324,-0.5"/>
<text text-anchor="middle" x="355" y="-7.5" font-family="Helvetica,sans-Serif" font-size="10.00">mksum.c</text>
</a>
</g>
</g>
<!-- Node1&#45;&gt;Node7 -->
<g id="edge6" class="edge">
<title>Node1&#45;&gt;Node7</title>
<path fill="none" stroke="midnightblue" d="M442.52,-52.1C421.03,-42.01 391.78,-28.27 373.14,-19.52"/>
<polygon fill="midnightblue" stroke="midnightblue" points="441.24,-55.36 451.78,-56.44 444.21,-49.02 441.24,-55.36"/>
</g>
<!-- Node8 -->
<g id="node8" class="node">
<title>Node8</title>
<g id="a_node8"><a xlink:href="patch_8c.html" target="_top" xlink:title="Apply a delta to an old file to generate a new file.">
<polygon fill="white" stroke="black" points="404,-0.5 404,-19.5 456,-19.5 456,-0.5 404,-0.5"/>
<text text-anchor="middle" x="430" y="-7.5" font-family="Helvetica,sans-Serif" font-size="10.00">patch.c</text>
</a>
</g>
</g>
<!-- Node1&#45;&gt;Node8 -->
<g id="edge7" class="edge">
<title>Node1&#45;&gt;Node8</title>
<path fill="none" stroke="midnightblue" d="M457.3,-47.86C450.37,-38.5 442.09,-27.33 436.48,-19.75"/>
<polygon fill="midnightblue" stroke="midnightblue" points="454.63,-50.13 463.39,-56.08 460.25,-45.96 454.63,-50.13"/>
</g>
<!-- Node9 -->
<g id="node9" class="node">
<title>Node9</title>
<g id="a_node9"><a xlink:href="readsums_8c.html" target="_top" xlink:title="Load signatures from a file.">
<polygon fill="white" stroke="black" points="474.5,-0.5 474.5,-19.5 547.5,-19.5 547.5,-0.5 474.5,-0.5"/>
<text text-anchor="middle" x="511" y="-7.5" font-family="Helvetica,sans-Serif" font-size="10.00">readsums.c</text>
</a>
</g>
</g>
<!-- Node1&#45;&gt;Node9 -->
<g id="edge8" class="edge">
<title>Node1&#45;&gt;Node9</title>
<path fill="none" stroke="midnightblue" d="M483.02,-47.86C490.12,-38.5 498.6,-27.33 504.36,-19.75"/>
<polygon fill="midnightblue" stroke="midnightblue" points="480.03,-46 476.77,-56.08 485.61,-50.24 480.03,-46"/>
</g>
<!-- Node10 -->
<g id="node10" class="node">
<title>Node10</title>
<g id="a_node10"><a xlink:href="scoop_8c.html" target="_top" xlink:title="This file deals with readahead from caller&#45;supplied buffers.">
<polygon fill="white" stroke="black" points="565.5,-0.5 565.5,-19.5 618.5,-19.5 618.5,-0.5 565.5,-0.5"/>
<text text-anchor="middle" x="592" y="-7.5" font-family="Helvetica,sans-Serif" font-size="10.00">scoop.c</text>
</a>
</g>
</g>
<!-- Node1&#45;&gt;Node10 -->
<g id="edge9" class="edge">
<title>Node1&#45;&gt;Node10</title>
<path fill="none" stroke="midnightblue" d="M498.54,-52.37C521.39,-42.26 552.81,-28.35 572.76,-19.52"/>
<polygon fill="midnightblue" stroke="midnightblue" points="497.06,-49.2 489.33,-56.44 499.89,-55.6 497.06,-49.2"/>
</g>
<!-- Node11 -->
<g id="node11" class="node">
<title>Node11</title>
<g id="a_node11"><a xlink:href="stats_8c.html" target="_top" xlink:title="stats reporting functions.">
<polygon fill="white" stroke="black" points="636.5,-0.5 636.5,-19.5 685.5,-19.5 685.5,-0.5 636.5,-0.5"/>
<text text-anchor="middle" x="661" y="-7.5" font-family="Helvetica,sans-Serif" font-size="10.00">stats.c</text>
</a>
</g>
</g>
<!-- Node1&#45;&gt;Node11 -->
<g id="edge10" class="edge">
<title>Node1&#45;&gt;Node11</title>
<path fill="none" stroke="midnightblue" d="M505.02,-55.1C543.12,-44.33 603.05,-27.38 636.44,-17.94"/>
<polygon fill="midnightblue" stroke="midnightblue" points="504.03,-51.74 495.36,-57.83 505.94,-58.48 504.03,-51.74"/>
</g>
<!-- Node12 -->
<g id="node12" class="node">
<title>Node12</title>
<g id="a_node12"><a xlink:href="sumset_8c_source.html" target="_top" xlink:title=" ">
<polygon fill="white" stroke="black" points="703.5,-0.5 703.5,-19.5 764.5,-19.5 764.5,-0.5 703.5,-0.5"/>
<text text-anchor="middle" x="734" y="-7.5" font-family="Helvetica,sans-Serif" font-size="10.00">sumset.c</text>
</a>
</g>
</g>
<!-- Node1&#45;&gt;Node12 -->
<g id="edge11" class="edge">
<title>Node1&#45;&gt;Node12</title>
<path fill="none" stroke="midnightblue" d="M504.99,-58.33C549.3,-49.81 627.94,-34.44 695,-20 697.72,-19.41 700.54,-18.79 703.36,-18.16"/>
<polygon fill="midnightblue" stroke="midnightblue" points="504.18,-54.92 495.02,-60.24 505.5,-61.8 504.18,-54.92"/>
</g>
<!-- Node13 -->
<g id="node13" class="node">
<title>Node13</title>
<g id="a_node13"><a xlink:href="trace_8c_source.html" target="_top" xlink:title=" ">
<polygon fill="white" stroke="black" points="783,-0.5 783,-19.5 833,-19.5 833,-0.5 783,-0.5"/>
<text text-anchor="middle" x="808" y="-7.5" font-family="Helvetica,sans-Serif" font-size="10.00">trace.c</text>
</a>
</g>
</g>
<!-- Node1&#45;&gt;Node13 -->
<g id="edge12" class="edge">
<title>Node1&#45;&gt;Node13</title>
<path fill="none" stroke="midnightblue" d="M505.67,-61.03C562.7,-54.39 677.77,-39.79 774,-20 776.87,-19.41 779.86,-18.72 782.82,-18"/>
<polygon fill="midnightblue" stroke="midnightblue" points="504.92,-57.59 495.39,-62.21 505.73,-64.55 504.92,-57.59"/>
</g>
<!-- Node14 -->
<g id="node14" class="node">
<title>Node14</title>
<g id="a_node14"><a xlink:href="tube_8c.html" target="_top" xlink:title="A somewhat elastic but fairly small buffer for data passing through a stream.">
<polygon fill="white" stroke="black" points="851.5,-0.5 851.5,-19.5 898.5,-19.5 898.5,-0.5 851.5,-0.5"/>
<text text-anchor="middle" x="875" y="-7.5" font-family="Helvetica,sans-Serif" font-size="10.00">tube.c</text>
</a>
</g>
</g>
<!-- Node1&#45;&gt;Node14 -->
<g id="edge13" class="edge">
<title>Node1&#45;&gt;Node14</title>
<path fill="none" stroke="midnightblue" d="M505.33,-62.45C571.74,-57.29 719.54,-43.97 842,-20 845.03,-19.41 848.19,-18.68 851.3,-17.91"/>
<polygon fill="midnightblue" stroke="midnightblue" points="504.72,-58.99 495.01,-63.24 505.25,-65.97 504.72,-58.99"/>
</g>
<!-- Node15 -->
<g id="node15" class="node">
<title>Node15</title>
<g id="a_node15"><a xlink:href="util_8c_source.html" target="_top" xlink:title=" ">
<polygon fill="white" stroke="black" points="916.5,-0.5 916.5,-19.5 957.5,-19.5 957.5,-0.5 916.5,-0.5"/>
<text text-anchor="middle" x="937" y="-7.5" font-family="Helvetica,sans-Serif" font-size="10.00">util.c</text>
</a>
</g>
</g>
<!-- Node1&#45;&gt;Node15 -->
<g id="edge14" class="edge">
<title>Node1&#45;&gt;Node15</title>
<path fill="none" stroke="midnightblue" d="M505.77,-63.73C580.95,-60.53 760.6,-50.13 908,-20 910.69,-19.45 913.48,-18.75 916.22,-17.99"/>
<polygon fill="midnightblue" stroke="midnightblue" points="505.3,-60.24 495.45,-64.15 505.58,-67.24 505.3,-60.24"/>
</g>
</g>
</svg>
