<?xml version="1.0" encoding="UTF-8" standalone="no"?>
<!DOCTYPE svg PUBLIC "-//W3C//DTD SVG 1.1//EN"
 "http://www.w3.org/Graphics/SVG/1.1/DTD/svg11.dtd">
<!-- Generated by graphviz version 2.43.0 (0)
 -->
<!-- Title: trace.h Pages: 1 -->
<svg width="148pt" height="84pt"
 viewBox="0.00 0.00 147.50 84.00" xmlns="http://www.w3.org/2000/svg" xmlns:xlink="http://www.w3.org/1999/xlink">
<g id="graph0" class="graph" transform="scale(1 1) rotate(0) translate(4 80)">
<title>trace.h</title>
<polygon fill="white" stroke="transparent" points="-4,4 -4,-80 143.5,-80 143.5,4 -4,4"/>
<!-- Node1 -->
<g id="node1" class="node">
<title>Node1</title>
<g id="a_node1"><a xlink:title="logging functions.">
<polygon fill="#bfbfbf" stroke="black" points="46.5,-56.5 46.5,-75.5 96.5,-75.5 96.5,-56.5 46.5,-56.5"/>
<text text-anchor="middle" x="71.5" y="-63.5" font-family="Helvetica,sans-Serif" font-size="10.00">trace.h</text>
</a>
</g>
</g>
<!-- Node2 -->
<g id="node2" class="node">
<title>Node2</title>
<g id="a_node2"><a xlink:title=" ">
<polygon fill="white" stroke="#bfbfbf" points="0,-0.5 0,-19.5 65,-19.5 65,-0.5 0,-0.5"/>
<text text-anchor="middle" x="32.5" y="-7.5" font-family="Helvetica,sans-Serif" font-size="10.00">inttypes.h</text>
</a>
</g>
</g>
<!-- Node1&#45;&gt;Node2 -->
<g id="edge1" class="edge">
<title>Node1&#45;&gt;Node2</title>
<path fill="none" stroke="midnightblue" d="M65.06,-56.08C59.55,-48.46 51.47,-37.26 44.74,-27.94"/>
<polygon fill="midnightblue" stroke="midnightblue" points="47.51,-25.81 38.82,-19.75 41.84,-29.91 47.51,-25.81"/>
</g>
<!-- Node3 -->
<g id="node3" class="node">
<title>Node3</title>
<g id="a_node3"><a xlink:href="config_8h_source.html" target="_top" xlink:title=" ">
<polygon fill="white" stroke="black" points="83.5,-0.5 83.5,-19.5 139.5,-19.5 139.5,-0.5 83.5,-0.5"/>
<text text-anchor="middle" x="111.5" y="-7.5" font-family="Helvetica,sans-Serif" font-size="10.00">config.h</text>
</a>
</g>
</g>
<!-- Node1&#45;&gt;Node3 -->
<g id="edge2" class="edge">
<title>Node1&#45;&gt;Node3</title>
<path fill="none" stroke="midnightblue" d="M78.11,-56.08C83.76,-48.46 92.04,-37.26 98.95,-27.94"/>
<polygon fill="midnightblue" stroke="midnightblue" points="101.88,-29.87 105.02,-19.75 96.25,-25.7 101.88,-29.87"/>
</g>
</g>
</svg>
