<?xml version="1.0" encoding="UTF-8" standalone="no"?>
<!DOCTYPE svg PUBLIC "-//W3C//DTD SVG 1.1//EN"
 "http://www.w3.org/Graphics/SVG/1.1/DTD/svg11.dtd">
<!-- Generated by graphviz version 2.43.0 (0)
 -->
<!-- Title: tube.c Pages: 1 -->
<svg width="802pt" height="308pt"
 viewBox="0.00 0.00 802.00 308.00" xmlns="http://www.w3.org/2000/svg" xmlns:xlink="http://www.w3.org/1999/xlink">
<g id="graph0" class="graph" transform="scale(1 1) rotate(0) translate(4 304)">
<title>tube.c</title>
<polygon fill="white" stroke="transparent" points="-4,4 -4,-304 798,-304 798,4 -4,4"/>
<!-- Node1 -->
<g id="node1" class="node">
<title>Node1</title>
<g id="a_node1"><a xlink:title="A somewhat elastic but fairly small buffer for data passing through a stream.">
<polygon fill="#bfbfbf" stroke="black" points="431.5,-280.5 431.5,-299.5 478.5,-299.5 478.5,-280.5 431.5,-280.5"/>
<text text-anchor="middle" x="455" y="-287.5" font-family="Helvetica,sans-Serif" font-size="10.00">tube.c</text>
</a>
</g>
</g>
<!-- Node2 -->
<g id="node2" class="node">
<title>Node2</title>
<g id="a_node2"><a xlink:title=" ">
<polygon fill="white" stroke="#bfbfbf" points="29,-0.5 29,-19.5 85,-19.5 85,-0.5 29,-0.5"/>
<text text-anchor="middle" x="57" y="-7.5" font-family="Helvetica,sans-Serif" font-size="10.00">assert.h</text>
</a>
</g>
</g>
<!-- Node1&#45;&gt;Node2 -->
<g id="edge1" class="edge">
<title>Node1&#45;&gt;Node2</title>
<path fill="none" stroke="midnightblue" d="M431.5,-288.42C338.32,-285.5 0,-268.7 0,-179 0,-179 0,-179 0,-121 0,-84.3 25.32,-47.66 42.21,-27.3"/>
<polygon fill="midnightblue" stroke="midnightblue" points="44.95,-29.48 48.83,-19.62 39.65,-24.9 44.95,-29.48"/>
</g>
<!-- Node3 -->
<g id="node3" class="node">
<title>Node3</title>
<g id="a_node3"><a xlink:title=" ">
<polygon fill="white" stroke="#bfbfbf" points="302.5,-224.5 302.5,-243.5 355.5,-243.5 355.5,-224.5 302.5,-224.5"/>
<text text-anchor="middle" x="329" y="-231.5" font-family="Helvetica,sans-Serif" font-size="10.00">stdlib.h</text>
</a>
</g>
</g>
<!-- Node1&#45;&gt;Node3 -->
<g id="edge2" class="edge">
<title>Node1&#45;&gt;Node3</title>
<path fill="none" stroke="midnightblue" d="M435.03,-280.44C414.39,-271.6 381.94,-257.69 358.37,-247.59"/>
<polygon fill="midnightblue" stroke="midnightblue" points="359.44,-244.24 348.87,-243.52 356.68,-250.67 359.44,-244.24"/>
</g>
<!-- Node4 -->
<g id="node4" class="node">
<title>Node4</title>
<g id="a_node4"><a xlink:title=" ">
<polygon fill="white" stroke="#bfbfbf" points="373.5,-224.5 373.5,-243.5 426.5,-243.5 426.5,-224.5 373.5,-224.5"/>
<text text-anchor="middle" x="400" y="-231.5" font-family="Helvetica,sans-Serif" font-size="10.00">string.h</text>
</a>
</g>
</g>
<!-- Node1&#45;&gt;Node4 -->
<g id="edge3" class="edge">
<title>Node1&#45;&gt;Node4</title>
<path fill="none" stroke="midnightblue" d="M445.92,-280.08C437.83,-272.14 425.8,-260.34 416.09,-250.8"/>
<polygon fill="midnightblue" stroke="midnightblue" points="418.5,-248.26 408.91,-243.75 413.6,-253.25 418.5,-248.26"/>
</g>
<!-- Node5 -->
<g id="node5" class="node">
<title>Node5</title>
<g id="a_node5"><a xlink:href="librsync_8h.html" target="_top" xlink:title="Public header for librsync.">
<polygon fill="white" stroke="black" points="556,-56.5 556,-75.5 620,-75.5 620,-56.5 556,-56.5"/>
<text text-anchor="middle" x="588" y="-63.5" font-family="Helvetica,sans-Serif" font-size="10.00">librsync.h</text>
</a>
</g>
</g>
<!-- Node1&#45;&gt;Node5 -->
<g id="edge4" class="edge">
<title>Node1&#45;&gt;Node5</title>
<path fill="none" stroke="midnightblue" d="M478.59,-283.22C499.29,-276.95 528.71,-264.92 546,-244 584.69,-197.2 588.95,-120.86 588.68,-85.75"/>
<polygon fill="midnightblue" stroke="midnightblue" points="592.17,-85.44 588.46,-75.52 585.18,-85.6 592.17,-85.44"/>
</g>
<!-- Node10 -->
<g id="node10" class="node">
<title>Node10</title>
<g id="a_node10"><a xlink:href="job_8h.html" target="_top" xlink:title="Generic state&#45;machine interface.">
<polygon fill="white" stroke="black" points="432.5,-168.5 432.5,-187.5 473.5,-187.5 473.5,-168.5 432.5,-168.5"/>
<text text-anchor="middle" x="453" y="-175.5" font-family="Helvetica,sans-Serif" font-size="10.00">job.h</text>
</a>
</g>
</g>
<!-- Node1&#45;&gt;Node10 -->
<g id="edge9" class="edge">
<title>Node1&#45;&gt;Node10</title>
<path fill="none" stroke="midnightblue" d="M454.84,-280.37C454.52,-262.62 453.78,-221.67 453.34,-197.6"/>
<polygon fill="midnightblue" stroke="midnightblue" points="456.84,-197.53 453.16,-187.59 449.84,-197.65 456.84,-197.53"/>
</g>
<!-- Node18 -->
<g id="node18" class="node">
<title>Node18</title>
<g id="a_node18"><a xlink:href="scoop_8h.html" target="_top" xlink:title="Manage librsync streams of IO.">
<polygon fill="white" stroke="black" points="483,-224.5 483,-243.5 537,-243.5 537,-224.5 483,-224.5"/>
<text text-anchor="middle" x="510" y="-231.5" font-family="Helvetica,sans-Serif" font-size="10.00">scoop.h</text>
</a>
</g>
</g>
<!-- Node1&#45;&gt;Node18 -->
<g id="edge29" class="edge">
<title>Node1&#45;&gt;Node18</title>
<path fill="none" stroke="midnightblue" d="M464.08,-280.08C472.17,-272.14 484.2,-260.34 493.91,-250.8"/>
<polygon fill="midnightblue" stroke="midnightblue" points="496.4,-253.25 501.09,-243.75 491.5,-248.26 496.4,-253.25"/>
</g>
<!-- Node19 -->
<g id="node19" class="node">
<title>Node19</title>
<g id="a_node19"><a xlink:href="trace_8h.html" target="_top" xlink:title="logging functions.">
<polygon fill="white" stroke="black" points="662,-224.5 662,-243.5 712,-243.5 712,-224.5 662,-224.5"/>
<text text-anchor="middle" x="687" y="-231.5" font-family="Helvetica,sans-Serif" font-size="10.00">trace.h</text>
</a>
</g>
</g>
<!-- Node1&#45;&gt;Node19 -->
<g id="edge34" class="edge">
<title>Node1&#45;&gt;Node19</title>
<path fill="none" stroke="midnightblue" d="M478.52,-283.53C519.41,-274.01 603.81,-254.36 651.73,-243.21"/>
<polygon fill="midnightblue" stroke="midnightblue" points="652.71,-246.57 661.66,-240.9 651.13,-239.76 652.71,-246.57"/>
</g>
<!-- Node6 -->
<g id="node6" class="node">
<title>Node6</title>
<g id="a_node6"><a xlink:title=" ">
<polygon fill="white" stroke="#bfbfbf" points="496,-0.5 496,-19.5 546,-19.5 546,-0.5 496,-0.5"/>
<text text-anchor="middle" x="521" y="-7.5" font-family="Helvetica,sans-Serif" font-size="10.00">stdio.h</text>
</a>
</g>
</g>
<!-- Node5&#45;&gt;Node6 -->
<g id="edge5" class="edge">
<title>Node5&#45;&gt;Node6</title>
<path fill="none" stroke="midnightblue" d="M577.24,-56.32C567.23,-48.26 552.11,-36.08 540.07,-26.37"/>
<polygon fill="midnightblue" stroke="midnightblue" points="541.94,-23.38 531.96,-19.83 537.55,-28.83 541.94,-23.38"/>
</g>
<!-- Node7 -->
<g id="node7" class="node">
<title>Node7</title>
<g id="a_node7"><a xlink:title=" ">
<polygon fill="white" stroke="#bfbfbf" points="411.5,-0.5 411.5,-19.5 464.5,-19.5 464.5,-0.5 411.5,-0.5"/>
<text text-anchor="middle" x="438" y="-7.5" font-family="Helvetica,sans-Serif" font-size="10.00">stdint.h</text>
</a>
</g>
</g>
<!-- Node5&#45;&gt;Node7 -->
<g id="edge6" class="edge">
<title>Node5&#45;&gt;Node7</title>
<path fill="none" stroke="midnightblue" d="M564.23,-56.44C539.11,-47.4 499.29,-33.06 471.1,-22.92"/>
<polygon fill="midnightblue" stroke="midnightblue" points="472.25,-19.61 461.66,-19.52 469.88,-26.2 472.25,-19.61"/>
</g>
<!-- Node8 -->
<g id="node8" class="node">
<title>Node8</title>
<g id="a_node8"><a xlink:title=" ">
<polygon fill="white" stroke="#bfbfbf" points="564,-0.5 564,-19.5 612,-19.5 612,-0.5 564,-0.5"/>
<text text-anchor="middle" x="588" y="-7.5" font-family="Helvetica,sans-Serif" font-size="10.00">time.h</text>
</a>
</g>
</g>
<!-- Node5&#45;&gt;Node8 -->
<g id="edge7" class="edge">
<title>Node5&#45;&gt;Node8</title>
<path fill="none" stroke="midnightblue" d="M588,-56.08C588,-49.01 588,-38.86 588,-29.99"/>
<polygon fill="midnightblue" stroke="midnightblue" points="591.5,-29.75 588,-19.75 584.5,-29.75 591.5,-29.75"/>
</g>
<!-- Node9 -->
<g id="node9" class="node">
<title>Node9</title>
<g id="a_node9"><a xlink:href="librsync__export_8h_source.html" target="_top" xlink:title=" ">
<polygon fill="white" stroke="black" points="630.5,-0.5 630.5,-19.5 731.5,-19.5 731.5,-0.5 630.5,-0.5"/>
<text text-anchor="middle" x="681" y="-7.5" font-family="Helvetica,sans-Serif" font-size="10.00">librsync_export.h</text>
</a>
</g>
</g>
<!-- Node5&#45;&gt;Node9 -->
<g id="edge8" class="edge">
<title>Node5&#45;&gt;Node9</title>
<path fill="none" stroke="midnightblue" d="M602.94,-56.32C617.59,-47.82 640.13,-34.73 657.24,-24.8"/>
<polygon fill="midnightblue" stroke="midnightblue" points="659.2,-27.7 666.1,-19.65 655.69,-21.65 659.2,-27.7"/>
</g>
<!-- Node10&#45;&gt;Node2 -->
<g id="edge10" class="edge">
<title>Node10&#45;&gt;Node2</title>
<path fill="none" stroke="midnightblue" d="M432.41,-175.65C391.95,-172.41 299.83,-162.08 229,-132 188.72,-114.89 183.81,-101.16 148,-76 123.56,-58.83 95.64,-38.82 77.24,-25.59"/>
<polygon fill="midnightblue" stroke="midnightblue" points="79.19,-22.68 69.03,-19.68 75.1,-28.36 79.19,-22.68"/>
</g>
<!-- Node10&#45;&gt;Node5 -->
<g id="edge28" class="edge">
<title>Node10&#45;&gt;Node5</title>
<path fill="none" stroke="midnightblue" d="M463.59,-168.37C486.46,-149.73 540.71,-105.53 569.43,-82.13"/>
<polygon fill="midnightblue" stroke="midnightblue" points="571.91,-84.62 577.46,-75.59 567.49,-79.19 571.91,-84.62"/>
</g>
<!-- Node11 -->
<g id="node11" class="node">
<title>Node11</title>
<g id="a_node11"><a xlink:title=" ">
<polygon fill="white" stroke="#bfbfbf" points="183,-0.5 183,-19.5 239,-19.5 239,-0.5 183,-0.5"/>
<text text-anchor="middle" x="211" y="-7.5" font-family="Helvetica,sans-Serif" font-size="10.00">stddef.h</text>
</a>
</g>
</g>
<!-- Node10&#45;&gt;Node11 -->
<g id="edge11" class="edge">
<title>Node10&#45;&gt;Node11</title>
<path fill="none" stroke="midnightblue" d="M432.14,-176.61C380.45,-174.35 247.14,-160.26 199,-76 190.74,-61.55 195.69,-42.61 201.54,-28.91"/>
<polygon fill="midnightblue" stroke="midnightblue" points="204.83,-30.14 205.97,-19.61 198.51,-27.13 204.83,-30.14"/>
</g>
<!-- Node12 -->
<g id="node12" class="node">
<title>Node12</title>
<g id="a_node12"><a xlink:href="mdfour_8h.html" target="_top" xlink:title="MD4 message digest algorithm.">
<polygon fill="white" stroke="black" points="422.5,-112.5 422.5,-131.5 483.5,-131.5 483.5,-112.5 422.5,-112.5"/>
<text text-anchor="middle" x="453" y="-119.5" font-family="Helvetica,sans-Serif" font-size="10.00">mdfour.h</text>
</a>
</g>
</g>
<!-- Node10&#45;&gt;Node12 -->
<g id="edge12" class="edge">
<title>Node10&#45;&gt;Node12</title>
<path fill="none" stroke="midnightblue" d="M453,-168.08C453,-161.01 453,-150.86 453,-141.99"/>
<polygon fill="midnightblue" stroke="midnightblue" points="456.5,-141.75 453,-131.75 449.5,-141.75 456.5,-141.75"/>
</g>
<!-- Node13 -->
<g id="node13" class="node">
<title>Node13</title>
<g id="a_node13"><a xlink:href="checksum_8h.html" target="_top" xlink:title="Abstract wrappers around different weaksum and strongsum implementations.">
<polygon fill="white" stroke="black" points="303.5,-112.5 303.5,-131.5 378.5,-131.5 378.5,-112.5 303.5,-112.5"/>
<text text-anchor="middle" x="341" y="-119.5" font-family="Helvetica,sans-Serif" font-size="10.00">checksum.h</text>
</a>
</g>
</g>
<!-- Node10&#45;&gt;Node13 -->
<g id="edge14" class="edge">
<title>Node10&#45;&gt;Node13</title>
<path fill="none" stroke="midnightblue" d="M435.01,-168.32C416.96,-159.62 388.95,-146.12 368.2,-136.11"/>
<polygon fill="midnightblue" stroke="midnightblue" points="369.48,-132.84 358.95,-131.65 366.44,-139.15 369.48,-132.84"/>
</g>
<!-- Node12&#45;&gt;Node7 -->
<g id="edge13" class="edge">
<title>Node12&#45;&gt;Node7</title>
<path fill="none" stroke="midnightblue" d="M458.8,-112.09C466.25,-99.5 477.48,-75.81 471,-56 467.51,-45.34 460.43,-35.12 453.71,-27.12"/>
<polygon fill="midnightblue" stroke="midnightblue" points="456.3,-24.76 447.02,-19.66 451.1,-29.44 456.3,-24.76"/>
</g>
<!-- Node13&#45;&gt;Node2 -->
<g id="edge15" class="edge">
<title>Node13&#45;&gt;Node2</title>
<path fill="none" stroke="midnightblue" d="M310.43,-112.49C281.42,-104.14 236.76,-90.56 199,-76 157.82,-60.12 111.58,-38.15 83.38,-24.26"/>
<polygon fill="midnightblue" stroke="midnightblue" points="84.71,-21.01 74.19,-19.7 81.6,-27.28 84.71,-21.01"/>
</g>
<!-- Node13&#45;&gt;Node5 -->
<g id="edge17" class="edge">
<title>Node13&#45;&gt;Node5</title>
<path fill="none" stroke="midnightblue" d="M378.51,-112.8C423.53,-102.96 498.79,-86.5 545.79,-76.23"/>
<polygon fill="midnightblue" stroke="midnightblue" points="546.64,-79.63 555.66,-74.07 545.14,-72.79 546.64,-79.63"/>
</g>
<!-- Node13&#45;&gt;Node11 -->
<g id="edge16" class="edge">
<title>Node13&#45;&gt;Node11</title>
<path fill="none" stroke="midnightblue" d="M303.34,-119.5C272.38,-116.05 230.28,-105.73 209,-76 199.46,-62.67 201.39,-43.55 204.84,-29.5"/>
<polygon fill="midnightblue" stroke="midnightblue" points="208.31,-30.1 207.75,-19.52 201.59,-28.15 208.31,-30.1"/>
</g>
<!-- Node14 -->
<g id="node14" class="node">
<title>Node14</title>
<g id="a_node14"><a xlink:href="rollsum_8h.html" target="_top" xlink:title="The Rollsum class implementation of the original rsync rollsum.">
<polygon fill="white" stroke="black" points="310,-56.5 310,-75.5 372,-75.5 372,-56.5 310,-56.5"/>
<text text-anchor="middle" x="341" y="-63.5" font-family="Helvetica,sans-Serif" font-size="10.00">rollsum.h</text>
</a>
</g>
</g>
<!-- Node13&#45;&gt;Node14 -->
<g id="edge18" class="edge">
<title>Node13&#45;&gt;Node14</title>
<path fill="none" stroke="midnightblue" d="M341,-112.08C341,-105.01 341,-94.86 341,-85.99"/>
<polygon fill="midnightblue" stroke="midnightblue" points="344.5,-85.75 341,-75.75 337.5,-85.75 344.5,-85.75"/>
</g>
<!-- Node15 -->
<g id="node15" class="node">
<title>Node15</title>
<g id="a_node15"><a xlink:href="rabinkarp_8h.html" target="_top" xlink:title="The rabinkarp class implementation of the RabinKarp rollsum.">
<polygon fill="white" stroke="black" points="390,-56.5 390,-75.5 462,-75.5 462,-56.5 390,-56.5"/>
<text text-anchor="middle" x="426" y="-63.5" font-family="Helvetica,sans-Serif" font-size="10.00">rabinkarp.h</text>
</a>
</g>
</g>
<!-- Node13&#45;&gt;Node15 -->
<g id="edge21" class="edge">
<title>Node13&#45;&gt;Node15</title>
<path fill="none" stroke="midnightblue" d="M354.66,-112.32C367.92,-103.9 388.27,-90.97 403.85,-81.07"/>
<polygon fill="midnightblue" stroke="midnightblue" points="405.81,-83.97 412.38,-75.65 402.06,-78.06 405.81,-83.97"/>
</g>
<!-- Node16 -->
<g id="node16" class="node">
<title>Node16</title>
<g id="a_node16"><a xlink:href="hashtable_8h.html" target="_top" xlink:title="A generic open addressing hashtable.">
<polygon fill="white" stroke="black" points="218,-56.5 218,-75.5 292,-75.5 292,-56.5 218,-56.5"/>
<text text-anchor="middle" x="255" y="-63.5" font-family="Helvetica,sans-Serif" font-size="10.00">hashtable.h</text>
</a>
</g>
</g>
<!-- Node13&#45;&gt;Node16 -->
<g id="edge24" class="edge">
<title>Node13&#45;&gt;Node16</title>
<path fill="none" stroke="midnightblue" d="M327.18,-112.32C313.77,-103.9 293.18,-90.97 277.41,-81.07"/>
<polygon fill="midnightblue" stroke="midnightblue" points="279.11,-78.01 268.78,-75.65 275.39,-83.94 279.11,-78.01"/>
</g>
<!-- Node14&#45;&gt;Node7 -->
<g id="edge20" class="edge">
<title>Node14&#45;&gt;Node7</title>
<path fill="none" stroke="midnightblue" d="M356.58,-56.32C372,-47.74 395.81,-34.49 413.71,-24.52"/>
<polygon fill="midnightblue" stroke="midnightblue" points="415.42,-27.58 422.45,-19.65 412.01,-21.46 415.42,-27.58"/>
</g>
<!-- Node14&#45;&gt;Node11 -->
<g id="edge19" class="edge">
<title>Node14&#45;&gt;Node11</title>
<path fill="none" stroke="midnightblue" d="M320.4,-56.44C299.01,-47.56 265.32,-33.56 240.98,-23.45"/>
<polygon fill="midnightblue" stroke="midnightblue" points="242.08,-20.12 231.5,-19.52 239.39,-26.58 242.08,-20.12"/>
</g>
<!-- Node15&#45;&gt;Node7 -->
<g id="edge23" class="edge">
<title>Node15&#45;&gt;Node7</title>
<path fill="none" stroke="midnightblue" d="M427.98,-56.08C429.57,-48.93 431.86,-38.64 433.85,-29.69"/>
<polygon fill="midnightblue" stroke="midnightblue" points="437.3,-30.27 436.06,-19.75 430.47,-28.75 437.3,-30.27"/>
</g>
<!-- Node15&#45;&gt;Node11 -->
<g id="edge22" class="edge">
<title>Node15&#45;&gt;Node11</title>
<path fill="none" stroke="midnightblue" d="M391.93,-56.44C352.96,-46.66 289.33,-30.67 248.85,-20.51"/>
<polygon fill="midnightblue" stroke="midnightblue" points="249.64,-17.1 239.08,-18.05 247.93,-23.88 249.64,-17.1"/>
</g>
<!-- Node16&#45;&gt;Node2 -->
<g id="edge26" class="edge">
<title>Node16&#45;&gt;Node2</title>
<path fill="none" stroke="midnightblue" d="M223.63,-56.44C188.74,-46.93 132.39,-31.56 95.03,-21.37"/>
<polygon fill="midnightblue" stroke="midnightblue" points="95.59,-17.9 85.03,-18.64 93.75,-24.65 95.59,-17.9"/>
</g>
<!-- Node16&#45;&gt;Node11 -->
<g id="edge27" class="edge">
<title>Node16&#45;&gt;Node11</title>
<path fill="none" stroke="midnightblue" d="M247.73,-56.08C241.46,-48.38 232.21,-37.03 224.57,-27.65"/>
<polygon fill="midnightblue" stroke="midnightblue" points="227.16,-25.29 218.13,-19.75 221.73,-29.71 227.16,-25.29"/>
</g>
<!-- Node17 -->
<g id="node17" class="node">
<title>Node17</title>
<g id="a_node17"><a xlink:title=" ">
<polygon fill="white" stroke="#bfbfbf" points="290,-0.5 290,-19.5 352,-19.5 352,-0.5 290,-0.5"/>
<text text-anchor="middle" x="321" y="-7.5" font-family="Helvetica,sans-Serif" font-size="10.00">stdbool.h</text>
</a>
</g>
</g>
<!-- Node16&#45;&gt;Node17 -->
<g id="edge25" class="edge">
<title>Node16&#45;&gt;Node17</title>
<path fill="none" stroke="midnightblue" d="M265.6,-56.32C275.46,-48.26 290.35,-36.08 302.22,-26.37"/>
<polygon fill="midnightblue" stroke="midnightblue" points="304.68,-28.88 310.2,-19.83 300.25,-23.46 304.68,-28.88"/>
</g>
<!-- Node18&#45;&gt;Node5 -->
<g id="edge33" class="edge">
<title>Node18&#45;&gt;Node5</title>
<path fill="none" stroke="midnightblue" d="M514.19,-224.08C526.58,-197.72 563.15,-119.88 579.7,-84.66"/>
<polygon fill="midnightblue" stroke="midnightblue" points="582.89,-86.11 583.97,-75.57 576.55,-83.13 582.89,-86.11"/>
</g>
<!-- Node18&#45;&gt;Node10 -->
<g id="edge32" class="edge">
<title>Node18&#45;&gt;Node10</title>
<path fill="none" stroke="midnightblue" d="M500.84,-224.32C492.5,-216.42 479.97,-204.55 469.82,-194.94"/>
<polygon fill="midnightblue" stroke="midnightblue" points="471.99,-192.17 462.32,-187.83 467.18,-197.25 471.99,-192.17"/>
</g>
<!-- Node18&#45;&gt;Node11 -->
<g id="edge31" class="edge">
<title>Node18&#45;&gt;Node11</title>
<path fill="none" stroke="midnightblue" d="M482.93,-229.01C429.48,-220 308.67,-193.81 229,-132 205.24,-113.56 199.83,-104.75 191,-76 186.08,-59.99 192.75,-41.77 199.68,-28.7"/>
<polygon fill="midnightblue" stroke="midnightblue" points="202.84,-30.23 204.84,-19.83 196.79,-26.71 202.84,-30.23"/>
</g>
<!-- Node18&#45;&gt;Node17 -->
<g id="edge30" class="edge">
<title>Node18&#45;&gt;Node17</title>
<path fill="none" stroke="midnightblue" d="M511.12,-224.39C514.34,-195.64 520.42,-102.2 471,-56 441.52,-28.44 395.8,-17.71 362.58,-13.56"/>
<polygon fill="midnightblue" stroke="midnightblue" points="362.59,-10.04 352.27,-12.43 361.83,-17 362.59,-10.04"/>
</g>
<!-- Node20 -->
<g id="node20" class="node">
<title>Node20</title>
<g id="a_node20"><a xlink:title=" ">
<polygon fill="white" stroke="#bfbfbf" points="654.5,-168.5 654.5,-187.5 719.5,-187.5 719.5,-168.5 654.5,-168.5"/>
<text text-anchor="middle" x="687" y="-175.5" font-family="Helvetica,sans-Serif" font-size="10.00">inttypes.h</text>
</a>
</g>
</g>
<!-- Node19&#45;&gt;Node20 -->
<g id="edge35" class="edge">
<title>Node19&#45;&gt;Node20</title>
<path fill="none" stroke="midnightblue" d="M687,-224.08C687,-217.01 687,-206.86 687,-197.99"/>
<polygon fill="midnightblue" stroke="midnightblue" points="690.5,-197.75 687,-187.75 683.5,-197.75 690.5,-197.75"/>
</g>
<!-- Node21 -->
<g id="node21" class="node">
<title>Node21</title>
<g id="a_node21"><a xlink:href="config_8h_source.html" target="_top" xlink:title=" ">
<polygon fill="white" stroke="black" points="738,-168.5 738,-187.5 794,-187.5 794,-168.5 738,-168.5"/>
<text text-anchor="middle" x="766" y="-175.5" font-family="Helvetica,sans-Serif" font-size="10.00">config.h</text>
</a>
</g>
</g>
<!-- Node19&#45;&gt;Node21 -->
<g id="edge36" class="edge">
<title>Node19&#45;&gt;Node21</title>
<path fill="none" stroke="midnightblue" d="M699.69,-224.32C711.9,-215.98 730.58,-203.21 745,-193.35"/>
<polygon fill="midnightblue" stroke="midnightblue" points="747.06,-196.19 753.34,-187.65 743.11,-190.41 747.06,-196.19"/>
</g>
</g>
</svg>
