<?xml version="1.0" encoding="UTF-8" standalone="no"?>
<!DOCTYPE svg PUBLIC "-//W3C//DTD SVG 1.1//EN"
 "http://www.w3.org/Graphics/SVG/1.1/DTD/svg11.dtd">
<!-- Generated by graphviz version 2.43.0 (0)
 -->
<!-- Title: tube.c Pages: 1 -->
<svg width="740pt" height="308pt"
 viewBox="0.00 0.00 739.50 308.00" xmlns="http://www.w3.org/2000/svg" xmlns:xlink="http://www.w3.org/1999/xlink">
<g id="graph0" class="graph" transform="scale(1 1) rotate(0) translate(4 304)">
<title>tube.c</title>
<polygon fill="white" stroke="transparent" points="-4,4 -4,-304 735.5,-304 735.5,4 -4,4"/>
<!-- Node1 -->
<g id="node1" class="node">
<title>Node1</title>
<g id="a_node1"><a xlink:title="A somewhat elastic but fairly small buffer for data passing through a stream.">
<polygon fill="#bfbfbf" stroke="black" points="208.5,-280.5 208.5,-299.5 255.5,-299.5 255.5,-280.5 208.5,-280.5"/>
<text text-anchor="middle" x="232" y="-287.5" font-family="Helvetica,sans-Serif" font-size="10.00">tube.c</text>
</a>
</g>
</g>
<!-- Node2 -->
<g id="node2" class="node">
<title>Node2</title>
<g id="a_node2"><a xlink:href="config_8h_source.html" target="_top" xlink:title=" ">
<polygon fill="white" stroke="black" points="94,-168.5 94,-187.5 150,-187.5 150,-168.5 94,-168.5"/>
<text text-anchor="middle" x="122" y="-175.5" font-family="Helvetica,sans-Serif" font-size="10.00">config.h</text>
</a>
</g>
</g>
<!-- Node1&#45;&gt;Node2 -->
<g id="edge1" class="edge">
<title>Node1&#45;&gt;Node2</title>
<path fill="none" stroke="midnightblue" d="M208.33,-289.37C175.55,-288.43 117.27,-281.25 90,-244 78.7,-228.56 92.13,-208.51 104.89,-194.79"/>
<polygon fill="midnightblue" stroke="midnightblue" points="107.55,-197.08 112.13,-187.52 102.6,-192.14 107.55,-197.08"/>
</g>
<!-- Node3 -->
<g id="node3" class="node">
<title>Node3</title>
<g id="a_node3"><a xlink:title=" ">
<polygon fill="white" stroke="#bfbfbf" points="48,-0.5 48,-19.5 104,-19.5 104,-0.5 48,-0.5"/>
<text text-anchor="middle" x="76" y="-7.5" font-family="Helvetica,sans-Serif" font-size="10.00">assert.h</text>
</a>
</g>
</g>
<!-- Node1&#45;&gt;Node3 -->
<g id="edge2" class="edge">
<title>Node1&#45;&gt;Node3</title>
<path fill="none" stroke="midnightblue" d="M208.48,-288.54C149.5,-286.02 0,-270.6 0,-179 0,-179 0,-179 0,-121 0,-81.28 33.96,-45.5 56.48,-26.15"/>
<polygon fill="midnightblue" stroke="midnightblue" points="58.98,-28.63 64.46,-19.57 54.52,-23.24 58.98,-28.63"/>
</g>
<!-- Node4 -->
<g id="node4" class="node">
<title>Node4</title>
<g id="a_node4"><a xlink:title=" ">
<polygon fill="white" stroke="#bfbfbf" points="99.5,-224.5 99.5,-243.5 152.5,-243.5 152.5,-224.5 99.5,-224.5"/>
<text text-anchor="middle" x="126" y="-231.5" font-family="Helvetica,sans-Serif" font-size="10.00">stdlib.h</text>
</a>
</g>
</g>
<!-- Node1&#45;&gt;Node4 -->
<g id="edge3" class="edge">
<title>Node1&#45;&gt;Node4</title>
<path fill="none" stroke="midnightblue" d="M214.97,-280.32C197.97,-271.66 171.62,-258.24 152.01,-248.25"/>
<polygon fill="midnightblue" stroke="midnightblue" points="153.49,-245.08 142.99,-243.65 150.31,-251.31 153.49,-245.08"/>
</g>
<!-- Node5 -->
<g id="node5" class="node">
<title>Node5</title>
<g id="a_node5"><a xlink:title=" ">
<polygon fill="white" stroke="#bfbfbf" points="170.5,-224.5 170.5,-243.5 223.5,-243.5 223.5,-224.5 170.5,-224.5"/>
<text text-anchor="middle" x="197" y="-231.5" font-family="Helvetica,sans-Serif" font-size="10.00">string.h</text>
</a>
</g>
</g>
<!-- Node1&#45;&gt;Node5 -->
<g id="edge4" class="edge">
<title>Node1&#45;&gt;Node5</title>
<path fill="none" stroke="midnightblue" d="M226.22,-280.08C221.33,-272.53 214.17,-261.49 208.17,-252.23"/>
<polygon fill="midnightblue" stroke="midnightblue" points="211.05,-250.24 202.67,-243.75 205.17,-254.05 211.05,-250.24"/>
</g>
<!-- Node6 -->
<g id="node6" class="node">
<title>Node6</title>
<g id="a_node6"><a xlink:href="librsync_8h.html" target="_top" xlink:title="Public header for librsync.">
<polygon fill="white" stroke="black" points="556,-56.5 556,-75.5 620,-75.5 620,-56.5 556,-56.5"/>
<text text-anchor="middle" x="588" y="-63.5" font-family="Helvetica,sans-Serif" font-size="10.00">librsync.h</text>
</a>
</g>
</g>
<!-- Node1&#45;&gt;Node6 -->
<g id="edge5" class="edge">
<title>Node1&#45;&gt;Node6</title>
<path fill="none" stroke="midnightblue" d="M255.75,-288.41C315.18,-285.68 472.04,-270.6 563,-188 589.54,-163.9 590.8,-147.84 590,-112 589.81,-103.39 589.41,-93.86 589.02,-85.8"/>
<polygon fill="midnightblue" stroke="midnightblue" points="592.51,-85.43 588.5,-75.62 585.52,-85.79 592.51,-85.43"/>
</g>
<!-- Node11 -->
<g id="node11" class="node">
<title>Node11</title>
<g id="a_node11"><a xlink:href="job_8h.html" target="_top" xlink:title="Generic state&#45;machine interface.">
<polygon fill="white" stroke="black" points="300.5,-168.5 300.5,-187.5 341.5,-187.5 341.5,-168.5 300.5,-168.5"/>
<text text-anchor="middle" x="321" y="-175.5" font-family="Helvetica,sans-Serif" font-size="10.00">job.h</text>
</a>
</g>
</g>
<!-- Node1&#45;&gt;Node11 -->
<g id="edge10" class="edge">
<title>Node1&#45;&gt;Node11</title>
<path fill="none" stroke="midnightblue" d="M252.31,-280.45C267.76,-272.97 288.44,-260.68 301,-244 311.2,-230.46 316.25,-211.65 318.72,-197.75"/>
<polygon fill="midnightblue" stroke="midnightblue" points="322.18,-198.26 320.19,-187.85 315.26,-197.23 322.18,-198.26"/>
</g>
<!-- Node19 -->
<g id="node19" class="node">
<title>Node19</title>
<g id="a_node19"><a xlink:href="scoop_8h.html" target="_top" xlink:title="Manage librsync streams of IO.">
<polygon fill="white" stroke="black" points="348,-224.5 348,-243.5 402,-243.5 402,-224.5 348,-224.5"/>
<text text-anchor="middle" x="375" y="-231.5" font-family="Helvetica,sans-Serif" font-size="10.00">scoop.h</text>
</a>
</g>
</g>
<!-- Node1&#45;&gt;Node19 -->
<g id="edge30" class="edge">
<title>Node1&#45;&gt;Node19</title>
<path fill="none" stroke="midnightblue" d="M254.66,-280.44C278.4,-271.48 315.91,-257.31 342.74,-247.18"/>
<polygon fill="midnightblue" stroke="midnightblue" points="344.33,-250.32 352.45,-243.52 341.86,-243.77 344.33,-250.32"/>
</g>
<!-- Node20 -->
<g id="node20" class="node">
<title>Node20</title>
<g id="a_node20"><a xlink:href="trace_8h.html" target="_top" xlink:title="logging functions.">
<polygon fill="white" stroke="black" points="242,-224.5 242,-243.5 292,-243.5 292,-224.5 242,-224.5"/>
<text text-anchor="middle" x="267" y="-231.5" font-family="Helvetica,sans-Serif" font-size="10.00">trace.h</text>
</a>
</g>
</g>
<!-- Node1&#45;&gt;Node20 -->
<g id="edge35" class="edge">
<title>Node1&#45;&gt;Node20</title>
<path fill="none" stroke="midnightblue" d="M237.78,-280.08C242.67,-272.53 249.83,-261.49 255.83,-252.23"/>
<polygon fill="midnightblue" stroke="midnightblue" points="258.83,-254.05 261.33,-243.75 252.95,-250.24 258.83,-254.05"/>
</g>
<!-- Node7 -->
<g id="node7" class="node">
<title>Node7</title>
<g id="a_node7"><a xlink:title=" ">
<polygon fill="white" stroke="#bfbfbf" points="496,-0.5 496,-19.5 546,-19.5 546,-0.5 496,-0.5"/>
<text text-anchor="middle" x="521" y="-7.5" font-family="Helvetica,sans-Serif" font-size="10.00">stdio.h</text>
</a>
</g>
</g>
<!-- Node6&#45;&gt;Node7 -->
<g id="edge6" class="edge">
<title>Node6&#45;&gt;Node7</title>
<path fill="none" stroke="midnightblue" d="M577.24,-56.32C567.23,-48.26 552.11,-36.08 540.07,-26.37"/>
<polygon fill="midnightblue" stroke="midnightblue" points="541.94,-23.38 531.96,-19.83 537.55,-28.83 541.94,-23.38"/>
</g>
<!-- Node8 -->
<g id="node8" class="node">
<title>Node8</title>
<g id="a_node8"><a xlink:title=" ">
<polygon fill="white" stroke="#bfbfbf" points="392.5,-0.5 392.5,-19.5 445.5,-19.5 445.5,-0.5 392.5,-0.5"/>
<text text-anchor="middle" x="419" y="-7.5" font-family="Helvetica,sans-Serif" font-size="10.00">stdint.h</text>
</a>
</g>
</g>
<!-- Node6&#45;&gt;Node8 -->
<g id="edge7" class="edge">
<title>Node6&#45;&gt;Node8</title>
<path fill="none" stroke="midnightblue" d="M561.22,-56.44C532.67,-47.32 487.27,-32.81 455.46,-22.65"/>
<polygon fill="midnightblue" stroke="midnightblue" points="456.24,-19.23 445.65,-19.52 454.11,-25.89 456.24,-19.23"/>
</g>
<!-- Node9 -->
<g id="node9" class="node">
<title>Node9</title>
<g id="a_node9"><a xlink:title=" ">
<polygon fill="white" stroke="#bfbfbf" points="564,-0.5 564,-19.5 612,-19.5 612,-0.5 564,-0.5"/>
<text text-anchor="middle" x="588" y="-7.5" font-family="Helvetica,sans-Serif" font-size="10.00">time.h</text>
</a>
</g>
</g>
<!-- Node6&#45;&gt;Node9 -->
<g id="edge8" class="edge">
<title>Node6&#45;&gt;Node9</title>
<path fill="none" stroke="midnightblue" d="M588,-56.08C588,-49.01 588,-38.86 588,-29.99"/>
<polygon fill="midnightblue" stroke="midnightblue" points="591.5,-29.75 588,-19.75 584.5,-29.75 591.5,-29.75"/>
</g>
<!-- Node10 -->
<g id="node10" class="node">
<title>Node10</title>
<g id="a_node10"><a xlink:href="librsync__export_8h_source.html" target="_top" xlink:title=" ">
<polygon fill="white" stroke="black" points="630.5,-0.5 630.5,-19.5 731.5,-19.5 731.5,-0.5 630.5,-0.5"/>
<text text-anchor="middle" x="681" y="-7.5" font-family="Helvetica,sans-Serif" font-size="10.00">librsync_export.h</text>
</a>
</g>
</g>
<!-- Node6&#45;&gt;Node10 -->
<g id="edge9" class="edge">
<title>Node6&#45;&gt;Node10</title>
<path fill="none" stroke="midnightblue" d="M602.94,-56.32C617.59,-47.82 640.13,-34.73 657.24,-24.8"/>
<polygon fill="midnightblue" stroke="midnightblue" points="659.2,-27.7 666.1,-19.65 655.69,-21.65 659.2,-27.7"/>
</g>
<!-- Node11&#45;&gt;Node3 -->
<g id="edge11" class="edge">
<title>Node11&#45;&gt;Node3</title>
<path fill="none" stroke="midnightblue" d="M300.31,-170.56C265.62,-159.67 198.58,-138.2 189,-132 144.93,-103.5 106.25,-54.11 87.68,-28.12"/>
<polygon fill="midnightblue" stroke="midnightblue" points="90.38,-25.87 81.78,-19.68 84.64,-29.88 90.38,-25.87"/>
</g>
<!-- Node11&#45;&gt;Node6 -->
<g id="edge29" class="edge">
<title>Node11&#45;&gt;Node6</title>
<path fill="none" stroke="midnightblue" d="M341.72,-172.21C370.95,-165.13 425.67,-150.66 470,-132 504.86,-117.33 542.77,-95.25 565.96,-80.98"/>
<polygon fill="midnightblue" stroke="midnightblue" points="568.02,-83.83 574.66,-75.57 564.32,-77.88 568.02,-83.83"/>
</g>
<!-- Node12 -->
<g id="node12" class="node">
<title>Node12</title>
<g id="a_node12"><a xlink:title=" ">
<polygon fill="white" stroke="#bfbfbf" points="209,-0.5 209,-19.5 265,-19.5 265,-0.5 209,-0.5"/>
<text text-anchor="middle" x="237" y="-7.5" font-family="Helvetica,sans-Serif" font-size="10.00">stddef.h</text>
</a>
</g>
</g>
<!-- Node11&#45;&gt;Node12 -->
<g id="edge12" class="edge">
<title>Node11&#45;&gt;Node12</title>
<path fill="none" stroke="midnightblue" d="M300.27,-170.96C264.59,-159.3 192.55,-129.97 163,-76 150.69,-53.52 178.15,-35.09 203.04,-23.67"/>
<polygon fill="midnightblue" stroke="midnightblue" points="204.57,-26.82 212.36,-19.64 201.79,-20.39 204.57,-26.82"/>
</g>
<!-- Node13 -->
<g id="node13" class="node">
<title>Node13</title>
<g id="a_node13"><a xlink:href="mdfour_8h.html" target="_top" xlink:title="MD4 message digest algorithm.">
<polygon fill="white" stroke="black" points="400.5,-112.5 400.5,-131.5 461.5,-131.5 461.5,-112.5 400.5,-112.5"/>
<text text-anchor="middle" x="431" y="-119.5" font-family="Helvetica,sans-Serif" font-size="10.00">mdfour.h</text>
</a>
</g>
</g>
<!-- Node11&#45;&gt;Node13 -->
<g id="edge13" class="edge">
<title>Node11&#45;&gt;Node13</title>
<path fill="none" stroke="midnightblue" d="M338.67,-168.32C356.39,-159.62 383.9,-146.12 404.29,-136.11"/>
<polygon fill="midnightblue" stroke="midnightblue" points="405.94,-139.2 413.37,-131.65 402.85,-132.92 405.94,-139.2"/>
</g>
<!-- Node14 -->
<g id="node14" class="node">
<title>Node14</title>
<g id="a_node14"><a xlink:href="checksum_8h.html" target="_top" xlink:title="Abstract wrappers around different weaksum and strongsum implementations.">
<polygon fill="white" stroke="black" points="265.5,-112.5 265.5,-131.5 340.5,-131.5 340.5,-112.5 265.5,-112.5"/>
<text text-anchor="middle" x="303" y="-119.5" font-family="Helvetica,sans-Serif" font-size="10.00">checksum.h</text>
</a>
</g>
</g>
<!-- Node11&#45;&gt;Node14 -->
<g id="edge15" class="edge">
<title>Node11&#45;&gt;Node14</title>
<path fill="none" stroke="midnightblue" d="M318.03,-168.08C315.62,-160.85 312.14,-150.41 309.13,-141.4"/>
<polygon fill="midnightblue" stroke="midnightblue" points="312.4,-140.13 305.92,-131.75 305.76,-142.34 312.4,-140.13"/>
</g>
<!-- Node13&#45;&gt;Node8 -->
<g id="edge14" class="edge">
<title>Node13&#45;&gt;Node8</title>
<path fill="none" stroke="midnightblue" d="M441.26,-112.42C454.54,-100.21 474.96,-76.98 466,-56 460.85,-43.95 450.72,-33.58 441.17,-25.84"/>
<polygon fill="midnightblue" stroke="midnightblue" points="443.17,-22.96 433.08,-19.74 438.96,-28.55 443.17,-22.96"/>
</g>
<!-- Node14&#45;&gt;Node3 -->
<g id="edge16" class="edge">
<title>Node14&#45;&gt;Node3</title>
<path fill="none" stroke="midnightblue" d="M265.42,-112.53C236.44,-105.16 195.9,-92.97 163,-76 136.75,-62.45 110.04,-41.14 93.27,-26.64"/>
<polygon fill="midnightblue" stroke="midnightblue" points="95.27,-23.74 85.46,-19.76 90.65,-29 95.27,-23.74"/>
</g>
<!-- Node14&#45;&gt;Node6 -->
<g id="edge18" class="edge">
<title>Node14&#45;&gt;Node6</title>
<path fill="none" stroke="midnightblue" d="M340.55,-113.88C393.63,-103.83 490.29,-85.51 545.79,-75"/>
<polygon fill="midnightblue" stroke="midnightblue" points="546.48,-78.43 555.66,-73.13 545.18,-71.55 546.48,-78.43"/>
</g>
<!-- Node14&#45;&gt;Node12 -->
<g id="edge17" class="edge">
<title>Node14&#45;&gt;Node12</title>
<path fill="none" stroke="midnightblue" d="M265.34,-119.5C234.38,-116.05 192.28,-105.73 171,-76 156.54,-55.79 183.57,-36.3 207.28,-24.02"/>
<polygon fill="midnightblue" stroke="midnightblue" points="209,-27.08 216.44,-19.53 205.92,-20.79 209,-27.08"/>
</g>
<!-- Node15 -->
<g id="node15" class="node">
<title>Node15</title>
<g id="a_node15"><a xlink:href="rollsum_8h.html" target="_top" xlink:title="The Rollsum class implementation of the original rsync rollsum.">
<polygon fill="white" stroke="black" points="272,-56.5 272,-75.5 334,-75.5 334,-56.5 272,-56.5"/>
<text text-anchor="middle" x="303" y="-63.5" font-family="Helvetica,sans-Serif" font-size="10.00">rollsum.h</text>
</a>
</g>
</g>
<!-- Node14&#45;&gt;Node15 -->
<g id="edge19" class="edge">
<title>Node14&#45;&gt;Node15</title>
<path fill="none" stroke="midnightblue" d="M303,-112.08C303,-105.01 303,-94.86 303,-85.99"/>
<polygon fill="midnightblue" stroke="midnightblue" points="306.5,-85.75 303,-75.75 299.5,-85.75 306.5,-85.75"/>
</g>
<!-- Node16 -->
<g id="node16" class="node">
<title>Node16</title>
<g id="a_node16"><a xlink:href="rabinkarp_8h.html" target="_top" xlink:title="The rabinkarp class implementation of the RabinKarp rollsum.">
<polygon fill="white" stroke="black" points="352,-56.5 352,-75.5 424,-75.5 424,-56.5 352,-56.5"/>
<text text-anchor="middle" x="388" y="-63.5" font-family="Helvetica,sans-Serif" font-size="10.00">rabinkarp.h</text>
</a>
</g>
</g>
<!-- Node14&#45;&gt;Node16 -->
<g id="edge22" class="edge">
<title>Node14&#45;&gt;Node16</title>
<path fill="none" stroke="midnightblue" d="M316.66,-112.32C329.92,-103.9 350.27,-90.97 365.85,-81.07"/>
<polygon fill="midnightblue" stroke="midnightblue" points="367.81,-83.97 374.38,-75.65 364.06,-78.06 367.81,-83.97"/>
</g>
<!-- Node17 -->
<g id="node17" class="node">
<title>Node17</title>
<g id="a_node17"><a xlink:href="hashtable_8h.html" target="_top" xlink:title="A generic open addressing hashtable.">
<polygon fill="white" stroke="black" points="180,-56.5 180,-75.5 254,-75.5 254,-56.5 180,-56.5"/>
<text text-anchor="middle" x="217" y="-63.5" font-family="Helvetica,sans-Serif" font-size="10.00">hashtable.h</text>
</a>
</g>
</g>
<!-- Node14&#45;&gt;Node17 -->
<g id="edge25" class="edge">
<title>Node14&#45;&gt;Node17</title>
<path fill="none" stroke="midnightblue" d="M289.18,-112.32C275.77,-103.9 255.18,-90.97 239.41,-81.07"/>
<polygon fill="midnightblue" stroke="midnightblue" points="241.11,-78.01 230.78,-75.65 237.39,-83.94 241.11,-78.01"/>
</g>
<!-- Node15&#45;&gt;Node8 -->
<g id="edge21" class="edge">
<title>Node15&#45;&gt;Node8</title>
<path fill="none" stroke="midnightblue" d="M321.38,-56.44C340.22,-47.68 369.73,-33.94 391.38,-23.86"/>
<polygon fill="midnightblue" stroke="midnightblue" points="393.12,-26.91 400.71,-19.52 390.16,-20.56 393.12,-26.91"/>
</g>
<!-- Node15&#45;&gt;Node12 -->
<g id="edge20" class="edge">
<title>Node15&#45;&gt;Node12</title>
<path fill="none" stroke="midnightblue" d="M292.4,-56.32C282.54,-48.26 267.65,-36.08 255.78,-26.37"/>
<polygon fill="midnightblue" stroke="midnightblue" points="257.75,-23.46 247.8,-19.83 253.32,-28.88 257.75,-23.46"/>
</g>
<!-- Node16&#45;&gt;Node8 -->
<g id="edge24" class="edge">
<title>Node16&#45;&gt;Node8</title>
<path fill="none" stroke="midnightblue" d="M393.12,-56.08C397.41,-48.61 403.66,-37.72 408.94,-28.52"/>
<polygon fill="midnightblue" stroke="midnightblue" points="412.03,-30.17 413.98,-19.75 405.96,-26.68 412.03,-30.17"/>
</g>
<!-- Node16&#45;&gt;Node12 -->
<g id="edge23" class="edge">
<title>Node16&#45;&gt;Node12</title>
<path fill="none" stroke="midnightblue" d="M364.07,-56.44C338.78,-47.4 298.7,-33.06 270.32,-22.92"/>
<polygon fill="midnightblue" stroke="midnightblue" points="271.41,-19.59 260.81,-19.52 269.05,-26.18 271.41,-19.59"/>
</g>
<!-- Node17&#45;&gt;Node3 -->
<g id="edge27" class="edge">
<title>Node17&#45;&gt;Node3</title>
<path fill="none" stroke="midnightblue" d="M194.66,-56.44C171.25,-47.48 134.26,-33.31 107.81,-23.18"/>
<polygon fill="midnightblue" stroke="midnightblue" points="108.83,-19.82 98.24,-19.52 106.32,-26.36 108.83,-19.82"/>
</g>
<!-- Node17&#45;&gt;Node12 -->
<g id="edge28" class="edge">
<title>Node17&#45;&gt;Node12</title>
<path fill="none" stroke="midnightblue" d="M220.3,-56.08C222.98,-48.85 226.85,-38.41 230.19,-29.4"/>
<polygon fill="midnightblue" stroke="midnightblue" points="233.57,-30.34 233.76,-19.75 227,-27.91 233.57,-30.34"/>
</g>
<!-- Node18 -->
<g id="node18" class="node">
<title>Node18</title>
<g id="a_node18"><a xlink:title=" ">
<polygon fill="white" stroke="#bfbfbf" points="303,-0.5 303,-19.5 365,-19.5 365,-0.5 303,-0.5"/>
<text text-anchor="middle" x="334" y="-7.5" font-family="Helvetica,sans-Serif" font-size="10.00">stdbool.h</text>
</a>
</g>
</g>
<!-- Node17&#45;&gt;Node18 -->
<g id="edge26" class="edge">
<title>Node17&#45;&gt;Node18</title>
<path fill="none" stroke="midnightblue" d="M235.54,-56.44C254.62,-47.64 284.57,-33.81 306.44,-23.72"/>
<polygon fill="midnightblue" stroke="midnightblue" points="307.93,-26.88 315.55,-19.52 305,-20.53 307.93,-26.88"/>
</g>
<!-- Node19&#45;&gt;Node6 -->
<g id="edge34" class="edge">
<title>Node19&#45;&gt;Node6</title>
<path fill="none" stroke="midnightblue" d="M402.25,-232.95C438.57,-231.43 502.81,-223.45 542,-188 571.9,-160.96 582.48,-112.4 586.14,-85.76"/>
<polygon fill="midnightblue" stroke="midnightblue" points="589.62,-86.16 587.32,-75.81 582.67,-85.33 589.62,-86.16"/>
</g>
<!-- Node19&#45;&gt;Node11 -->
<g id="edge33" class="edge">
<title>Node19&#45;&gt;Node11</title>
<path fill="none" stroke="midnightblue" d="M366.08,-224.08C358.22,-216.22 346.57,-204.57 337.08,-195.08"/>
<polygon fill="midnightblue" stroke="midnightblue" points="339.3,-192.35 329.75,-187.75 334.35,-197.3 339.3,-192.35"/>
</g>
<!-- Node19&#45;&gt;Node12 -->
<g id="edge32" class="edge">
<title>Node19&#45;&gt;Node12</title>
<path fill="none" stroke="midnightblue" d="M374.14,-224.45C372.45,-203.74 370.5,-149.81 391,-112 405.83,-84.65 452.38,-80.34 433,-56 423.17,-43.65 329.42,-26.29 275.22,-17.17"/>
<polygon fill="midnightblue" stroke="midnightblue" points="275.7,-13.7 265.26,-15.51 274.55,-20.6 275.7,-13.7"/>
</g>
<!-- Node19&#45;&gt;Node18 -->
<g id="edge31" class="edge">
<title>Node19&#45;&gt;Node18</title>
<path fill="none" stroke="midnightblue" d="M388.02,-224.31C409.91,-208.82 453.32,-174.07 470,-132 476.44,-115.74 478.13,-71.73 466,-56 454.63,-41.25 409.27,-27.98 374.87,-19.74"/>
<polygon fill="midnightblue" stroke="midnightblue" points="375.58,-16.31 365.05,-17.45 373.99,-23.13 375.58,-16.31"/>
</g>
<!-- Node20&#45;&gt;Node2 -->
<g id="edge37" class="edge">
<title>Node20&#45;&gt;Node2</title>
<path fill="none" stroke="midnightblue" d="M244.02,-224.44C219.84,-215.44 181.58,-201.19 154.35,-191.05"/>
<polygon fill="midnightblue" stroke="midnightblue" points="155.46,-187.73 144.87,-187.52 153.02,-194.29 155.46,-187.73"/>
</g>
<!-- Node21 -->
<g id="node21" class="node">
<title>Node21</title>
<g id="a_node21"><a xlink:title=" ">
<polygon fill="white" stroke="#bfbfbf" points="217.5,-168.5 217.5,-187.5 282.5,-187.5 282.5,-168.5 217.5,-168.5"/>
<text text-anchor="middle" x="250" y="-175.5" font-family="Helvetica,sans-Serif" font-size="10.00">inttypes.h</text>
</a>
</g>
</g>
<!-- Node20&#45;&gt;Node21 -->
<g id="edge36" class="edge">
<title>Node20&#45;&gt;Node21</title>
<path fill="none" stroke="midnightblue" d="M264.19,-224.08C261.92,-216.85 258.63,-206.41 255.79,-197.4"/>
<polygon fill="midnightblue" stroke="midnightblue" points="259.1,-196.24 252.75,-187.75 252.42,-198.34 259.1,-196.24"/>
</g>
</g>
</svg>
