<?xml version="1.0" encoding="UTF-8" standalone="no"?>
<!DOCTYPE svg PUBLIC "-//W3C//DTD SVG 1.1//EN"
 "http://www.w3.org/Graphics/SVG/1.1/DTD/svg11.dtd">
<!-- Generated by graphviz version 2.43.0 (0)
 -->
<!-- Title: util.h Pages: 1 -->
<svg width="556pt" height="84pt"
 viewBox="0.00 0.00 555.50 84.00" xmlns="http://www.w3.org/2000/svg" xmlns:xlink="http://www.w3.org/1999/xlink">
<g id="graph0" class="graph" transform="scale(1 1) rotate(0) translate(4 80)">
<title>util.h</title>
<polygon fill="white" stroke="transparent" points="-4,4 -4,-80 551.5,-80 551.5,4 -4,4"/>
<!-- Node1 -->
<g id="node1" class="node">
<title>Node1</title>
<g id="a_node1"><a xlink:title="Misc utility functions used by librsync.">
<polygon fill="#bfbfbf" stroke="black" points="252.5,-56.5 252.5,-75.5 293.5,-75.5 293.5,-56.5 252.5,-56.5"/>
<text text-anchor="middle" x="273" y="-63.5" font-family="Helvetica,sans-Serif" font-size="10.00">util.h</text>
</a>
</g>
</g>
<!-- Node2 -->
<g id="node2" class="node">
<title>Node2</title>
<g id="a_node2"><a xlink:href="buf_8c_source.html" target="_top" xlink:title=" ">
<polygon fill="white" stroke="black" points="0,-0.5 0,-19.5 40,-19.5 40,-0.5 0,-0.5"/>
<text text-anchor="middle" x="20" y="-7.5" font-family="Helvetica,sans-Serif" font-size="10.00">buf.c</text>
</a>
</g>
</g>
<!-- Node1&#45;&gt;Node2 -->
<g id="edge1" class="edge">
<title>Node1&#45;&gt;Node2</title>
<path fill="none" stroke="midnightblue" d="M242.56,-59.91C199.26,-52.43 117.53,-37.47 49,-20 46.14,-19.27 43.14,-18.43 40.21,-17.56"/>
<polygon fill="midnightblue" stroke="midnightblue" points="242.01,-63.36 252.46,-61.6 243.19,-56.46 242.01,-63.36"/>
</g>
<!-- Node3 -->
<g id="node3" class="node">
<title>Node3</title>
<g id="a_node3"><a xlink:href="job_8c_source.html" target="_top" xlink:title=" ">
<polygon fill="white" stroke="black" points="58,-0.5 58,-19.5 98,-19.5 98,-0.5 58,-0.5"/>
<text text-anchor="middle" x="78" y="-7.5" font-family="Helvetica,sans-Serif" font-size="10.00">job.c</text>
</a>
</g>
</g>
<!-- Node1&#45;&gt;Node3 -->
<g id="edge2" class="edge">
<title>Node1&#45;&gt;Node3</title>
<path fill="none" stroke="midnightblue" d="M242.45,-57.07C209.08,-48.33 154.09,-33.68 107,-20 104.17,-19.18 101.18,-18.28 98.25,-17.39"/>
<polygon fill="midnightblue" stroke="midnightblue" points="241.93,-60.55 252.49,-59.7 243.7,-53.78 241.93,-60.55"/>
</g>
<!-- Node4 -->
<g id="node4" class="node">
<title>Node4</title>
<g id="a_node4"><a xlink:href="mksum_8c.html" target="_top" xlink:title="Generate file signatures.">
<polygon fill="white" stroke="black" points="116,-0.5 116,-19.5 178,-19.5 178,-0.5 116,-0.5"/>
<text text-anchor="middle" x="147" y="-7.5" font-family="Helvetica,sans-Serif" font-size="10.00">mksum.c</text>
</a>
</g>
</g>
<!-- Node1&#45;&gt;Node4 -->
<g id="edge3" class="edge">
<title>Node1&#45;&gt;Node4</title>
<path fill="none" stroke="midnightblue" d="M243.84,-52.5C220.22,-42.38 187.57,-28.39 166.87,-19.52"/>
<polygon fill="midnightblue" stroke="midnightblue" points="242.46,-55.72 253.03,-56.44 245.22,-49.29 242.46,-55.72"/>
</g>
<!-- Node5 -->
<g id="node5" class="node">
<title>Node5</title>
<g id="a_node5"><a xlink:href="readsums_8c.html" target="_top" xlink:title="Load signatures from a file.">
<polygon fill="white" stroke="black" points="196.5,-0.5 196.5,-19.5 269.5,-19.5 269.5,-0.5 196.5,-0.5"/>
<text text-anchor="middle" x="233" y="-7.5" font-family="Helvetica,sans-Serif" font-size="10.00">readsums.c</text>
</a>
</g>
</g>
<!-- Node1&#45;&gt;Node5 -->
<g id="edge4" class="edge">
<title>Node1&#45;&gt;Node5</title>
<path fill="none" stroke="midnightblue" d="M260.3,-47.86C253.37,-38.5 245.09,-27.33 239.48,-19.75"/>
<polygon fill="midnightblue" stroke="midnightblue" points="257.63,-50.13 266.39,-56.08 263.25,-45.96 257.63,-50.13"/>
</g>
<!-- Node6 -->
<g id="node6" class="node">
<title>Node6</title>
<g id="a_node6"><a xlink:href="scoop_8c.html" target="_top" xlink:title="This file deals with readahead from caller&#45;supplied buffers.">
<polygon fill="white" stroke="black" points="287.5,-0.5 287.5,-19.5 340.5,-19.5 340.5,-0.5 287.5,-0.5"/>
<text text-anchor="middle" x="314" y="-7.5" font-family="Helvetica,sans-Serif" font-size="10.00">scoop.c</text>
</a>
</g>
</g>
<!-- Node1&#45;&gt;Node6 -->
<g id="edge5" class="edge">
<title>Node1&#45;&gt;Node6</title>
<path fill="none" stroke="midnightblue" d="M286.02,-47.86C293.12,-38.5 301.6,-27.33 307.36,-19.75"/>
<polygon fill="midnightblue" stroke="midnightblue" points="283.03,-46 279.77,-56.08 288.61,-50.24 283.03,-46"/>
</g>
<!-- Node7 -->
<g id="node7" class="node">
<title>Node7</title>
<g id="a_node7"><a xlink:href="sumset_8c_source.html" target="_top" xlink:title=" ">
<polygon fill="white" stroke="black" points="358.5,-0.5 358.5,-19.5 419.5,-19.5 419.5,-0.5 358.5,-0.5"/>
<text text-anchor="middle" x="389" y="-7.5" font-family="Helvetica,sans-Serif" font-size="10.00">sumset.c</text>
</a>
</g>
</g>
<!-- Node1&#45;&gt;Node7 -->
<g id="edge6" class="edge">
<title>Node1&#45;&gt;Node7</title>
<path fill="none" stroke="midnightblue" d="M300.72,-52.1C322.39,-42.01 351.9,-28.27 370.71,-19.52"/>
<polygon fill="midnightblue" stroke="midnightblue" points="298.97,-49.05 291.38,-56.44 301.92,-55.4 298.97,-49.05"/>
</g>
<!-- Node8 -->
<g id="node8" class="node">
<title>Node8</title>
<g id="a_node8"><a xlink:href="trace_8c_source.html" target="_top" xlink:title=" ">
<polygon fill="white" stroke="black" points="438,-0.5 438,-19.5 488,-19.5 488,-0.5 438,-0.5"/>
<text text-anchor="middle" x="463" y="-7.5" font-family="Helvetica,sans-Serif" font-size="10.00">trace.c</text>
</a>
</g>
</g>
<!-- Node1&#45;&gt;Node8 -->
<g id="edge7" class="edge">
<title>Node1&#45;&gt;Node8</title>
<path fill="none" stroke="midnightblue" d="M303.5,-56.33C340.78,-45.74 403.16,-28.01 437.83,-18.15"/>
<polygon fill="midnightblue" stroke="midnightblue" points="302.36,-53.02 293.7,-59.12 304.27,-59.75 302.36,-53.02"/>
</g>
<!-- Node9 -->
<g id="node9" class="node">
<title>Node9</title>
<g id="a_node9"><a xlink:href="util_8c_source.html" target="_top" xlink:title=" ">
<polygon fill="white" stroke="black" points="506.5,-0.5 506.5,-19.5 547.5,-19.5 547.5,-0.5 506.5,-0.5"/>
<text text-anchor="middle" x="527" y="-7.5" font-family="Helvetica,sans-Serif" font-size="10.00">util.c</text>
</a>
</g>
</g>
<!-- Node1&#45;&gt;Node9 -->
<g id="edge8" class="edge">
<title>Node1&#45;&gt;Node9</title>
<path fill="none" stroke="midnightblue" d="M303.42,-59.82C346.69,-52.24 428.39,-37.14 497,-20 500.06,-19.24 503.27,-18.36 506.41,-17.45"/>
<polygon fill="midnightblue" stroke="midnightblue" points="302.78,-56.38 293.53,-61.54 303.98,-63.27 302.78,-56.38"/>
</g>
</g>
</svg>
